<?xml version="1.0" encoding="UTF-8"?>
<svg width="426px" height="508px" viewBox="0 0 426 508" version="1.1" xmlns="http://www.w3.org/2000/svg" xmlns:xlink="http://www.w3.org/1999/xlink">
    <title>Slice 1</title>
    <g id="Page-1" stroke="none" stroke-width="1" fill="none" fill-rule="evenodd">
        <g id="about-livecom-header" fill-rule="nonzero">
            <path d="M253,120.71977 L250.212121,120.71977 L250.212121,44.2554737 C250.21214,19.8138752 230.421966,0 206.009525,0 L44.2027564,0 C19.7903113,0 0,19.8137248 0,44.2553271 L0,463.744526 C0,488.186124 19.7901623,508 44.202603,508 L206.009337,508 C230.421778,508 250.21202,488.186278 250.212093,463.74468 L250.212093,175.148359 L253,175.148359 L253,120.71977 Z" id="Path" fill="#3F3D56"></path>
            <path d="M241,44.0527918 L241,462.947191 C241,479.443975 228.832588,493.415758 212.484995,495.685859 C210.97636,495.89657 209.454826,496 207.931534,496 L45.0614822,496 C43.5381902,496 42.0166558,495.89657 40.5080207,495.685859 C24.163186,493.41262 11.9976343,479.441676 12,462.947191 L12,44.0527918 C12,25.7983843 26.8054019,11 45.068466,11 L64.8257396,11 C62.8467222,15.842081 63.4107872,21.3513444 66.3300177,25.6923945 C69.2492483,30.0334446 74.1400518,32.6358591 79.3730711,32.6326508 L172.230162,32.6326508 C177.462679,32.6354106 182.352687,30.0324534 185.270672,25.6911711 C188.188657,21.3498888 188.751075,15.8409066 186.770509,11 L207.931569,11 C226.194621,11 241,25.7983963 241,44.0527918 L241,44.0527918 Z" id="Path" fill="#FFFFFF"></path>
            <path d="M241,357 L241,463.240704 C241,479.747881 228.832588,493.728468 212.484995,496 L40.5080207,496 C24.163186,493.725328 11.9976343,479.745582 12,463.240704 L12,357 L241,357 Z" id="Path" fill="#E6E6E6"></path>
            <circle id="Oval" fill="#FFFFFF" cx="127" cy="427" r="22"></circle>
            <polygon id="Path" fill="#E6E6E6" points="140 426.700138 128.300553 426.700138 128.300553 415 125.700138 415 125.700138 426.700138 114 426.700138 114 429.299862 125.700138 429.299862 125.700138 441 128.300553 441 128.300553 429.299862 140 429.299862"></polygon>
            <path d="M166,289 L166,308.440676 L155.866676,320 C155.866676,320 151.600015,318.423726 151.600015,307.915258 L150,292.677967 L166,289 Z" id="Path" fill="#FFB9B9"></path>
            <path d="M154.999505,308.532424 C154.999505,308.532424 171.535322,297.287444 172.06873,293.539068 C172.602137,289.790692 187.928449,272.917736 192.338469,283.365002 C196.500526,293.224855 179.66228,301.67655 179.66228,301.67655 C179.66228,301.67655 167.801455,323.52578 159.800251,322.990316 C151.799046,322.454852 151.799018,312.280765 154.999505,308.532424 Z" id="Path" fill="#FFB9B9"></path>
            <polygon id="Path" fill="#FFB9B9" points="146.500041 428 145 438 153 435.777291 153 428"></polygon>
            <path d="M147.040489,432.904441 C147.040489,432.904441 157.004495,427.024473 157.410574,429.696088 C157.816654,432.367704 162.127151,442.564909 164.282372,443.638291 C166.437592,444.711674 169.131651,456.518943 164.282372,455.982255 C160.526559,455.566588 146.751095,448.390056 140.729635,445.174736 C139.190499,444.348377 138.569106,442.467216 139.31494,440.891991 C139.668103,440.241294 139.911684,439.537286 140.035976,438.808022 C140.03599,437.734682 147.040489,432.904441 147.040489,432.904441 Z" id="Path" fill="#2F2E41"></path>
            <path d="M142.814592,325.479337 C142.814592,325.479337 181.454816,343.497937 177.749599,357.276851 C174.044381,371.055766 160.28211,429.351245 160.28211,429.351245 C160.28211,429.351245 144.931864,433.060943 143.873232,429.351245 C142.814599,425.641547 153.930293,367.876035 152.87164,365.756188 C151.812986,363.636342 132.228218,349.857427 132.228218,349.857427 L92,332.898726 L108.93819,317 L142.814592,325.479337 Z" id="Path" fill="#2F2E41"></path>
            <polygon id="Path" fill="#FFB9B9" points="172.153683 431 177 443.266737 168.384561 447 163 437.400281"></polygon>
            <path d="M143.074418,238.593967 C143.074418,238.593967 138.259532,244.916108 142.004442,248.077188 C145.749352,251.238269 143.074418,262.828864 143.074418,262.828864 L138.259532,276 L119,272.312093 L119,250.711443 L120.069983,240.174528 C120.069983,240.174528 129.699749,231.218153 130.769747,224.369165 C131.839744,217.520177 143.074418,238.593967 143.074418,238.593967 Z" id="Path" fill="#FFB9B9"></path>
            <path d="M111.765933,322 C111.765933,322 136.716374,349.569454 136.716374,350.629806 C136.716374,351.690158 149.987849,373.427649 149.987849,373.427649 L176,431.217457 C176,431.217457 165.913659,445.002177 161.66676,443.941819 C157.419861,442.88146 127.160839,381.380392 127.160839,381.380392 C127.160839,381.380392 121.852231,367.595672 107.519006,364.414582 C93.1857801,361.233491 82.0377025,350.099658 87.3462826,337.375304 C92.6548627,324.650949 111.765933,322 111.765933,322 Z" id="Path" fill="#2F2E41"></path>
            <circle id="Oval" fill="#FFB9B9" cx="143" cy="226" r="17"></circle>
            <path d="M142.814795,253.178105 C142.814795,253.178105 140.691342,265.360873 138.567888,266.420246 C136.444434,267.479619 134.851853,271.187424 130.074067,265.890559 C125.29628,260.593695 121.049373,250 121.049373,250 L104.592588,270.128072 L103,325.744999 C103,325.744999 121.580238,320.977835 127.419748,325.744999 C133.259257,330.512163 146,329.982491 146,329.982491 L143.345681,319.388782 L145.469135,301.379484 L144.938277,284.959238 L144.407412,273.306156 L142.814795,253.178105 Z" id="Path" fill="#418CD2"></path>
            <path d="M140.773799,244 C140.773799,244 147.857173,247.627997 148.380983,249.752122 C148.904792,251.876248 158.333353,256.124506 158.333353,256.124506 C158.333353,256.124506 162,259.841717 162,261.965864 C162,264.090011 149.428567,288.517466 149.428567,288.517466 C149.428567,288.517466 146.809526,304.979501 147.857125,308.165651 C148.904723,311.351801 145.761893,323.565578 145.761893,323.565578 L152.047595,331 L146.285702,331 C146.285702,331 140,327.813801 140,326.220716 C140,324.62763 141.047612,313.475948 141.571415,308.696649 C142.095218,303.917351 142.095218,286.924346 141.047612,281.082981 C140,275.241616 140.523803,259.841689 140.523803,256.124464 C140.523803,252.407239 140.773799,244 140.773799,244 Z" id="Path" fill="#3F3D56"></path>
            <path d="M124.29936,236 C124.29936,236 121.922451,236.540712 115.055836,238.668575 C108.189221,240.796437 97.6251201,243.988155 93.9276966,248.243811 C91.3324663,251.391066 89.033677,254.774716 87.0610608,258.350998 L89.1738713,296.651949 C89.1738713,296.651949 84.9482503,304.631309 85.4764616,308.886972 C86.0046729,313.142635 90.2302939,313.674594 87.0610677,322.717871 C83.8918416,331.761148 77.5534101,339.740522 83.3636581,340.804433 C89.173906,341.868343 104.491784,338.144639 111.358433,340.272474 C118.225083,342.400309 126.148128,332.293114 126.148128,332.293114 C126.148128,332.293114 115.584068,333.357024 117.168667,329.101362 C118.753267,324.845699 136.18399,276.969512 132.486566,266.330386 C128.789143,255.691261 124.29936,236 124.29936,236 Z" id="Path" fill="#3F3D56"></path>
            <path d="M159.499596,260 L162.203515,262.106297 C162.203515,262.106297 169.774426,288.435045 167.611318,291.067918 C165.44821,293.700791 148.143186,299.493114 147.0616,295.807089 C145.980014,292.121063 159.499596,260 159.499596,260 Z" id="Path" fill="#3F3D56"></path>
            <path d="M80.8409071,278 C80.8409071,278 73,300.875997 73,307.259996 C73,313.643995 74.0454492,350.883994 74.0454492,350.883994 C74.0454492,350.883994 79.2727298,373.237283 90.2500258,366.85327 C101.227322,360.469257 85.5454664,349.819978 85.5454664,349.819978 C85.5454664,349.819978 86.0681876,307.79199 90.2500052,301.939993 C94.4318227,296.087995 96,287.575991 96,287.575991 L80.8409071,278 Z" id="Path" fill="#FFB9B9"></path>
            <path d="M168.206009,443.256997 C168.206009,443.256997 176.221097,438.989854 177.824112,442.190222 C179.427127,445.390589 187.97657,462.992561 186.907875,465.126146 C185.839179,467.259732 179.961453,475.794024 173.01506,473.660439 C166.068667,471.526853 165.534334,460.325609 165.534334,460.325609 L165,447.524168 L168.206009,443.256997 Z" id="Path" fill="#2F2E41"></path>
            <path d="M146.624889,221.817113 C145.456192,222.37371 144.069762,222.70627 143.335382,223.7814 C142.791211,224.578051 142.737125,225.613316 142.340068,226.494451 C141.440513,228.305371 139.303914,229.09593 137.461913,228.299408 C137.245095,227.230826 136.631025,226.287271 135.74648,225.663545 C134.8293,225.053194 133.625806,225.120042 132.780174,225.828308 C131.687384,226.882419 132.074155,228.720573 131.564253,230.158418 C131.08556,231.169952 130.426943,232.083704 129.621316,232.854007 C128.460876,234.208687 127.536378,235.797481 126.138908,236.899542 C124.741439,238.001603 122.62217,238.479212 121.233787,237.365439 C120.066353,236.428896 119.824372,234.701064 120.107866,233.221189 C120.39136,231.741313 121.094442,230.378539 121.490956,228.925482 C122.779395,224.204011 120.725265,219.163251 121.360816,214.307511 C122.175154,208.085583 127.401921,203.170907 133.23592,201.038026 C135.663666,200.037751 138.321579,199.752827 140.902591,200.216172 C143.570612,200.818928 145.84986,202.537523 148.405134,203.520429 C151.137736,204.571534 154.109153,204.755072 156.968785,205.369561 C159.828417,205.98405 162.771174,207.172147 164.430617,209.60727 C165.58803,211.305708 165.985861,213.415002 166.94506,215.235496 C168.049226,217.313455 169.837691,218.934625 172,219.81759 L168.977118,219.643267 C169.483831,221.008477 170.310316,222.228937 171.385669,223.199945 C169.968155,223.492446 168.494636,223.295373 167.200925,222.640265 C167.248211,223.910912 167.812942,225.105154 168.761149,225.939681 C166.435046,225.868786 163.98206,225.760313 162.016571,224.499627 C161.053816,223.882126 160.268704,223.022066 159.362727,222.322112 C157.431631,220.830143 155.035828,220.121963 152.700317,219.443776 C151.47395,219.087678 149.997826,218.5925 148.888746,219.390506 C147.965099,220.055054 147.819297,221.248274 146.624889,221.817113 Z" id="Path" fill="#2F2E41"></path>
            <path d="M94.7962976,252 L86.7407264,258.366363 L76,282.77078 C76,282.77078 91.037031,294.44245 94.7962976,292.850855 C98.5555642,291.259261 105,263.141187 105,263.141187 L94.7962976,252 Z" id="Path" fill="#3F3D56"></path>
            <circle id="Oval" fill="#F2F2F2" transform="translate(197.154933, 288.610470) rotate(-50.158480) translate(-197.154933, -288.610470) " cx="197.154933" cy="288.61047" r="1"></circle>
            <path d="M189.453235,242 C187.546908,242.00204 186,243.553419 186,245.467769 L186,303.531802 C186,305.446236 187.546825,306.997758 189.453235,307 L422.546765,307 C424.453175,306.997758 426,305.446236 426,303.531802 L426,245.467769 C426,243.553419 424.453092,242.00204 422.546765,242 L189.453235,242 Z" id="Path" fill="#FFFFFF"></path>
            <path d="M189.453235,242 C187.546908,242.00204 186,243.553419 186,245.467769 L186,303.531802 C186,305.446236 187.546825,306.997758 189.453235,307 L422.546765,307 C424.453175,306.997758 426,305.446236 426,303.531802 L426,245.467769 C426,243.553419 424.453092,242.00204 422.546765,242 L189.453235,242 Z" id="Path" fill="#E6E6E6"></path>
            <polygon id="Path" fill="#FFFFFF" points="190 303 422 303 422 246 190 246"></polygon>
            <path d="M300.21472,262 C298.991019,262.002518 298,263.344926 298,265 C298,266.655074 298.991019,267.997482 300.21472,268 L404.781908,268 C406.006926,268 407,266.656854 407,265 C407,263.343146 406.006926,262 404.781908,262 L300.21472,262 Z" id="Path" fill="#E6E6E6"></path>
            <path d="M300.21472,280 C298.991019,280.002518 298,281.344926 298,283 C298,284.655074 298.991019,285.997482 300.21472,286 L404.781908,286 C406.006926,286 407,284.656854 407,283 C407,281.343146 406.006926,280 404.781908,280 L300.21472,280 Z" id="Path" fill="#E6E6E6"></path>
            <path d="M40.5467619,67 C39.1408438,67.0015032 38,68.1471401 38,69.5608173 L38,112.438866 C38,113.852605 39.1407834,114.998346 40.5467619,115 L212.453238,115 C213.859217,114.998346 215,113.852605 215,112.438866 L215,69.5608173 C215,68.1471401 213.859156,67.0015032 212.453238,67 L40.5467619,67 Z" id="Path" fill="#FFFFFF"></path>
            <path d="M40.5467619,67 C39.1408438,67.0015032 38,68.1471401 38,69.5608173 L38,112.438866 C38,113.852605 39.1407834,114.998346 40.5467619,115 L212.453238,115 C213.859217,114.998346 215,113.852605 215,112.438866 L215,69.5608173 C215,68.1471401 213.859156,67.0015032 212.453238,67 L40.5467619,67 Z" id="Path" fill="#E6E6E6"></path>
            <polygon id="Path" fill="#FFFFFF" points="41 112 212 112 212 70 41 70"></polygon>
            <circle id="Oval" fill="#418CD2" cx="62.5" cy="91.5" r="13.5"></circle>
            <path d="M94.218026,83 C92.9930441,83 92,83.8954305 92,85 C92,86.1045695 92.9930441,87 94.218026,87 L198.781974,87 C200.006956,87 201,86.1045695 201,85 C201,83.8954305 200.006956,83 198.781974,83 L94.218026,83 Z" id="Path" fill="#E6E6E6"></path>
            <path d="M94.2140975,95.9999969 C92.9906514,96.0019571 92,96.8968136 92,97.9999969 C92,99.1031864 92.9906514,99.9980429 94.2140975,99.9999969 L198.778045,99.9999969 C199.571404,100.001264 200.3051,99.620344 200.702186,99.0010224 C201.099271,98.3817008 201.099271,97.6182992 200.702186,96.9989776 C200.3051,96.379656 199.571404,95.9987361 198.778045,95.9999969 L94.2140975,95.9999969 Z" id="Path" fill="#E6E6E6"></path>
            <path d="M40.5467619,143 C39.1408438,143.001503 38,144.14714 38,145.560817 L38,188.438866 C38,189.852605 39.1407834,190.998346 40.5467619,191 L212.453238,191 C213.859217,190.998346 215,189.852605 215,188.438866 L215,145.560817 C215,144.14714 213.859156,143.001503 212.453238,143 L40.5467619,143 Z" id="Path" fill="#FFFFFF"></path>
            <path d="M40.5467619,143 C39.1408438,143.001503 38,144.14714 38,145.560817 L38,188.438866 C38,189.852605 39.1407834,190.998346 40.5467619,191 L212.453238,191 C213.859217,190.998346 215,189.852605 215,188.438866 L215,145.560817 C215,144.14714 213.859156,143.001503 212.453238,143 L40.5467619,143 Z" id="Path" fill="#E6E6E6"></path>
            <polygon id="Path" fill="#FFFFFF" points="41 188 212 188 212 146 41 146"></polygon>
            <circle id="Oval" fill="#418CD2" cx="62.5" cy="167.5" r="13.5"></circle>
            <path d="M94.218026,159 C92.9930441,159 92,159.895431 92,161 C92,162.104569 92.9930441,163 94.218026,163 L198.781974,163 C200.006956,163 201,162.104569 201,161 C201,159.895431 200.006956,159 198.781974,159 L94.218026,159 Z" id="Path" fill="#E6E6E6"></path>
            <path d="M94.2141773,172 C92.9906871,172.001954 92,172.896812 92,174 C92,175.103188 92.9906871,175.998046 94.2141773,176 L198.781897,176 C200.006922,176 201,175.104569 201,174 C201,172.895431 200.006922,172 198.781897,172 L94.2141773,172 Z" id="Path" fill="#E6E6E6"></path>
        </g>
        <g id="Group" transform="translate(193.000000, 262.000000)" fill-rule="nonzero">
            <g id="Group" transform="translate(4.000000, 0.000000)">
                <g transform="translate(0.000000, 4.128544)">
                    <path d="M3.64717542,18.9640832 C2.5074331,18.3742911 1.59563925,17.557656 0.957383548,16.5141777 C0.319127849,15.4706994 0,14.2911153 0,12.9300567 C0,11.6143667 0.319127849,10.389414 0.957383548,9.34593573 C1.59563925,8.30245747 2.5074331,7.48582231 3.64717542,6.89603025 C4.78691774,6.30623819 6.10901883,5.98865784 7.52229931,5.98865784 C8.93557978,5.98865784 10.1665015,6.30623819 11.2606541,6.89603025 C12.309217,7.48582231 13.0842418,8.34782609 13.5857284,9.43667297 L10.531219,11.0699433 C9.84737364,9.84499055 8.7988107,9.20982987 7.47670961,9.20982987 C6.47373637,9.20982987 5.60753221,9.52741021 4.92368682,10.2079395 C4.23984143,10.8884688 3.92071358,11.7958412 3.92071358,12.9300567 C3.92071358,14.0642722 4.23984143,14.9716446 4.92368682,15.6521739 C5.60753221,16.3327032 6.42814668,16.6502836 7.47670961,16.6502836 C8.7988107,16.6502836 9.84737364,16.0151229 10.531219,14.7901701 L13.5857284,16.4234405 C13.0842418,17.5122873 12.309217,18.3289225 11.2606541,18.9187146 C10.2120912,19.5085066 8.93557978,19.826087 7.52229931,19.826087 C6.06342914,19.8714556 4.78691774,19.5538752 3.64717542,18.9640832 Z" id="Path" fill="#CE4039"></path>
                    <polygon id="Path" fill="#E6703F" points="15.728444 1.08884688 19.6491576 1.08884688 19.6491576 19.6446125 15.728444 19.6446125"></polygon>
                    <path d="M23.4786918,3.72022684 C23.0227948,3.31190926 22.7948464,2.76748582 22.7948464,2.17769376 C22.7948464,1.54253308 23.0227948,1.04347826 23.4786918,0.635160681 C23.9345887,0.2268431 24.5272547,0 25.2566898,0 C25.9861249,0 26.5787909,0.18147448 27.0346878,0.58979206 C27.4905847,0.998109641 27.7185332,1.49716446 27.7185332,2.08695652 C27.7185332,2.7221172 27.4905847,3.26654064 27.0346878,3.72022684 C26.5787909,4.12854442 25.9861249,4.35538752 25.2566898,4.35538752 C24.5272547,4.3100189 23.9345887,4.12854442 23.4786918,3.72022684 Z M23.296333,6.21550095 L27.2170466,6.21550095 L27.2170466,19.6899811 L23.296333,19.6899811 L23.296333,6.21550095 L23.296333,6.21550095 Z" id="Shape" fill="#D5396C"></path>
                    <path d="M43.9940535,14.0189036 L33.7819623,14.0189036 C33.9643211,14.8355388 34.420218,15.5160681 35.1040634,16.0151229 C35.7879088,16.5141777 36.654113,16.7410208 37.6570862,16.7410208 C38.3409316,16.7410208 38.9791873,16.6502836 39.5262636,16.4234405 C40.0733399,16.1965974 40.5748266,15.879017 41.0307235,15.4253308 L43.1278494,17.6937618 C41.851338,19.1455577 39.9821606,19.8714556 37.5659068,19.8714556 C36.061447,19.8714556 34.6937562,19.5538752 33.5084242,18.9640832 C32.3230922,18.3742911 31.4112983,17.557656 30.8186323,16.5141777 C30.1803766,15.4706994 29.8612488,14.2911153 29.8612488,12.9300567 C29.8612488,11.6143667 30.1803766,10.4347826 30.8186323,9.34593573 C31.456888,8.30245747 32.3230922,7.44045369 33.4172448,6.85066163 C34.5113974,6.26086957 35.7423191,5.94328922 37.1100099,5.94328922 C38.432111,5.94328922 39.617443,6.21550095 40.7115956,6.80529301 C41.7601586,7.39508507 42.6263627,8.16635161 43.2190287,9.25519849 C43.8116947,10.2986767 44.1308226,11.5236295 44.1308226,12.9300567 C44.0852329,13.020794 44.0396432,13.3837429 43.9940535,14.0189036 Z M34.8305253,9.70888469 C34.2378593,10.2079395 33.8731417,10.8884688 33.7363726,11.7504726 L40.3924678,11.7504726 C40.2556987,10.8884688 39.8909812,10.2079395 39.2983152,9.70888469 C38.7056492,9.20982987 37.9762141,8.93761815 37.1100099,8.93761815 C36.1982161,8.93761815 35.4231913,9.20982987 34.8305253,9.70888469 Z" id="Shape" fill="#A02F6E"></path>
                    <path d="M58.9474727,7.48582231 C59.9960357,8.48393195 60.4975223,9.98109641 60.4975223,11.9319471 L60.4975223,19.6446125 L56.5768087,19.6446125 L56.5768087,12.5671078 C56.5768087,11.4782609 56.3488603,10.7069943 55.8929633,10.1625709 C55.4370664,9.61814745 54.753221,9.39130435 53.8414272,9.39130435 C52.8384539,9.39130435 52.0634291,9.70888469 51.4707631,10.2986767 C50.8780971,10.8884688 50.604559,11.7958412 50.604559,13.020794 L50.604559,19.6899811 L46.6838454,19.6899811 L46.6838454,6.21550095 L50.4222002,6.21550095 L50.4222002,7.80340265 C50.9236868,7.25897921 51.6075322,6.80529301 52.3369673,6.48771267 C53.1119921,6.17013233 53.9326065,6.03402647 54.8899901,6.03402647 C56.5768087,5.98865784 57.9444995,6.48771267 58.9474727,7.48582231 Z" id="Path" fill="#4192CF"></path>
                    <polygon id="Path" fill="#4D6CB3" points="69.8434093 14.3818526 67.9742319 16.241966 67.9742319 19.6899811 64.0535183 19.6899811 64.0535183 1.08884688 67.9742319 1.08884688 67.9742319 11.6143667 73.7185332 6.21550095 78.3686819 6.21550095 72.7611497 11.9319471 78.8701685 19.6899811 74.1288404 19.6899811"></polygon>
                </g>
                <g transform="translate(78.505451, 0.000000)" id="Oval">
                    <ellipse fill="#E6703F" cx="2.09712587" cy="4.80907372" rx="2.09712587" ry="2.08695652"></ellipse>
                    <ellipse fill="#D5396C" cx="9.80178394" cy="3.67485822" rx="3.69276511" ry="3.67485822"></ellipse>
                    <ellipse fill="#4D6CB3" cx="4.28543112" cy="10.0718336" rx="1.55004955" ry="1.54253308"></ellipse>
                </g>
            </g>
        </g>
    </g>
</svg>