<?xml version="1.0" encoding="UTF-8"?>
<svg width="426px" height="508px" viewBox="0 0 426 508" version="1.1" xmlns="http://www.w3.org/2000/svg" xmlns:xlink="http://www.w3.org/1999/xlink">
    <!-- Generator: Sketch 64 (93537) - https://sketch.com -->
    <title>undraw_add_tasks_mxew</title>
    <desc>Created with Sketch.</desc>
    <g id="Page-1" stroke="none" stroke-width="1" fill="none" fill-rule="evenodd">
        <g id="Desktop-HD-Copy-3" transform="translate(-893.000000, -4132.000000)" fill-rule="nonzero">
            <g id="undraw_add_tasks_mxew" transform="translate(893.000000, 4132.000000)">
                <path d="M253,120.71977 L250.212121,120.71977 L250.212121,44.2554737 C250.21214,19.8138752 230.421966,0 206.009525,0 L44.2027564,0 C19.7903113,0 0,19.8137248 0,44.2553271 L0,463.744526 C0,488.186124 19.7901623,508 44.202603,508 L206.009337,508 C230.421778,508 250.21202,488.186278 250.212093,463.74468 L250.212093,175.148359 L253,175.148359 L253,120.71977 Z" id="Path" fill="#3F3D56"></path>
                <path d="M241,44.0527918 L241,462.947191 C241,479.443975 228.832588,493.415758 212.484995,495.685859 C210.97636,495.89657 209.454826,496 207.931534,496 L45.0614822,496 C43.5381902,496 42.0166558,495.89657 40.5080207,495.685859 C24.163186,493.41262 11.9976343,479.441676 12,462.947191 L12,44.0527918 C12,25.7983843 26.8054019,11 45.068466,11 L64.8257396,11 C62.8467222,15.842081 63.4107872,21.3513444 66.3300177,25.6923945 C69.2492483,30.0334446 74.1400518,32.6358591 79.3730711,32.6326508 L172.230162,32.6326508 C177.462679,32.6354106 182.352687,30.0324534 185.270672,25.6911711 C188.188657,21.3498888 188.751075,15.8409066 186.770509,11 L207.931569,11 C226.194621,11 241,25.7983963 241,44.0527918 L241,44.0527918 Z" id="Path" fill="#FFFFFF"></path>
                <path d="M241,357 L241,463.240704 C241,479.747881 228.832588,493.728468 212.484995,496 L40.5080207,496 C24.163186,493.725328 11.9976343,479.745582 12,463.240704 L12,357 L241,357 Z" id="Path" fill="#E6E6E6"></path>
                <circle id="Oval" fill="#FFFFFF" cx="127" cy="427" r="22"></circle>
                <polygon id="Path" fill="#E6E6E6" points="140 426.700138 128.300553 426.700138 128.300553 415 125.700138 415 125.700138 426.700138 114 426.700138 114 429.299862 125.700138 429.299862 125.700138 441 128.300553 441 128.300553 429.299862 140 429.299862"></polygon>
                <path d="M166,289 L166,308.440676 L155.866676,320 C155.866676,320 151.600015,318.423726 151.600015,307.915258 L150,292.677967 L166,289 Z" id="Path" fill="#FFB9B9"></path>
                <path d="M154.999505,308.532424 C154.999505,308.532424 171.535322,297.287444 172.06873,293.539068 C172.602137,289.790692 187.928449,272.917736 192.338469,283.365002 C196.500526,293.224855 179.66228,301.67655 179.66228,301.67655 C179.66228,301.67655 167.801455,323.52578 159.800251,322.990316 C151.799046,322.454852 151.799018,312.280765 154.999505,308.532424 Z" id="Path" fill="#FFB9B9"></path>
                <polygon id="Path" fill="#FFB9B9" points="146.500041 428 145 438 153 435.777291 153 428"></polygon>
                <path d="M147.040489,432.904441 C147.040489,432.904441 157.004495,427.024473 157.410574,429.696088 C157.816654,432.367704 162.127151,442.564909 164.282372,443.638291 C166.437592,444.711674 169.131651,456.518943 164.282372,455.982255 C160.526559,455.566588 146.751095,448.390056 140.729635,445.174736 C139.190499,444.348377 138.569106,442.467216 139.31494,440.891991 C139.668103,440.241294 139.911684,439.537286 140.035976,438.808022 C140.03599,437.734682 147.040489,432.904441 147.040489,432.904441 Z" id="Path" fill="#2F2E41"></path>
                <path d="M142.814592,325.479337 C142.814592,325.479337 181.454816,343.497937 177.749599,357.276851 C174.044381,371.055766 160.28211,429.351245 160.28211,429.351245 C160.28211,429.351245 144.931864,433.060943 143.873232,429.351245 C142.814599,425.641547 153.930293,367.876035 152.87164,365.756188 C151.812986,363.636342 132.228218,349.857427 132.228218,349.857427 L92,332.898726 L108.93819,317 L142.814592,325.479337 Z" id="Path" fill="#2F2E41"></path>
                <polygon id="Path" fill="#FFB9B9" points="172.153683 431 177 443.266737 168.384561 447 163 437.400281"></polygon>
                <path d="M143.074418,238.593967 C143.074418,238.593967 138.259532,244.916108 142.004442,248.077188 C145.749352,251.238269 143.074418,262.828864 143.074418,262.828864 L138.259532,276 L119,272.312093 L119,250.711443 L120.069983,240.174528 C120.069983,240.174528 129.699749,231.218153 130.769747,224.369165 C131.839744,217.520177 143.074418,238.593967 143.074418,238.593967 Z" id="Path" fill="#FFB9B9"></path>
                <path d="M111.765933,322 C111.765933,322 136.716374,349.569454 136.716374,350.629806 C136.716374,351.690158 149.987849,373.427649 149.987849,373.427649 L176,431.217457 C176,431.217457 165.913659,445.002177 161.66676,443.941819 C157.419861,442.88146 127.160839,381.380392 127.160839,381.380392 C127.160839,381.380392 121.852231,367.595672 107.519006,364.414582 C93.1857801,361.233491 82.0377025,350.099658 87.3462826,337.375304 C92.6548627,324.650949 111.765933,322 111.765933,322 Z" id="Path" fill="#2F2E41"></path>
                <circle id="Oval" fill="#FFB9B9" cx="143" cy="226" r="17"></circle>
                <path d="M142.814795,253.178105 C142.814795,253.178105 140.691342,265.360873 138.567888,266.420246 C136.444434,267.479619 134.851853,271.187424 130.074067,265.890559 C125.29628,260.593695 121.049373,250 121.049373,250 L104.592588,270.128072 L103,325.744999 C103,325.744999 121.580238,320.977835 127.419748,325.744999 C133.259257,330.512163 146,329.982491 146,329.982491 L143.345681,319.388782 L145.469135,301.379484 L144.938277,284.959238 L144.407412,273.306156 L142.814795,253.178105 Z" id="Path" fill="#418CD2"></path>
                <path d="M140.773799,244 C140.773799,244 147.857173,247.627997 148.380983,249.752122 C148.904792,251.876248 158.333353,256.124506 158.333353,256.124506 C158.333353,256.124506 162,259.841717 162,261.965864 C162,264.090011 149.428567,288.517466 149.428567,288.517466 C149.428567,288.517466 146.809526,304.979501 147.857125,308.165651 C148.904723,311.351801 145.761893,323.565578 145.761893,323.565578 L152.047595,331 L146.285702,331 C146.285702,331 140,327.813801 140,326.220716 C140,324.62763 141.047612,313.475948 141.571415,308.696649 C142.095218,303.917351 142.095218,286.924346 141.047612,281.082981 C140,275.241616 140.523803,259.841689 140.523803,256.124464 C140.523803,252.407239 140.773799,244 140.773799,244 Z" id="Path" fill="#3F3D56"></path>
                <path d="M124.29936,236 C124.29936,236 121.922451,236.540712 115.055836,238.668575 C108.189221,240.796437 97.6251201,243.988155 93.9276966,248.243811 C91.3324663,251.391066 89.033677,254.774716 87.0610608,258.350998 L89.1738713,296.651949 C89.1738713,296.651949 84.9482503,304.631309 85.4764616,308.886972 C86.0046729,313.142635 90.2302939,313.674594 87.0610677,322.717871 C83.8918416,331.761148 77.5534101,339.740522 83.3636581,340.804433 C89.173906,341.868343 104.491784,338.144639 111.358433,340.272474 C118.225083,342.400309 126.148128,332.293114 126.148128,332.293114 C126.148128,332.293114 115.584068,333.357024 117.168667,329.101362 C118.753267,324.845699 136.18399,276.969512 132.486566,266.330386 C128.789143,255.691261 124.29936,236 124.29936,236 Z" id="Path" fill="#3F3D56"></path>
                <path d="M159.499596,260 L162.203515,262.106297 C162.203515,262.106297 169.774426,288.435045 167.611318,291.067918 C165.44821,293.700791 148.143186,299.493114 147.0616,295.807089 C145.980014,292.121063 159.499596,260 159.499596,260 Z" id="Path" fill="#3F3D56"></path>
                <path d="M80.8409071,278 C80.8409071,278 73,300.875997 73,307.259996 C73,313.643995 74.0454492,350.883994 74.0454492,350.883994 C74.0454492,350.883994 79.2727298,373.237283 90.2500258,366.85327 C101.227322,360.469257 85.5454664,349.819978 85.5454664,349.819978 C85.5454664,349.819978 86.0681876,307.79199 90.2500052,301.939993 C94.4318227,296.087995 96,287.575991 96,287.575991 L80.8409071,278 Z" id="Path" fill="#FFB9B9"></path>
                <path d="M168.206009,443.256997 C168.206009,443.256997 176.221097,438.989854 177.824112,442.190222 C179.427127,445.390589 187.97657,462.992561 186.907875,465.126146 C185.839179,467.259732 179.961453,475.794024 173.01506,473.660439 C166.068667,471.526853 165.534334,460.325609 165.534334,460.325609 L165,447.524168 L168.206009,443.256997 Z" id="Path" fill="#2F2E41"></path>
                <path d="M146.624889,221.817113 C145.456192,222.37371 144.069762,222.70627 143.335382,223.7814 C142.791211,224.578051 142.737125,225.613316 142.340068,226.494451 C141.440513,228.305371 139.303914,229.09593 137.461913,228.299408 C137.245095,227.230826 136.631025,226.287271 135.74648,225.663545 C134.8293,225.053194 133.625806,225.120042 132.780174,225.828308 C131.687384,226.882419 132.074155,228.720573 131.564253,230.158418 C131.08556,231.169952 130.426943,232.083704 129.621316,232.854007 C128.460876,234.208687 127.536378,235.797481 126.138908,236.899542 C124.741439,238.001603 122.62217,238.479212 121.233787,237.365439 C120.066353,236.428896 119.824372,234.701064 120.107866,233.221189 C120.39136,231.741313 121.094442,230.378539 121.490956,228.925482 C122.779395,224.204011 120.725265,219.163251 121.360816,214.307511 C122.175154,208.085583 127.401921,203.170907 133.23592,201.038026 C135.663666,200.037751 138.321579,199.752827 140.902591,200.216172 C143.570612,200.818928 145.84986,202.537523 148.405134,203.520429 C151.137736,204.571534 154.109153,204.755072 156.968785,205.369561 C159.828417,205.98405 162.771174,207.172147 164.430617,209.60727 C165.58803,211.305708 165.985861,213.415002 166.94506,215.235496 C168.049226,217.313455 169.837691,218.934625 172,219.81759 L168.977118,219.643267 C169.483831,221.008477 170.310316,222.228937 171.385669,223.199945 C169.968155,223.492446 168.494636,223.295373 167.200925,222.640265 C167.248211,223.910912 167.812942,225.105154 168.761149,225.939681 C166.435046,225.868786 163.98206,225.760313 162.016571,224.499627 C161.053816,223.882126 160.268704,223.022066 159.362727,222.322112 C157.431631,220.830143 155.035828,220.121963 152.700317,219.443776 C151.47395,219.087678 149.997826,218.5925 148.888746,219.390506 C147.965099,220.055054 147.819297,221.248274 146.624889,221.817113 Z" id="Path" fill="#2F2E41"></path>
                <path d="M94.7962976,252 L86.7407264,258.366363 L76,282.77078 C76,282.77078 91.037031,294.44245 94.7962976,292.850855 C98.5555642,291.259261 105,263.141187 105,263.141187 L94.7962976,252 Z" id="Path" fill="#3F3D56"></path>
                <circle id="Oval" fill="#F2F2F2" transform="translate(197.154933, 288.610470) rotate(-50.158480) translate(-197.154933, -288.610470) " cx="197.154933" cy="288.61047" r="1"></circle>
                <path d="M189.453235,242 C187.546908,242.00204 186,243.553419 186,245.467769 L186,303.531802 C186,305.446236 187.546825,306.997758 189.453235,307 L422.546765,307 C424.453175,306.997758 426,305.446236 426,303.531802 L426,245.467769 C426,243.553419 424.453092,242.00204 422.546765,242 L189.453235,242 Z" id="Path" fill="#FFFFFF"></path>
                <path d="M189.453235,242 C187.546908,242.00204 186,243.553419 186,245.467769 L186,303.531802 C186,305.446236 187.546825,306.997758 189.453235,307 L422.546765,307 C424.453175,306.997758 426,305.446236 426,303.531802 L426,245.467769 C426,243.553419 424.453092,242.00204 422.546765,242 L189.453235,242 Z" id="Path" fill="#E6E6E6"></path>
                <polygon id="Path" fill="#FFFFFF" points="190 303 422 303 422 246 190 246"></polygon>
                <path d="M300.21472,262 C298.991019,262.002518 298,263.344926 298,265 C298,266.655074 298.991019,267.997482 300.21472,268 L404.781908,268 C406.006926,268 407,266.656854 407,265 C407,263.343146 406.006926,262 404.781908,262 L300.21472,262 Z" id="Path" fill="#E6E6E6"></path>
                <path d="M300.21472,280 C298.991019,280.002518 298,281.344926 298,283 C298,284.655074 298.991019,285.997482 300.21472,286 L404.781908,286 C406.006926,286 407,284.656854 407,283 C407,281.343146 406.006926,280 404.781908,280 L300.21472,280 Z" id="Path" fill="#E6E6E6"></path>
                <path d="M40.5467619,67 C39.1408438,67.0015032 38,68.1471401 38,69.5608173 L38,112.438866 C38,113.852605 39.1407834,114.998346 40.5467619,115 L212.453238,115 C213.859217,114.998346 215,113.852605 215,112.438866 L215,69.5608173 C215,68.1471401 213.859156,67.0015032 212.453238,67 L40.5467619,67 Z" id="Path" fill="#FFFFFF"></path>
                <path d="M40.5467619,67 C39.1408438,67.0015032 38,68.1471401 38,69.5608173 L38,112.438866 C38,113.852605 39.1407834,114.998346 40.5467619,115 L212.453238,115 C213.859217,114.998346 215,113.852605 215,112.438866 L215,69.5608173 C215,68.1471401 213.859156,67.0015032 212.453238,67 L40.5467619,67 Z" id="Path" fill="#E6E6E6"></path>
                <polygon id="Path" fill="#FFFFFF" points="41 112 212 112 212 70 41 70"></polygon>
                <circle id="Oval" fill="#418CD2" cx="62.5" cy="91.5" r="13.5"></circle>
                <path d="M94.218026,83 C92.9930441,83 92,83.8954305 92,85 C92,86.1045695 92.9930441,87 94.218026,87 L198.781974,87 C200.006956,87 201,86.1045695 201,85 C201,83.8954305 200.006956,83 198.781974,83 L94.218026,83 Z" id="Path" fill="#E6E6E6"></path>
                <path d="M94.2140975,96 C92.9906514,96.0019571 92,96.8968136 92,98 C92,99.1031864 92.9906514,99.9980429 94.2140975,100 L198.778045,100 C199.571404,100.001264 200.3051,99.620344 200.702186,99.0010224 C201.099271,98.3817008 201.099271,97.6182992 200.702186,96.9989776 C200.3051,96.379656 199.571404,95.9987361 198.778045,96 L94.2140975,96 Z" id="Path" fill="#E6E6E6"></path>
                <path d="M40.5467619,143 C39.1408438,143.001503 38,144.14714 38,145.560817 L38,188.438866 C38,189.852605 39.1407834,190.998346 40.5467619,191 L212.453238,191 C213.859217,190.998346 215,189.852605 215,188.438866 L215,145.560817 C215,144.14714 213.859156,143.001503 212.453238,143 L40.5467619,143 Z" id="Path" fill="#FFFFFF"></path>
                <path d="M40.5467619,143 C39.1408438,143.001503 38,144.14714 38,145.560817 L38,188.438866 C38,189.852605 39.1407834,190.998346 40.5467619,191 L212.453238,191 C213.859217,190.998346 215,189.852605 215,188.438866 L215,145.560817 C215,144.14714 213.859156,143.001503 212.453238,143 L40.5467619,143 Z" id="Path" fill="#E6E6E6"></path>
                <polygon id="Path" fill="#FFFFFF" points="41 188 212 188 212 146 41 146"></polygon>
                <circle id="Oval" fill="#418CD2" cx="62.5" cy="167.5" r="13.5"></circle>
                <path d="M94.218026,159 C92.9930441,159 92,159.895431 92,161 C92,162.104569 92.9930441,163 94.218026,163 L198.781974,163 C200.006956,163 201,162.104569 201,161 C201,159.895431 200.006956,159 198.781974,159 L94.218026,159 Z" id="Path" fill="#E6E6E6"></path>
                <path d="M94.2141773,172 C92.9906871,172.001954 92,172.896812 92,174 C92,175.103188 92.9906871,175.998046 94.2141773,176 L198.781897,176 C200.006922,176 201,175.104569 201,174 C201,172.895431 200.006922,172 198.781897,172 L94.2141773,172 Z" id="Path" fill="#E6E6E6"></path>
                <g id="g16" transform="translate(246.000000, 271.000000) scale(1, -1) translate(-246.000000, -271.000000) translate(213.000000, 263.000000)">
                    <path d="M2.34352605,0.520428358 C2.34352605,0.461260805 2.32516301,0.409376184 2.28795519,0.365226541 C2.25120077,0.321177352 2.18744022,0.284109734 2.09823213,0.254676639 C2.0085678,0.225143089 1.88968129,0.203168722 1.74179083,0.188150811 C1.59324009,0.173936535 1.40472423,0.16607599 1.17702539,0.16607599 C0.948550094,0.16607599 0.76003424,0.173936535 0.612146607,0.188150811 C0.46359303,0.203168722 0.345038083,0.225143089 0.255373749,0.254676639 C0.165933285,0.284109734 0.102835846,0.321177352 0.0653106383,0.365226541 C0.0284485398,0.409376184 0.0098531301,0.461260805 0.0098531301,0.520428358 L0.0098531301,12.1542109 C0.0098531301,12.2129766 0.0284485398,12.2659663 0.0653106383,12.3131798 C0.102835846,12.3603933 0.165933285,12.4003238 0.255373749,12.4324692 C0.345038083,12.4653679 0.46359303,12.4902304 0.612146607,12.508061 C0.76003424,12.5253894 0.948550094,12.5344302 1.17702539,12.5344302 C1.40472423,12.5344302 1.59324009,12.5253894 1.74179083,12.508061 C1.88968129,12.4902304 2.0085678,12.4653679 2.09823213,12.4324692 C2.18744022,12.4003238 2.25120077,12.3603933 2.28795519,12.3131798 C2.32516301,12.2659663 2.34352605,12.2129766 2.34352605,12.1542109 L2.34352605,0.520428358" id="path22" fill="#D41F29"></path>
                    <path d="M7.00116327,0.520428358 C7.00116327,0.461260805 6.98277189,0.409376184 6.94570576,0.365226541 C6.90849794,0.321177352 6.84550252,0.284109734 6.75595437,0.254676639 C6.66640622,0.225143089 6.54741487,0.203168722 6.39917868,0.188150811 C6.25131088,0.173936535 6.06277802,0.16607599 5.83443025,0.16607599 C5.60582743,0.16607599 5.41777632,0.173936535 5.26954012,0.188150811 C5.12164399,0.203168722 5.00231258,0.225143089 4.91321784,0.254676639 C4.82355634,0.284109734 4.76022086,0.321177352 4.72338143,0.365226541 C4.68628696,0.409376184 4.66792393,0.461260805 4.66792393,0.520428358 L4.66792393,8.39420831 C4.66792393,8.45322518 4.68628696,8.50445685 4.72338143,8.54890785 C4.76022086,8.59335886 4.82355634,8.63153147 4.91321784,8.66392797 C5.00231258,8.69607333 5.12164399,8.72143803 5.26954012,8.73901752 C5.41777632,8.75659701 5.60582743,8.7656379 5.83443025,8.7656379 C6.06277802,8.7656379 6.25131088,8.75659701 6.39917868,8.73901752 C6.54741487,8.72143803 6.66640622,8.69607333 6.75595437,8.66392797 C6.84550252,8.63153147 6.90849794,8.59335886 6.94570576,8.54890785 C6.98277189,8.50445685 7.00116327,8.45322518 7.00116327,8.39420831 L7.00116327,0.520428358 Z M7.17725574,11.0836197 C7.17725574,10.6350915 7.08141655,10.3256924 6.8901349,10.1544179 C6.69885326,9.98339455 6.34372117,9.89800844 5.82533374,9.89800844 C5.30042857,9.89800844 4.94685507,9.98063206 4.765095,10.1458793 C4.58302321,10.3106243 4.49191647,10.6087223 4.49191647,11.0394199 C4.49191647,11.4874458 4.58611206,11.7983517 4.77430486,11.9726398 C4.96246932,12.1466768 5.31879161,12.2338209 5.84383847,12.2338209 C6.36233925,12.2338209 6.71443917,12.1496905 6.89954312,11.9816807 C7.08450539,11.8134199 7.17725574,11.5140662 7.17725574,11.0836197" id="path24" fill="#F04426"></path>
                    <path d="M16.9280856,8.42057755 C16.9280856,8.39119468 16.926442,8.35553342 16.9235515,8.31409604 C16.9201226,8.27316093 16.9142566,8.22720311 16.9048484,8.17747826 C16.8954402,8.127 16.8830281,8.06974108 16.8679806,8.00469695 C16.8524797,7.93965282 16.8324448,7.86607008 16.8075356,7.78344646 L14.3259751,0.644037313 C14.2949733,0.543583063 14.2535714,0.462541596 14.2010044,0.400837573 C14.1486357,0.338832187 14.0619781,0.290187216 13.9417398,0.254676639 C13.8213033,0.219241402 13.6578212,0.196287605 13.450812,0.184032187 C13.2442561,0.172153472 12.9739397,0.16607599 12.6406279,0.16607599 C12.3133238,0.16607599 12.0465496,0.173936535 11.8398805,0.188150811 C11.6326445,0.203168722 11.4706927,0.228081376 11.3537984,0.263692408 C11.2363656,0.299102531 11.1514649,0.347471252 11.0990962,0.409376184 C11.0463025,0.471456911 11.0047873,0.549660545 10.9738989,0.644037313 L8.49188489,7.78344646 C8.45524383,7.90148021 8.42591398,8.00771058 8.40432041,8.10188644 C8.38275517,8.19656457 8.37034312,8.26412005 8.36714092,8.30555743 C8.36402374,8.34674367 8.36280521,8.38516742 8.36280521,8.42057755 C8.36280521,8.47934328 8.37963799,8.53132836 8.41330356,8.57527709 C8.4473942,8.61947696 8.5076125,8.65664504 8.5940718,8.6860279 C8.68050277,8.71566191 8.79906905,8.73625503 8.9507058,8.74780727 C9.10183247,8.75961064 9.29155553,8.7656379 9.52001665,8.7656379 C9.77296184,8.7656379 9.97676889,8.75835496 10.1309561,8.74353796 C10.2854833,8.72872096 10.4074785,8.70812784 10.49714,8.6817586 C10.5865748,8.65513822 10.6495702,8.61671447 10.6867497,8.56673848 C10.7238441,8.51651136 10.7546192,8.45598767 10.7795284,8.38516742 L12.6594444,2.59021285 L12.7150152,2.3692135 L12.7704727,2.59021285 L14.6224191,8.38516742 C14.6407822,8.45598767 14.6701404,8.51651136 14.7103237,8.56673848 C14.7503936,8.61671447 14.8134741,8.65513822 14.9001601,8.6817586 C14.986506,8.70812784 15.1024085,8.72872096 15.2470741,8.74353796 C15.3921931,8.75835496 15.5822563,8.7656379 15.8169234,8.7656379 C16.0450728,8.7656379 16.2321604,8.75961064 16.376826,8.74780727 C16.5222851,8.73625503 16.6346454,8.71566191 16.7151253,8.6860279 C16.7950386,8.65664504 16.8504961,8.61947696 16.8818096,8.57527709 C16.9123863,8.53132836 16.9280856,8.47934328 16.9280856,8.42057755" id="path26" fill="#D9115B"></path>
                    <path d="M23.4933251,5.33286502 C23.5117164,5.95819273 23.3804264,6.44891175 23.0995966,6.80627774 C22.8187385,7.1626392 22.3848267,7.34119663 21.7987964,7.34119663 C21.502239,7.34119663 21.2445614,7.28795587 21.0253668,7.1817255 C20.8064272,7.07574627 20.6241004,6.93259896 20.4793214,6.75303699 C20.3338624,6.57322388 20.222834,6.36076314 20.1457829,6.11590591 C20.0686468,5.87104867 20.0237027,5.60986762 20.0112907,5.33286502 L23.4933251,5.33286502 Z M25.7527439,4.69573394 C25.7527439,4.42450746 25.6891817,4.22410123 25.5631058,4.09451525 C25.4363498,3.96467813 25.2617876,3.899634 25.0398442,3.899634 L20.0112907,3.899634 C20.0112907,3.5633634 20.0530326,3.25823361 20.1367147,2.98399351 C20.2197451,2.71000454 20.3526788,2.47712648 20.5350056,2.28523374 C20.7166524,2.09344147 20.9512062,1.94738099 21.2383553,1.84702719 C21.5253912,1.74697476 21.8696414,1.69692343 22.2710212,1.69692343 C22.6781535,1.69692343 23.0366012,1.72489994 23.3450039,1.78090318 C23.6537183,1.83700688 23.9206058,1.8987109 24.1462047,1.96661798 C24.3716904,2.03439948 24.5582112,2.09640487 24.7064474,2.15240811 C24.8546553,2.20851181 24.9747518,2.23658877 25.0674171,2.23658877 C25.1231014,2.23658877 25.169264,2.22619176 25.2062168,2.20547307 C25.2435379,2.18430234 25.2740863,2.14798812 25.2991088,2.09492317 C25.3233378,2.04185821 25.3408224,1.96661798 25.3499189,1.86920247 C25.358987,1.77198787 25.3639745,1.64955925 25.3639745,1.50219286 C25.3639745,1.37240597 25.3607723,1.26145425 25.3545663,1.17034225 C25.3482469,1.07910467 25.3390654,1.00140331 25.3267667,0.935982479 C25.314383,0.871038806 25.2959916,0.816768397 25.2709975,0.772342505 C25.2465134,0.727891499 25.2142081,0.68532401 25.1739114,0.644037313 C25.1337281,0.602625049 25.0243434,0.546621804 24.8453604,0.475876898 C24.6660374,0.40525756 24.4376613,0.335793446 24.1600337,0.268112395 C23.8823211,0.199728164 23.5642835,0.141062881 23.2061759,0.0909362103 C22.8479833,0.0409099935 22.46542,0.0157964309 22.0578342,0.0157964309 C21.323256,0.0157964309 20.6797846,0.104472421 20.1274199,0.281246788 C19.5747151,0.458422972 19.1132304,0.726736275 18.7430508,1.08626204 C18.3724462,1.44618962 18.0963772,1.9001926 17.9140504,2.44887372 C17.7319502,2.99755483 17.6412969,3.6402109 17.6412969,4.37729396 C17.6412969,5.07921804 17.736626,5.71182868 17.9279077,6.27512589 C18.1193877,6.8384231 18.3971286,7.31608306 18.7614422,7.70835691 C19.1255008,8.10088189 19.5685091,8.39973329 20.0902121,8.60641791 C20.6117167,8.8128514 21.1997306,8.915817 21.8543672,8.915817 C22.5455599,8.915817 23.1370028,8.81862751 23.6275906,8.6239974 C24.1182068,8.42936729 24.5213435,8.15989877 24.8359522,7.81433615 C25.150986,7.46952693 25.3823376,7.06092927 25.5305738,6.58904543 C25.6784416,6.11741272 25.7527439,5.60434263 25.7527439,5.05008631 L25.7527439,4.69573394" id="path28" fill="#9C1662"></path>
                    <path d="M33.9200451,1.77648319 C33.9200451,1.62296398 33.9152276,1.49483459 33.9061594,1.3915425 C33.8968079,1.28835088 33.8846225,1.20143284 33.86932,1.13068793 C33.8537341,1.06006859 33.8353144,1.00218183 33.8134941,0.957956846 C33.7919572,0.913907657 33.7446327,0.857778845 33.6701037,0.790198248 C33.5958581,0.721814017 33.4694705,0.639617326 33.2906576,0.542402726 C33.1115613,0.444987216 32.9072442,0.35816963 32.6794065,0.281548151 C32.4507186,0.205228034 32.2021942,0.14274549 31.9335497,0.0954566515 C31.6651887,0.0484691759 31.388893,0.0248121999 31.104946,0.0248121999 C30.4690408,0.0248121999 29.9056809,0.11898806 29.4154331,0.307741596 C28.9246186,0.496570474 28.512017,0.775280792 28.1787619,1.14404835 C27.8457901,1.51269033 27.5941485,1.96229844 27.4242337,2.49302336 C27.2544323,3.02367294 27.1695316,3.63142116 27.1695316,4.31576574 C27.1695316,5.10608955 27.2729087,5.78842505 27.4798046,6.36352563 C27.6862471,6.93862622 27.9750115,7.4150305 28.3453895,7.79248735 C28.7160508,8.16994419 29.1541566,8.45021155 29.660557,8.63303829 C30.1666741,8.81586502 30.7223827,8.90702726 31.3273995,8.90702726 C31.5742236,8.90702726 31.8162303,8.88643413 32.0542697,8.84524789 C32.2920257,8.80381051 32.5141958,8.74780727 32.72078,8.67774043 C32.9276475,8.60641791 33.1126948,8.52680792 33.276772,8.43815704 C33.4397156,8.35000844 33.5559015,8.27316093 33.6239127,8.20811681 C33.6916406,8.14332382 33.7395319,8.08882738 33.7673031,8.04462751 C33.794791,8.00042764 33.8168947,7.94266645 33.8321972,7.87209734 C33.846933,7.80127709 33.8599684,7.71438417 33.86932,7.61116742 C33.8786715,7.50795068 33.8829222,7.38238287 33.8829222,7.23496626 C33.8829222,6.89291953 33.8517504,6.65258274 33.7905403,6.51395587 C33.7287634,6.37558014 33.6482834,6.30626671 33.5496671,6.30626671 C33.4448164,6.30626671 33.3337314,6.34720182 33.216412,6.42982544 C33.0990926,6.51270019 32.9602363,6.6043647 32.7992763,6.70406554 C32.6388831,6.80451979 32.4476015,6.89593316 32.2254314,6.97855678 C32.0032613,7.06092927 31.737734,7.10261778 31.4288496,7.10261778 C30.8241162,7.10261778 30.3607895,6.87960934 30.0400031,6.43459701 C29.7189334,5.98908241 29.5588235,5.33587865 29.5588235,4.47473459 C29.5588235,4.05006424 29.5984968,3.67562103 29.6789767,3.35090266 C29.75889,3.02668657 29.878193,2.75520896 30.0357524,2.5369721 C30.1930285,2.31878546 30.3905445,2.15544685 30.6280171,2.04635354 C30.8657731,1.93718488 31.1423522,1.88273868 31.4569042,1.88273868 C31.7776906,1.88273868 32.0542697,1.92824445 32.2857914,2.01978339 C32.517313,2.11129721 32.7196465,2.21273089 32.8925084,2.32476249 C33.0648036,2.43689455 33.2101776,2.53898118 33.327497,2.63014341 C33.4448164,2.72130565 33.5434327,2.76726347 33.6239127,2.76726347 C33.6794553,2.76726347 33.7256462,2.75219533 33.7624857,2.7230636 C33.8001752,2.69342959 33.82908,2.6391843 33.8503335,2.55932317 C33.8724372,2.47986385 33.8891566,2.37785256 33.9016253,2.25414315 C33.9135273,2.13043374 33.9200451,1.9711133 33.9200451,1.77648319" id="path30" fill="#418CD2"></path>
                    <path d="M41.467027,4.45715509 C41.467027,4.84641531 41.4347216,5.20478585 41.3695442,5.53176444 C41.3046501,5.85899416 41.1952653,6.1440331 41.0405397,6.38562557 C40.8863809,6.62746918 40.6812136,6.81632317 40.4253213,6.9519364 C40.1688622,7.08754964 39.8463755,7.1556074 39.4572945,7.1556074 C39.1115706,7.1556074 38.8094873,7.09458144 38.549911,6.97428748 C38.2906181,6.8532401 38.078083,6.67618949 37.911172,6.44313563 C37.7445444,6.21058404 37.6192904,5.93006554 37.5359766,5.60283582 C37.4526628,5.27535496 37.4110059,4.90241856 37.4110059,4.48352433 C37.4110059,4.09451525 37.4450116,3.73614471 37.5130228,3.40891499 C37.5807507,3.08143413 37.6901354,2.79664633 37.8414605,2.55505386 C37.9930689,2.31290889 38.1982362,2.12581285 38.4572457,1.99328858 C38.7171053,1.86026204 39.0376084,1.79406269 39.4201717,1.79406269 C39.7724133,1.79406269 40.0776138,1.85458637 40.3374734,1.97533238 C40.5961996,2.09640487 40.8093015,2.27179799 40.975929,2.50193868 C41.14284,2.73210448 41.265827,3.01061389 41.3465904,3.33784361 C41.4262202,3.66532446 41.467027,4.03826087 41.467027,4.45715509 M43.864707,4.54555483 C43.864707,3.87301363 43.7726084,3.25974043 43.5872777,2.70523297 C43.4019471,2.15092641 43.1211173,1.6729902 42.744505,1.27235354 C42.368176,0.871038806 41.8957812,0.561413692 41.3278873,0.34315172 C40.7597099,0.124990201 40.0963169,0.0157964309 39.3371413,0.0157964309 C38.602053,0.0157964309 37.963314,0.112810123 37.4200741,0.307741596 C36.8768342,0.502371707 36.4262597,0.785778261 36.0680671,1.15718274 C35.7101579,1.52868767 35.4446306,1.9857294 35.2717687,2.52833303 C35.0989068,3.07088644 35.0124758,3.69043803 35.0124758,4.38633485 C35.0124758,5.05887605 35.1068414,5.67365607 35.2955726,6.23092602 C35.4831703,6.78844711 35.7657004,7.26585594 36.1423127,7.66415704 C36.5186416,8.06245814 36.9896195,8.37035042 37.5543963,8.58858728 C38.1194565,8.80682414 38.7811493,8.915817 39.5408916,8.915817 C40.2816475,8.915817 40.9235037,8.81988319 41.467027,8.62851785 C42.0099835,8.43690136 42.4588577,8.15512719 42.8142165,7.78344646 C43.1690085,7.41201687 43.4331189,6.95495003 43.6059808,6.41224594 C43.7788428,5.86954186 43.864707,5.24747891 43.864707,4.54555483" id="path32" fill="#3F5FB5"></path>
                    <path d="M58.8478691,0.520428358 C58.8478691,0.461260805 58.8294494,0.409376184 58.7920432,0.365226541 C58.7552038,0.321177352 58.6937103,0.284109734 58.6072793,0.254676639 C58.520565,0.225143089 58.4032455,0.203168722 58.2553211,0.188150811 C58.1071132,0.173936535 57.9189488,0.16607599 57.6902609,0.16607599 C57.4559055,0.16607599 57.2643405,0.173936535 57.116416,0.188150811 C56.9682081,0.203168722 56.8491884,0.225143089 56.7596403,0.254676639 C56.6698088,0.284109734 56.6083153,0.321177352 56.5743096,0.365226541 C56.5408708,0.409376184 56.523868,0.461260805 56.523868,0.520428358 L56.523868,5.20026541 C56.523868,5.46571577 56.4972302,5.70730824 56.4445215,5.9255451 C56.3920962,6.1440331 56.3121829,6.33112914 56.2042151,6.48758663 C56.0959638,6.64379299 55.9602247,6.76484036 55.7967143,6.85022648 C55.6332039,6.93561259 55.4371048,6.97855678 55.2089838,6.97855678 C54.9309878,6.97855678 54.6498746,6.87534004 54.366211,6.66890655 C54.0819806,6.46222193 53.7733796,6.16136145 53.4398411,5.76657625 L53.4398411,0.520428358 C53.4398411,0.461260805 53.4217047,0.409376184 53.3845819,0.365226541 C53.3477425,0.321177352 53.283982,0.284109734 53.1947172,0.254676639 C53.105169,0.225143089 52.9864327,0.203168722 52.8385083,0.188150811 C52.6897336,0.173936535 52.5046864,0.16607599 52.2825163,0.16607599 C52.0541118,0.16607599 51.8659474,0.173936535 51.7174561,0.188150811 C51.5695316,0.203168722 51.450512,0.225143089 51.3609638,0.254676639 C51.271699,0.284109734 51.2082219,0.321177352 51.1713824,0.365226541 C51.134543,0.409376184 51.1158399,0.461260805 51.1158399,0.520428358 L51.1158399,5.20026541 C51.1158399,5.46571577 51.0894856,5.70730824 51.0370602,5.9255451 C50.9846349,6.1440331 50.9058552,6.33112914 50.8010045,6.48758663 C50.6958704,6.64379299 50.5601313,6.76484036 50.3935038,6.85022648 C50.2268762,6.93561259 50.032194,6.97855678 49.8097405,6.97855678 C49.5260769,6.97855678 49.2418466,6.87534004 48.9578996,6.66890655 C48.6739526,6.46222193 48.3687521,6.16136145 48.041448,5.76657625 L48.041448,0.520428358 C48.041448,0.461260805 48.0233116,0.409376184 47.9859054,0.365226541 C47.9484992,0.321177352 47.8855888,0.284109734 47.7960407,0.254676639 C47.7064925,0.225143089 47.5877562,0.203168722 47.439265,0.188150811 C47.2916239,0.173936535 47.1028927,0.16607599 46.8747716,0.16607599 C46.6463672,0.16607599 46.4582027,0.173936535 46.3097115,0.188150811 C46.1620704,0.203168722 46.0424839,0.225143089 45.9535025,0.254676639 C45.863671,0.284109734 45.8001938,0.321177352 45.7636378,0.365226541 C45.726515,0.409376184 45.7080953,0.461260805 45.7080953,0.520428358 L45.7080953,8.4117878 C45.7080953,8.47055354 45.7233978,8.52228748 45.7542862,8.56673848 C45.7851747,8.61068722 45.8407172,8.64760415 45.9209138,8.67748929 C46.0011104,8.70687216 46.1045442,8.72872096 46.2312151,8.74353796 C46.3578861,8.75835496 46.516579,8.7656379 46.7078607,8.7656379 C46.9053767,8.7656379 47.0694538,8.75835496 47.1986752,8.74353796 C47.3284633,8.72872096 47.4287799,8.70687216 47.5001917,8.67748929 C47.5707534,8.64760415 47.6214785,8.61068722 47.6523669,8.56673848 C47.6832554,8.52228748 47.6991247,8.47055354 47.6991247,8.4117878 L47.6991247,7.50066775 C48.1556502,7.97230045 48.6107588,8.32615055 49.0647339,8.56246918 C49.5184256,8.79778326 49.9922374,8.915817 50.4856023,8.915817 C50.8253752,8.915817 51.1314258,8.88191369 51.4029041,8.81435821 C51.6740989,8.74655159 51.9166724,8.64885983 52.1297743,8.52228748 C52.3428763,8.39521285 52.5262233,8.2440292 52.6809489,8.06672745 C52.8348243,7.88967683 52.9643291,7.69228423 53.0694631,7.47404737 C53.3165707,7.72744322 53.5588608,7.94568008 53.7966168,8.12875795 C54.0340894,8.31133355 54.2687282,8.46025698 54.5002498,8.57527709 C54.7317715,8.69054835 54.9630097,8.77568332 55.1948147,8.8319377 C55.4263364,8.88794095 55.6626755,8.915817 55.9032653,8.915817 C56.4527395,8.915817 56.9154994,8.8276684 57.2923951,8.65061778 C57.668724,8.47356716 57.9725076,8.23323037 58.2043126,7.9296074 C58.4355509,7.62573329 58.6010449,7.27062751 58.6996613,6.86353666 C58.7982776,6.45669695 58.8478691,6.02625049 58.8478691,5.571695 L58.8478691,0.520428358" id="path34" fill="#41A9BE"></path>
                    <path d="M65.891001,7.23697534 C66.0355249,6.79196301 65.7549785,6.44187995 65.2672811,6.46021285 L62.9146586,6.5466035 C62.4263945,6.5649364 62.3476148,6.80753342 62.7389628,7.08604283 L64.6268418,8.43087411 C65.0179065,8.70938352 65.4562957,8.57301687 65.601103,8.12775341 L65.891001,7.23697534" id="path36" fill="#418CD2"></path>
                    <path d="M62.6032237,12.4307112 C62.9616997,12.1137781 62.9013397,11.6775555 62.470035,11.460072 L60.3860569,10.4110785 C59.9541855,10.1938462 59.7589365,10.3663764 59.9519184,10.7945626 L60.883956,12.8604043 C61.0769379,13.2888417 61.5280792,13.380255 61.8868385,13.063573 L62.6032237,12.4307112" id="path38" fill="#418CD2"></path>
                    <path d="M56.9968295,15.4769864 C57.4726249,15.3740208 57.6491708,14.9671811 57.3890278,14.5728981 L56.1330866,12.6687878 C55.8729436,12.2742537 55.6136507,12.3307592 55.5566913,12.7936022 L55.2820959,15.0277047 C55.2254198,15.4907988 55.5683099,15.7858832 56.0441053,15.6829176 L56.9968295,15.4769864" id="path40" fill="#418CD2"></path>
                </g>
            </g>
        </g>
    </g>
</svg>