<?xml version="1.0" encoding="UTF-8"?>
<svg width="531px" height="429px" viewBox="0 0 531 429" version="1.1" xmlns="http://www.w3.org/2000/svg" xmlns:xlink="http://www.w3.org/1999/xlink">
    <!-- Generator: Sketch 63.1 (92452) - https://sketch.com -->
    <title>undraw_real_time_collaboration_c62i</title>
    <desc>Created with Sketch.</desc>
    <g id="Page-1" stroke="none" stroke-width="1" fill="none" fill-rule="evenodd">
        <g id="Live-Chaat" transform="translate(-132.000000, -3555.000000)" fill-rule="nonzero">
            <g id="undraw_real_time_collaboration_c62i" transform="translate(132.000000, 3555.000000)">
                <path d="M348.97485,239.767986 C337.78665,246.477876 317.853168,254.8854 297.483276,246.245082 L284.315736,240.659682 L310.702572,211.080342 C267.071612,162.97303 267.146722,89.5854861 310.876064,41.5675858 C354.605407,-6.45031455 427.665951,-13.370875 479.633506,25.5822671 C531.601062,64.5354093 545.45427,136.603613 511.632063,192.04757 C477.809855,247.491527 407.390297,268.151225 348.97485,239.767962 L348.97485,239.767986 Z M298.416752,126.219786 C298.300014,155.42947 310.387076,183.360928 331.760562,203.270562 L339.038994,210.110292 L322.434726,228.723072 C331.083624,226.968234 338.616588,222.289446 342.436266,219.571974 L347.677314,215.842668 L353.31417,218.939934 C368.895439,227.470955 386.373827,231.939883 404.137674,231.939883 C462.431796,231.939883 509.857746,184.51422 509.857746,126.21981 C509.857746,67.925682 462.431796,20.499738 404.137674,20.499738 C345.843552,20.499738 298.416752,67.925682 298.416752,126.21981 L298.416752,126.219786 Z" id="Shape" fill="#3F3D56"></path>
                <path d="M288.167665,126.21981 C288.167665,62.171358 340.08927,10.249866 404.137686,10.249866 C468.186102,10.249866 520.107624,62.171358 520.107624,126.21981 C520.107624,190.268262 468.18609,242.189872 404.137674,242.189872 C384.644889,242.218289 365.462277,237.310456 348.378342,227.923836 C340.361802,233.62761 320.805342,245.004354 301.485762,236.809356 L324.741402,210.740328 C301.373741,188.845797 288.13086,158.241938 288.167665,126.21981 L288.167665,126.21981 Z" id="Path" fill="#3564B1"></path>
                <path d="M500.35152,126.471126 C500.35152,65.87754 453.877776,16.146942 394.631448,10.9572 C398.00949,10.661304 401.42649,10.5012 404.88132,10.5012 C468.929766,10.5012 520.851258,62.422692 520.851258,126.471138 C520.851258,190.519584 468.929742,242.44107 404.88132,242.44107 C401.43171,242.44107 398.020638,242.278878 394.647678,241.98363 C453.886212,236.786262 500.35152,187.059138 500.35152,126.471126 Z" id="Path" fill="#000000" opacity="0.1"></path>
                <path d="M136.897542,400.874906 C77.1762366,400.903016 25.5906343,359.114023 13.222993,300.687346 C0.855351729,242.260669 31.0834606,183.153514 85.6937515,158.980156 C140.304043,134.806798 204.381623,152.169346 239.31735,200.606213 C274.253076,249.04308 270.505477,315.325429 230.33262,359.515662 L256.719456,389.094996 L243.551922,394.680396 C223.182024,403.320714 203.248542,394.913196 192.060342,388.2033 C174.865656,396.538854 156.006144,400.871122 136.897542,400.874906 Z M136.897542,168.93501 C78.60342,168.93501 31.17747,216.36096 31.17747,274.655082 C31.17747,332.949492 78.60342,380.375155 136.897542,380.375155 C154.661389,380.375155 172.139777,375.906232 187.721046,367.375212 L193.357902,364.277946 L198.59895,368.007246 C202.418628,370.724724 209.951592,375.403512 218.60049,377.158344 L201.996222,358.54557 L209.274654,351.70584 C230.648134,331.796209 242.735196,303.864759 242.618464,274.655082 C242.618464,216.36096 195.191646,168.93501 136.897542,168.93501 Z" id="Shape" fill="#3F3D56"></path>
                <path d="M252.867461,274.654962 C252.867461,210.60651 200.945856,158.685018 136.89744,158.685018 C72.849024,158.685018 20.927502,210.60651 20.927502,274.654962 C20.927502,338.703414 72.84903,390.625024 136.89744,390.625024 C156.390224,390.65344 175.572837,385.745607 192.656772,376.358988 C200.673312,382.062762 220.229772,393.439506 239.549346,385.244508 L216.293706,359.175462 C239.661369,337.280939 252.904256,306.677086 252.867461,274.654962 Z" id="Path" fill="#3564B1"></path>
                <path d="M41.427246,274.069236 C41.427246,213.475644 87.90099,163.745052 147.147318,158.555304 C143.769276,158.259414 140.352276,158.099304 136.897446,158.099304 C72.849,158.099304 20.927508,210.020796 20.927508,274.069248 C20.927508,338.1177 72.849,390.039186 136.897446,390.039186 C140.347056,390.039186 143.758128,389.876994 147.131088,389.581746 C87.892542,384.384372 41.427246,334.657248 41.427246,274.069236 Z" id="Path" fill="#000000" opacity="0.1"></path>
                <g id="Group-4" transform="translate(343.343748, 75.909483)">
                    <path d="M88.0189323,13.4667629 C80.4312063,0.645854867 65.4195003,0.0483628672 65.4195003,0.0483628672 C65.4195003,0.0483628672 50.7914463,-1.82225713 41.4076383,17.7041429 C32.6611863,35.9043509 20.5899663,53.4770249 39.4642743,57.7375589 L42.8735223,47.1264509 L44.9848503,58.5275429 C47.6721894,58.720822 50.3680923,58.7668909 53.0604663,58.6655429 C73.2733203,58.0129529 92.5230183,58.8564749 91.9032063,51.6032489 C91.0792683,41.9611169 95.3198463,25.8030389 88.0189323,13.4667629 Z" id="Path" fill="#2F2E41"></path>
                    <path d="M38.3865963,125.745579 C38.1637493,127.155779 37.8402853,128.548226 37.4186823,129.912255 C36.9438723,131.247393 36.2108163,132.482145 35.7766803,133.831065 C34.3928463,138.130803 36.3112503,142.924911 39.3752463,146.243757 C42.0323373,149.110358 45.4620821,151.146947 49.2507723,152.107863 C52.0401365,152.704723 54.8849981,153.00368 57.7375023,152.999703 C65.6253363,153.267177 73.7161023,153.506475 81.1903023,150.971535 C83.5516967,150.15092 85.832564,149.114739 88.0040523,147.876099 C88.6896667,147.549447 89.2937002,147.07384 89.7720723,146.483985 C90.2727681,145.620047 90.4955159,144.622973 90.4100823,143.628093 C90.3932823,140.284233 89.7154083,136.957425 89.8763583,133.617399 C89.9655123,131.767365 90.3117543,129.918759 90.1413183,128.074431 C89.6579603,123.782542 86.5301703,120.257145 82.3263963,119.266071 C80.2061343,118.810761 78.0069963,119.058861 75.8483463,119.266419 C70.2450835,119.804823 64.6179604,120.056433 58.9890063,120.020265 C53.2376523,119.983551 47.5218063,119.105613 41.7990963,119.013927 C40.1067183,118.986807 40.1409063,119.508549 39.6021183,121.146459 C39.105831,122.653958 38.6999357,124.189727 38.3865963,125.745579 Z" id="Path" fill="#2F2E41"></path>
                    <path d="M54.7084563,43.1774429 C54.4320723,44.6246429 54.1333323,46.1247389 53.2636563,47.3140169 C52.2630663,48.6823229 50.6316423,49.4641409 49.5552243,50.7736169 C47.9350023,52.7446709 47.8420023,55.5182609 47.8353243,58.0697609 C47.8291743,60.4202489 47.8769163,62.9273009 49.1876823,64.8783809 C50.1205931,66.0904231 51.2784328,67.1112361 52.5978123,67.8849329 C57.5134383,71.1976289 62.8252803,74.5698029 68.7519483,74.6790509 C71.2075863,74.7243149 73.8405783,74.0901449 75.4563483,72.2404289 C76.15398,71.3715861 76.7025201,70.3929462 77.0795943,69.3444269 C78.5949931,65.6088257 79.5136103,61.6581844 79.8017943,57.6372269 C80.0201591,55.7469306 79.8436933,53.8318856 79.2835683,52.0133249 C78.5635683,50.0059169 77.1077763,48.3542189 76.1456223,46.4509769 C75.0082795,44.1878057 74.5923042,41.6302926 74.9537943,39.1233389 C75.0016721,38.9468128 74.9868892,38.7591492 74.9119623,38.5922969 C74.7515466,38.4112651 74.5156842,38.3156938 74.2744983,38.3339969 L62.5228983,37.4879969 C61.4284246,37.4336054 60.3385782,37.3089265 59.2600983,37.1147309 C58.6265943,36.9859169 56.9533743,36.0861989 56.3493243,36.3254429 C55.2311103,36.7683209 54.9376503,41.9773589 54.7084563,43.1774429 Z" id="Path" fill="#A0616A"></path>
                    <path d="M54.7084563,43.5442769 C54.4320723,44.9914769 54.1333323,46.4915669 53.2636563,47.6808509 C52.2630663,49.0491509 50.6316423,49.8309689 49.5552243,51.1404509 C47.9350023,53.1115109 47.8420023,55.8851009 47.8353243,58.4365949 C47.8291743,60.7870829 47.8769163,63.2941349 49.1876823,65.2452209 C50.1205867,66.4572639 51.2784203,67.478079 52.5977943,68.2517789 C57.5134203,71.5644749 62.8252623,74.9366489 68.7519303,75.0458969 C71.2075683,75.0911609 73.8405603,74.4569909 75.4563303,72.6072749 C76.1539633,71.738433 76.7025035,70.7597929 77.0795763,69.7112729 C78.594975,65.9756717 79.5135922,62.0250304 79.8017763,58.0040729 C80.0201414,56.1137766 79.8436757,54.1987315 79.2835503,52.3801709 C78.5635503,50.3727569 77.1077583,48.7210649 76.1456043,46.8178169 C75.0082669,44.554644 74.5922979,41.9971308 74.9537943,39.4901789 C75.0016717,39.3136548 74.9868888,39.1259932 74.9119623,38.9591429 C74.7515495,38.7781066 74.5156856,38.6825325 74.2744983,38.7008369 L62.5228983,37.8548369 C61.4284244,37.8004484 60.3385778,37.6757694 59.2600983,37.4815709 C58.6265943,37.3527629 56.9533743,36.4530449 56.3493243,36.6922889 C55.2311103,37.1351789 54.9376503,42.3441869 54.7084563,43.5442769 Z" id="Path" fill="#000000" opacity="0.1"></path>
                    <circle id="Oval" fill="#A0616A" cx="65.9468283" cy="27.5122349" r="17.241012"></circle>
                    <path d="M57.1265943,66.1279409 C57.978294,67.1142562 59.0049762,67.9346387 60.1548963,68.5477409 C61.3536896,69.0432014 62.6411249,69.288331 63.9381123,69.2680709 C67.0459623,69.3554909 70.4151123,68.7860249 72.5770623,66.5516909 C75.3639543,63.6715169 75.2721663,59.0260649 77.4566163,55.6659509 C77.6326247,55.3613079 77.87282,55.098616 78.1605303,54.8961089 C78.5269441,54.6966237 78.9410373,54.6014148 79.3577823,54.6208349 C82.1166783,54.5950349 84.5199423,56.3843909 86.6888883,58.0896329 C87.7097132,58.7921528 88.5857836,59.6845848 89.2692963,60.7182329 C89.698154,61.5550172 89.9918426,62.454416 90.1394583,63.3830369 C91.2157863,68.6372009 91.5643683,74.0094029 91.9103163,79.3615049 C92.1013983,82.3177049 92.2925763,85.2767609 92.2783743,88.2391049 C92.2315743,97.9987649 89.9631243,107.595213 87.7072923,117.090705 C87.4166283,118.314195 87.0188583,119.681769 85.9062123,120.267813 C85.4102492,120.490809 84.8775496,120.620826 84.3346203,120.651393 C77.8734843,121.410201 71.3989803,122.169933 64.8942063,122.270115 C62.3557343,122.309211 59.8183683,122.247763 57.2821083,122.085771 C56.8455006,122.080004 56.4126161,122.00454 55.9998123,121.862229 C55.4395525,121.593219 54.9580844,121.184348 54.6018663,120.675069 C51.0833583,116.241285 50.8756683,110.111505 50.8981623,104.451303 C50.9531463,90.6125989 51.4475843,76.7849509 52.3814763,62.9683589 C52.4585823,61.8279449 52.4754183,60.4429589 51.6536763,59.5458209 C53.2536837,61.9170568 55.0871379,64.122099 57.1265943,66.1279409 Z" id="Path" fill="#FFFFFF"></path>
                    <path d="M53.4746103,46.2205649 C52.8923043,47.2746449 48.5992143,49.8920909 47.7704103,50.7657269 C43.1396103,55.6468409 34.6878063,55.4636849 30.4526103,60.6917429 C28.9625403,62.5311389 28.1883723,64.8423209 27.6189963,67.1400389 C26.8137183,70.3897649 26.3837283,73.9338809 27.7327323,76.9980929 C29.0307663,79.9465469 31.7632863,81.9849449 33.6184863,84.6186929 C35.6554863,87.5104889 36.5713443,91.0217309 37.4490483,94.4483069 C38.0971143,96.9783749 38.7505323,99.5711069 38.4981483,102.170625 C38.2111863,105.126225 36.7809483,107.832507 35.9364903,110.679399 C35.0920323,113.526291 34.9462863,116.916999 36.8987943,119.154297 C38.3332383,120.797985 40.5831963,121.449609 42.7337943,121.816173 C45.4882726,122.230055 48.2658689,122.47186 51.0504303,122.540181 C53.5088343,122.648781 56.2187103,122.669919 58.1086143,121.093905 C59.5998423,119.850351 60.2479743,117.832359 60.3318603,115.892505 C60.4157463,113.952651 60.0121443,112.029921 59.7593283,110.104761 C59.4972543,108.109035 59.3965383,106.095927 59.3122743,104.084841 C58.9341703,95.0613329 58.8825703,86.0320209 59.1574743,76.9969049 C59.2959825,75.119078 59.2038964,73.2313546 58.8832743,71.3759249 C58.3560423,68.9589929 57.0497943,66.7990049 55.9598583,64.5782849 C53.7815391,60.3957182 52.794894,55.694829 53.1077583,50.9894009 C53.4378723,46.1536889 55.5466983,42.4696229 53.4746103,46.2205649 Z" id="Path" fill="#FFFFFF"></path>
                    <path d="M77.6853963,46.5873929 C78.5723463,47.4989849 81.5861883,47.7995009 82.7144583,48.3865829 C83.7757442,48.8768457 84.883185,49.260277 86.0204103,49.5312089 C90.135962,50.7184892 94.0505965,52.5151663 97.6341783,54.8615129 C98.3787635,55.297133 99.0370535,55.8657406 99.5763183,56.5390649 C100.144418,57.4632342 100.510544,58.4971491 100.650642,59.5728809 C101.203104,62.3094809 101.75832,65.0790809 101.634174,67.8681089 C101.50239,70.8286469 100.610622,73.6959089 99.7259403,76.5242609 L96.4203123,87.0923789 C93.9528963,94.9807349 91.4698263,102.946749 90.7755123,111.182781 C90.391401,115.747393 90.5621793,120.341741 91.2841083,124.865241 C91.4214147,125.310428 91.3606791,125.793161 91.1173743,126.190461 C90.8995917,126.405731 90.6130528,126.537576 90.3078843,126.562929 C88.7124483,126.812397 87.1684503,125.998929 85.7229363,125.279085 C81.3048128,123.080412 76.5897435,121.537608 71.7264843,120.699345 C73.6268905,117.952948 75.0931488,114.930344 76.0737363,111.737745 C76.6306299,109.710536 77.0691879,107.652664 77.3871903,105.574545 L78.9249243,96.6806969 C79.5505449,93.4299502 79.9909567,90.1462823 80.2440303,86.8455689 C80.3602783,85.6068838 80.2881127,84.357734 80.0299923,83.1406769 C79.6756123,81.9824822 79.2050686,80.8630746 78.6255363,79.7995229 C76.0912623,74.5279769 74.9021763,68.5121909 75.8993103,62.7487229 C76.3356903,60.2264609 77.1837063,57.7008269 76.8300963,55.1656409 C76.4901123,52.7281649 76.8434463,50.8338149 76.2180483,48.4215749 C73.6502643,38.5171349 76.0167363,44.8724009 77.6853963,46.5873929 Z" id="Path" fill="#FFFFFF"></path>
                    <path d="M30.4087503,69.0264869 C29.2534083,71.4239909 27.3218523,73.4664449 26.6644443,76.0453349 C26.4086355,77.2505981 26.2990231,78.4822998 26.3379783,79.7137949 C26.223907,81.5697672 26.4076307,83.4320352 26.8821783,85.2299369 C27.2491023,86.3671829 27.8460423,87.4159769 28.2760803,88.5308909 C28.8755339,90.0885226 29.1425949,91.7543082 29.0601123,93.4212689 C28.9440903,95.7306689 28.1595123,97.9724009 28.0982103,100.283901 C28.0017903,103.918929 29.6830923,107.336151 31.3236483,110.581341 C32.1594683,108.511492 33.8662198,106.916058 35.9876568,106.221528 C38.1090937,105.526997 40.4289167,105.804183 42.3269943,106.978989 C42.7027258,106.517539 42.8809713,105.926353 42.8229303,105.334119 C42.9441903,101.116919 43.0611603,96.8996089 43.1738403,92.6821889 C43.3514403,86.1596489 43.5205983,79.5499589 42.0201663,73.1998589 C41.3427183,70.3327769 40.2886203,67.4767709 38.3562303,65.2529909 C37.3387203,64.0820549 33.8845383,60.9977909 32.2142643,62.3095289 C31.4631363,62.8994249 31.6386843,64.5052049 31.5196683,65.3183309 C31.3400208,66.6036697 30.9654085,67.8540958 30.4087503,69.0264869 L30.4087503,69.0264869 Z" id="Path" fill="#FFFFFF"></path>
                    <path d="M101.971902,62.1174449 C102.436642,63.8462733 102.635589,65.6357575 102.561912,67.4244449 C102.584112,71.0700809 102.535798,74.7152409 102.41697,78.3599249 C102.435144,80.2292437 102.196116,82.0921794 101.706606,83.8963589 C101.333502,85.0696169 100.757736,86.1698369 100.37241,87.3391589 C99.2176143,90.8434949 99.8485623,94.6442789 99.9476103,98.3326529 C100.017517,99.5264321 99.915639,100.724064 99.6450963,101.888883 C99.0356763,104.175381 97.3979043,106.022949 96.2548143,108.094869 C95.1691923,110.062623 94.5141363,112.268259 93.2175483,114.103869 C91.9209603,115.939479 89.6764323,117.393993 87.5008683,116.830479 C85.8524643,116.403513 84.6811803,114.944445 83.8710063,113.446737 C82.1031076,110.153727 81.4984732,106.360386 82.1550063,102.680937 C82.9683723,98.2043009 85.5979323,94.2329369 86.5462623,89.7829349 C87.8485323,83.6721029 85.8693063,77.3661989 85.9282023,71.1184169 C85.9013424,70.1390592 86.0341816,69.161865 86.3215023,68.2252169 C86.8189023,66.7981049 87.8872683,65.6584169 88.8742203,64.5138869 C90.1075272,63.0835417 91.2532293,61.5799407 92.3050563,60.0113129 C93.0116163,58.9575689 93.9712563,56.2473509 95.2239243,56.0220029 C98.0206683,55.5188669 101.278026,59.9567129 101.971902,62.1174449 Z" id="Path" fill="#FFFFFF"></path>
                    <path d="M15.8967123,123.027855 C14.3501406,122.639142 12.7566085,122.46974 11.1628803,122.524623 C7.7754789,122.711866 4.63201805,124.346215 2.53298946,127.011478 C0.433960879,129.676741 -0.418068834,133.115707 0.193872254,136.452633 C0.580056562,138.239477 1.21129202,139.964389 2.06967025,141.578433 C3.32508625,144.126171 4.83079825,146.668065 7.15490425,148.300713 C8.55522346,149.198419 10.0630489,149.916153 11.6427723,150.436965 L23.8834143,155.048229 C25.6841463,155.726601 27.4851543,156.405063 29.3037123,157.034085 C38.4399713,160.192051 47.9652015,162.085685 57.6146283,162.662349 C60.5508816,162.937472 63.511471,162.787454 66.4048743,162.216933 C67.1043147,162.125691 67.7454119,161.779329 68.2051083,161.244333 C68.4384283,160.837817 68.5759905,160.383454 68.6073363,159.915789 L69.3605583,154.642743 C69.5291502,153.908449 69.5071117,153.143236 69.2965383,152.419863 C68.9514903,151.533663 68.0865843,150.976173 67.2619383,150.502527 C59.2145823,145.880523 49.8183303,143.330601 43.0447383,136.986981 C41.4501303,135.493581 40.1157003,133.126413 38.1782643,132.111981 C35.9812443,130.961631 33.3938643,130.305087 31.1229063,129.245055 C26.1583803,126.927693 21.2773023,124.264689 15.8967123,123.027855 Z" id="Path" fill="#2F2E41"></path>
                    <path d="M28.1171943,130.136679 C32.4437463,131.492397 50.7104583,140.884845 53.8414263,144.164181 C53.4217443,144.315381 39.1825143,136.335507 38.7552543,136.207275 C34.838738,135.131653 31.0033056,133.78004 27.2777343,132.162579 C26.5357563,131.819379 22.4573943,130.206435 22.6420923,129.270255 C22.8505083,128.213817 27.3491283,129.896001 28.1171943,130.136679 Z" id="Path" fill="#000000" opacity="0.1"></path>
                    <path d="M82.0936623,165.397083 C82.3391858,165.415087 82.5828988,165.343362 82.7795283,165.195231 C82.953757,164.971448 83.030979,164.687149 82.9939083,164.405973 L82.9737543,157.222215 C80.9079843,156.237975 78.5972643,155.922495 76.3291743,155.619327 L65.7466203,154.204779 C65.9897583,154.237275 64.0919823,158.762763 64.3829703,159.366933 C64.8958323,160.431783 68.8152783,161.375529 69.9214383,161.878305 C73.7668383,163.626159 77.7627063,165.547689 82.0936623,165.397083 Z" id="Path" fill="#A0616A"></path>
                    <path d="M48.8910603,157.197357 C46.8929823,157.515603 44.6628603,157.796919 43.3688763,159.352299 C41.7279243,161.324727 42.4264923,164.265099 43.2092763,166.708569 C43.3056886,167.345717 43.6558149,167.916741 44.1799417,168.291634 C44.7040685,168.666527 45.3575892,168.813383 45.9917163,168.698769 C47.8139163,168.814155 49.7531523,168.904569 51.3452883,168.010743 C52.066449,167.534171 52.7607234,167.018113 53.4249363,166.464927 C54.599004,165.683691 55.8895755,165.093658 57.2485323,164.716827 C59.7467617,163.931009 62.3183664,163.401044 64.9237323,163.135095 C65.9503354,163.088328 66.9666014,162.909185 67.9473183,162.602109 C68.9402522,162.282108 69.727451,161.517828 70.0766403,160.534779 C70.4454363,159.229287 69.6866823,157.898289 68.9589903,156.753381 C68.1205095,155.253833 67.0320332,153.908535 65.7405243,152.775531 C63.7686723,151.243827 62.7932523,152.419653 60.8069823,153.399825 C57.0475918,155.255248 53.0307941,156.535377 48.8910603,157.197357 L48.8910603,157.197357 Z" id="Path" fill="#A0616A"></path>
                    <path d="M43.6694763,158.997123 L30.9824103,155.247267 C29.4606851,154.717364 27.870614,154.409237 26.2611003,154.332363 C24.6307945,154.265496 23.0507556,154.904477 21.9252363,156.085821 C20.9414463,157.240455 20.6598363,158.818527 20.4146043,160.315485 L19.8899643,163.517685 C19.5401099,165.132015 19.441032,166.790606 19.5962163,168.435105 C19.7673168,170.101698 20.6971942,171.596345 22.1166243,172.486305 C23.8722663,173.444157 26.0240343,172.976313 27.9834243,172.575663 C31.9412662,171.766671 35.9669307,171.334977 40.0063143,171.286383 C41.5249143,171.268221 43.1176863,171.287241 44.4595563,170.576061 C46.0408997,169.638586 47.0566207,167.980053 47.1729903,166.145397 C47.4226563,163.409979 46.5109083,159.836979 43.6694763,158.997123 Z" id="Path" fill="#2F2E41"></path>
                    <path d="M87.0807543,155.729379 C88.7254443,155.441127 90.1769703,154.506381 91.7529543,153.954639 C93.9712143,153.178029 96.3750963,153.178041 98.7253563,153.186639 C99.5895137,153.107684 100.45799,153.281616 101.225094,153.687267 C102.26034,154.376481 102.525672,155.755749 102.701694,156.986919 L103.763754,164.415087 C104.047796,165.800952 104.077196,167.226948 103.850514,168.623343 C103.538928,169.999887 102.600642,171.326943 101.234676,171.682059 C99.5756763,172.113351 97.9492983,171.053583 96.3828783,170.357409 C92.4677403,168.617409 87.9166263,169.062117 83.8343883,167.761605 C83.0450301,167.603371 82.3613249,167.114452 81.9563883,166.418643 C81.8167551,166.006067 81.7669398,165.568406 81.8102823,165.135003 C81.8801883,162.747369 81.3766023,159.487011 82.0954443,157.205115 C82.7419083,155.152893 85.2448623,155.729379 87.0807543,155.729379 Z" id="Path" fill="#2F2E41"></path>
                    <path d="M113.929356,120.038031 C116.464426,119.402341 119.092383,119.222791 121.690356,119.507775 C123.765156,119.736375 125.902878,120.313695 127.417734,121.749783 C129.261534,123.497709 129.853938,126.200913 129.90336,128.741061 C129.984416,133.800412 128.306387,138.730963 125.155902,142.690515 C124.386573,143.691999 123.471699,144.572711 122.441676,145.303389 C121.330535,145.998461 120.146282,146.569153 118.910298,147.005163 L91.4978943,157.817415 C84.2862963,160.661883 77.0492463,163.514589 69.5271603,165.389805 C69.1116863,165.590377 68.6328542,165.614806 68.199125,165.457559 C67.7653957,165.300311 67.4134726,164.974693 67.2230703,164.554461 C64.8213095,161.123765 62.8063807,157.437939 61.2150363,153.564213 C61.0621086,153.37738 61.0098568,153.127729 61.0750228,152.89525 C61.1401889,152.66277 61.3145905,152.476652 61.5423483,152.396529 L80.9313483,141.256197 C82.3530546,140.51463 83.6784109,139.601441 84.8777163,138.537093 C85.7156661,137.725008 86.4018058,136.769762 86.9038023,135.716367 C87.3057063,134.876913 87.3431943,132.895941 87.8565543,132.275457 C88.3591803,131.667951 90.0785823,131.619471 90.8726823,131.380533 C91.9926239,131.037482 93.0893874,130.622888 94.1562063,130.139307 C98.4933843,128.198997 102.355572,125.379825 106.513344,123.107907 C108.845323,121.774594 111.337289,120.743039 113.929356,120.038031 L113.929356,120.038031 Z" id="Path" fill="#2F2E41"></path>
                    <path d="M102.937518,128.357589 C99.6064203,130.859475 95.2932363,133.159281 91.9917663,135.727089 C90.8650083,136.603455 72.0817023,147.163623 71.8161123,148.566141 C74.8962003,149.085141 94.5166383,135.359133 97.3238343,133.989495 C100.13103,132.619857 102.619518,130.688391 105.085392,128.771169 C105.713796,128.282583 108.376992,126.813801 106.57302,126.267927 C105.556794,125.960421 103.687794,127.857423 102.937518,128.357589 Z" id="Path" fill="#000000" opacity="0.1"></path>
                    <path d="M80.0170083,46.8297089 L50.7761943,46.8297089 C48.3023499,46.8297089 46.2969036,48.8351585 46.2969003,51.3090029 L46.2969003,52.9492829 L45.9791703,52.9492829 L45.9791703,56.6175809 L46.2969003,56.6175809 L46.2969003,59.1853949 L45.9791703,59.1853949 L45.9791703,61.3863749 L46.2969003,61.3863749 L46.2969003,88.4531789 C46.2969036,90.9270233 48.3023499,92.9324729 50.7761943,92.9324729 L80.0170323,92.9324729 C82.4908766,92.9324729 84.4963263,90.9270233 84.4963263,88.4531789 L84.4963263,51.3089789 C84.4963263,48.8351345 82.4908526,46.8297089 80.0170083,46.8297089 L80.0170083,46.8297089 Z" id="Path" fill="#D0CDE1"></path>
                    <polygon id="Path" fill="#2F2E41" points="84.6644523 12.2311169 69.8336523 4.46231687 49.3526523 7.64051687 45.1154523 26.3557169 55.6634523 25.9495169 58.6100523 19.0741169 58.6100523 25.8367169 63.4772523 25.6495169 66.3020523 14.7025169 68.0678523 26.3557169 85.3706523 26.0023169"></polygon>
                    <path d="M34.2888663,117.613971 C34.9598972,118.754431 35.913277,119.702899 37.0571883,120.368031 C38.5780684,121.062648 40.3345694,121.01557 41.8160583,120.240483 C43.276146,119.457604 44.4712925,118.259338 45.2503623,116.797215 C46.8621843,113.950977 47.1959883,110.545161 46.9948563,107.280417 C46.7937243,104.015673 46.0966563,100.800927 45.7881063,97.5445769 C45.5638263,95.1774329 45.5455923,92.7961769 45.5275263,90.4184909 C45.4718408,89.9184957 45.5767242,89.4137523 45.8269923,88.9773329 C46.2579429,88.5488069 46.8154164,88.2704236 47.4168963,88.1833889 C50.6699043,87.2168669 52.8291603,84.1677989 54.3771903,81.1478969 C55.4108583,79.1314109 56.3097183,76.9271429 56.1103863,74.6699429 C55.9110543,72.4127429 54.2886003,70.1388209 52.0343523,69.9085589 C50.1758823,69.7187189 48.4598763,70.8991289 47.1192843,72.2001809 C43.7374479,75.5028065 41.5640127,79.84641 40.9481943,84.5330849 C40.6539183,86.8281449 40.7381943,89.1856649 40.1139723,91.4137229 C38.7811023,96.1710449 34.6108083,99.0877889 32.5325823,103.368525 C30.2426283,108.085437 31.5065283,113.440461 34.2888663,117.613971 Z" id="Path" fill="#A0616A"></path>
                    <path d="M95.6570943,99.4390229 C94.6989961,101.668035 92.8806858,103.415202 90.6152283,104.283621 C89.2214192,104.843483 87.6839409,104.937644 86.2322283,104.552055 C84.7729858,104.147236 83.5858218,103.085374 83.0214123,101.680131 C82.7993047,100.981819 82.677532,100.255494 82.6597443,99.5229269 C82.4511843,96.3147869 82.5317763,93.0088949 83.6970843,90.0126089 C84.1465443,88.8569429 84.7525623,87.7609289 85.1072763,86.5727549 C85.4558753,85.2004987 85.6342165,83.7905469 85.6382763,82.3747109 L86.0213523,73.6213109 C86.0847071,72.9858291 86.0407523,72.3442177 85.8913263,71.7233129 C85.5092283,70.4567429 84.3254883,69.6336449 83.2393563,68.8783229 C80.6162823,67.0541669 78.0241563,64.9255709 76.7531043,61.9942769 C76.3164242,61.1117238 76.1600333,60.1167508 76.3049043,59.1427889 C76.6632963,57.4045889 78.4174443,56.2793249 80.1512283,55.9002209 C82.4435541,55.3989891 84.8411481,55.8557826 86.788586,57.1647809 C88.7360239,58.4737792 90.064322,60.5213976 90.4657683,62.8332869 C90.6373023,63.8211269 90.6349383,64.8301709 90.7353423,65.8277549 C90.9483123,67.9438649 91.6200963,69.9836849 92.0403423,72.0685589 C93.0755343,77.2040369 92.5391283,82.5126389 93.5628123,87.6472469 C94.4187603,91.9403429 97.6462263,94.7416349 95.6570943,99.4390229 Z" id="Path" fill="#A0616A"></path>
                    <circle id="Oval" fill="#3564B1" cx="65.7879663" cy="62.8536929" r="3.668298"></circle>
                </g>
                <circle id="Oval" fill="#2F2E41" cx="10.822194" cy="259.781538" r="10.821024"></circle>
                <polygon id="Path" fill="#FBBEBE" points="50.0466 291.906 44.5962 286.608 33.6516 290.0076 34.7028 302.6802 57.2064 301.635 50.2932 292.2414"></polygon>
                <circle id="Oval" fill="#FBBEBE" cx="38.126094" cy="274.302312" r="17.494632"></circle>
                <path d="M146.733738,314.360502 C146.733738,314.360502 168.226206,351.29571 173.341194,356.840646 C175.773685,359.569538 178.365225,362.152381 181.102278,364.575684 C181.102278,364.575684 178.697208,372.551742 174.86748,372.267084 C172.68463,372.135629 170.543919,371.608063 168.549954,370.710168 C168.549954,370.710168 166.840614,366.279168 163.85904,364.335966 C160.877466,362.392764 136.51806,338.428092 137.087412,330.76863 C137.656764,323.109168 146.733738,314.360502 146.733738,314.360502 Z" id="Path" fill="#2F2E41"></path>
                <path d="M70.192476,367.068624 C70.192476,367.068624 93.108324,384.855168 124.251696,368.142204 L126.935574,366.167082 C126.935574,366.167082 122.40627,376.356282 121.98603,379.11873 C121.498764,382.321788 109.70664,401.084796 107.782326,401.983764 C105.858012,402.882732 105.433926,403.711998 105.433926,403.711998 L113.600196,412.700376 L116.619552,410.47836 C116.619552,410.47836 128.392782,393.797958 131.836218,390.746682 C135.279654,387.695406 151.68585,356.227662 151.68585,356.227662 C151.68585,356.227662 157.958436,344.371062 142.304022,343.479252 C126.649608,342.587442 119.44614,346.854252 119.44614,346.854252 L91.663482,351.267642 L70.192476,367.068624 Z" id="Path" fill="#2F2E41"></path>
                <path d="M181.36806,362.828562 L192.95886,370.84827 C192.95886,370.84827 207.74622,375.481218 198.637332,378.564414 C189.528444,381.64761 165.524706,382.76283 164.980116,378.509022 C164.435526,374.255214 165.926916,367.559814 167.124414,367.92594 C168.321912,368.292066 176.633496,370.450236 181.36806,362.828562 Z" id="Path" fill="#2F2E41"></path>
                <path d="M117.645234,407.723136 L119.790546,419.50401 C119.790546,419.50401 125.890746,431.17062 118.566432,427.550724 C111.242118,423.930828 96.1521,410.180724 98.380392,407.298132 C100.608684,404.41554 105.526812,401.289246 106.02627,402.228594 C106.525728,403.167942 110.22231,409.45755 117.645234,407.723136 Z" id="Path" fill="#2F2E41"></path>
                <path d="M95.544018,355.13517 C95.544018,355.13517 79.966464,373.322316 70.509066,368.904342 C61.051668,364.486368 22.359618,313.315542 26.777592,303.858144 C31.195566,294.400746 32.676906,296.413662 32.676906,296.413662 L52.654836,298.261116 L46.906656,289.044738 C46.906656,289.044738 49.590534,287.069616 52.148028,289.84209 C54.705522,292.614564 64.973292,299.539218 68.55027,309.31908 C72.127248,319.098942 82.628874,318.611022 82.628874,318.611022 L95.544018,355.13517 Z" id="Path" fill="#FFFFFF"></path>
                <polygon id="Path" fill="#3F3D56" points="158.451 317.6328 131.448 346.2966 107.2584 303.5886 130.2546 275.8044"></polygon>
                <polygon id="Path" fill="#FFFFFF" points="156.4128 317.3226 132.024 342.5112 109.9236 303.696 130.1916 278.1786"></polygon>
                <polygon id="Path" fill="#B3B3B3" points="130.125 345.2016 131.448 346.2966 130.5996 347.955 92.841 359.193 92.484 357.8994 94.2018 356.1228"></polygon>
                <polygon id="Path" fill="#D0CDE1" points="131.7834 346.05 92.6832 358.275 68.8482 313.2372 107.2584 303.5886"></polygon>
                <polygon id="Path" fill="#3F3D56" points="128.8398 339.9414 127.1622 341.1756 108.5442 308.8488 110.4684 307.95"></polygon>
                <polygon id="Path" fill="#3F3D56" points="124.9908 341.739 108.4506 346.671 89.6742 313.4262 106.0374 309.6594"></polygon>
                <path d="M78.393942,317.073 L81.818484,316.10433 C81.818484,316.10433 100.916334,313.94487 101.195142,319.9458 C101.47395,325.94673 79.255122,323.162526 79.255122,323.162526 L76.292436,319.136718 L78.393942,317.073 Z" id="Path" fill="#FBBEBE"></path>
                <path d="M95.144706,344.05116 L99.91119,342.094932 C99.91119,342.094932 114.299232,335.64387 110.17179,331.440864 C106.044348,327.237858 93.314844,334.537086 93.314844,334.537086 L90.87786,336.847686 L95.144706,344.05116 Z" id="Path" fill="#FBBEBE"></path>
                <path d="M90.896742,334.765062 C90.896742,334.765062 98.657826,342.5001 96.89181,344.316924 C95.125794,346.133748 66.166644,370.031286 58.987938,362.384844 C51.809232,354.738402 16.833552,316.347906 30.443142,313.05561 C44.052732,309.763314 47.648598,317.460564 47.648598,317.460564 L65.614902,348.19875 L90.896742,334.765062 Z" id="Path" fill="#FFFFFF"></path>
                <polygon id="Path" fill="#FFFFFF" points="67.6578 311.2686 80.4066 315.5916 80.1984 324.7956 66.7152 323.3406"></polygon>
                <polygon id="Path" fill="#000000" opacity="0.2" points="79.1484 339.5322 65.4126 347.5722 49.719 323.436 64.8678 343.3182"></polygon>
                <circle id="Oval" fill="#2F2E41" cx="30.447186" cy="269.231034" r="20.826942"></circle>
                <polygon id="Path" fill="#3564B1" points="142.98 319.4502 128.397 298.1172 134.5788 290.4648 149.7318 312.4128"></polygon>
                <polygon id="Path" fill="#E6E6E6" points="142.569 328.0272 120.3678 295.7514 121.4628 294.4284 143.5602 326.7804"></polygon>
                <polygon id="Path" fill="#E6E6E6" points="139.7082 331.167 117.507 298.8912 118.602 297.5682 140.6994 329.9208"></polygon>
                <polygon id="Path" fill="#E6E6E6" points="137.271 333.4776 115.0698 301.2018 116.1648 299.8788 138.2622 332.2314"></polygon>
                <path d="M39.670116,255.32664 L46.112916,255.32664 C52.9059256,255.32664 58.412748,260.833462 58.412748,267.626472 L58.412748,267.626472 L39.670116,267.626472 L39.670116,255.32664 Z" id="Path" fill="#2F2E41"></path>
                <path d="M128.418786,247.499226 L127.250802,247.412286 C127.205508,248.019582 127.173084,248.630526 127.134546,249.239826 L121.891896,249.064302 L127.391226,259.369512 L133.567494,249.455178 L128.305602,249.279012 C128.343246,248.685762 128.374674,248.090862 128.418786,247.499226 Z" id="Path" fill="#3F3D56"></path>
                <path d="M159.168678,163.49892 L160.099878,164.20992 C161.496648,162.380448 162.955482,160.55412 164.436078,158.781552 L163.536924,158.030544 C162.045444,159.816234 160.575744,161.656002 159.168678,163.49892 Z" id="Path" fill="#3F3D56"></path>
                <path d="M168.141888,152.760294 L169.006722,153.5502 C170.560788,151.848276 172.174344,150.158076 173.801922,148.525932 L172.972542,147.698862 C171.332676,149.342718 169.707396,151.045788 168.141888,152.760294 Z" id="Path" fill="#3F3D56"></path>
                <path d="M178.020258,142.855062 L178.812444,143.71818 C180.512082,142.157532 182.266914,140.616048 184.02804,139.13634 L183.27474,138.239478 C181.500462,139.730034 179.732478,141.283248 178.020258,142.855062 Z" id="Path" fill="#3F3D56"></path>
                <path d="M151.173264,174.99084 L152.16336,175.616586 C153.39456,173.66871 154.687506,171.720264 156.005916,169.825014 L155.044422,169.155798 C153.715998,171.065346 152.413602,173.028384 151.173264,174.99084 Z" id="Path" fill="#3F3D56"></path>
                <path d="M188.725992,133.859814 L189.439248,134.78871 C191.269584,133.383354 193.15254,132.002598 195.035778,130.684758 L194.364276,129.724974 C192.466734,131.052828 190.569768,132.443862 188.725992,133.859814 Z" id="Path" fill="#3F3D56"></path>
                <path d="M144.222288,187.149408 L145.263888,187.684776 C146.319192,185.632518 147.435126,183.576252 148.580514,181.573464 L147.563514,180.991764 C146.409534,183.009708 145.285308,185.081412 144.222288,187.149408 Z" id="Path" fill="#3F3D56"></path>
                <path d="M132.923406,220.122006 L131.789172,219.830016 C131.210328,222.077616 130.674372,224.369526 130.196208,226.642572 L131.34246,226.883946 C131.817198,224.62806 132.34914,222.352728 132.923406,220.122006 Z" id="Path" fill="#3F3D56"></path>
                <path d="M200.177586,125.844096 L200.806194,126.832476 C202.747794,125.596998 204.743994,124.388124 206.739594,123.239304 L206.155032,122.224038 C204.144552,123.381726 202.133472,124.599462 200.177586,125.844096 Z" id="Path" fill="#3F3D56"></path>
                <path d="M130.0638,233.709378 L128.907828,233.519478 C128.531748,235.806252 128.20143,238.136478 127.926024,240.445578 L129.089424,240.583992 C129.36255,238.292646 129.690582,235.979562 130.0638,233.709378 Z" id="Path" fill="#3F3D56"></path>
                <path d="M138.375228,199.883382 L139.460274,200.324382 C140.328822,198.186582 141.258006,196.038258 142.221786,193.93938 L141.157338,193.450338 C140.186142,195.565224 139.25007,197.729592 138.375228,199.883382 Z" id="Path" fill="#3F3D56"></path>
                <path d="M133.683282,213.095532 L134.803788,213.437574 C135.479298,211.227174 136.213434,209.003304 136.985892,206.827782 L135.88197,206.435982 C135.103794,208.627512 134.36394,210.868242 133.683282,213.095532 Z" id="Path" fill="#3F3D56"></path>
                <path d="M279.418164,102.4959 C281.714664,102.4164 284.052912,102.384654 286.365996,102.406386 L286.376292,101.234976 C284.047194,101.213238 281.69064,101.244984 279.378126,101.32506 L279.418164,102.4959 Z" id="Path" fill="#3F3D56"></path>
                <path d="M212.285532,118.873386 L212.824332,119.91324 C214.870014,118.853364 216.964032,117.826374 219.048894,116.86059 L218.55642,115.797852 C216.45612,116.770788 214.34637,117.8055 212.285532,118.873386 Z" id="Path" fill="#3F3D56"></path>
                <path d="M307.136856,103.956462 C309.421908,104.279916 311.728128,104.65857 313.991454,105.082116 L314.206518,103.930716 C311.926608,103.50402 309.603228,103.122228 307.30044,102.796482 L307.136856,103.956462 Z" id="Path" fill="#3F3D56"></path>
                <path d="M320.79,106.510908 C323.033298,107.034846 325.2972,107.617116 327.51762,108.241434 L327.834492,107.113488 C325.597482,106.484598 323.317002,105.89832 321.056538,105.370386 L320.79,106.510908 Z" id="Path" fill="#3F3D56"></path>
                <path d="M334.160016,110.269956 C336.347262,110.99151 338.549952,111.772836 340.706316,112.592478 L341.122716,111.497712 C338.949768,110.671776 336.731058,109.884444 334.527222,109.15746 L334.160016,110.269956 Z" id="Path" fill="#3F3D56"></path>
                <path d="M293.310396,102.619164 C295.617192,102.740136 297.948006,102.914016 300.238782,103.135374 L300.352038,101.969682 C298.044096,101.746326 295.695552,101.571282 293.372172,101.449482 L293.310396,102.619164 Z" id="Path" fill="#3F3D56"></path>
                <path d="M265.432698,102.420972 L265.575696,103.583808 C267.858462,103.302966 270.182988,103.068738 272.48406,102.887994 L272.392542,101.72001 C270.07374,101.902188 267.73206,102.138132 265.432698,102.420972 Z" id="Path" fill="#3F3D56"></path>
                <path d="M238.105248,108.281472 L238.451868,109.400262 C240.65313,108.718752 242.899578,108.077562 245.129154,107.494428 L244.832868,106.36134 C242.586702,106.948476 240.323094,107.594526 238.105248,108.281472 Z" id="Path" fill="#3F3D56"></path>
                <path d="M224.955156,113.004594 L225.39987,114.088494 C227.529636,113.21451 229.705158,112.37799 231.8661,111.601524 L231.470286,110.499324 C229.292742,111.28122 227.100942,112.124316 224.955156,113.004594 Z" id="Path" fill="#3F3D56"></path>
                <path d="M251.639142,104.742636 L251.884542,105.888312 C254.134998,105.405846 256.429494,104.96685 258.704826,104.583912 L258.510354,103.428516 C256.218114,103.814598 253.906176,104.256738 251.639142,104.742636 Z" id="Path" fill="#3F3D56"></path>
                <path d="M358.184742,119.835204 L351.638616,110.161104 L349.33683,114.899058 C348.779718,114.65028 348.22563,114.396108 347.669046,114.15513 L347.203446,115.23045 C347.746932,115.46565 348.28431,115.71225 348.824646,115.953288 L346.533762,120.668826 L358.184742,119.835204 Z" id="Path" fill="#3F3D56"></path>
            </g>
        </g>
    </g>
</svg>