<svg xmlns="http://www.w3.org/2000/svg" width="529" height="366" viewBox="0 0 529 366">
    <g fill="none">
        <path fill="#E6E6E6" d="M70.583 264.38l-6.864-10.974c2.218-5.7 4.759-11.271 7.611-16.688l4.507 3.752-3.515-5.619C75.916 228.188 78.723 224 78.723 224s13.759 22.435 18.029 45.983l-9.375 13.72 10.23-7.842c.302 2.74.43 5.495.384 8.25-.566 27.777-10.194 50.113-21.506 49.887-11.312-.225-20.024-22.925-19.459-50.703.175-8.611 2.328-17.581 5.214-25.86l8.343 6.945z"/>
        <path fill="#E6E6E6" d="M40.14 275.939l-11.571-5.916c-1.076-6.046-1.81-12.148-2.197-18.276l5.8.912-5.926-3.029c-.403-7.583-.19-12.63-.19-12.63s23.423 12.235 39.33 30.307l-.854 16.628 4.643-12.008c1.685 2.202 3.23 4.507 4.625 6.903 13.983 24.197 17.4 48.371 7.63 53.993-9.768 5.622-29.023-9.437-43.006-33.634-4.335-7.502-7.17-16.329-9.02-24.939l10.736 1.689z"/>
        <path fill="#E6E6E6" d="M98 365.63c-13.236.858-27.658-.05-43 0V330c13.52 2.135 27.936 1.915 43 0v35.63zM410 204.325L269.595 227 269 90.094 409.405 0z"/>
        <path fill="#FFF" d="M398 183.692L276 210 276 95.202 398 29z"/>
        <path fill="#3F3D56" d="M386 78.921L283 125 283 108.833 386 58z"/>
        <path fill="#418CD2" d="M386 121.667L283 158 283 142.03 386 101z"/>
        <path fill="#E6E6E6" d="M322.588 102.287c.041-.164.189-.281.36-.287.173-.005.328.102.38.263l1.663 5.137 1.99 6.154c.061.187-.034.387-.218.463l-3.848 1.572-3.382 1.382c-.134.055-.288.03-.399-.062-.11-.093-.158-.238-.123-.376l1.85-7.368 1.727-6.878zM316.335 141.468c.069-.268.318-.459.608-.468.29-.009.552.166.64.429l1.423 4.254 1.964 5.868c.101.304-.059.63-.37.753l-3.714 1.468-2.988 1.18c-.226.09-.486.051-.672-.1-.185-.151-.266-.389-.207-.614l1.769-6.812 1.547-5.958z"/>
        <path fill="#F2F2F2" d="M386 164.723L283 191 283 174.212 386 143z"/>
        <path fill="#3F3D56" d="M383 91.023c0 3.523-1.586 7.025-3.528 7.817-1.924.785-3.472-1.395-3.472-4.862s1.548-6.954 3.472-7.794c1.942-.848 3.528 1.316 3.528 4.839z"/>
        <path fill="#FFF" d="M381 91.545c0 1.079-.45 2.155-1.003 2.403-.551.248-.997-.42-.997-1.493 0-1.073.446-2.147.997-2.4.553-.255 1.003.412 1.003 1.49z"/>
        <path fill="#418CD2" d="M383 132.023c0 3.523-1.586 7.025-3.528 7.817-1.924.785-3.472-1.395-3.472-4.862s1.548-6.954 3.472-7.794c1.942-.848 3.528 1.316 3.528 4.839z"/>
        <path fill="#FFF" d="M381 133.545c0 1.079-.45 2.155-1.003 2.403-.551.248-.997-.42-.997-1.493 0-1.073.446-2.147.997-2.4.553-.255 1.003.412 1.003 1.49z"/>
        <path fill="#F2F2F2" d="M383 174.023c0 3.523-1.586 7.025-3.528 7.817-1.924.785-3.472-1.395-3.472-4.862s1.548-6.954 3.472-7.794c1.942-.848 3.528 1.316 3.528 4.839z"/>
        <path fill="#FFF" d="M381 175.545c0 1.079-.45 2.155-1.003 2.403-.551.248-.997-.42-.997-1.493 0-1.073.446-2.147.997-2.4.553-.255 1.003.412 1.003 1.49z"/>
        <path fill="#E6E6E6" d="M326.335 175.468c.069-.268.318-.459.608-.468.29-.009.552.166.64.429l1.423 4.254 1.964 5.868c.101.304-.059.63-.37.753l-3.714 1.468-2.988 1.18c-.226.09-.486.051-.672-.1-.185-.151-.266-.389-.207-.614l1.769-6.812 1.547-5.958z"/>
        <path fill="#A0616A" d="M302.085 168l5.649-5.193s12.785-8.778 8.32-13.604c-4.467-4.826-13.468 6.427-13.468 6.427L297 159.277l5.085 8.723z"/>
        <path fill="#2F2E41" d="M228.582 171.076l-3.22 4.446s-4.502 17.357 18.276 18.279c0 0 29.09 14.14 36.291 5.281 7.201-8.86 27.071-30.17 27.071-30.17L295.311 157l-23.819 24.964-23.108-11.611s-11.903-6.583-19.802.723z"/>
        <path fill="#E6E6E6" d="M213.603 253L183 364.239 186.855 365 219 253zM249.398 253L280 364.239 276.145 365 244 253zM229 250.529L233.817 364.803 238 365 232.619 249z"/>
        <path fill="#E6E6E6" d="M243 249.423c0 2.998-7.893 6.216-18.252 7.25-11.118 1.11-20.748-.692-20.748-4.1 0-3.407 9.63-6.765 20.748-7.451 10.36-.64 18.252 1.303 18.252 4.301z"/>
        <path fill="#2F2E41" d="M254.778 229l7.556 5.345s32.49 23.673 29.467 32.837C288.78 276.345 272.156 313 272.156 313L251 306.127l24.179-38.945-12.845-12.218-6.8-16.8-.756-9.164z"/>
        <path fill="#2F2E41" d="M225.02 215.787s-15.244 23.672-6.098 30.544c9.147 6.873 35.06 33.599 35.06 33.599l5.336 12.218L278.372 354 302 341.782l-21.341-48.107s-2.287-17.563-9.908-27.49c-7.622-9.927-10.67-24.435-10.67-24.435l2.286-6.873L248.72 213l-23.7 2.787z"/>
        <path fill="#2F2E41" d="M266 309.194l-13.818-4.173s-14.922-.61-14.153 4.73c.768 5.34 13.07 40.43 16.914 38.142 3.844-2.289.768-12.968.768-12.968L266 309.194z"/>
        <path fill="#A0616A" d="M235.826 142L228 150.324 240.521 170 246 154.865z"/>
        <path fill="#418CD2" d="M242.585 170.504L229.205 148l-4.698 1.08v7.652L223 221l24.857-3.825s1.507-41.316-5.272-46.671z"/>
        <path fill="#2F2E41" d="M235.928 169.66L224.406 149l-9.986 4.591-17.666 71.927L186 246.178s35.333 17.6 43.783 0c8.449-17.6 9.217-56.623 9.217-56.623l-3.072-19.895z"/>
        <path fill="#2F2E41" d="M219.214 157.295l-4.578-3.056s-17.55-3.82-17.55 19.103c0 0-12.97 29.8-3.815 36.678 9.156 6.877 31.284 25.98 31.284 25.98L236 223.774l-25.942-22.924 10.682-23.688s6.104-12.225-1.526-19.867z"/>
        <path fill="#A0616A" d="M225 230.247l5.3 5.248s9.085 11.994 13.627 7.496c4.543-4.498-6.813-12.744-6.813-12.744L233.328 225 225 230.247z"/>
        <path fill="#2F2E41" d="M242.128 164l13.404 32.096S261 212.116 261 218.218V235l-14.841-19.07s-8.06-49.699-4.03-51.93zM283.373 347.859s-3.767 14.952 1.177 16.218 46.424 2.337 46.45-4.73c.026-7.068-26.92-12.907-26.92-12.907l-9.956-6.44-10.75 7.859z"/>
        <circle cx="245.5" cy="141.5" r="13.5" fill="#A0616A"/>
        <path fill="#2F2E41" d="M259.817 139.181s2.662-11.466 0-14.112v1.764s-1.774-6.173-5.323-4.41c0 0-4.436-3.527-5.323-1.763-5.22-4.692-28.367-.294-17.131 24.34 0 0 2.049-7.583 2.049-4.937 0 0 5.323-5.292 6.21-7.056.887-1.764 15.97 9.702 19.518 6.174z"/>
        <path fill="#3F3D56" d="M0 365H529V366H0z"/>
    </g>
</svg>
