<svg xmlns="http://www.w3.org/2000/svg" width="232" height="227" viewBox="0 0 232 227">
    <defs>
        <linearGradient id="prefix__a" x1="50%" x2="50%" y1="100%" y2="0%">
            <stop offset="0%" stop-color="gray" stop-opacity=".25"/>
            <stop offset="53.514%" stop-color="gray" stop-opacity=".12"/>
            <stop offset="100%" stop-color="gray" stop-opacity=".1"/>
        </linearGradient>
    </defs>
    <g fill="none">
        <path fill="#E6E6E6" d="M231.6 51.021L231.6 67.401 216.447 60.75 210.297 58.05 205.512 55.95 180.912 45.15 176.127 43.05 169.977 40.35 81.48 1.5 118.794 1.5z"/>
        <circle cx="198.9" cy="19.8" r="19.8" fill="#3564B1"/>
        <path fill="#FFF" d="M209.4 112.2c-1.988 0-3.6-1.612-3.6-3.6s1.612-3.6 3.6-3.6 3.6 1.612 3.6 3.6c-.002 1.987-1.613 3.598-3.6 3.6zm0-6.6c-1.657 0-3 1.343-3 3s1.343 3 3 3 3-1.343 3-3c-.002-1.656-1.344-2.998-3-3zM7.8 62.7H0v-7.8h7.8v7.8zm-7.2-.6h6.6v-6.6H.6v6.6zM123.9 9h-7.8V1.2h7.8V9zm-7.2-.6h6.6V1.8h-6.6v6.6z"/>
        <path fill="#E6E6E6" fill-opacity=".686" d="M35.55 48.786H91.35V94.086H35.55z"/>
        <path fill="#E6E6E6" d="M35.55 107.886H190.05V112.68599999999999H35.55z"/>
        <path fill="#FFF" d="M87.75 91.686h-56.4v-45.9h56.4v45.9zm-55.8-.6h55.2v-44.7h-55.2v44.7z"/>
        <path fill="#E6E6E6" d="M113.55 61.236H167.55V66.036H113.55z"/>
        <path fill="#E6E6E6" d="M113.55 74.136H190.05V78.93599999999999H113.55z" opacity=".704"/>
        <path fill="#FFF" d="M163.95 63.636h-54.6v-5.4h54.6v5.4zm-54-.6h53.4v-4.2h-53.4v4.2zM186.45 76.536h-77.1v-5.4h77.1v5.4zm-76.5-.6h75.9v-4.2h-75.9v4.2zM186.45 110.286H31.35v-5.4h155.1v5.4zm-154.5-.6h153.9v-4.2H31.95v4.2z"/>
        <path fill="#E6E6E6" d="M35.55 122.886H190.05V127.68599999999999H35.55z"/>
        <path fill="#FFF" d="M186.45 125.286H31.35v-5.4h155.1v5.4zm-154.5-.6h153.9v-4.2H31.95v4.2z"/>
        <path fill="#E6E6E6" d="M35.55 137.886H190.05V142.686H35.55z"/>
        <path fill="#FFF" d="M186.45 140.286H31.35v-5.4h155.1v5.4zm-154.5-.6h153.9v-4.2H31.95v4.2z"/>
        <path fill="#E6E6E6" d="M35.55 152.886H190.05V157.686H35.55z"/>
        <path fill="#FFF" d="M186.45 155.286H31.35v-5.4h155.1v5.4zm-154.5-.6h153.9v-4.2H31.95v4.2z"/>
        <path fill="#E6E6E6" d="M35.55 167.886H190.05V172.686H35.55z"/>
        <path fill="#FFF" d="M186.45 170.286H31.35v-5.4h155.1v5.4zm-154.5-.6h153.9v-4.2H31.95v4.2z"/>
        <path fill="#E6E6E6" d="M35.55 182.886H190.05V187.686H35.55z"/>
        <path fill="#FFF" d="M186.45 185.286H31.35v-5.4h155.1v5.4zm-154.5-.6h153.9v-4.2H31.95v4.2z"/>
        <path fill="#FFF" d="M199.35 214.24H22.5V19.386h176.85V214.24zm-175.05-1.8h173.25V21.186H24.3V212.44z"/>
        <path fill="url(#prefix__a)" d="M18.72 217.836l-.03.015c.357-.771.69-1.551.993-2.343.036-.093.069-.189.105-.282-.003.024-.003.048-.006.075-.009.15-.021.3-.033.453-.018.237-.033.477-.036.717-.003.075-.003.147-.003.222.001.292.031.584.09.87h-.012c-.075.006-.144.009-.216.021-.283.038-.559.117-.819.234-.012.005-.023.01-.033.018z"/>
        <path fill="#A0616A" d="M24.4 100.002c.033 1.253.457 2.467.524 3.717-3.69.184-7.329-1.606-10.981-1.058 1.02-.66 1.567-1.851 1.888-3.024.41-1.512.531-3.088.36-4.646-.01-.086-.025-.172-.046-.257-.135-.612-.486-1.48-.392-1.961.124-.638.725-.512 1.266-.475 1.652.125 3.295.338 4.924.635.425.074 4.56 1.106 4.621.998-.725 1.163-1.325 2.399-1.79 3.687-.258.768-.384 1.574-.374 2.384zM60.886 96.132c-.317.432-.697.815-1.127 1.135-.28.23-.567.464-.867.675-.535.413-1.173.672-1.845.75-.879.06-2.744-.456-3.29-1.209-.23-.378-.34-.818-.314-1.26.009-.6.111-1.194.302-1.762.343-.924.822-1.792 1.423-2.574.636-.883 1.342-1.753 2.288-2.287.314-.169.64-.318.972-.448l1.719-.704c.097-.048.203-.076.312-.083.461.005.546.71.284 1.09-.523.766-1.7.98-2.03 1.85.57.017 1.066.4 1.225.95.013.141.07.275.165.382.152.122.388.053.56.145.305.163.172.617.204.961.075.299.18.588.315.865.13.527.022 1.084-.296 1.524z"/>
        <path fill="#65617D" d="M10.03 221.733c.284-.284.748-.236 1.144-.173 2.129.337 4.28.51 6.435.52.27-1.317-.513-2.598-.765-3.919-.037-.34-.123-.674-.255-.99-.304-.583-.988-.85-1.63-.985-1.16-.244-2.973-.676-3.621.496-.777 1.407-1.026 3.485-1.308 5.05z"/>
        <path fill="#3F3D56" d="M33.608 216.756c-.874.597-1.96.782-3.01.918-1.054.133-2.134.236-3.086.704-.822.406-1.515 1.072-2.384 1.363-.809.222-1.66.235-2.476.039-.977-.184-2.019-.54-2.547-1.384-.47-.75-.42-1.702-.355-2.585.075-.998.15-1.998.222-2.999-.003-.254.06-.504.186-.725.707-1.03 2.425.431 3.345.429 1.457-.002 3.022-.792 4.073-1.758.092-.096.199-.176.316-.238.416-.186.831.158 1.2.459.042.034.083.069.124.1.852.675 1.994.813 3.045 1.086 1.053.273 2.18.824 2.505 1.86.022.066.038.133.05.2.191.955-.39 1.971-1.208 2.531z"/>
        <path fill="#2F2E41" d="M33.608 216.756c-.874.597-1.96.782-3.01.918-1.054.133-2.134.236-3.086.704-.822.406-1.515 1.072-2.384 1.363-.809.222-1.66.235-2.476.039-.977-.184-2.019-.54-2.547-1.384-.47-.75-.42-1.702-.355-2.585.075-.998.15-1.998.222-2.999-.003-.254.06-.504.186-.725.707-1.03 2.425.431 3.345.429 1.457-.002 3.022-.792 4.073-1.758.092-.096.199-.176.316-.238.416-.186.831.158 1.2.459.042.034.083.069.124.1.852.675 1.994.813 3.045 1.086 1.053.273 2.18.824 2.505 1.86.022.066.038.133.05.2.191.955-.39 1.971-1.208 2.531z"/>
        <path fill="#E8EAF2" d="M33.608 217.092c-.874.596-1.96.782-3.01.918-1.054.133-2.134.236-3.086.704-.822.406-1.515 1.071-2.384 1.363-.809.222-1.66.235-2.476.039-1.04-.22-1.954-.837-2.547-1.72-.47-.75-.42-1.702-.355-2.585.075-.998.15-1.998.222-2.999-.003-.254.06-.504.186-.725.707-1.03 2.425.431 3.345.429 1.457-.002 3.022-.792 4.073-1.758.092-.096.199-.176.316-.238.416-.186.831.158 1.2.459-.242.748-.587 1.46-1.023 2.115-.713 1.119-1.892 1.856-3.21 2.008-.651.048-1.319-.08-1.95.087-.629.167-1.216.812-.993 1.425.218.596.989.727 1.624.761.89.049 1.803.092 2.648-.185.516-.172.989-.457 1.491-.666 2.136-.885 4.834-.39 6.599-1.886.167-.153.348-.291.539-.413.462.967-.39 2.307-1.21 2.867z"/>
        <path fill="#000" d="M33.608 217.092c-.874.596-1.96.782-3.01.918-1.054.133-2.134.236-3.086.704-.822.406-1.515 1.071-2.384 1.363-.809.222-1.66.235-2.476.039-1.04-.22-1.954-.837-2.547-1.72-.47-.75-.42-1.702-.355-2.585.075-.998.15-1.998.222-2.999-.003-.254.06-.504.186-.725.707-1.03 2.425.431 3.345.429 1.457-.002 3.022-.792 4.073-1.758.092-.096.199-.176.316-.238.416-.186.831.158 1.2.459-.242.748-.587 1.46-1.023 2.115-.713 1.119-1.892 1.856-3.21 2.008-.651.048-1.319-.08-1.95.087-.629.167-1.216.812-.993 1.425.218.596.989.727 1.624.761.89.049 1.803.092 2.648-.185.516-.172.989-.457 1.491-.666 2.136-.885 4.834-.39 6.599-1.886.167-.153.348-.291.539-.413.462.967-.39 2.307-1.21 2.867z" opacity=".05"/>
        <path fill="#2F2E41" d="M10.43 151.727c-.682 3.341-.036 6.817 1.8 9.691.5.776 1.086 1.504 1.463 2.346.246.602.437 1.224.57 1.86l1.622 6.712c.438 1.812.879 3.659.748 5.518-.092 1.296-.419 2.753.38 3.777.192.196.355.419.482.662.08.285.083.586.008.872-.82 4.873-1.429 9.968.053 14.682 1.343 4.273 1.42 9.008 2.562 13.339.142.536.303 1.101.71 1.479.305.257.671.43 1.063.505 1.683.4 3.46-.068 5.03-.796 1.103-.511 2.29-1.407 2.196-2.62-.045-.576-.381-1.081-.61-1.613-.448-1.042-.484-2.206-.605-3.334-.304-2.832-1.177-5.566-1.837-8.337-.66-2.77-1.108-5.666-.55-8.46 1.141-5.777 2.968-11.397 5.442-16.742.108-.284.278-.54.498-.75.249-.14.485-.301.706-.481.171-.265.282-.565.323-.878.245-.884.974-1.536 1.463-2.312 1.234-1.961.843-4.474.797-6.79-.044-2.253.28-4.526-.089-6.748-.37-2.222-1.642-4.494-3.785-5.19-1.061-.345-2.208-.267-3.319-.157-5.883.582-11.6 1.65-17.122 3.765z"/>
        <path fill="#000" d="M10.43 151.727c-.682 3.341-.036 6.817 1.8 9.691.5.776 1.086 1.504 1.463 2.346.246.602.437 1.224.57 1.86l1.622 6.712c.438 1.812.879 3.659.748 5.518-.092 1.296-.419 2.753.38 3.777.192.196.355.419.482.662.08.285.083.586.008.872-.82 4.873-1.429 9.968.053 14.682 1.343 4.273 1.42 9.008 2.562 13.339.142.536.303 1.101.71 1.479.305.257.671.43 1.063.505 1.683.4 3.46-.068 5.03-.796 1.103-.511 2.29-1.407 2.196-2.62-.045-.576-.381-1.081-.61-1.613-.448-1.042-.484-2.206-.605-3.334-.304-2.832-1.177-5.566-1.837-8.337-.66-2.77-1.108-5.666-.55-8.46 1.141-5.777 2.968-11.397 5.442-16.742.108-.284.278-.54.498-.75.249-.14.485-.301.706-.481.171-.265.282-.565.323-.878.245-.884.974-1.536 1.463-2.312 1.234-1.961.843-4.474.797-6.79-.044-2.253.28-4.526-.089-6.748-.37-2.222-1.642-4.494-3.785-5.19-1.061-.345-2.208-.267-3.319-.157-5.883.582-11.6 1.65-17.122 3.765z" opacity=".1"/>
        <path fill="#2F2E41" d="M34.392 165.853c-.017.875-.116 1.747-.296 2.604-1.037 5.816-2.142 11.62-3.315 17.412-.103.503-.204 1.005-.34 1.498-.437 1.612-1.201 3.116-2.246 4.42-4.889 6.093-5.311 14.943-7.963 22.291-.18.498-.358.996-.549 1.487-.48 1.246-1.025 2.464-1.636 3.65-.071.173-.187.324-.337.436-.164.083-.349.119-.532.104-2.387.013-4.744-.523-6.89-1.567-.307-.113-.565-.328-.732-.608-.082-.224-.11-.464-.078-.7.073-1.457.163-2.967.858-4.247.461-.766 1.033-1.46 1.698-2.058.206-4.573.658-9.155 1.663-13.62.516-2.282 1.154-4.59 2.48-6.52.978-1.425 2.38-2.831 2.208-4.55-.076-.755-.393-1.695.222-2.138.269-.195.666-.22.847-.498.073-.13.114-.277.12-.427.125-1.18.052-2.371-.219-3.526-.223-.755-.399-1.523-.525-2.3-.078-.784.055-1.633.578-2.22.032-1.57-.012-3.199.02-4.766.062-.893-.012-1.79-.22-2.661-.119-.41-.3-.803-.392-1.223-.328-1.507.49-3.313-.484-4.508-.406-.496-1.033-.744-1.565-1.102-1.062-.709-1.76-1.87-2.148-3.088-.344-1.233-.548-2.502-.607-3.781-.032-.271-.035-.545-.01-.817.018-.14.055-.278.11-.408.303-.682 1.118-.946 1.843-1.12 4.608-1.105 9.33-1.657 14.069-1.645 1.753-1.193 2.74-.766 3.483.498.41.772.742 1.583.991 2.42.34 1.026.36 6.767.69 7.797.43 1.34-.812 4.075-.796 5.481z"/>
        <path fill="#3F3D56" d="M2.7 113.614c-.131.904.303 1.791.351 2.703.042.796-.211 1.573-.356 2.358-.566 3.06.521 6.159 1.628 9.067.21.473.34.977.386 1.492.03.949-.517 1.819-.667 2.757-.314 1.97 1.14 3.824 1.17 5.82.013.918-.276 1.854-.046 2.743.153.594.524 1.104.787 1.658.466.982.591 2.095 1.036 3.087.804 1.791 2.53 2.961 4.174 4.036.935-.312 1.946-.682 2.459-1.523.225-.415.37-.868.43-1.336.355-2.041.342-4.126.329-6.197.03-1.783-.065-3.566-.284-5.335-.332-2.25-1.062-4.421-1.586-6.635-.66-2.792-1-5.677-2.028-8.356-.905-2.354-2.313-4.467-3.796-6.49-.566-.773-1.012-1.876-2.11-1.698-.952.162-1.702.9-1.878 1.85z"/>
        <path fill="#000" d="M2.7 113.614c-.131.904.303 1.791.351 2.703.042.796-.211 1.573-.356 2.358-.566 3.06.521 6.159 1.628 9.067.21.473.34.977.386 1.492.03.949-.517 1.819-.667 2.757-.314 1.97 1.14 3.824 1.17 5.82.013.918-.276 1.854-.046 2.743.153.594.524 1.104.787 1.658.466.982.591 2.095 1.036 3.087.804 1.791 2.53 2.961 4.174 4.036.935-.312 1.946-.682 2.459-1.523.225-.415.37-.868.43-1.336.355-2.041.342-4.126.329-6.197.03-1.783-.065-3.566-.284-5.335-.332-2.25-1.062-4.421-1.586-6.635-.66-2.792-1-5.677-2.028-8.356-.905-2.354-2.313-4.467-3.796-6.49-.566-.773-1.012-1.876-2.11-1.698-.952.162-1.702.9-1.878 1.85z" opacity=".05"/>
        <circle cx="22.742" cy="89.113" r="8.52" fill="#A0616A"/>
        <path fill="#3F3D56" d="M27.7 103.06c-.37.43-.87.904-1.42.765-.2-.068-.386-.168-.553-.296-.982-.633-2.188-.781-3.343-.955-2.329-.351-4.63-.868-6.885-1.548-.654-.238-1.34-.378-2.036-.414-1.444.007-2.724.967-3.629 2.093-.905 1.125-1.546 2.442-2.434 3.58-.633.812-1.386 1.527-1.977 2.37-1.492 2.126-1.812 4.9-1.427 7.469.385 2.568 1.411 4.99 2.428 7.38.544 1.388 1.207 2.726 1.983 3.998-.343 1.952-.162 4.184.766 5.935.302.57.673 1.126.773 1.764.046.431.027.867-.054 1.293l-.433 3.085c-.133.94-.265 1.879-.436 2.812-.313 1.707-.737 3.56.054 5.106.947 1.85-.048 4.222.2 6.286 2.666-1.03 5.46-1.693 8.303-1.973 1.83-.18 3.696-.202 5.462-.716 1.103-.32 2.15-.829 3.27-1.085.908-.178 1.83-.272 2.756-.281 2.042-.083 4.098-.164 6.119.137.163.024.363.037.46-.096.044-.073.066-.156.062-.24.031-.758-.15-1.51-.522-2.17-.258-.455-.616-.9-.606-1.422.019-.244.079-.482.177-.706l.895-2.388c.756-2.016.397-4.358.79-6.475.306-1.654.503-3.328.588-5.008.072-1.437.027-2.993-.84-4.14-.253-.277-.473-.583-.654-.911-.125-.35-.178-.72-.156-1.09-.02-2.874.06-5.748.236-8.62-.756-1.357-1.544-2.745-2.3-4.103-.88-1.58-1.771-3.192-2.127-4.965-.235-1.174-.227-2.383-.395-3.568-.017-.3-.122-.59-.301-.833-.289-.327-.777-.374-1.213-.36-.538.017-1.071.115-1.58.29z"/>
        <path fill="#3F3D56" d="M30.546 116.368c.519.646 1.06 1.311 1.795 1.693.846.44 1.843.45 2.797.429 3.925-.084 7.836-.513 11.686-1.284.439-.075.87-.19 1.287-.345.463-.22.9-.492 1.301-.811 1.268-.911 2.553-1.84 3.517-3.068 1.147-1.483 1.868-3.25 2.085-5.113.917-.845 1.404-2.045 1.863-3.204.226-.492.37-1.018.424-1.556.025-.552-.34-1.13-.24-1.672.177-.935.652-1.788 1.353-2.432.148-.106.26-.255.321-.427.019-.143-.008-.289-.076-.416-.393-.874-1.29-1.438-2.22-1.667-.942-.181-1.906-.22-2.86-.113-.318.06-.63.143-.936.249l-.667 1.754c-.09.293-.237.566-.435.8-.148.135-.306.259-.473.37-.687.583-1.038 1.47-.938 2.365-1.25.485-1.907 1.858-1.502 3.136-1.019.219-1.851.951-2.197 1.934-.047.22-.146.427-.287.602-.22.167-.491.25-.767.236-.753.047-1.411.64-2.093.318-.775-.363-1.642-.485-2.487-.348-.174.041-.352.057-.53.047-.153-.026-.3-.077-.436-.151-.307-.18-.64-.31-.987-.389-.356-.074-.722.068-.936.362-.239-.262-.381-.597-.599-.877-.197-.305-.548-.472-.908-.434.227-.202-.006-.604-.3-.678-.303-.024-.607-.013-.907.033-.788-.004-1.392-.72-2.158-.907-.703-.172-1.64.034-2.001-.595-.128-.222-.153-.524-.37-.66-.148-.073-.316-.092-.476-.056-.5.067-.985.214-1.438.437-.738 2.885-.35 5.882.212 8.807.205 1.327.75 2.578 1.583 3.63zM26.262 100.922c-.914-.569-1.99-.81-3.049-1.003-.636-.145-1.29-.192-1.94-.14-.6.075-1.175.307-1.779.34-.847.047-1.66-.296-2.477-.52-.819-.224-1.764-.31-2.453.185-.146.145-.332.243-.533.284-.21-.025-.404-.12-.552-.27-1.194-.855-2.82-.77-3.918.206-1.562 1.465-1.385 4.326-3.216 5.437-.504.307-1.15.469-1.444.98-.071.163-.155.32-.25.471-.122.135-.272.242-.44.314-.53.237-1.036.528-1.508.867-.476.347-.79.873-.869 1.456-.007.423.085.842.267 1.225 1.836 4.502 6.307 7.361 11.164 7.138.421.022.836-.107 1.17-.365.176-.198.315-.427.41-.675.86-1.804 2.477-3.136 3.503-4.852.612-1.023 1.004-2.166 1.641-3.173.966-1.527 2.434-2.655 3.87-3.75.811-.616 1.713-1.264 2.731-1.22.907.038 1.567.086 1.235-1.026-.277-.802-.831-1.479-1.563-1.909z"/>
        <path fill="#000" d="M26.262 100.922c-.914-.569-1.99-.81-3.049-1.003-.636-.145-1.29-.192-1.94-.14-.6.075-1.175.307-1.779.34-.847.047-1.66-.296-2.477-.52-.819-.224-1.764-.31-2.453.185-.146.145-.332.243-.533.284-.21-.025-.404-.12-.552-.27-1.194-.855-2.82-.77-3.918.206-1.562 1.465-1.385 4.326-3.216 5.437-.504.307-1.15.469-1.444.98-.071.163-.155.32-.25.471-.122.135-.272.242-.44.314-.53.237-1.036.528-1.508.867-.476.347-.79.873-.869 1.456-.007.423.085.842.267 1.225 1.836 4.502 6.307 7.361 11.164 7.138.421.022.836-.107 1.17-.365.176-.198.315-.427.41-.675.86-1.804 2.477-3.136 3.503-4.852.612-1.023 1.004-2.166 1.641-3.173.966-1.527 2.434-2.655 3.87-3.75.811-.616 1.713-1.264 2.731-1.22.907.038 1.567.086 1.235-1.026-.277-.802-.831-1.479-1.563-1.909z" opacity=".05"/>
        <path fill="#2F2E41" d="M30.696 224.405c-.617.576-1.466.829-2.29 1.008-1.88.366-3.785.602-5.699.704-.62.046-1.241.094-1.86.142-1.818.138-3.637.278-5.461.285-2.252.007-4.5-.187-6.716-.58-.18.017-.357-.053-.478-.187-.12-.134-.17-.318-.134-.495.04-2.27.316-4.529.826-6.741.21-.909 1.84 1.129 1.913 1.214.452.514.794.75 1.48.787 1.874.103 3.974-1.037 5.463-2.051.319-.238.657-.447 1.012-.627.26-.117.536-.195.819-.234.964-.089 1.934.108 2.787.565 1.12.555 2.102 1.353 3.21 1.925.901.463 1.874.77 2.877.91 1.015.14 2.226.207 2.747 1.086.002.001.002.004.002.007.427.727.117 1.709-.498 2.282z"/>
        <path fill="#E8EAF2" d="M30.696 224.741c-.617.576-1.466.829-2.29 1.007-1.88.367-3.785.603-5.699.705-.62.046-1.241.094-1.86.142-1.818.138-3.637.278-5.461.285-2.252.007-4.5-.187-6.716-.58-.205-.009-.398-.102-.532-.258-.175-.232-.315-.488-.416-.76.039-2.267.652-4.532 1.162-6.741.21-.909 1.84 1.129 1.913 1.214.452.514.794.75 1.48.787 1.874.103 3.974-1.037 5.463-2.051.319-.238.657-.447 1.012-.627.26-.117.536-.195.819-.234-.241 1.35-2.175 2.978-3.173 3.474-2.02 1.002-4.42.502-6.672.62-.165-.005-.328.035-.473.114-.27.179-.287.562-.278.886.019.537.088 1.168.553 1.44.233.112.49.166.748.157 5.552.243 11.115.048 16.637-.583.928-.062 1.842-.266 2.71-.604.566-.265 1.095-.606 1.571-1.011.71.557.117 2.045-.498 2.618z"/>
        <path fill="#2F2E41" d="M26.057 89.021c-.032.881.569 2.59-1.078 2.113-.982-.284-1.26-1.447-2.506-1.188-1.257.264-1.532 1.794-1.955 2.8-.698 1.62-2.15 2.794-3.882 3.136-.351.081-.717.08-1.069-.003-.803-.23-1.262-1.057-1.59-1.826-.284-.65-.52-1.32-.704-2.005-.128-.482-.213-.974-.255-1.471v-.002c-.028-.339-.03-.678-.005-1.017.15-2.003 1.29-3.83 2.75-5.21 1.458-1.381 3.232-2.38 4.983-3.364.571-.357 1.19-.632 1.837-.819.64-.129 1.294-.156 1.941-.08.853.036 1.69.233 2.47.58.319.158.612.364.869.61.365.34.626.776.752 1.258.317 1.294-.51 2.46-1.18 3.483-.596.908-1.334 1.872-1.378 3.005z"/>
        <path fill="#3F3D56" d="M27.837 84.036c-.154.25-.322.49-.504.72-.348.44-.739.844-1.166 1.207-.251.22-.514.425-.787.617-.505.356-1.037.674-1.59.95-1.61.812-3.354 1.322-5.089 1.824l-3.402.989c-1.187.897-5.16 3.84-5.828 3.474-.787-.434 3.525-3.487 3.525-3.487l.199.15c-.631-.396-.962-1.316-1.104-2.113-.252-1.424-.372-2.904-.034-4.313.337-1.406 1.184-2.746 2.473-3.405.571-.293 1.264-.493 1.677-.945.063-.067.118-.14.163-.22.025-.037.047-.076.064-.117.046-.124.107-.242.182-.351.236-.273.665-.19 1.023-.147.039.004.076.009.115.011.064.007.128.01.192.01 1.278.027 2.517-.684 3.811-.684 1.418-.003 2.625.819 3.873 1.379.253.114.491.218.716.323.902.42 1.58.867 1.953 2.06.215.698-.08 1.448-.462 2.068z"/>
        <path fill="#000" d="M13.081 90.296c.18.112.38.187.59.22.532.154 1.105.068 1.57-.236l-2.16.016z" opacity=".1"/>
    </g>
</svg>
