<?xml version="1.0" encoding="UTF-8"?>
<svg width="662px" height="491px" viewBox="0 0 662 491" version="1.1" xmlns="http://www.w3.org/2000/svg" xmlns:xlink="http://www.w3.org/1999/xlink">
    <!-- Generator: Sketch 64 (93537) - https://sketch.com -->
    <title>undraw_begin_chat_c6pj</title>
    <desc>Created with Sketch.</desc>
    <g id="Page-1" stroke="none" stroke-width="1" fill="none" fill-rule="evenodd">
        <g id="Desktop-HD-Copy-3" transform="translate(-46.000000, -3459.000000)">
            <g id="undraw_begin_chat_c6pj" transform="translate(46.000000, 3460.000000)">
                <path d="M322.5,11 C255.949684,11 202,46.8557365 202,91.0860238 C202,110.835194 212.762272,128.911049 230.593201,142.874595 L230.593201,201 L268.791136,162.790113 C286.134361,168.424252 304.265286,171.253806 322.5,171.172041 C389.05031,171.172041 443,135.316305 443,91.0860238 C443,46.8557428 389.050329,11 322.5,11 Z" id="Path" fill="#F2F2F2" fill-rule="nonzero"></path>
                <line x1="0" y1="489.5" x2="662" y2="489.5" id="Path" stroke="#3F3D56"></line>
                <path d="M330.5,0 C263.949684,0 210,35.8557365 210,80.0860238 C210,99.8351936 220.762272,117.911049 238.593201,131.874595 L238.593201,190 L276.791136,151.790113 C294.134361,157.424252 312.265286,160.253806 330.5,160.172041 C397.05031,160.172041 451,124.316305 451,80.0860238 C451,35.8557428 397.050329,0 330.5,0 Z" id="Path" stroke="#3F3D56"></path>
                <path d="M279,206.806818 C279,206.806818 276.61064,174.332903 277.735584,168.393584 C278.860528,162.454266 279.917188,145.547722 273.732067,151.105266 C267.546946,156.662811 269.744271,169.271996 269.744271,169.271996 C269.744271,169.271996 263.874942,203.591743 269.303473,208.24788 C274.732004,212.904017 279,206.806818 279,206.806818 Z" id="Path" fill="#A0616A" fill-rule="nonzero"></path>
                <path d="M282.830772,239 C282.830772,239 264.023152,222.414408 265.039778,208.341787 C265.039778,208.341787 276.222688,199.797699 278.764256,204.321041 C281.305824,208.844383 299.779699,226.490903 296.642529,232.494148 C293.505359,238.497392 282.830772,239 282.830772,239 Z" id="Path" fill="#3564B1" fill-rule="nonzero"></path>
                <path d="M349,209.207675 C349,209.207675 360.116197,178.419096 360.621481,172.362328 C361.126765,166.305561 364.663738,149.649443 369.211272,156.715676 C373.758807,163.781909 368.200705,175.390719 368.200705,175.390719 C368.200705,175.390719 364.663738,210.21714 358.095075,213.245524 C351.526412,216.273908 349,209.207675 349,209.207675 Z" id="Path" fill="#A0616A" fill-rule="nonzero"></path>
                <path d="M318.797181,363 L348.490187,363 L350,378.454545 L342.9542,380 C342.9542,380 326.346254,374.848463 316.78412,376.393937 C307.221985,377.939411 318.797181,363 318.797181,363 Z" id="Path" fill="#A0616A" fill-rule="nonzero"></path>
                <path d="M338,361.693744 C338,361.693744 352.215882,352.215241 354.754436,360.197139 C357.29299,368.179036 366.431763,397.113407 363.385504,400.106618 C360.339244,403.099829 356.785272,397.612278 356.785272,397.612278 C356.785272,397.612278 350.692752,385.140565 346.123381,384.641694 C341.55401,384.142824 339.015437,380.151878 339.015437,380.151878 C339.015437,380.151878 352.215882,370.174505 338,361.693744 Z" id="Path" fill="#2F2E41" fill-rule="nonzero"></path>
                <path d="M311,439.703462 C311,439.703462 316.627909,462.385964 315.604649,465.914337 C314.58139,469.442709 331.97674,467.426503 331.97674,467.426503 L333,460.873779 C333,460.873779 322.767442,444.744002 322.767442,437.687219 C322.767442,430.630436 311,439.703462 311,439.703462 Z" id="Path" fill="#A0616A" fill-rule="nonzero"></path>
                <path d="M331.504989,456 C331.504989,456 344.975817,465.969165 337.990942,470.953747 C331.006067,475.938329 305.06226,488.898235 305.06226,488.898235 C305.06226,488.898235 295.582791,490.393609 302.567665,481.919825 C309.55254,473.446041 311.548213,471.950661 312.047135,467.464539 C312.48071,464.477398 313.528189,461.612184 315.123711,459.049048 C315.123711,459.049048 322.025519,472.947581 331.504989,456 Z" id="Path" fill="#2F2E41" fill-rule="nonzero"></path>
                <path d="M290.785393,335.330446 C290.785393,335.330446 285.174683,387.785151 293.845782,404.429436 C302.51688,421.07372 312.718185,443.770464 312.208119,444.779212 C311.698052,445.78796 327,443.266096 327,438.726741 C327,434.187386 310.167857,388.7939 310.167857,388.7939 C310.167857,388.7939 317.308768,329.782355 322.919478,325.747375 C328.530188,321.712394 290.785393,335.330446 290.785393,335.330446 Z" id="Path" fill="#2F2E41" fill-rule="nonzero"></path>
                <path d="M290.785393,335.330446 C290.785393,335.330446 285.174683,387.785151 293.845782,404.429436 C302.51688,421.07372 312.718185,443.770464 312.208119,444.779212 C311.698052,445.78796 327,443.266096 327,438.726741 C327,434.187386 310.167857,388.7939 310.167857,388.7939 C310.167857,388.7939 317.308768,329.782355 322.919478,325.747375 C328.530188,321.712394 290.785393,335.330446 290.785393,335.330446 Z" id="Path" fill="#000000" fill-rule="nonzero" opacity="0.1"></path>
                <path d="M302.302431,188 C298.677556,188.649543 295.086311,190.620467 293.283644,193.986597 C291.602119,197.12655 291.495168,201.323642 288.819971,203.578466 C287.222992,204.924505 285.054813,205.235775 283.271769,206.293165 C280.692903,207.925826 279.193577,210.799127 279.341336,213.825424 C279.48411,216.594503 280.959738,219.173807 280.928421,221.946749 C280.887711,225.551803 278.368967,228.528308 276,231.137515 L283.856481,232.580427 C285.043616,232.894364 286.288789,232.92704 287.491066,232.675807 C288.848075,232.278223 289.950288,231.172374 291.322046,230.835185 C293.289127,230.351668 295.235576,231.535871 296.990719,232.586587 C301.986776,235.577358 307.343773,237.834672 312.681383,240.082232 C314.251672,240.743455 316.032074,241.405362 317.58158,240.692098 C318.832989,240.116049 319.611275,238.769514 320.788356,238.040863 C322.896214,236.736012 325.543015,237.718196 327.911665,238.362363 C333.268303,239.801103 338.96628,239.320898 344,237.006494 C342.914855,235.752002 341.492607,234.874658 340.32324,233.706632 C339.153874,232.538606 338.207827,230.884603 338.516758,229.221078 C338.831804,227.524633 340.305506,226.392162 341.309965,225.023026 C342.80863,222.831939 343.354989,220.136807 342.826292,217.543152 C342.299138,214.989015 341.043795,212.637766 339.208788,210.76759 C338.161382,209.797213 337.173256,208.766002 336.249652,207.679426 C334.401369,205.20919 333.943814,201.938873 333.352549,198.859171 C332.761283,195.779469 331.827742,192.501919 329.427699,190.626671 C325.604116,187.639137 319.394959,188.657478 314.924999,188.360944 C310.663287,188.078198 306.554306,188 302.302431,188 Z" id="Path" fill="#2F2E41" fill-rule="nonzero"></path>
                <path d="M277.123311,299.684999 L286.701425,323.419999 C286.701425,323.419999 242.843742,371.395002 267.545197,377.960003 C292.246652,384.525004 300.81654,372.909983 316.443988,382 C316.443988,382 324.005655,370.384998 322.997435,363.315001 C322.997435,363.315001 301.320653,359.274997 289.726092,359.779999 C289.726092,359.779999 320.980988,332.509998 324.005655,331.5 C327.030322,330.490002 337.112549,314.330001 321.485101,301.199999 C305.857653,288.069997 309.890528,281 309.890528,281 L277.123311,299.684999 Z" id="Path" fill="#2F2E41" fill-rule="nonzero"></path>
                <path d="M300.011307,218.058629 C300.011307,218.058629 301.547073,233.465748 294.892087,235.453766 C288.237102,237.441783 321,236.944777 321,236.944777 C321,236.944777 313.321202,232.471743 316.904643,223.028669 C320.488084,213.585595 300.011307,218.058629 300.011307,218.058629 Z" id="Path" fill="#A0616A" fill-rule="nonzero"></path>
                <path d="M300.011307,218.058629 C300.011307,218.058629 301.547073,233.465748 294.892087,235.453766 C288.237102,237.441783 321,236.944777 321,236.944777 C321,236.944777 313.321202,232.471743 316.904643,223.028669 C320.488084,213.585595 300.011307,218.058629 300.011307,218.058629 Z" id="Path" fill="#000000" fill-rule="nonzero" opacity="0.1"></path>
                <path d="M334,244.693555 C334,244.693555 330.966642,229.036735 324.899925,230.046856 C318.833208,231.056978 306.699768,232.067087 305.183088,233.077208 C303.666409,234.08733 295.577451,236.157328 295.577451,236.157328 C295.577451,236.157328 298.61081,232.572148 295.577451,232.067087 C292.544093,231.562026 282.938456,234.087323 281.927338,236.10756 C280.916221,238.127797 276.87172,242.168264 276.87172,249.239083 C276.87172,256.309902 273.838361,268.431315 274.849479,273.481904 C275.860596,278.532492 274.343917,290.148845 271.310558,296.71461 C268.2772,303.280374 270.805003,309.846132 275.860596,303.280374 C280.916189,296.714616 278.388399,303.280374 282.432875,303.785429 C286.477351,304.290483 304.677527,285.603292 309.733113,290.148845 C314.7887,294.694398 319.844312,297.724725 320.85543,295.199453 C321.866547,292.674181 316.810954,288.128627 316.810954,286.108391 C316.810954,284.088154 308.721996,292.674155 317.31651,274.997099 C325.911023,257.320042 317.822084,252.269441 334,244.693555 Z" id="Path" fill="#3564B1" fill-rule="nonzero"></path>
                <path d="M330.04613,244.00466 L334.107674,245 C334.107674,245 348.830762,234.548927 352.8923,227.083843 C356.953838,219.618758 360,213.646718 360,213.646718 C360,213.646718 353.399995,205.68398 349.338476,208.669987 C345.276957,211.655995 327,232.060536 327,232.060536 L330.04613,244.00466 Z" id="Path" fill="#3564B1" fill-rule="nonzero"></path>
                <circle id="Oval" fill="#A0616A" fill-rule="nonzero" cx="311.5" cy="212.5" r="15.5"></circle>
                <path d="M298,208.381577 C300.62967,206.184106 303.987929,205.071491 307.399033,205.26761 C313.297853,205.633282 318.490473,209.86769 324.398978,210 C324.162414,208.713059 324.340443,207.383635 324.907071,206.205847 C325.365263,205.259941 326.088381,204.343393 325.991109,203.29546 C325.829066,202.463769 325.376973,201.717933 324.716573,201.1928 C321.301271,197.930423 316.579196,196.249023 311.877104,196.041899 C308.724589,195.903027 302.707576,195.978279 300.262581,198.382997 C298.170763,200.440368 298.413973,205.71469 298,208.381577 Z" id="Path" fill="#2F2E41" fill-rule="nonzero"></path>
                <circle id="Oval" fill="#3564B1" fill-rule="nonzero" cx="330.5" cy="86.5" r="32.5"></circle>
                <ellipse id="Oval" fill="#444053" fill-rule="nonzero" cx="323" cy="77" rx="3" ry="4"></ellipse>
                <ellipse id="Oval" fill="#444053" fill-rule="nonzero" cx="339" cy="77" rx="3" ry="4"></ellipse>
                <path d="M350,90.0121169 C350,95.968121 340.201759,106 330.314285,106 C320.42681,106 311,95.7418493 311,89.7858516 C311,83.8298539 320.222525,89.2768038 330.109999,89.2768038 C339.997474,89.2768038 350,84.0561192 350,90.0121169 Z" id="Path" fill="#3F3D56" fill-rule="nonzero"></path>
                <path d="M313.960506,90 C313.960506,90 331.902009,94.2495389 346.975129,90.1196999 C346.975129,90.1196999 348.819723,90.1196999 347.559579,92.3892336 C347.230583,92.9778329 346.751235,93.4548651 346.17735,93.7647847 C343.272123,95.3444931 332.517625,100.013368 315.320727,94.0587018 C314.240791,93.6961928 313.402957,92.782644 313.088662,91.6249243 C312.886132,90.8457155 312.973434,90.1077104 313.960506,90 Z" id="Path" fill="#F6F8FB" fill-rule="nonzero"></path>
            </g>
        </g>
    </g>
</svg>