<svg xmlns="http://www.w3.org/2000/svg" width="567" height="323" viewBox="0 0 567 323">
    <g fill="none">
        <ellipse cx="283.5" cy="311.5" fill="#E6E6E6" rx="283.5" ry="11.5"/>
        <circle cx="293.5" cy="178.5" r="134.5" fill="#3F3D56"/>
        <ellipse cx="293.5" cy="178" fill="#FFF" rx="123.5" ry="123"/>
        <circle cx="292.5" cy="178.5" r="16.5" fill="#3F3D56"/>
        <path fill="#3F3D56" d="M289 62H296V75H289zM289 283H296V296H289z"/>
        <path fill="#3F3D56" d="M178 172L185 172 185 185 178 185z" transform="rotate(90 181.5 178.5)"/>
        <path fill="#3F3D56" d="M400 172L407 172 407 185 400 185z" transform="rotate(90 403.5 178.5)"/>
        <path fill="#3F3D56" d="M288 185.838L294.061 172 370 214zM276 12H311V52H276z"/>
        <ellipse cx="293" cy="11" fill="#3F3D56" rx="40" ry="11"/>
        <path fill="#FFB8B8" d="M368 202.107l-2.238 3.108s-10.296 11.985-10.744 6.214c-.448-5.77 7.61-9.766 7.61-9.766l4.477-2.663.895 3.107zM431.088 212.516l1.8 3.263s6.26 14.045 1.024 12.022c-5.235-2.024-5.42-10.761-5.42-10.761L428 212l3.088.516z"/>
        <circle cx="421.5" cy="139.5" r="13.5" fill="#2F2E41"/>
        <path fill="#FFB8B8" d="M420 250.682l1.77 11.714V266h10.18v-4.505s.443-8.11-1.327-10.362c-1.77-2.253-10.623-.45-10.623-.45zM402 250.682l1.77 11.714V266h10.18v-4.505s.443-8.11-1.327-10.362c-1.77-2.253-10.623-.45-10.623-.45z"/>
        <path fill="#3564B1" d="M408.225 158s-4.005 2.063-1.27 6.756c2.736 4.693 18.786 53.244 18.786 53.244l9.259-2.569-8.166-30.705-4.675-19.299L408.225 158z"/>
        <circle cx="420" cy="144" r="10" fill="#FFB8B8"/>
        <path fill="#FFB8B8" d="M425 145l-1.375 21-9.625-6.702s3.208-12.51 2.292-13.404L425 145z"/>
        <path fill="#3564B1" d="M424.794 164.218l-10.203-7.468s-4.68-1.893-6.034.336c-1.353 2.229-8.118 35.216-4.51 41.457 0 0 19.394 4.012 23.453 1.783l1.804-11.59s2.255-7.133-1.353-11.59l-3.157-12.928z"/>
        <path fill="#3564B1" d="M411 157.79s-3.547-2.654-6.65 1.769c-3.105 4.423-40.35 39.364-40.35 39.364l6.208 7.077 24.386-20.346 15.52-12.384.886-15.48z"/>
        <path fill="#2F2E41" d="M427.857 200.275s-22.137-4.26-24.373-1.121l-.447 4.931s-4.92 9.415-2.236 24.659c2.683 15.243.894 24.658.894 24.658s12.075-1.345 21.02 0c8.943 1.345 10.285 0 10.285 0l-5.143-53.127zM432.745 265l-12.745.441 4.395 33.104s-3.516 14.124.44 15.007c2.749.557 5.544.853 8.349.883 0 0 3.955 3.972 8.35 3.53 2.918-.374 5.746-1.27 8.35-2.648 0 0 .879-2.648-2.198-3.53-3.076-.883-11.426-3.532-13.184-12.8L432.745 265z"/>
        <path fill="#2F2E41" d="M414.745 265l-12.745.441 4.395 33.104s-3.516 14.124.44 15.007c2.749.557 5.544.853 8.349.883 0 0 3.955 3.972 8.35 3.53 2.918-.374 5.746-1.27 8.35-2.648 0 0 .879-2.648-2.198-3.53-3.076-.883-11.426-3.532-13.184-12.8L414.745 265z"/>
        <circle cx="426.5" cy="125.5" r="5.5" fill="#2F2E41"/>
        <path fill="#2F2E41" d="M433.868 122.5c0-2.816-2.101-5.177-4.868-5.47.188-.02.377-.03.566-.03 3.001 0 5.434 2.462 5.434 5.5s-2.433 5.5-5.434 5.5c-.189 0-.378-.01-.566-.03 2.767-.293 4.868-2.654 4.868-5.47z"/>
        <ellipse cx="419.5" cy="136.5" fill="#2F2E41" rx="9.5" ry="5.5"/>
        <g transform="translate(142)">
            <path fill="#3564B1" d="M94.307 67.905V54.469c0-4.372-1.734-8.565-4.822-11.657-3.087-3.091-7.274-4.828-11.64-4.828H64.428c0-1.814-5.82-3.3-13.216-3.44V18.34c4.816-.608 8.33-4.86 8.026-9.711C58.935 3.779 54.917 0 50.063 0c-4.854 0-8.872 3.779-9.176 8.63-.304 4.851 3.21 9.103 8.027 9.71v16.203c-7.396.141-13.216 1.627-13.216 3.44H19.983c-4.366 0-8.554 1.738-11.64 4.83-3.088 3.09-4.822 7.284-4.822 11.656v13.436c-1.904 0-3.448 6.44-3.448 14.385 0 7.944 1.544 14.385 3.448 14.385v15.737c0 4.372 1.734 8.565 4.821 11.657 3.087 3.091 7.275 4.828 11.64 4.828h57.863c4.366 0 8.553-1.737 11.64-4.828 3.088-3.092 4.822-7.285 4.822-11.657V96.675c1.904 0 3.448-6.44 3.448-14.385 0-7.945-1.544-14.385-3.448-14.385z"/>
            <path fill="#3F3D56" d="M23.279 43.162h51.27c8.056 0 14.587 6.54 14.587 14.607v51.343c0 3.874-1.537 7.589-4.273 10.328-2.735 2.74-6.445 4.279-10.314 4.279h-51.27c-8.056 0-14.587-6.54-14.587-14.607V57.769c0-8.067 6.53-14.607 14.587-14.607z"/>
            <path fill="#3564B1" d="M30.527 81.427c-5.71-.007-10.337-4.64-10.343-10.358 0-.317.257-.575.575-.575.317 0 .574.258.574.575 0 5.085 4.116 9.207 9.194 9.207 5.077 0 9.193-4.122 9.193-9.207 0-.317.257-.575.575-.575.317 0 .574.258.574.575-.006 5.718-4.633 10.351-10.342 10.358zM48.914 100.99c-4.44-.005-8.04-3.608-8.045-8.055 0-.318.258-.576.575-.576.317 0 .575.258.575.576 0 3.813 3.087 6.905 6.895 6.905 3.808 0 6.895-3.092 6.895-6.905 0-.318.257-.576.575-.576.317 0 .574.258.574.576-.005 4.447-3.604 8.05-8.044 8.055zM67.3 81.427c-5.709-.007-10.335-4.64-10.342-10.358 0-.317.257-.575.575-.575.317 0 .574.258.574.575 0 5.085 4.116 9.207 9.194 9.207 5.077 0 9.193-4.122 9.193-9.207 0-.317.258-.575.575-.575.317 0 .575.258.575.575-.007 5.718-4.634 10.351-10.343 10.358z"/>
            <ellipse cx="30.527" cy="71.645" fill="#3564B1" rx="5.171" ry="5.179"/>
            <ellipse cx="67.301" cy="71.645" fill="#3564B1" rx="5.171" ry="5.179"/>
            <ellipse cx="48.914" cy="95.812" fill="#3564B1" rx="4.597" ry="2.302"/>
        </g>
    </g>
</svg>
