<?xml version="1.0" encoding="UTF-8"?>
<svg width="566px" height="448px" viewBox="0 0 566 448" version="1.1" xmlns="http://www.w3.org/2000/svg" xmlns:xlink="http://www.w3.org/1999/xlink">
    <!-- Generator: Sketch 63.1 (92452) - https://sketch.com -->
    <title>channels</title>
    <desc>Created with Sketch.</desc>
    <g id="Page-1" stroke="none" stroke-width="1" fill="none" fill-rule="evenodd">
        <g id="Live-Chaat" transform="translate(-773.000000, -1361.000000)">
            <g id="channels" transform="translate(773.000000, 1361.000000)">
                <g id="undraw_travel_plans_li01-(1)" fill-rule="nonzero">
                    <ellipse id="Oval" fill="#3564B1" opacity="0.3" cx="170.486945" cy="93.9756974" rx="61.8929504" ry="61.9171779"></ellipse>
                    <ellipse id="Oval" fill="#3564B1" opacity="0.3" cx="50.6396867" cy="266.218029" rx="36.573107" ry="36.5874233"></ellipse>
                    <ellipse id="Oval" fill="#3564B1" opacity="0.3" cx="285.270235" cy="266.218029" rx="74.8342037" ry="74.8634969"></ellipse>
                    <path d="M37.2088489,145.244539 L36.1082516,145.009817 C36.3439737,143.903833 36.5896812,142.80152 36.8453741,141.702877 L37.9415771,141.958206 C37.6874446,143.05017 37.4432019,144.145614 37.2088489,145.244539 Z" id="Path" fill="#3564B1"></path>
                    <path d="M391.549839,135.943768 C390.972889,133.798879 390.346488,131.632819 389.689314,129.506071 L390.764085,129.173508 C391.425659,131.313456 392.055903,133.49298 392.636701,135.651339 L391.549839,135.943768 Z M39.5831357,135.451808 L38.4973701,135.156075 C39.086411,132.991394 39.7248986,130.805819 40.3952612,128.660102 L41.4694865,128.995963 C40.8029726,131.128481 40.1686036,133.300305 39.5831357,135.451808 L39.5831357,135.451808 Z M387.595262,123.152462 C386.858415,121.050447 386.075413,118.939358 385.266584,116.878293 L386.313881,116.467124 C387.127655,118.540831 387.916154,120.665108 388.65685,122.780323 L387.595262,123.152462 Z M43.5937595,122.616518 L42.532723,122.241075 C43.2821903,120.123119 44.0808682,117.992239 44.906734,115.907263 L45.952933,116.321731 C45.1320187,118.394065 44.3382979,120.512026 43.5937595,122.616518 L43.5937595,122.616518 Z M382.706574,110.692896 C381.820818,108.658213 380.883416,106.609791 379.920733,104.604518 L380.935063,104.116943 C381.903788,106.13488 382.84724,108.195923 383.738492,110.243248 L382.706574,110.692896 Z M48.5431586,110.120393 L47.5128886,109.666901 C48.4162275,107.612703 49.3698403,105.547787 50.3479121,103.529602 L51.3605933,104.020476 C50.3885757,106.026294 49.4407302,108.078567 48.5431643,110.120393 L48.5431586,110.120393 Z M376.910153,98.6211462 C375.872742,96.6507784 374.786431,94.6760144 373.681434,92.7518199 L374.657306,92.1911374 C375.768892,94.1271468 376.862349,96.1140071 377.905808,98.0967415 L376.910153,98.6211462 Z M54.4016527,98.030766 L53.4076463,97.5025167 C54.4607211,95.5200413 55.5640642,93.5318244 56.6871962,91.5936141 L57.660868,92.1581468 C56.5446286,94.0845365 55.4478743,96.0603981 54.4016527,98.030766 Z M370.238396,87.0039695 C369.061969,85.1182537 367.832792,83.227866 366.586583,81.3850306 L367.518494,80.753982 C368.772946,82.6083677 370.009269,84.5105704 371.193388,86.4075833 L370.238396,87.0039695 Z M61.1330006,86.4105778 L60.1807607,85.8108649 C61.3744957,83.9147076 62.6204345,82.0138728 63.8842098,80.1614177 L64.8139263,80.7957592 C63.5578708,82.6372268 62.3193422,84.5262354 61.1330231,86.4105778 L61.1330006,86.4105778 Z M362.728711,75.9032327 C361.422607,74.1156387 360.058261,72.3195227 358.673597,70.5651839 L359.557153,69.867625 C360.950076,71.6329569 362.322643,73.440066 363.637586,75.2386587 L362.728711,75.9032327 Z M68.6981872,75.3211155 L67.7926483,74.6526858 C69.1243033,72.8466743 70.5059621,71.0431395 71.8994313,69.2920992 L72.7796897,69.9929566 C71.3950375,71.7335554 70.0218973,73.526114 68.6982097,75.3211155 L68.6981872,75.3211155 Z M354.42396,65.3783088 C352.983233,63.6833316 351.490859,61.9913885 349.988042,60.3494575 L350.81775,59.5892384 C352.329908,61.2410592 353.831622,62.9434608 355.281138,64.6488681 L354.42396,65.3783088 Z M77.0532629,64.8187182 L76.1988251,64.0859847 C77.6554869,62.3866396 79.1648984,60.6894447 80.6852987,59.0417442 L81.5122561,59.8052674 C80.0012016,61.4430668 78.5008546,63.1297977 77.0532629,64.8187182 L77.0532629,64.8187182 Z M345.369696,55.4855198 C343.805341,53.8971866 342.19263,52.318473 340.576071,50.7930814 L341.348635,49.9740466 C342.974529,51.5090298 344.597132,53.0973855 346.170833,54.6956142 L345.369696,55.4855198 Z M86.1509301,54.95919 L85.3525448,54.1659859 C86.932835,52.574084 88.5617562,50.9923478 90.1939746,49.4647553 L90.9626907,50.2868185 C89.3403639,51.8050671 87.7216101,53.377178 86.1509301,54.95919 L86.1509301,54.95919 Z M335.612655,46.2784748 C333.938401,44.8099739 332.21417,43.3527418 330.488246,41.9474583 L331.198169,41.0745499 C332.93506,42.4883555 334.669756,43.9543798 336.354448,45.4319488 L335.612655,46.2784748 Z M95.941489,45.7936465 L95.2029936,44.9440977 C96.8940046,43.4734015 98.633371,42.0153477 100.373564,40.6103343 L101.080191,41.4865412 C99.350986,42.8827398 97.6220627,44.3320183 95.941489,45.7936465 L95.941489,45.7936465 Z M325.206684,37.806657 C323.432978,36.4670619 321.605971,35.1398335 319.777316,33.861801 L320.421301,32.9388748 C322.262042,34.2248721 324.100038,35.5603468 325.88476,36.9079179 L325.206684,37.806657 Z M106.37219,37.3709852 L105.697984,36.4694936 C107.49257,35.1260485 109.333587,33.7996418 111.169664,32.5271087 L111.810352,33.4527874 C109.98554,34.7171024 108.155787,36.035533 106.37219,37.3709852 Z M314.205628,30.1183616 C312.334115,28.9104137 310.413695,27.7203374 308.498772,26.5819282 L309.073527,25.6139207 C311.000535,26.7597543 312.932496,27.9569793 314.815549,29.1723459 L314.205628,30.1183616 Z M117.387256,29.7374527 L116.780632,28.7892643 C118.666161,27.5824423 120.598667,26.3950847 122.524297,25.2599852 L123.095755,26.230188 C121.181659,27.3581107 119.260963,28.5382971 117.387256,29.7374527 L117.387256,29.7374527 Z M302.663893,23.2576962 C300.712701,22.1923943 298.709316,21.1468834 296.71032,20.1502926 L297.212542,19.1427313 C299.223624,20.1456432 301.239651,21.1974753 303.202924,22.2693742 L302.663893,23.2576962 Z M128.927894,22.9355749 L128.392706,21.9450352 C130.359827,20.8813825 132.37366,19.839716 134.377596,18.8494465 L134.87597,19.8586965 C132.884119,20.8429038 130.882929,21.8782434 128.927894,22.9355749 Z M290.644107,17.2641416 C288.618193,16.3456059 286.542822,15.4512573 284.475141,14.6052829 L284.900987,13.5630704 C286.981575,14.4142684 289.070412,15.3146623 291.108963,16.2389676 L290.644107,17.2641416 Z M140.932291,17.0044103 L140.471559,15.977587 C142.507916,15.0634643 144.591801,14.1735062 146.665249,13.3330256 L147.087809,14.3763413 C145.026999,15.2118686 142.95601,16.0960459 140.932291,17.0044103 L140.932291,17.0044103 Z M278.20947,12.1762044 C276.112672,11.4080092 273.97521,10.6695006 271.856159,9.98100968 L272.203975,8.910214 C274.335939,9.60312351 276.48659,10.3462816 278.596301,11.1191487 L278.20947,12.1762044 Z M153.334512,11.9777655 L152.950973,10.9196065 C155.052171,10.1568995 157.194849,9.42417724 159.319127,8.74118574 L159.66337,9.81307903 C157.552286,10.4916744 155.423068,11.2200118 153.334512,11.9777655 L153.334512,11.9777655 Z M265.424272,8.02301402 C263.281588,7.41397414 261.100171,6.8375815 258.940704,6.30934917 L259.207749,5.21601564 C261.380648,5.74729317 263.575805,6.3274909 265.731947,6.94012761 L265.424272,8.02301402 Z M166.085096,7.87927048 L165.780695,6.79527518 C167.934092,6.19034436 170.130644,5.61673799 172.309569,5.09041383 L172.573593,6.18484498 C170.408094,6.70787627 168.225039,7.27790833 166.085096,7.87927048 Z M252.398124,4.83727952 C250.218929,4.3892806 248.000945,3.97591589 245.805788,3.60844307 L245.991511,2.49807106 C248.200128,2.86773913 250.431824,3.28385633 252.624506,3.7345965 L252.398124,4.83727952 Z M179.120033,4.73146307 L178.896948,3.6282059 C181.093748,3.18322966 183.326548,2.77370945 185.533515,2.41091419 L185.715942,3.52184345 C183.522726,3.88219017 181.303374,4.28923933 179.120033,4.73146307 L179.120033,4.73146307 Z M239.172512,2.62312124 C236.96142,2.33645597 234.719033,2.08771778 232.507643,1.88295767 L232.611218,0.762138543 C234.83632,0.968001902 237.09247,1.21838371 239.317037,1.50669824 L239.172512,2.62312124 Z M192.352228,2.55633512 L192.210741,1.43936049 C194.428146,1.15819459 196.685123,0.914128328 198.918462,0.713769969 L199.019016,1.83513509 C196.799141,2.03413127 194.55618,2.27681847 192.352233,2.55633512 L192.352228,2.55633512 Z M225.819699,1.38713617 C223.602012,1.2631836 221.347517,1.17853156 219.118566,1.13538092 L219.140543,0.00961404908 C221.382683,0.053316319 223.651195,0.138514356 225.88234,0.263018543 L225.819699,1.38713617 Z M205.708344,1.35826587 L205.649,0.234142623 C207.883442,0.115689433 210.1525,0.0370827607 212.392715,-1.68865031e-05 L212.411395,1.12574998 C210.184645,1.16232052 207.929598,1.24065138 205.708344,1.35826587 Z" id="Shape" fill="#3564B1"></path>
                    <path d="M393.923022,145.868456 C393.692244,144.768526 393.45194,143.672349 393.20211,142.579928 L394.298865,142.328173 C394.551073,143.427551 394.792842,144.530689 395.024171,145.637584 L393.923022,145.868456 Z" id="Path" fill="#3564B1"></path>
                    <path d="M395.440677,219.268935 L394.336231,219.050705 C394.553273,217.951326 394.760608,216.848371 394.958238,215.741839 L396.065981,215.939181 C395.86762,217.052857 395.659185,218.162775 395.440677,219.268935 Z" id="Path" fill="#3564B1"></path>
                    <path d="M215.500276,366.974164 C214.27714,366.974164 213.056937,366.962253 211.839668,366.938432 L211.861645,365.812665 C214.086196,365.856091 216.326136,365.858821 218.553162,365.823112 L218.571297,366.948879 C217.549546,366.965371 216.525872,366.9738 215.500276,366.974164 Z M225.299342,366.717461 L225.239998,365.59282 C227.465646,365.47574 229.710807,365.316326 231.913105,365.119536 L232.013107,366.240907 C229.797362,366.438766 227.538466,366.599255 225.299342,366.717461 Z M205.1138,366.685027 C202.880179,366.560247 200.621835,366.393138 198.401679,366.188108 L198.504978,365.066737 C200.711945,365.27067 202.956555,365.437227 205.176436,365.561461 L205.1138,366.685027 Z M238.705451,365.52023 L238.564222,364.403261 C240.779157,364.122917 243.006735,363.799698 245.184855,363.442419 L245.36673,364.553894 C243.175151,364.912823 240.934137,365.237691 238.705462,365.520208 L238.705451,365.52023 Z M191.711259,365.445474 C189.487805,365.156889 187.247596,364.824872 185.052703,364.457681 L185.238427,363.347303 C187.419568,363.711748 189.646043,364.042115 191.855762,364.328505 L191.711259,365.445474 Z M251.988477,363.344005 L251.765938,362.240224 C253.949555,361.799374 256.147182,361.312896 258.297833,360.795088 L258.56103,361.890071 C256.397207,362.410631 254.18584,362.899856 251.988488,363.344005 L251.988477,363.344005 Z M178.435103,363.225799 C176.239946,362.775053 174.029956,362.27868 171.86722,361.750431 L172.13426,360.656546 C174.283538,361.181502 176.479792,361.675123 178.661485,362.123122 L178.435103,363.225799 Z M265.075893,360.193726 L264.772578,359.109714 C266.907019,358.51165 269.062885,357.864666 271.180018,357.185778 L271.523439,358.257677 C269.393135,358.940984 267.223804,359.592364 265.075904,360.193726 L265.075893,360.193726 Z M165.357854,360.033743 C163.206928,359.423578 161.034029,358.763411 158.899606,358.071346 L159.246325,357.00055 C161.367852,357.688214 163.527291,358.344547 165.665029,358.950851 L165.357854,360.033743 Z M277.878112,356.091387 L277.49513,355.032659 C279.574621,354.280129 281.67197,353.477581 283.728656,352.64645 L284.150091,353.690312 C282.080526,354.526413 279.970268,355.33446 277.878135,356.091387 L277.878112,356.091387 Z M152.52044,355.872037 C150.417048,355.10302 148.30019,354.283979 146.228392,353.437453 L146.653686,352.395241 C148.712572,353.236267 150.816516,354.05036 152.90672,354.814429 L152.52044,355.872037 Z M290.330333,351.060064 L289.870974,350.032121 C291.896342,349.125682 293.929953,348.170316 295.915755,347.191867 L296.41248,348.202198 C294.414637,349.186169 292.36836,350.14758 290.330355,351.060064 L290.330333,351.060064 Z M140.032502,350.773101 C137.993411,349.85072 135.943854,348.878317 133.940739,347.882278 L134.441864,346.874153 C136.432335,347.864147 138.469519,348.831051 140.49626,349.747386 L140.032502,350.773101 Z M302.387484,345.121205 L301.853393,344.130643 C303.809526,343.076362 305.768404,341.973673 307.675635,340.852837 L308.24599,341.823592 C306.326149,342.951025 304.355208,344.060839 302.387507,345.121205 L302.387484,345.121205 Z M127.960772,344.768288 C125.994748,343.698585 124.023255,342.577765 122.100635,341.437707 L122.674551,340.469153 C124.585355,341.602615 126.544785,342.716291 128.498723,343.779392 L127.960772,344.768288 Z M313.981396,338.311087 L313.376426,337.362301 C315.239696,336.173869 317.112858,334.929919 318.944811,333.664529 L319.584401,334.591311 C317.740965,335.863861 315.855705,337.115505 313.981441,338.311087 L313.981396,338.311087 Z M116.368458,337.894401 C114.489253,336.684534 112.60593,335.422994 110.770674,334.143863 L111.413838,333.22038 C113.238099,334.491264 115.109888,335.745109 116.977277,336.947833 L116.368458,337.894401 Z M325.048919,330.66763 L324.376356,329.765024 C326.151716,328.440819 327.930367,327.062745 329.662312,325.669276 L330.367841,326.546586 C328.624969,327.948864 326.835329,329.335184 325.048986,330.66763 L325.048919,330.66763 Z M105.315204,330.191583 C103.53298,328.850339 101.747458,327.454675 100.008644,326.043065 L100.717464,325.169059 C102.445842,326.571871 104.220374,327.958737 105.99161,329.292287 L105.315204,330.191583 Z M335.532915,322.232625 L334.796614,321.381686 C336.473615,319.928321 338.147318,318.423801 339.771569,316.909403 L340.538637,317.732839 C338.905113,319.256598 337.220972,320.770451 335.532982,322.232625 L335.532915,322.232625 Z M94.8575803,321.70271 C93.1728879,320.230089 91.4945424,318.70799 89.8694417,317.1793 L90.6403578,316.359179 C92.2555387,317.878525 93.9234975,319.391274 95.5982757,320.855103 L94.8575803,321.70271 Z M345.379037,313.05279 L344.582306,312.257937 C346.154904,310.680326 347.714865,309.057089 349.219331,307.433851 L350.04464,308.199018 C348.530828,309.832703 346.960981,311.46583 345.379037,313.05279 Z M85.0503328,312.477264 C83.4824043,310.890856 81.9199674,309.251126 80.4061615,307.603701 L81.2347731,306.841833 C82.7392388,308.479362 84.2920542,310.108645 85.8506424,311.685709 L85.0503328,312.477264 Z M354.531113,303.176493 L353.678324,302.442105 C355.13004,300.755656 356.568568,299.022481 357.953248,297.289853 L358.832409,297.993457 C357.438934,299.735981 355.991613,301.480149 354.531108,303.176493 L354.531113,303.176493 Z M75.9438767,302.564138 C74.4951822,300.866144 73.0569307,299.117575 71.6689532,297.366259 L72.5508602,296.667056 C73.930319,298.407374 75.3597817,300.145496 76.7999575,301.833048 L75.9438767,302.564138 Z M362.943035,292.654862 L362.038599,291.984237 C363.366681,290.191696 364.674985,288.357377 365.926692,286.532402 L366.854202,287.168944 C365.595351,289.005464 364.279354,290.850776 362.943029,292.654862 L362.943035,292.654862 Z M67.5874507,292.016119 C66.2651359,290.216434 64.9587558,288.367824 63.7043039,286.522512 L64.6351176,285.889268 C65.8816022,287.723587 67.1800094,289.560653 68.4940811,291.349896 L67.5874507,292.016119 Z M370.563717,281.541759 L369.61312,280.939299 C370.800542,279.065404 371.970921,277.139273 373.092404,275.215371 L374.064973,275.782651 C372.936344,277.71866 371.758268,279.656319 370.563711,281.541759 L370.563717,281.541759 Z M60.025837,280.890925 C58.8400694,279.001089 57.6727064,277.062879 56.5567203,275.130168 L57.5309434,274.567284 C58.6403352,276.487905 59.8005523,278.41403 60.9791798,280.292861 L60.025837,280.890925 Z M377.352485,269.896562 L376.360133,269.36556 C377.412375,267.397118 378.438245,265.389644 379.410268,263.398664 L380.421306,263.892284 C379.443786,265.895913 378.411321,267.916023 377.352485,269.896562 Z M53.3016462,269.246274 C52.2573433,267.273987 51.2358902,265.256072 50.2657914,263.249151 L51.279024,262.758823 C52.2430798,264.753654 53.2582367,266.758926 54.2961984,268.719674 L53.3016462,269.246274 Z M383.267594,257.77865 L382.238978,257.322405 C383.13902,255.291296 384.014884,253.211819 384.841858,251.142778 L385.886966,251.560544 C385.054483,253.642751 384.173673,255.734859 383.267594,257.77865 L383.267594,257.77865 Z M47.45301,257.14428 C46.5559898,255.099983 45.6861688,253.013357 44.8674489,250.943218 L45.9139236,250.528751 C46.7274277,252.586793 47.5920272,254.660231 48.4832744,256.691885 L47.45301,257.14428 Z M388.274419,245.248971 L387.215031,244.869684 C387.965061,242.770416 388.684876,240.631019 389.355238,238.511409 L390.427815,238.85112 C389.75415,240.983373 389.029394,243.135958 388.274413,245.248971 L388.274419,245.248971 Z M42.5134968,244.652005 C41.7689583,242.545043 41.0535377,240.395199 40.3875752,238.261854 L41.4618005,237.926539 C42.1236443,240.04615 42.8343892,242.182799 43.5745333,244.277119 L42.5134968,244.652005 Z M392.342181,232.376323 L391.257518,232.076193 C391.846553,229.942302 392.404822,227.761129 392.916936,225.593138 L394.012587,225.852594 C393.496631,228.033756 392.935065,230.228669 392.342181,232.376323 Z M38.4992944,231.798596 C37.9135621,229.64546 37.359682,227.451644 36.8530657,225.277068 L37.9492687,225.022008 C38.4525878,227.182845 39.0028892,229.363467 39.58506,231.502863 L38.4992944,231.798596 Z" id="Shape" fill="#3564B1"></path>
                    <path d="M35.4233273,218.571376 C35.2090314,217.464296 35.0046272,216.353647 34.8101145,215.239426 L35.9189548,215.045935 C36.1118245,216.153011 36.3149459,217.256698 36.5283191,218.356996 L35.4233273,218.571376 Z" id="Path" fill="#3564B1"></path>
                    <path d="M307.363008,219.78372 L306.316803,219.369803 C306.725066,218.336912 307.121789,217.279603 307.496528,216.226392 L308.557019,216.60403 C308.177879,217.669332 307.7762,218.73903 307.363008,219.78372 Z" id="Path" fill="#3564B1"></path>
                    <path d="M215.5,282.260209 C214.152135,282.260209 212.791902,282.232721 211.456956,282.178853 L211.502565,281.054184 C213.717207,281.143784 215.980801,281.159178 218.202595,281.09761 L218.233367,282.223377 C217.325082,282.248118 216.41396,282.260394 215.5,282.260209 Z M224.99659,281.808909 L224.889993,280.688642 C227.106025,280.47756 229.341019,280.186223 231.533431,279.82398 L231.716955,280.934352 C229.499268,281.301549 227.238178,281.595633 224.99659,281.808909 Z M204.69923,281.675905 C202.460956,281.432396 200.204243,281.10808 197.991778,280.711748 L198.19014,279.603571 C200.37733,279.994955 202.608199,280.315973 204.821215,280.556736 L204.69923,281.675905 Z M238.361213,279.599175 L238.101314,278.504192 C240.267893,277.989683 242.441619,277.394366 244.562049,276.733637 L244.896681,277.808834 C242.751528,278.476684 240.552798,279.079144 238.361213,279.599175 L238.361213,279.599175 Z M191.365649,279.288053 C189.180383,278.738909 186.988804,278.106763 184.851618,277.409756 L185.200531,276.33896 C187.31327,277.028273 189.479585,277.653293 191.63984,278.196363 L191.365649,279.288053 Z M251.293948,275.569943 L250.885691,274.521133 C252.956663,273.714735 255.02791,272.824789 257.041468,271.876572 L257.521161,272.894597 C255.483971,273.854336 253.388827,274.75473 251.293948,275.569943 L251.293948,275.569943 Z M178.483464,275.08454 C176.39573,274.239652 174.312397,273.311238 172.291147,272.325094 L172.784603,271.313666 C174.782496,272.288265 176.841928,273.205697 178.905484,274.04123 L178.483464,275.08454 Z M263.549185,269.797067 L263.000808,268.814222 C264.944849,267.728031 266.874333,266.562125 268.735961,265.348419 L269.350271,266.291688 C267.467493,267.519145 265.515755,268.698785 263.549185,269.797067 Z M166.303511,269.146784 C164.353146,268.023213 162.417067,266.817742 160.549154,265.563896 L161.176107,264.629425 C163.022897,265.868973 164.936717,267.060705 166.865105,268.171651 L166.303511,269.146784 Z M274.898878,262.397148 L274.220824,261.498955 C275.999481,260.156061 277.752031,258.737308 279.429859,257.281725 L280.167251,258.132647 C278.470197,259.604683 276.697589,261.039394 274.898878,262.397148 Z M155.053268,261.595151 C153.271595,260.213779 151.517943,258.754898 149.841494,257.259739 L150.590427,256.41981 C152.247644,257.897379 153.981243,259.339222 155.742863,260.705751 L155.053268,261.595151 Z M285.132315,253.518545 L284.338875,252.720377 C285.916966,251.149932 287.460171,249.505783 288.925897,247.833625 L289.772092,248.575708 C288.289604,250.2671 286.728545,251.929914 285.132315,253.518545 L285.132315,253.518545 Z M144.937698,252.580782 C143.363997,250.972939 141.825192,249.289782 140.364136,247.577496 L141.220217,246.846407 C142.664517,248.539453 144.186014,250.203922 145.741581,251.793623 L144.937698,252.580782 Z M294.064047,243.328346 L293.169497,242.64563 C294.517914,240.877275 295.822916,239.03856 297.048795,237.179503 L297.988404,237.799558 C296.748232,239.680056 295.428393,241.540206 294.064047,243.328346 Z M136.142496,242.273502 C134.800674,240.464468 133.505558,238.586723 132.293143,236.693042 L133.240989,236.08618 C134.439394,237.95788 135.719672,239.814157 137.046381,241.602877 L136.142496,242.273502 Z M301.523161,232.015171 L300.543997,231.46108 C301.638,229.524519 302.679259,227.524194 303.638645,225.515623 L304.654077,226.001004 C303.68372,228.032652 302.630375,230.056066 301.523177,232.015171 L301.523161,232.015171 Z M128.835859,230.863011 C127.753667,228.886327 126.727797,226.849168 125.786815,224.808715 L126.808843,224.337081 C127.738829,226.354455 128.753165,228.367968 129.822714,230.322119 L128.835859,230.863011 Z" id="Shape" fill="#3564B1"></path>
                    <path d="M123.147137,218.520255 C122.749042,217.470618 122.362222,216.395426 121.997358,215.324079 L123.062789,214.961283 C123.423247,216.020258 123.805684,217.083354 124.199368,218.12063 L123.147137,218.520255 Z" id="Path" fill="#3564B1"></path>
                    <path d="M124.885952,147.06979 L123.841948,146.649823 C124.263382,145.600737 124.707644,144.547808 125.162338,143.520709 L126.191505,143.976402 C125.742033,144.991956 125.302728,146.03252 124.885952,147.06979 Z" id="Path" fill="#3564B1"></path>
                    <path d="M129.148509,137.877858 L128.153956,137.351805 C129.216917,135.340757 130.365048,133.340433 131.566509,131.406894 L132.522046,132.001113 C131.33459,133.91266 130.199659,135.889901 129.148509,137.877858 Z M300.963266,136.238128 C299.875852,134.271886 298.703267,132.316908 297.479036,130.427072 L298.423038,129.814717 C299.661556,131.726269 300.847875,133.704055 301.947926,135.692835 L300.963266,136.238128 Z M136.294719,126.372555 L135.38231,125.713475 C136.713965,123.868163 138.127218,122.04621 139.582782,120.297647 L140.447652,121.018289 C139.008579,122.746792 137.611261,124.54812 136.294719,126.372555 Z M293.599186,124.871345 C292.249678,123.074131 290.818291,121.299455 289.346246,119.597065 L290.196835,118.860476 C291.686463,120.582387 293.133785,122.377124 294.499228,124.195226 L293.599186,124.871345 Z M144.959676,115.963332 L144.146453,115.184971 C145.719052,113.54112 147.369388,111.930801 149.051622,110.398812 L149.809349,111.231593 C148.146083,112.745991 146.514416,114.337899 144.959676,115.963332 Z M284.739717,114.62896 C283.153929,113.033186 281.492312,111.47236 279.800755,109.989844 L280.542548,109.143318 C282.253336,110.642597 283.93391,112.221311 285.537832,113.835204 L284.739717,114.62896 Z M154.97332,106.845335 L154.274936,105.962531 C156.060182,104.549553 157.916313,103.181921 159.791675,101.897567 L160.427416,102.826544 C158.573211,104.096313 156.738236,105.448298 154.97332,106.845335 Z M274.554635,105.702783 C272.765541,104.341196 270.905016,103.024139 269.024708,101.788429 L269.642321,100.847361 C271.544607,102.097357 273.426558,103.429533 275.235981,104.806785 L274.554635,105.702783 Z M166.146089,99.1955632 L165.57628,98.2248088 C167.537634,97.0729297 169.564926,95.9752001 171.601558,94.9621168 L172.102678,95.9702411 C170.089142,96.971515 168.085189,98.0568781 166.146089,99.1955632 Z M263.237082,98.2668618 C261.273804,97.1636102 259.248987,96.1170186 257.219225,95.155608 L257.70056,94.1381343 C259.753955,95.1105323 261.802127,96.1695131 263.788205,97.2851143 L263.237082,98.2668618 Z M178.269444,93.1671041 L177.839755,92.1265352 C179.94205,91.2580061 182.102311,90.453004 184.260107,89.7337178 L184.615615,90.8017666 C182.482823,91.5128065 180.347561,92.3084873 178.269444,93.1671041 L178.269444,93.1671041 Z M250.999433,92.471746 C248.902905,91.6524298 246.752536,90.8979802 244.607928,90.2287287 L244.943112,89.1540829 C247.112438,89.831029 249.287812,90.5942765 251.408793,91.422931 L250.999433,92.471746 Z M191.112068,88.886111 L190.831861,87.7958058 C193.033613,87.229348 195.285087,86.7332507 197.523378,86.3215353 L197.726685,87.4286088 C195.514204,87.8356523 193.288814,88.3259744 191.112068,88.886111 L191.112068,88.886111 Z M238.075487,88.4381121 C235.887752,87.9200285 233.653304,87.4725812 231.433974,87.1081367 L231.616401,85.9972075 C233.861281,86.3657779 236.121549,86.8184544 238.334841,87.3425777 L238.075487,88.4381121 Z M204.427239,86.4353109 L204.300859,85.3166926 C206.553987,85.0621849 208.851893,84.8827095 211.131393,84.782944 L211.18057,85.9075852 C208.92662,86.0062811 206.654541,86.1838315 204.427239,86.4353109 L204.427239,86.4353109 Z M224.71608,86.243469 C222.482189,86.0340369 220.207083,85.8996372 217.954506,85.84412 L217.98198,84.7189161 C220.260659,84.7749849 222.561586,84.910758 224.821033,85.1226611 L224.71608,86.243469 Z" id="Shape" fill="#3564B1"></path>
                    <path d="M305.416216,145.379761 C304.980478,144.351294 304.521666,143.318971 304.052967,142.311387 L305.072794,141.836454 C305.54699,142.855583 306.011317,143.899985 306.452523,144.940008 L305.416216,145.379761 Z" id="Path" fill="#3564B1"></path>
                    <path d="M319.942188,183.340954 C316.894213,183.329157 314.263003,185.474449 313.659661,188.463304 C313.056318,191.452159 314.649154,194.450801 317.462865,195.623146 C320.276577,196.79549 323.526246,195.814498 325.222083,193.280835 C326.91792,190.747172 326.586852,187.367635 324.431593,185.211532 C323.246204,184.011296 321.628774,183.337387 319.942188,183.340954 L319.942188,183.340954 Z" id="Path" fill="#3F3D56"></path>
                    <path d="M294.486011,183.340953 C291.438035,183.329149 288.806818,185.474436 288.20347,188.463292 C287.600121,191.452147 289.192952,194.450794 292.006664,195.623143 C294.820375,196.795491 298.070047,195.814501 299.765887,193.280839 C301.461727,190.747176 301.13066,187.367636 298.975399,185.211532 C297.787882,184.014469 296.171844,183.341138 294.486011,183.340953 Z" id="Path" fill="#3F3D56"></path>
                    <path d="M306.651436,147.47546 C288.938669,147.47546 274.579634,161.840116 274.579634,179.559816 C274.579634,197.279516 288.938669,211.644172 306.651436,211.644172 C324.364203,211.644172 338.723238,197.279516 338.723238,179.559816 C338.723238,161.840116 324.364203,147.47546 306.651436,147.47546 L306.651436,147.47546 Z" id="Shape" fill="#3564B1"></path>
                    <path d="M398.928198,147.47546 C381.215432,147.47546 366.856397,161.840116 366.856397,179.559816 C366.856397,197.279516 381.215432,211.644172 398.928198,211.644172 C416.640965,211.644172 431,197.279516 431,179.559816 C431,161.840116 416.640965,147.47546 398.928198,147.47546 Z" id="Shape" fill="#3564B1"></path>
                    <path d="M32.0718016,147.47546 C14.3590347,147.47546 0,161.840116 0,179.559816 C0,197.279516 14.3590347,211.644172 32.0718016,211.644172 C49.7845685,211.644172 64.1436031,197.279516 64.1436031,179.559816 C64.1436031,161.840116 49.7845685,147.47546 32.0718016,147.47546 L32.0718016,147.47546 Z" id="Shape" fill="#3564B1"></path>
                    <path d="M124.348564,147.47546 C106.635797,147.47546 92.2767624,161.840116 92.2767624,179.559816 C92.2767624,197.279516 106.635797,211.644172 124.348564,211.644172 C142.061331,211.644172 156.420366,197.279516 156.420366,179.559816 C156.420366,161.840116 142.061331,147.47546 124.348564,147.47546 Z" id="Shape" fill="#3564B1"></path>
                    <path d="M217.071802,147 C199.359035,147 185,161.364655 185,179.084356 C185,196.804056 199.359035,211.168712 217.071802,211.168712 C234.784568,211.168712 249.143603,196.804056 249.143603,179.084356 C249.143603,161.364655 234.784568,147 217.071802,147 L217.071802,147 Z" id="Shape" fill="#3564B1"></path>
                    <path d="M217.071802,244 C199.359035,244 185,258.364655 185,276.084356 C185,293.804056 199.359035,308.168712 217.071802,308.168712 C234.784568,308.168712 249.143603,293.804056 249.143603,276.084356 C249.143603,258.364655 234.784568,244 217.071802,244 L217.071802,244 Z" id="Shape-Copy" fill="#3564B1"></path>
                    <path d="M217.071802,59 C199.359035,59 185,73.3646554 185,91.0843558 C185,108.804056 199.359035,123.168712 217.071802,123.168712 C234.784568,123.168712 249.143603,108.804056 249.143603,91.0843558 C249.143603,73.3646554 234.784568,59 217.071802,59 L217.071802,59 Z" id="Shape-Copy-2" fill="#3564B1"></path>
                    <path d="M36.9514193,288.246883 C33.2224157,288.246883 30.199461,285.222745 30.199461,281.492282 C30.199461,277.761818 33.2224157,274.73768 36.9514193,274.73768 C40.6804228,274.73768 43.7033775,277.761818 43.7033775,281.492282 C43.699114,285.220977 40.6786554,288.242618 36.9514193,288.246883 L36.9514193,288.246883 Z M36.9514193,275.863447 C33.8439163,275.863447 31.3247874,278.383562 31.3247874,281.492282 C31.3247874,284.601001 33.8439163,287.121116 36.9514193,287.121116 C40.0589222,287.121116 42.5780511,284.601001 42.5780511,281.492282 C42.5745967,278.384995 40.0574903,275.866903 36.9514193,275.863447 Z" id="Shape" fill="#F0F0F0"></path>
                    <path d="M179.305205,136.831239 C175.576202,136.831239 172.553247,133.807101 172.553247,130.076637 C172.553247,126.346174 175.576202,123.322036 179.305205,123.322036 C183.034209,123.322036 186.057163,126.346174 186.057163,130.076637 C186.0529,133.805333 183.032441,136.826974 179.305205,136.831239 L179.305205,136.831239 Z M179.305205,124.447803 C176.197702,124.447803 173.678573,126.967918 173.678573,130.076637 C173.678573,133.185357 176.197702,135.705472 179.305205,135.705472 C182.412708,135.705472 184.931837,133.185357 184.931837,130.076637 C184.928383,126.969351 182.411276,124.451259 179.305205,124.447803 Z" id="Shape" fill="#F0F0F0"></path>
                    <path d="M305.044397,322.228122 L297.468081,314.102219 L305.590816,306.522942 L313.167126,314.648846 L305.044397,322.228122 Z M298.675685,314.144266 L305.086411,321.020033 L311.959482,314.606799 L305.548757,307.731031 L298.675685,314.144266 Z" id="Shape" fill="#F0F0F0"></path>
                </g>
                <g id="undraw_order_ride_xjs4" transform="translate(401.000000, 89.000000)" fill-rule="nonzero">
                    <ellipse id="Oval" fill="#E6E6E6" cx="99.8979592" cy="349.434169" rx="65.1020408" ry="9.56583072"></ellipse>
                    <path d="M32.5235505,174.435737 L26.4877935,179.857863 C26.4877935,179.857863 10.1332248,192.632148 17.7245539,197.31837 C25.315883,202.004592 33.7792304,183.21546 33.7792304,183.21546 L37.0408163,178.367833 L32.5235505,174.435737 Z" id="Path" fill="#D6A1A8"></path>
                    <path d="M67.1245551,79.9028213 L58.7357564,81.8602656 C58.7357564,81.8602656 56.7619275,90.1793979 57.2553863,98.0091691 C57.748845,105.83894 55.324116,120.370719 55.324116,120.370719 L49.6352702,133.4915 L25.8163265,178.180167 L40.6226977,184.564263 L67.1245491,133.243161 L69.5918367,100.455986 L67.1245551,79.9028213 Z" id="Path" fill="#E6E6E6"></path>
                    <ellipse id="Oval" fill="#2F2E41" cx="79.1326531" cy="27.5721003" rx="26.377551" ry="27.5721003"></ellipse>
                    <ellipse id="Oval" fill="#2F2E41" cx="102.142857" cy="55.1442006" rx="13.4693878" ry="13.5047022"></ellipse>
                    <polygon id="Path" fill="#D6A1A8" points="92.5916884 37.137931 99.8979592 56.2899227 81.3885009 64.1473354 79.7632919 60.4336779 74.0816327 47.4506346"></polygon>
                    <path d="M117.417486,142.391263 L124.270677,174.705835 L133.571429,247.168816 L126.718226,313.26678 C126.718226,313.26678 106.158668,320.121383 98.3264567,307.391401 L107.627209,253.044177 L89.0257167,188.904655 L86.0886532,252.064947 L90.983789,306.901786 C90.983789,306.901786 75.808874,315.714849 63.5710405,306.901786 L55.2493156,198.207314 C55.2493156,198.207314 48.8856331,150.714693 63.5710405,135.047022 L117.417486,142.391263 Z" id="Path" fill="#15214B"></path>
                    <ellipse id="Oval" fill="#D6A1A8" cx="78.0102041" cy="33.1990596" rx="16.2755102" ry="16.3181818"></ellipse>
                    <path d="M77.9136011,64.2586336 L79.5028373,59.0848795 C79.5028373,59.0848795 94.1433429,56.6210025 98.398515,51.7680251 L106.049363,59.7988391 C106.049363,59.7988391 126.908615,66.7362783 129.819209,69.7094665 C132.729804,72.6826548 118.176836,118.767042 118.176836,118.767042 C118.176836,118.767042 121.57253,126.695544 115.75134,130.164258 C115.75134,130.164258 124.483125,143.543599 117.691737,145.030193 C110.900349,146.516787 61.905365,136.110634 61.905365,136.110634 C61.905365,136.110634 58.509671,130.164258 66.2712573,127.686607 C66.2712573,127.686607 63.3606625,120.749168 66.7563565,118.271511 C70.1520505,115.793854 67.2414556,101.918988 67.2414556,101.918988 C67.2414556,101.918988 57.0543498,81.1066881 58.5096413,79.6201001 C59.9649328,78.133512 77.9136011,64.2586336 77.9136011,64.2586336 Z" id="Path" fill="#E6E6E6"></path>
                    <path d="M125.714286,185.348963 L125.238798,189.396268 C125.238798,189.396268 125.714286,213.680112 117.155499,212.668297 C108.596713,211.656481 113.827088,187.878527 113.827088,187.878527 L115.253547,182.31348 L125.714286,185.348963 Z" id="Path" fill="#D6A1A8"></path>
                    <path d="M115.525252,309.215458 C115.525252,309.215458 113.547965,329.050334 117.008222,330.53795 C120.468478,332.025567 143.701664,344.422366 136.781145,349.876954 C129.860626,355.331542 106.627446,340.951261 104.155824,343.430609 C101.684201,345.909958 93.7750419,343.926482 93.2807186,339.463632 C92.7863954,335.000782 93.7750419,327.066833 97.7296277,322.108135 C101.684214,317.149437 101.684214,307.231975 101.684214,307.231975 L115.525252,309.215458 Z" id="Path" fill="#2F2E41"></path>
                    <path d="M87.4487554,301.605016 L90.7952167,317.956978 C90.7952167,317.956978 97.9662496,334.308946 91.7513552,337.77754 C85.5364608,341.246135 84.5803164,341.741655 84.1022472,343.723712 C83.6241779,345.70577 70.7163141,356.111565 66.8917659,348.183342 C63.0672178,340.255118 76.9312143,328.858263 76.9312143,328.858263 L79.3215606,323.407611 L76.9312143,304.082533 L87.4487554,301.605016 Z" id="Path" fill="#2F2E41"></path>
                    <path d="M65.1970794,31.5109718 C75.4286697,24.8097383 78.4873182,23.2078075 90.2149876,25.7963028 L90.9183673,9.0031348 L60.6122449,15.2431552 L65.1970794,31.5109718 Z" id="Path" fill="#2F2E41"></path>
                    <path d="M125.141121,71.3914547 L129.917496,70.8996865 C129.917496,70.8996865 134.693878,83.6856704 134.693878,90.0786321 L134.693878,132.370669 L127.051668,187.940439 L112.244898,185.481604 L120.36474,135.813046 L117.976549,105.815207 L125.141121,71.3914547 Z" id="Path" fill="#E6E6E6"></path>
                    <path d="M18.7643376,170.951454 L20.6080288,174.655099 C20.6433119,174.726429 20.6162337,174.813828 20.5474303,174.850689 L20.4585287,174.897984 L30.062961,194.191544 C30.616349,195.303355 30.1932492,196.668452 29.1179038,197.240695 L17.4572045,203.445107 C16.940819,203.719798 16.3400327,203.771148 15.7870244,203.587861 C15.2340161,203.404573 14.7740901,203.001663 14.5084347,202.467776 L5.24083498,183.850889 L5.17646988,183.885138 C5.12789014,183.911089 5.0681591,183.891511 5.04291557,183.841363 L3.99363497,181.733539 C3.98156782,181.709312 3.97930666,181.68112 3.98734916,181.655169 C3.99539165,181.629218 4.01307865,181.607634 4.03651731,181.595168 L4.10087646,181.56092 L3.70564363,180.766962 L3.64073196,180.801499 C3.58959277,180.828454 3.52699959,180.807507 3.50083857,180.754684 L2.46586991,178.675611 C2.43982688,178.622969 2.4598161,178.558465 2.51059991,178.531271 L2.57551158,178.496733 L2.035989,177.412934 L1.96999012,177.448048 C1.9482979,177.45963 1.92303933,177.461811 1.89978937,177.45411 C1.87653941,177.446409 1.85720956,177.429458 1.84606622,177.407 L1.28128239,176.272448 C1.25785918,176.225653 1.27549935,176.168086 1.32071299,176.14377 L1.38671187,176.10865 L0.243105567,173.811353 C-0.31014793,172.699858 0.112837174,171.335129 1.18789537,170.763062 L12.8486006,164.558649 C13.9237857,163.986562 15.2439805,164.423703 15.7976318,165.535127 L18.48625,170.936086 L18.5751515,170.888792 C18.6441488,170.852309 18.728692,170.880311 18.7643376,170.951454 L18.7643376,170.951454 Z" id="Path" fill="#3F3D56"></path>
                    <path d="M14.8947313,167.311648 L29.0298297,194.801615 C29.3801671,195.483736 29.1119302,196.320968 28.430599,196.671959 L17.2803365,202.41571 C16.9532517,202.584918 16.5723291,202.616859 16.2216755,202.504481 C15.8710218,202.392103 15.5794781,202.14465 15.4114165,201.816757 L1.27631805,174.32679 C1.10785597,173.9992 1.07631842,173.618044 1.188644,173.267179 C1.30096958,172.916315 1.54795613,172.624486 1.87526385,172.455899 L3.54409613,171.596231 L3.65429722,171.810548 C3.94312375,172.372251 4.63220073,172.593251 5.19339737,172.304167 L10.8641512,169.383039 C11.4253432,169.093949 11.6461425,168.404251 11.3573232,167.842546 L11.2471221,167.628229 L13.0254967,166.712148 C13.3527762,166.543418 13.7336358,166.511791 14.0842218,166.62423 C14.4348077,166.73667 14.7263757,166.983958 14.8947313,167.311648 L14.8947313,167.311648 Z" id="Path" fill="#3564B1"></path>
                </g>
                <g id="45-header-app" transform="translate(110.000000, 166.000000)" fill="#FFFFFF">
                    <path d="M22.1082352,21.6830769 L22.1082352,28.0073077 C22.1082352,28.5062758 21.7275355,28.9107692 21.2579186,28.9107692 L7.65285068,28.9107692 C7.1832337,28.9107692 6.80253393,28.5062758 6.80253393,28.0073077 L6.80253393,21.6830769" id="Rectangle"></path>
                    <path d="M22.1082352,0 L22.1082352,7.90528846 C22.1082352,8.5289985 21.7275355,9.03461538 21.2579186,9.03461538 L7.65285068,9.03461538 C7.1832337,9.03461538 6.80253393,8.5289985 6.80253393,7.90528846 L6.80253393,0" id="Rectangle" transform="translate(14.455385, 4.517308) scale(-1, 1) rotate(-180.000000) translate(-14.455385, -4.517308) "></path>
                    <path d="M0.722769231,9.03461538 L28.188,9.03461538 C28.5871745,9.03461538 28.9107692,9.3582102 28.9107692,9.75738462 L28.9107692,20.9603077 C28.9107692,21.3594822 28.5871745,21.6830769 28.188,21.6830769 L0.722769231,21.6830769 C0.323594807,21.6830769 0,21.3594822 0,20.9603077 L0,9.75738462 C0,9.3582102 0.323594807,9.03461538 0.722769231,9.03461538 Z M11.269459,19.4823011 C11.269459,19.583941 11.2335866,19.6728746 11.1618408,19.7491046 C11.0900949,19.8422745 11.0024069,19.8888588 10.898774,19.8888588 C10.6755648,19.8888588 10.5201178,19.7829854 10.4324284,19.5712356 L9.4638645,17.3859881 L5.51786337,17.3859881 L4.56125705,19.5839406 C4.47356769,19.7872204 4.31812072,19.8888588 4.09491145,19.8888588 C3.83981515,19.8888588 3.71226892,19.7533409 3.71226892,19.4823011 C3.71226892,19.3044312 3.74415548,19.1477386 3.80792955,19.0122187 L7.10822142,11.6687704 C7.20388253,11.4485506 7.33142876,11.3384423 7.49086395,11.3384423 C7.65029913,11.3384423 7.78183118,11.4485506 7.88546406,11.6687704 L11.1737983,19.0122187 C11.2375724,19.1477386 11.269459,19.3044312 11.269459,19.4823011 Z M9.05730681,16.4458233 L7.49086395,12.8630337 L5.93637865,16.4458233 L9.05730681,16.4458233 Z M18.5041673,13.7269687 C18.5041673,14.3960983 18.2929189,14.9847541 17.8704156,15.4929537 C17.4558842,15.9842134 16.9377276,16.2298396 16.3159304,16.2298396 L13.6135174,16.2298396 L13.6135174,19.3552517 C13.6135174,19.7194615 13.4819854,19.9015637 13.2189173,19.9015637 C12.9000469,19.9015637 12.7406142,19.7194615 12.7406142,19.3552517 L12.7406142,12.0626232 C12.7406142,11.6984134 12.9000469,11.5163113 13.2189173,11.5163113 L16.5789971,11.5163113 C17.1529638,11.5163113 17.6232905,11.7322929 17.9899914,12.1642626 C18.332777,12.5962323 18.5041673,13.1171292 18.5041673,13.7269687 Z M17.5714761,13.7269687 C17.5714761,13.413579 17.4598731,13.1256035 17.2366639,12.8630337 C17.0214264,12.5835238 16.7543765,12.443771 16.4355062,12.443771 L13.8167963,12.443771 C13.6812764,12.443771 13.6135174,12.51153 13.6135174,12.6470499 L13.6135174,15.3023798 L16.1604818,15.3023798 C16.5351545,15.3023798 16.8659776,15.1414523 17.1529609,14.8195925 C17.4319725,14.4977328 17.5714761,14.1335285 17.5714761,13.7269687 Z M26.0378152,13.7269687 C26.0378152,14.3960983 25.8265666,14.9847541 25.4040635,15.4929537 C24.9895319,15.9842134 24.4713753,16.2298396 23.8495781,16.2298396 L21.1471652,16.2298396 L21.1471652,19.3552517 C21.1471652,19.7194615 21.0156332,19.9015637 20.7525652,19.9015637 C20.4336947,19.9015637 20.2742619,19.7194615 20.2742619,19.3552517 L20.2742619,12.0626232 C20.2742619,11.6984134 20.4336947,11.5163113 20.7525652,11.5163113 L24.1126449,11.5163113 C24.6866115,11.5163113 25.1569383,11.7322929 25.5236393,12.1642626 C25.8664249,12.5962323 26.0378152,13.1171292 26.0378152,13.7269687 Z M25.105124,13.7269687 C25.105124,13.413579 24.993521,13.1256035 24.7703118,12.8630337 C24.5550742,12.5835238 24.2880243,12.443771 23.9691539,12.443771 L21.3504441,12.443771 C21.2149243,12.443771 21.1471652,12.51153 21.1471652,12.6470499 L21.1471652,15.3023798 L23.6941297,15.3023798 C24.0688023,15.3023798 24.3996253,15.1414523 24.6866086,14.8195925 C24.9656203,14.4977328 25.105124,14.1335285 25.105124,13.7269687 Z" id="Combined-Shape"></path>
                </g>
                <g id="45-header-email" transform="translate(385.000000, 169.000000)" fill="#FFFFFF" fill-rule="nonzero">
                    <polygon id="Path" points="19.223375 11.6714545 29 18.8014546 29 4.24036364"></polygon>
                    <polygon id="Path" points="0 4.24036364 0 18.8014546 9.776625 11.6714545"></polygon>
                    <path d="M27.1875,0 L1.8125,0 C0.9080625,0 0.1903125,0.777818181 0.054375,1.77936364 L14.5,12.7587273 L28.945625,1.77936364 C28.8096875,0.777818181 28.0919375,0 27.1875,0 Z" id="Path"></path>
                    <path d="M17.563125,12.9343636 L14.9984375,14.8830909 C14.8461875,14.9980909 14.674,15.0545455 14.5,15.0545455 C14.326,15.0545455 14.1538125,14.9980909 14.0015625,14.8830909 L11.436875,12.9322727 L0.058,21.2352727 C0.1975625,22.2284546 0.9116875,23 1.8125,23 L27.1875,23 C28.0883125,23 28.8024375,22.2284546 28.942,21.2352727 L17.563125,12.9343636 Z" id="Path"></path>
                </g>
                <g id="45-header-messenger" transform="translate(293.000000, 166.000000)" fill="#FFFFFF" fill-rule="nonzero">
                    <path d="M14.2769231,0 C6.3924923,0 0,5.91778462 0,13.2186462 C0,17.3785847 2.0755077,21.0888 5.31993847,23.5123077 L5.31993847,28.5538462 L10.1812308,25.8858462 C11.4786462,26.2445538 12.8528,26.439077 14.2769231,26.439077 C22.1613538,26.439077 28.5538462,20.5212923 28.5538462,13.2204308 C28.5538462,5.91956923 22.1613538,0 14.2769231,0 Z M15.6956923,17.8015385 L12.0604308,13.9235692 L4.96658462,17.8015385 L12.7707077,9.51735385 L16.4952,13.3953231 L23.4998153,9.51735385 L15.6956923,17.8015385 Z" id="Shape"></path>
                </g>
                <g id="45-header-WeChat" transform="translate(199.000000, 166.000000)" fill="#FFFFFF" fill-rule="nonzero">
                    <path d="M13.0095308,0 C5.82393328,0 0,4.63792858 0,10.3571429 C0,13.6548571 1.94709311,16.5797143 4.96747251,18.473 L3.2523827,21.75 L7.92497251,19.8380714 C8.92670638,20.1777858 9.96746884,20.4574286 11.0797837,20.5879285 C10.9280059,19.9561428 10.8412757,19.3077858 10.8412757,18.6428572 C10.8412757,12.9319286 16.6760502,8.28571429 23.8508065,8.28571429 C24.5077878,8.28571429 25.1495913,8.33750001 25.7827218,8.41207143 C24.6378831,3.62292856 19.3581818,0 13.0095308,0 Z M8.67302053,7.76785714 C7.7753629,7.76785714 7.04682918,7.07185715 7.04682918,6.21428572 C7.04682918,5.35671429 7.7753629,4.66071429 8.67302053,4.66071429 C9.57067815,4.66071429 10.2992119,5.35671429 10.2992119,6.21428572 C10.2992119,7.07185715 9.57067815,7.76785714 8.67302053,7.76785714 Z M17.3460411,7.76785714 C16.4483834,7.76785714 15.7198497,7.07185715 15.7198497,6.21428572 C15.7198497,5.35671429 16.4483834,4.66071429 17.3460411,4.66071429 C18.2436987,4.66071429 18.9722324,5.35671429 18.9722324,6.21428572 C18.9722324,7.07185715 18.2436987,7.76785714 17.3460411,7.76785714 Z" id="Shape"></path>
                    <path d="M34.6920821,18.6428572 C34.6920821,14.0670714 29.8373589,10.3571429 23.8508065,10.3571429 C17.864254,10.3571429 13.0095308,14.0670714 13.0095308,18.6428572 C13.0095308,23.2186429 17.864254,26.9285714 23.8508065,26.9285714 C24.8351943,26.9285714 25.7718805,26.796 26.6803794,26.6075 L32.523827,29 L30.5030132,25.1409286 C33.0355352,23.6246428 34.6920821,21.2922142 34.6920821,18.6428572 Z M20.5984238,18.125 C19.7007661,18.125 18.9722324,17.4289999 18.9722324,16.5714286 C18.9722324,15.7138571 19.7007661,15.0178571 20.5984238,15.0178571 C21.4960814,15.0178571 22.2246151,15.7138571 22.2246151,16.5714286 C22.2246151,17.4289999 21.4960814,18.125 20.5984238,18.125 Z M27.1031891,18.125 C26.2055315,18.125 25.4769978,17.4289999 25.4769978,16.5714286 C25.4769978,15.7138571 26.2055315,15.0178571 27.1031891,15.0178571 C28.0008468,15.0178571 28.7293805,15.7138571 28.7293805,16.5714286 C28.7293805,17.4289999 28.0008468,18.125 27.1031891,18.125 Z" id="Shape"></path>
                </g>
                <g id="45-header-whatsapp" transform="translate(18.000000, 166.000000)" fill="#FFFFFF" fill-rule="nonzero">
                    <path d="M14.2804923,0 L14.2733538,0 C6.40141538,0 0,6.4032 0,14.2769231 C0,17.4 1.00652308,20.2946462 2.71796923,22.6449847 L0.938707692,27.9488615 L6.4264,26.1945847 C8.68393847,27.6900923 11.3769231,28.5538462 14.2804923,28.5538462 C22.1524308,28.5538462 28.5538462,22.1488615 28.5538462,14.2769231 C28.5538462,6.40498462 22.1524308,0 14.2804923,0 Z M22.587877,20.1608 C22.2434462,21.1334153 20.8764308,21.9400615 19.7860308,22.1756308 C19.0400615,22.3344615 18.0656615,22.4611692 14.7855385,21.1012923 C10.5899077,19.363077 7.888,15.0996308 7.67741538,14.8230153 C7.47575385,14.5464 5.98203077,12.5654769 5.98203077,10.5167385 C5.98203077,8.468 7.02246153,7.4704 7.44184615,7.0420923 C7.78627692,6.69052308 8.35556923,6.5299077 8.90166153,6.5299077 C9.07833847,6.5299077 9.23716923,6.53883077 9.37993847,6.54596923 C9.79932308,6.56381538 10.0099077,6.5888 10.2865231,7.2508923 C10.6309538,8.08073847 11.4697231,10.1294769 11.5696615,10.3400615 C11.6713846,10.5506462 11.7731077,10.8361846 11.6303385,11.1128 C11.4964923,11.3983385 11.3787077,11.5250462 11.1681231,11.7677538 C10.9575385,12.0104615 10.7576615,12.1960615 10.5470769,12.4566154 C10.3543385,12.6832615 10.1366154,12.9259692 10.3793231,13.3453538 C10.6220308,13.7558154 11.4608,15.1246153 12.6957538,16.2239385 C14.2894154,17.6427077 15.581477,18.096 16.0436923,18.2887385 C16.388123,18.4315077 16.7985847,18.3976 17.0502153,18.1299077 C17.3696615,17.785477 17.7640615,17.2144 18.1656,16.6522462 C18.4511385,16.248923 18.8116308,16.1989538 19.1899692,16.341723 C19.5754462,16.4755692 21.6152615,17.483877 22.0346462,17.692677 C22.4540308,17.9032615 22.7306462,18.0032 22.8323692,18.179877 C22.9323077,18.3565538 22.9323077,19.1864 22.587877,20.1608 Z" id="Shape"></path>
                </g>
                <g id="45-header-Weibo" transform="translate(199.000000, 261.000000)" fill="#FFFFFF" fill-rule="nonzero">
                    <path d="M34.0185085,8.62857283 C34.1646448,10.6184142 33.8439964,13.0031976 32.5911983,13.1212262 C30.5452921,13.313401 31.6122279,10.9498023 31.6391851,9.52740615 C31.7143814,5.40397049 28.3589251,2.53950675 25.0715713,2.53950675 C24.1408402,2.53950675 21.9771739,3.20228283 22.3105913,1.14132159 C22.4609838,0.233409156 23.1945021,0.245514655 23.9280204,0.142617912 C29.4570745,-0.62910766 33.6297581,3.35814113 34.0185085,8.62857283 L34.0185085,8.62857283 Z" id="Path"></path>
                    <path d="M24.9765119,13.4193241 C27.3529977,14.782706 30.2076183,15.4621271 29.7351589,19.5083902 C28.8640171,26.9668909 14.0517708,31.9770544 4.79979208,26.4962896 C2.26298208,24.9921814 -0.36321217,22.7920068 0.0411451287,18.4098162 C0.390169323,14.63744 2.80780033,11.7154751 5.18144861,9.22628185 C7.44584949,6.85057764 9.83226694,4.99238352 13.0798945,4.13591944 C16.6041876,3.20682239 17.645585,6.28767193 16.6964094,9.32615222 C18.7380591,9.18239941 23.0639728,6.79307651 24.9765119,9.12641148 C25.8192776,10.1553789 25.4972106,11.996928 24.9765119,13.4193241 Z M22.4070695,23.0023399 C23.1689639,22.0974538 23.9336957,20.7174269 23.9294745,19.1104219 C23.9152514,12.4599633 13.0969201,10.9755265 7.17911554,14.6177685 C0.444083629,18.7639021 3.2873539,26.2148368 11.5575247,26.7959007 C15.9387715,27.1045909 20.3242747,25.482454 22.4070695,23.0023399 Z" id="Shape"></path>
                    <path d="M28.3078485,11.5233003 C26.9216833,11.6201443 27.4395445,10.527623 27.3558353,9.22779504 C27.3033398,8.4273189 26.6705561,7.50276141 26.1186439,7.23038768 C25.0361014,6.69774572 23.3590827,7.61776365 23.3590827,6.03345645 C23.3590827,4.85619665 24.3323778,4.97876483 24.8828712,4.93488239 C29.9266965,4.53237455 30.2388319,11.3886266 28.3078485,11.5233003 L28.3078485,11.5233003 Z" id="Path"></path>
                    <path d="M18.220198,18.61107 C20.2476596,25.0390901 9.68329321,28.0276353 7.75089095,22.5045012 C6.45836639,18.8108108 9.56269541,15.8722009 12.7947162,15.5166019 C15.5542774,15.2124512 17.6115338,16.6893221 18.220198,18.61107 Z M13.3650728,19.7096441 C13.7949685,20.4904488 14.7838704,19.9290562 14.6973237,19.3101626 C14.5937515,18.594425 13.35656,18.7003481 13.3650728,19.7096441 Z M11.6525842,23.1037234 C13.4289187,22.6603595 13.6672767,19.1512779 10.9857493,19.8095145 C8.73411765,20.3603147 9.16968849,23.722617 11.6525842,23.1037234 Z" id="Shape"></path>
                </g>
                <g id="45-Instagram" transform="translate(202.000000, 77.000000)" fill="#FFFFFF" fill-rule="nonzero">
                    <path d="M19.6307692,0 L8.92307692,0 C3.99575385,0 0,3.99575385 0,8.92307692 L0,19.6307692 C0,24.5580923 3.99575385,28.5538462 8.92307692,28.5538462 L19.6307692,28.5538462 C24.5580923,28.5538462 28.5538462,24.5580923 28.5538462,19.6307692 L28.5538462,8.92307692 C28.5538462,3.99575385 24.5580923,0 19.6307692,0 Z M25.8769231,19.6307692 C25.8769231,23.0750769 23.0750769,25.8769231 19.6307692,25.8769231 L8.92307692,25.8769231 C5.47876923,25.8769231 2.67692308,23.0750769 2.67692308,19.6307692 L2.67692308,8.92307692 C2.67692308,5.47876923 5.47876923,2.67692308 8.92307692,2.67692308 L19.6307692,2.67692308 C23.0750769,2.67692308 25.8769231,5.47876923 25.8769231,8.92307692 L25.8769231,19.6307692 Z" id="Shape"></path>
                    <path d="M14.2769231,7.13846154 C10.3347077,7.13846154 7.13846154,10.3347077 7.13846154,14.2769231 C7.13846154,18.2191385 10.3347077,21.4153846 14.2769231,21.4153846 C18.2191385,21.4153846 21.4153846,18.2191385 21.4153846,14.2769231 C21.4153846,10.3347077 18.2191385,7.13846154 14.2769231,7.13846154 Z M14.2769231,18.7384615 C11.8177231,18.7384615 9.81538462,16.7361231 9.81538462,14.2769231 C9.81538462,11.8159385 11.8177231,9.81538462 14.2769231,9.81538462 C16.7361231,9.81538462 18.7384615,11.8159385 18.7384615,14.2769231 C18.7384615,16.7361231 16.7361231,18.7384615 14.2769231,18.7384615 Z" id="Shape"></path>
                    <circle id="Oval" cx="21.9507692" cy="6.60307692" r="2.23076923"></circle>
                </g>
            </g>
        </g>
    </g>
</svg>