<svg xmlns="http://www.w3.org/2000/svg" width="582" height="321" viewBox="0 0 582 321">
    <g fill="none">
        <ellipse cx="502.5" cy="309" fill="#E6E6E6" rx="79.5" ry="11"/>
        <ellipse cx="79.5" cy="310" fill="#E6E6E6" rx="79.5" ry="11"/>
        <path fill="#FFB8B8" d="M132.301 147l2.017 4.154s11.447 15.229 4.376 17.614c-7.072 2.386-10.824-14.443-10.824-14.443L126 151.97l6.301-4.97z"/>
        <path fill="#575A89" d="M119.214 66.81l1.865-.81s2.207.81 2.207 4.298-2.715 54.406-2.715 54.406L126 152.605 118.536 154 107 128.192l12.214-61.381z"/>
        <path fill="#575A89" d="M119.578 66.813l1.92-.813s2.273.813 2.273 4.31c0 3.498-2.795 54.562-2.795 54.562L136 149.005 126.217 156 107 128.37l12.578-61.557z"/>
        <path fill="#2F2E41" d="M117.65 147.784s9.005 3.48 8.312 9.745c-.693 6.264-9.697 130.854-9.697 130.854l2.77 13.921-26.32.696-.693-89.789L73.321 303H47l18.702-158 51.948 2.784z"/>
        <path fill="#2F2E41" d="M116.157 299l6.232 6.353s14.54 2.824 11.078 7.765C130.005 318.06 94 311.706 94 311.706l.692-11.294L116.157 299zM70.157 299l6.232 6.353s14.54 2.824 11.078 7.765C84.005 318.06 48 311.706 48 311.706l.692-11.294L70.157 299z"/>
        <circle cx="95.5" cy="24.5" r="16.5" fill="#FFB8B8"/>
        <path fill="#FFB8B8" d="M106 34L104.606 63 83 50.269 85.788 34z"/>
        <path fill="#CFCCE0" d="M82 44L102.232 58.671 105.721 48.192 112 64.959 108.511 95z"/>
        <path fill="#575A89" d="M82.233 42l22.325 30.503.809-25.481 6.866 5.377v5.546L122 66.957l-3.488 34.663-.698 40.901s4.186 3.467 2.79 5.547c-1.395 2.08-6.976 6.932-13.255 6.932-6.28 0-45.349-4.853-45.349-7.626 0-2.773 1.395-38.822 1.395-38.822V60.025L80.14 47.546 82.233 42z"/>
        <path fill="#FFB8B8" d="M61 156.846L70.389 170 74 154.769 69.667 152z"/>
        <path fill="#000" d="M79.392 194.755L118.007 194.748 118.007 196.14 79.392 196.146z" opacity=".2" transform="rotate(-69.737 98.7 195.447)"/>
        <path fill="#2F2E41" d="M85.67 8.684S87.744-1.824 99.49.278l-1.383.7s11.055-1.4 9.673 4.904c0 0 8.982 5.605 6.91 11.91-1.22 3.654-2.144 7.402-2.764 11.208l-2.073-2.102s-2.073-14.01-14.51-12.61c-9.327 1.051-13.127 5.517-14.099 8.736-.447 1.513-1.018 2.985-1.707 4.402l-.776.173s-4.145-15.412 6.91-18.915z"/>
        <path fill="#575A89" d="M71.6 59.294L65.23 59l-1.328.99c-1.523 1.517-2.927 3.147-4.2 4.877-1.399 2.09-19.596 52.943-19.596 52.943-.338 3.088.145 6.211 1.4 9.056C43.604 131.742 60.401 161 60.401 161L73 153.337l-16.798-34.134 11.899-16.719 3.5-43.19z"/>
        <path fill="#A0616A" d="M479 277L479 296 490.471 296 492 277zM506 278.5L510.333 289 517.555 292 519 270.999 513.222 268z"/>
        <path fill="#2F2E41" d="M515.682 287.143s-.628-4.781-6.973-2.77l1.053 14.133s-5.179 15.907 2.22 14.392c7.4-1.515 11.839-15.907 11.839-15.907L529 272.75 516.493 269l-.811 18.143zM468.49 128s-10.404 79.692-6.688 88.713c3.716 9.022 42.733 67.287 42.733 67.287l17.093-22.554-38.274-48.492 35.673-49.62L522 133.264 468.49 128z"/>
        <path fill="#2F2E41" d="M509.162 157L519 162.255 518.85 163.77 494.631 286 476 282.239 488.296 196.114zM477.669 291l-4.526 6.677S463.337 314 473.897 314c10.56 0 15.086 0 15.84-3.71.554-2.528 1.31-5.009 2.263-7.419l-.754-9.645L477.669 291z"/>
        <circle cx="506.5" cy="25.5" r="16.5" fill="#A0616A"/>
        <path fill="#A0616A" d="M493.19 31s2.23 12.683-4.46 14.92C482.041 48.16 496.906 78 496.906 78L514 49.65s-4.46-9.698-1.486-14.174L493.189 31z"/>
        <path fill="#575A89" d="M496.766 65.542L492.724 41l-7.873 4.961L464 58.011l8.191 35.396-2.978 21.84s-3.724 6.778-2.979 9.79c.745 3.013-.745 4.52 0 5.273.745.753 37.979 6.778 49.149 11.296 11.17 4.52 12.66 6.025 11.915 2.26-.745-3.766-8.936-21.84-8.936-21.84l6.702-30.125L534 65.542l-21.694-20.248-15.54 20.248z"/>
        <path fill="#A0616A" d="M529.546 98.976l5.306 14.134-13.644 24.549-4.452 3.398c-1.438 1.097-2.07 2.93-1.606 4.658L518.176 157l7.931-11.56s21.632-25.635 20.874-32.33c-.758-6.695-3.033-17.11-3.033-17.11l-14.402 2.976zM455.095 87l-3.726 18.663-14.16 35.085s-15.65 14.93-8.197 17.916c7.452 2.986 16.395-14.93 16.395-14.93l17.886-33.592L470 89.986 455.095 87z"/>
        <path fill="#575A89" d="M526.05 64.541l6.138-.541 2.25 2.04s12.962 28.468 11.437 31.465C544.35 100.502 529.1 102 529.1 102L523 84.02l3.05-19.479zM469.833 58.618L466.17 57l-1.505.87s-14.764 29.898-11.073 31.393C457.283 90.758 475 93 475 93l-5.167-34.382z"/>
        <path fill="#000" d="M485 217L480.339 249 476 242.407z" opacity=".2"/>
        <path fill="#2F2E41" d="M517.296 15.638s1.644 4.402-5.987 2.145c0 0-3.022 1.5-2.846-1.059 0 0-4.167 3.988-4.96 1.361-.793-2.627-2.964.646-2.964.646l-1.644-4.4-2.113 2.42-6.78-.482s-.764-17.192 22.362-13.834C535.49 5.793 522.2 32 522.2 32s.146-4.863-1.967-2.443c-2.112 2.42-2.936-13.919-2.936-13.919z"/>
        <path fill="#418CD2" d="M138 151v72h301v-72H138zm180.342 59.92H156.62v-10.148h161.723v10.147zm0-18.846H156.62v-10.148h161.723v10.148zm102.04-18.846H156.618v-10.147H420.38v10.147z"/>
        <path fill="#3F3D56" d="M304 119L263 119 263 78 290.822 78 290.822 78.977 263.976 78.977 263.976 118.024 303.024 118.024 303.024 98.5 304 98.5z"/>
        <path fill="#6C63FF" d="M283.789 108c-.935-2.765-12.653-12.162-5.472-13.742l5.888 7.867L311.277 75 314 77.728 283.789 108z"/>
    </g>
</svg>
