<?xml version="1.0" encoding="UTF-8"?>
<svg width="881px" height="802px" viewBox="0 0 881 802" version="1.1" xmlns="http://www.w3.org/2000/svg" xmlns:xlink="http://www.w3.org/1999/xlink">
    <!-- Generator: Sketch 63.1 (92452) - https://sketch.com -->
    <title>home-reports</title>
    <desc>Created with Sketch.</desc>
    <defs>
        <linearGradient x1="49.9963627%" y1="100.004109%" x2="49.9963627%" y2="7.92274891e-06%" id="linearGradient-1">
            <stop stop-color="#808080" stop-opacity="0.25" offset="0%"></stop>
            <stop stop-color="#808080" stop-opacity="0.12" offset="54%"></stop>
            <stop stop-color="#808080" stop-opacity="0.1" offset="100%"></stop>
        </linearGradient>
        <linearGradient x1="49.9850541%" y1="99.9893978%" x2="49.9850541%" y2="0.00591134653%" id="linearGradient-2">
            <stop stop-color="#808080" stop-opacity="0.25" offset="0%"></stop>
            <stop stop-color="#808080" stop-opacity="0.12" offset="54%"></stop>
            <stop stop-color="#808080" stop-opacity="0.1" offset="100%"></stop>
        </linearGradient>
    </defs>
    <g id="Page-1" stroke="none" stroke-width="1" fill="none" fill-rule="evenodd">
        <g id="Desktop-HD-Copy-3" transform="translate(-297.000000, -1378.000000)" fill-rule="nonzero">
            <g id="home-reports" transform="translate(297.000000, 1378.000000)">
                <path d="M543.73,771.35 C572.44,783.84 607.47,776.24 640.05,777.12 C644.5,777.24 649.23,777.61 652.8,779.77 C656.37,781.93 658.14,785.42 660.59,788.42 C669.72,799.56 688.43,803.14 704.78,801.25 C721.13,799.36 736.12,793.1 751.55,788.34 C778.22,780.1 808.7,776.34 835.01,785.34 C837.42,786.16 840.01,787.11 842.55,786.78 C848.32,786.05 850.04,780.07 854.07,776.66 C861.35,770.49 877.17,772.17 880.37,764.04 C882.24,759.28 877.93,754.4 873.23,751.15 C855.23,738.71 829.53,736.66 806,738.58 C782.47,740.5 759.34,745.79 735.69,745.81 C706.22,745.81 677.75,737.69 648.57,734.36 C628.36,732.06 606.3,732.36 587.35,739.13 C566.81,746.45 562.29,762.94 543.73,771.35 Z" id="Path" fill="#418CD2" opacity="0.1"></path>
                <path d="M0.41,733.04 C49.41,747.15 109.21,738.56 164.81,739.56 C172.42,739.7 180.48,740.11 186.59,742.56 C192.7,745.01 195.7,748.96 199.89,752.34 C215.47,764.93 247.4,768.98 275.3,766.84 C303.2,764.7 328.8,757.63 355.14,752.25 C400.66,742.94 452.7,738.7 497.6,748.85 C501.72,749.78 506.06,750.85 510.48,750.48 C520.32,749.65 523.25,742.9 530.14,739.04 C542.57,732.04 569.56,733.97 575.02,724.79 C578.22,719.41 570.86,713.89 562.84,710.22 C532.16,696.17 488.26,693.85 448.09,696.02 C407.92,698.19 368.44,704.16 328.09,704.19 C277.79,704.19 229.19,695.02 179.38,691.25 C144.88,688.65 107.23,688.97 74.88,696.65 C39.81,704.94 32.08,723.57 0.41,733.04 Z" id="Path" fill="#418CD2" opacity="0.1"></path>
                <path d="M522.48,0.669942269 L57.86,0.669942269 C46.5733037,0.651420767 35.7416471,5.11791675 27.7485558,13.0866274 C19.7554645,21.0553381 15.2559002,31.8732996 15.24,43.16 L15.24,686.89 C15.2896574,710.381913 34.3680662,729.3887 57.86,729.350059 L522.48,729.350059 C533.766696,729.368579 544.598353,724.902083 552.591444,716.933373 C560.584535,708.964662 565.0841,698.1467 565.1,686.86 L565.1,43.16 C565.0841,31.8732996 560.584535,21.0553381 552.591444,13.0866274 C544.598353,5.11791675 533.766696,0.651420767 522.48,0.669942269 Z" id="Path" fill="url(#linearGradient-1)"></path>
                <rect id="Rectangle" fill="#535461" x="21.79" y="9.4" width="536.72" height="713.44" rx="20"></rect>
                <rect id="Rectangle" fill="#F6F7F9" x="49.06" y="76.88" width="482.18" height="578.47"></rect>
                <circle id="Oval" fill="#F6F7F9" cx="287.97" cy="42.12" r="6.55"></circle>
                <circle id="Oval" fill="#F6F7F9" cx="287.97" cy="687.93" r="19.64"></circle>
                <g id="Group" opacity="0.2" transform="translate(49.000000, 76.000000)" fill="#418CD2">
                    <rect id="Rectangle" x="0.06" y="0.88" width="482.18" height="28.83"></rect>
                </g>
                <circle id="Oval" fill="#F6F7F9" cx="64.14" cy="91.3" r="6.15"></circle>
                <circle id="Oval" fill="#F6F7F9" cx="79.81" cy="91.3" r="6.15"></circle>
                <circle id="Oval" fill="#F6F7F9" cx="95.47" cy="91.3" r="6.15"></circle>
                <rect id="Rectangle" fill="#DCE0ED" x="63.46" y="246.93" width="449.01" height="1.5"></rect>
                <rect id="Rectangle" fill="#DCE0ED" x="63.46" y="281.76" width="449.01" height="1.5"></rect>
                <rect id="Rectangle" fill="#DCE0ED" x="63.46" y="316.6" width="449.01" height="1.5"></rect>
                <rect id="Rectangle" fill="#DCE0ED" x="63.46" y="351.43" width="449.01" height="1.5"></rect>
                <rect id="Rectangle" fill="#DCE0ED" x="63.46" y="386.26" width="449.01" height="1.5"></rect>
                <g id="Group" opacity="0.2" transform="translate(62.000000, 268.000000)" fill="#418CD2">
                    <polygon id="Path" points="450.47 119.76 0.91 119.76 0.91 51.26 42.14 71.58 84.81 77.37 122.25 66.08 167.42 31.05 190.14 17.93 206.75 14.73 222.64 15.58 248.77 28.49 284.3 51.12 312.18 54.7 334.28 47.08 381.14 8.71 405.06 0.18 430.09 4.05 450.47 15.82"></polygon>
                </g>
                <path d="M141.27,345.35 C100.78,345.35 63.37,320.59 62.9,320.27 L64.02,318.61 C64.6,319 122.18,357.09 171.11,338.01 C188.95,331.01 201.65,320.23 213.94,309.76 C226.77,298.83 238.88,288.51 255.4,284.03 C274.34,278.9 295.04,283.54 310.77,296.47 C324.22,307.52 351,325.26 379.29,319.96 C393.71,317.25 405.86,306.72 418.73,295.57 C443.4,274.19 468.92,252.08 513.06,283.8 L511.89,285.42 C469.03,254.62 444.13,276.21 420.04,297.08 C406.96,308.41 394.61,319.08 379.66,321.92 C350.56,327.38 323.22,309.28 309.5,298.01 C294.27,285.5 274.25,281.01 255.92,285.96 C239.84,290.32 227.92,300.5 215.23,311.28 C202.82,321.86 189.99,332.79 171.84,339.87 C162.080966,343.587294 151.712596,345.445936 141.27,345.35 Z" id="Path" fill="#418CD2"></path>
                <circle id="Oval" fill="#418CD2" cx="279.52" cy="282.63" r="11.13"></circle>
                <g id="Group" opacity="0.2" transform="translate(282.000000, 135.000000)" fill="#418CD2">
                    <path d="M142.7,0.35 L2.3,0.35 C1.04079077,0.35 0.02,1.37079077 0.02,2.63 L0.02,97.58 C0.02,98.5141433 0.592111914,99.3530487 1.46065382,99.6969384 C2.32919572,100.040828 3.31964263,99.8201232 3.96,99.14 L28.29,73.19 C28.7196339,72.73031 29.3207942,72.4695658 29.95,72.47 L142.7,72.47 C143.959209,72.47 144.98,71.4492092 144.98,70.19 L144.98,2.61 C144.969022,1.35860823 143.95144,0.35 142.7,0.35 Z" id="Path"></path>
                </g>
                <rect id="Rectangle" fill="#F6F7F9" x="314.52" y="152.93" width="79.95" height="10"></rect>
                <rect id="Rectangle" fill="#F6F7F9" x="314.52" y="175.09" width="21.95" height="10"></rect>
                <g id="Group" opacity="0.2" transform="translate(101.000000, 459.000000)" fill="#418CD2">
                    <rect id="Rectangle" x="0.38" y="0.32" width="21.95" height="10"></rect>
                </g>
                <g id="Group" opacity="0.2" transform="translate(101.000000, 478.000000)" fill="#418CD2">
                    <rect id="Rectangle" x="0.38" y="0.65" width="21.95" height="10"></rect>
                </g>
                <g id="Group" opacity="0.2" transform="translate(101.000000, 497.000000)" fill="#418CD2">
                    <rect id="Rectangle" x="0.38" y="0.98" width="21.95" height="10"></rect>
                </g>
                <g id="Group" opacity="0.2" transform="translate(101.000000, 517.000000)" fill="#418CD2">
                    <rect id="Rectangle" x="0.38" y="0.32" width="21.95" height="10"></rect>
                </g>
                <g id="Group" opacity="0.2" transform="translate(101.000000, 536.000000)" fill="#418CD2">
                    <rect id="Rectangle" x="0.38" y="0.65" width="21.95" height="10"></rect>
                </g>
                <g id="Group" opacity="0.2" transform="translate(101.000000, 555.000000)" fill="#418CD2">
                    <rect id="Rectangle" x="0.38" y="0.98" width="21.95" height="10"></rect>
                </g>
                <g id="Group" opacity="0.2" transform="translate(101.000000, 575.000000)" fill="#418CD2">
                    <rect id="Rectangle" x="0.38" y="0.32" width="21.95" height="10"></rect>
                </g>
                <g id="Group" opacity="0.2" transform="translate(101.000000, 594.000000)" fill="#418CD2">
                    <rect id="Rectangle" x="0.38" y="0.65" width="21.95" height="10"></rect>
                </g>
                <g id="Group" opacity="0.2" transform="translate(142.000000, 604.000000)" fill="#418CD2">
                    <rect id="Rectangle" x="0.71" y="0.65" width="21.95" height="10"></rect>
                </g>
                <g id="Group" opacity="0.2" transform="translate(181.000000, 604.000000)" fill="#418CD2">
                    <rect id="Rectangle" x="0.38" y="0.65" width="21.95" height="10"></rect>
                </g>
                <g id="Group" opacity="0.2" transform="translate(220.000000, 604.000000)" fill="#418CD2">
                    <rect id="Rectangle" x="0.05" y="0.65" width="21.95" height="10"></rect>
                </g>
                <g id="Group" opacity="0.2" transform="translate(258.000000, 604.000000)" fill="#418CD2">
                    <rect id="Rectangle" x="0.71" y="0.65" width="21.95" height="10"></rect>
                </g>
                <g id="Group" opacity="0.2" transform="translate(297.000000, 604.000000)" fill="#418CD2">
                    <rect id="Rectangle" x="0.38" y="0.65" width="21.95" height="10"></rect>
                </g>
                <g id="Group" opacity="0.2" transform="translate(336.000000, 604.000000)" fill="#418CD2">
                    <rect id="Rectangle" x="0.05" y="0.65" width="21.95" height="10"></rect>
                </g>
                <g id="Group" opacity="0.2" transform="translate(374.000000, 604.000000)" fill="#418CD2">
                    <rect id="Rectangle" x="0.71" y="0.65" width="21.95" height="10"></rect>
                </g>
                <g id="Group" opacity="0.2" transform="translate(413.000000, 604.000000)" fill="#418CD2">
                    <rect id="Rectangle" x="0.38" y="0.65" width="21.95" height="10"></rect>
                </g>
                <g id="Group" opacity="0.2" transform="translate(452.000000, 604.000000)" fill="#418CD2">
                    <rect id="Rectangle" x="0.05" y="0.65" width="21.95" height="10"></rect>
                </g>
                <rect id="Rectangle" fill="#F6F7F9" x="361.14" y="175.09" width="33.33" height="10"></rect>
                <rect id="Rectangle" fill="#418CD2" x="142.71" y="531.98" width="21.95" height="62.67"></rect>
                <rect id="Rectangle" fill="#418CD2" x="181.38" y="502.98" width="21.95" height="91.67"></rect>
                <rect id="Rectangle" fill="#418CD2" x="220.05" y="478.65" width="21.95" height="116"></rect>
                <rect id="Rectangle" fill="#418CD2" x="258.71" y="491.26" width="21.95" height="103.38"></rect>
                <rect id="Rectangle" fill="#418CD2" x="297.38" y="469.32" width="21.95" height="125.33"></rect>
                <g id="Group" opacity="0.2" transform="translate(336.000000, 517.000000)" fill="#418CD2">
                    <rect id="Rectangle" x="0.05" y="0.32" width="21.95" height="77.33"></rect>
                </g>
                <g id="Group" opacity="0.2" transform="translate(374.000000, 517.000000)" fill="#418CD2">
                    <rect id="Rectangle" x="0.71" y="0.32" width="21.95" height="77.33"></rect>
                </g>
                <g id="Group" opacity="0.2" transform="translate(413.000000, 517.000000)" fill="#418CD2">
                    <rect id="Rectangle" x="0.38" y="0.32" width="21.95" height="77.33"></rect>
                </g>
                <g id="Group" opacity="0.2" transform="translate(452.000000, 517.000000)" fill="#418CD2">
                    <rect id="Rectangle" x="0.05" y="0.32" width="21.95" height="77.33"></rect>
                </g>
                <path d="M816.48,237.5 C792.71,223.83 783.73,220.44 783.68,220.42 L783.2,220.07 C780.607481,218.078909 778.546524,215.478669 777.2,212.5 C777.2,211.95 777.2,211.41 777.2,210.87 L777.2,211.03 C777.58,203.79 782.73,197.2 787.62,191.45 L800.11,176.75 C801.534444,175.298839 802.632296,173.560005 803.33,171.65 C803.587681,170.627436 803.702107,169.574042 803.67,168.52 C803.67,168.09 803.67,167.66 803.67,167.24 C803.61,163.59 803.5,159.93 803.37,156.24 C803.25,153.05 802.43,149.03 799.24,148.37 C797.58,148.03 795.39,148.63 794.51,147.2 C794.214881,146.615786 794.140321,145.944747 794.3,145.31 C794.295302,145.35989 794.295302,145.41011 794.3,145.46 L794.3,145.28 C794.920995,142.817401 795.319266,140.303945 795.49,137.77 C795.552822,136.48209 795.376514,135.193685 794.97,133.97 C793.12,128.67 786.76,126.5 781.13,125.5 C775.5,124.5 769.2,123.64 765.67,119.24 C764.58,117.88 763.84,116.24 762.6,115.01 C760.971171,113.567089 758.985794,112.586485 756.85,112.17 C749.867449,110.444307 742.509639,111.084423 735.93,113.99 C733.21,115.2 730.48,116.84 727.5,116.66 C724.52,116.48 721.75,114.33 718.69,113.81 C713.75,112.97 709.02,116.6 706.59,120.89 C705.146665,123.4417 704.375849,126.318495 704.35,129.25 C704.35,129.41 704.35,129.58 704.35,129.74 L704.35,129.74 C704.276843,132.891426 705.42734,135.948664 707.56,138.27 C709.69,140.48 712.87,142 713.75,144.91 C714.11,146.09 714.02,147.37 714.34,148.57 C714.34,148.72 714.43,148.87 714.48,149.01 L714.32,149.22 C709.220845,155.754946 706.460358,163.811061 706.48,172.1 C706.587027,188.599511 717.356406,203.133925 733.11,208.04 C733.11,208.41 733.11,208.79 733.11,209.16 C733.11,213.7 731.82,218.33 727.94,221.74 L694.28,235.28 C694.28,235.28 673.99,232.87 666.67,262.53 C665.492236,267.454227 665.067415,272.528488 665.41,277.58 C665.68,282.05 665.06,289.93 659.86,300.12 C651.53,316.42 653.43,353.84 670.45,357.55 C686.52,361.05 692.81,359.55 693.45,359.42 L693.45,360.07 C693.19,367.07 690.64,427.66 681.37,434.99 C678.81,436.99 679.29,438.39 681.37,439.31 C681.37,439.31 681.37,439.7 681.31,440.4 C681.03,444.83 679.6,461.7 673.4,471.3 C666.21,482.41 666.96,546.52 666.96,546.52 L662.13,584.35 C662.13,584.35 665.13,607.69 662.13,611.77 C659.43,615.4 655.83,701.77 655.13,720.48 L654.81,720.48 C651.802211,720.660448 649.079311,722.319657 647.54,724.91 C643.54,731.37 629.64,743.3 629.64,743.3 C626.64,747.59 615.45,751.69 609.54,753.63 C608.747863,753.884646 607.983879,754.219726 607.26,754.63 C605.052143,755.834692 603.278621,757.702662 602.19,759.97 C601.412594,761.321624 601.214251,762.930005 601.64,764.43 C603.16,768.13 634.56,770.72 642.5,767.02 C648.75,764.1 673.5,760.27 683.77,758.77 C687.605524,758.282377 690.627155,755.264857 691.12,751.43 C691.303131,750.118248 690.941831,748.788665 690.12,747.75 L690.12,747.75 C688.12,745.31 687.12,738.66 686.69,734.32 C687.525073,733.983228 688.304,733.521268 689,732.95 C688.156764,719.487854 690.086612,705.995936 694.67,693.31 C702.24,673.31 704.51,636.24 702.67,612.16 C702.67,612.16 725.75,512.86 743.91,503.59 L743.91,503.59 C744.19,503.94 753,515.26 754.12,550.27 C755.26,585.84 768.12,609.18 768.12,609.18 C768.12,609.18 762.44,669.58 768.12,692.18 L760.69,727.84 C760.15,727.37 759.8,727.01 759.8,727.01 C759.8,727.01 760.02,728.01 760.33,729.59 L760.17,730.34 L760.49,730.42 C761.33,734.88 762.58,742.65 762.07,747.21 C761.77,749.8 761.07,753.36 760.55,756.85 C759.77,762.34 759.55,767.66 762.44,768.85 C767.17,770.75 794.98,773.35 799.71,767.24 C801.874326,764.697461 802.409169,761.147345 801.09,758.08 C800.745505,757.240481 800.28063,756.455585 799.71,755.75 C799.71,755.75 792.33,743.68 794.41,735.17 C794.808693,733.488528 794.489888,731.716983 793.53,730.28 C793.85,726.1 795.53,706.77 799.9,690.35 C804.63,672.52 814.62,633.43 807.27,607.72 L807.27,607.72 C806.99,606.72 806.67,605.72 806.33,604.72 C802.088769,590.687574 800.674785,575.952913 802.17,561.37 C799.44144,548.917719 799.44144,536.022281 802.17,523.57 C806.71,502.82 809.88,482.44 809.88,482.44 C809.88,482.44 812.39,455.03 810.2,438.22 L810.05,437.14 L811.25,436.87 C811.25,436.87 804.82,408.34 802.55,390.19 C802.01,385.9 801.31,380.47 800.55,374.67 C802.646159,374.335035 804.710196,373.823207 806.72,373.14 C827.08,366.07 833.48,302.35 833.48,302.35 L833.48,282.15 C833.48,282.15 840.32,251.21 816.48,237.5 Z M664.28,729.57 C663.65,729.25 663.28,729.04 663.28,729.04 L663.28,729.04 L664.28,729.57 Z" id="Shape" fill="url(#linearGradient-2)"></path>
                <path d="M804.15,605.26 C813.01,630.74 802.67,672.09 797.87,690.55 C793.07,709.01 791.59,731.18 791.59,731.18 C772.76,734.13 759.1,730.43 759.1,730.43 L766.85,692.43 C761.31,669.91 766.85,609.72 766.85,609.72 C766.85,609.72 754.3,586.46 753.19,551.01 C752.1,516.11 743.5,504.84 743.19,504.49 L743.19,504.49 C725.47,513.72 702.94,612.69 702.94,612.69 C704.79,636.69 702.57,673.61 695.19,693.55 C690.71382,706.215557 688.829821,719.6518 689.65,733.06 C687.07,735.24 683.48,735.61 679.6,734.99 C669.09,733.24 656.48,724.16 656.48,724.16 C656.48,724.16 660.48,616.35 663.48,612.28 C666.48,608.21 663.48,584.95 663.48,584.95 L668.27,547.29 C668.27,547.29 667.54,483.4 674.55,472.29 C680.61,462.72 682,445.91 682.27,441.5 C682.27,440.8 682.33,440.41 682.33,440.41 L693.01,427.61 C693.01,427.61 796.41,419.86 804.16,427.61 C806.07,429.52 807.24,433.84 807.94,439.29 C810.07,456.04 807.63,483.36 807.63,483.36 C807.63,483.36 804.53,503.67 800.1,524.36 C797.431743,536.771546 797.431743,549.608454 800.1,562.02 C798.629504,576.559578 800.005118,591.246377 804.15,605.26 L804.15,605.26 Z" id="Path" fill="#65617D"></path>
                <path d="M797.69,767.18 C793.07,773.27 765.93,770.68 761.31,768.79 C758.49,767.62 758.71,762.32 759.47,756.85 C759.95,753.37 760.66,749.85 760.95,747.24 C761.69,740.59 758.73,727.11 758.73,727.11 C758.73,727.11 764.83,733.57 766.3,727.11 C766.95,724.29 769.22,722.84 771.57,722.11 C774.735842,721.159182 778.137358,721.371998 781.16,722.71 C785.95,724.79 793.96,729.23 792.52,735.23 C790.52,743.71 797.69,755.74 797.69,755.74 C798.245607,756.445075 798.696895,757.226411 799.03,758.06 C800.31971,761.11193 799.803088,764.628042 797.69,767.18 Z" id="Path" fill="#A27772"></path>
                <path d="M797.69,767.18 C793.07,773.27 765.93,770.68 761.31,768.79 C758.49,767.62 758.71,762.32 759.47,756.85 C762.38,758.21 767.34,759.35 775.6,758.58 C777.531088,758.400029 779.471474,758.339914 781.41,758.4 C787.284652,758.669959 793.170703,758.55304 799.03,758.05 C800.323803,761.104718 799.807005,764.625883 797.69,767.18 Z" id="Path" fill="#000000" opacity="0.1"></path>
                <path d="M702.97,612.65 C704.82,636.65 702.6,673.57 695.22,693.51 C690.74382,706.175557 688.859821,719.6118 689.68,733.02 C687.1,735.2 683.51,735.57 679.63,734.95 C681.86,719.35 691.35,652.27 697.48,599.26 C704.36,538.89 736.76,497.35 736.76,497.35 L743.22,504.46 C725.48,513.68 702.97,612.65 702.97,612.65 Z" id="Path" fill="#000000" opacity="0.1"></path>
                <path d="M786.61,224.56 L782.1,246.71 L760.02,283.82 L732.79,272.19 C732.79,272.19 695.79,233.42 719.04,227.88 C721.825348,227.285101 724.455167,226.113264 726.76,224.44 C731.33,221 732.76,215.99 732.76,211.09 C732.76,203 728.98,195.2 728.98,195.2 L776.61,180.2 C774.642585,186.458957 773.493047,192.946114 773.19,199.5 C772.83,212.5 777.65,218.86 781.6,221.91 C783.078548,223.115615 784.781341,224.016294 786.61,224.56 L786.61,224.56 Z" id="Path" fill="#FBBEBE"></path>
                <path d="M776.64,180.25 C774.672585,186.508957 773.523047,192.996114 773.22,199.55 C772.354185,200.582642 771.429304,201.564285 770.45,202.49 C760.433805,212.064903 745.969614,215.367931 732.79,211.09 C732.79,203 729.01,195.2 729.01,195.2 L776.64,180.25 Z" id="Path" fill="#000000" opacity="0.1"></path>
                <path d="M782.100387,174.16 C782.095946,189.394776 772.913483,203.126432 758.835676,208.949981 C744.757868,214.773531 728.558138,211.541695 717.792681,200.76193 C707.027224,189.982164 703.816907,173.778157 709.65915,159.708096 C715.501392,145.638035 729.245232,136.473819 744.48,136.489806 C754.475923,136.45791 764.070969,140.418004 771.134494,147.490918 C778.19802,154.563832 782.145367,164.164129 782.100387,174.16 L782.100387,174.16 Z" id="Path" fill="#FBBEBE"></path>
                <path d="M786.61,224.56 L782.1,246.71 L760.02,283.82 L732.79,272.19 C732.79,272.19 695.79,233.42 719.04,227.88 C721.825348,227.285101 724.455167,226.113264 726.76,224.44 C722.56,235.99 739.9,260.01 739.9,260.01 C741.9,263.01 746.55,261.11 746.55,261.11 C757.71,259.43 778.28,227.3 781.63,221.96 C783.103779,223.144334 784.795794,224.027715 786.61,224.56 L786.61,224.56 Z" id="Path" fill="#000000" opacity="0.1"></path>
                <path d="M807.93,439.35 C801.38,440.84 765.1,448.88 751.34,446.87 C736.21,444.65 706.77,443.18 706.77,443.18 C706.77,443.18 688.03,444.18 682.26,441.56 C682.26,440.86 682.32,440.47 682.32,440.47 L693,427.67 C693,427.67 796.4,419.92 804.15,427.67 C806.06,429.56 807.23,433.88 807.93,439.35 Z" id="Path" fill="#000000" opacity="0.1"></path>
                <path d="M739.9,261.11 C739.9,261.11 720.42,234.11 727.76,223.62 L694.85,237.11 C694.85,237.11 675.04,234.71 667.85,264.27 C666.70233,269.181953 666.28784,274.236701 666.62,279.27 C666.88,283.73 666.28,291.58 661.2,301.73 C653.07,317.98 654.92,355.27 671.54,358.97 C688.16,362.67 694.06,360.81 694.06,360.81 C694.06,360.81 691.85,428.39 682.25,436.14 C672.65,443.89 706.72,442.05 706.72,442.05 C706.72,442.05 736.16,443.53 751.3,445.74 C766.44,447.95 808.9,437.99 808.9,437.99 C808.9,437.99 802.62,409.55 800.41,391.46 C798.2,373.37 793.02,334.84 793.02,334.84 L830.69,283.84 C830.69,283.84 837.33,253.01 814.07,239.35 C790.81,225.69 782.07,222.35 782.07,222.35 C782.07,222.35 758.73,260.35 746.55,262.22 C746.55,262.22 741.92,264.08 739.9,261.11 Z" id="Path" fill="#444053"></path>
                <path d="M696.7,271.82 C696.7,271.82 696.33,284.01 698.54,288.82 C700.75,293.63 708.88,320.21 708.88,320.21 L690.42,320.21 C690.42,320.21 700.42,309.5 699.65,304.33 C698.88,299.16 696.7,271.82 696.7,271.82 Z" id="Path" fill="#000000" opacity="0.1"></path>
                <path d="M751.35,363.77 C751.35,363.77 710.57,353.77 706.77,345.3 C702.97,336.83 692.48,317.81 692.48,317.81 L696.78,312.01 L716.62,327.58 C716.62,327.58 740.25,346.41 751.33,348.26 C762.41,350.11 751.35,363.77 751.35,363.77 Z" id="Path" fill="#FBBEBE"></path>
                <path d="M751.35,363.77 C751.35,363.77 710.57,353.77 706.77,345.3 C702.97,336.83 692.48,317.81 692.48,317.81 L696.78,312.01 L716.62,327.58 C716.62,327.58 740.25,346.41 751.33,348.26 C762.41,350.11 751.35,363.77 751.35,363.77 Z" id="Path" fill="#000000" opacity="0.05"></path>
                <path d="M786.61,315.77 L786.61,337.89 L783.05,337.89 C765.48147,337.893372 748.202707,342.367061 732.84,350.89 L726.18,354.59 L724.39,355.59 L712.94,329.81 L723.65,320.21 L724.2,320.21 C726.82,320.46 738.15,321.41 742.95,319.79 C747.51,318.24 753.17,313.33 766.6,316.79 C773.22,318.48 778.87,325.9 785.29,323.58 L786.61,315.77 Z" id="Path" fill="#FBBEBE"></path>
                <path d="M822.24,275.52 L829.63,283.82 L829.63,303.95 C829.63,303.95 823.35,367.46 803.41,374.48 C783.47,381.5 747.88,370.41 747.88,370.41 C747.88,370.41 738.68,346.04 742.98,344.57 C747.28,343.1 780.98,334.19 780.98,334.19 C780.98,334.19 780.51,296.93 787.89,285.85 C787.89,285.85 783.09,251.15 799.71,250.41 C816.33,249.67 822.24,275.52 822.24,275.52 Z" id="Path" fill="#000000" opacity="0.1"></path>
                <path d="M823.35,275.52 L830.74,283.82 L830.74,303.95 C830.74,303.95 824.48,367.46 804.48,374.48 C784.48,381.5 748.94,370.41 748.94,370.41 C748.94,370.41 739.75,346.04 744.05,344.57 C748.35,343.1 782.05,334.19 782.05,334.19 C782.05,334.19 781.57,296.93 788.96,285.85 C788.96,285.85 784.16,251.15 800.78,250.41 C817.4,249.67 823.35,275.52 823.35,275.52 Z" id="Path" fill="#444053"></path>
                <path d="M771.77,190.16 C771.92,187.73 771.97,185.16 770.93,182.97 C769.89,180.78 767.45,179.03 765.07,179.59 C761.91,180.33 760.55,184.44 757.45,185.43 C754.84,186.26 751.99,184.43 750.75,181.97 C749.51,179.51 749.47,176.67 749.46,173.97 C749.46,170.89 749.46,167.8 749.46,164.72 C749.46,161.36 749.35,157.72 747.28,155.1 C744.71,151.81 738.66,150.38 734.62,150.51 C731.928905,150.541273 729.348023,151.583621 727.39,153.43 C725.23,155.26 722.73,156.62 719.78,156.13 C717.278943,155.750955 715.217641,153.969679 714.48,151.55 L714.48,151.43 C723.039872,140.120721 737.227835,134.579904 751.186539,137.095017 C765.145243,139.61013 776.507001,149.754557 780.581232,163.340279 C784.655463,176.926001 780.751093,191.648597 770.48,201.43 C771.1215,197.700568 771.552183,193.937928 771.77,190.16 L771.77,190.16 Z" id="Path" fill="#000000" opacity="0.1"></path>
                <path d="M719.76,154.99 C717.257427,154.607015 715.196533,152.822203 714.46,150.4 C714.15,149.21 714.23,147.94 713.88,146.75 C713.02,143.85 709.88,142.34 707.88,140.14 C703.72,135.72 703.99,128.46 706.94,123.14 C709.32,118.86 713.94,115.25 718.75,116.08 C721.75,116.6 724.32,118.73 727.35,118.92 C730.38,119.11 732.92,117.47 735.58,116.26 C741.981516,113.36071 749.178171,112.722496 755.99,114.45 C758.083807,114.870586 760.025362,115.848273 761.61,117.28 C762.681925,118.630665 763.683263,120.035876 764.61,121.49 C768.06,125.88 774.22,126.74 779.71,127.73 C785.2,128.72 791.4,130.89 793.21,136.17 C794.4,139.67 793.21,143.47 792.56,147.11 C792.328455,147.851705 792.378296,148.652719 792.7,149.36 C793.56,150.78 795.7,150.19 797.32,150.53 C800.44,151.18 801.24,155.19 801.32,158.37 C801.453333,162.01 801.553333,165.65 801.62,169.29 C801.995792,172.713882 800.705034,176.110025 798.15,178.42 L785.96,193.07 C780.55,199.57 774.81,207.14 775.9,215.52 C773.34,216.67 770.3,214.45 769.46,211.77 C768.62,209.09 769.3,206.21 769.86,203.46 C770.846688,198.70556 771.491671,193.886571 771.79,189.04 C771.94,186.6 771.99,184.04 770.95,181.85 C769.91,179.66 767.47,177.85 765.09,178.46 C761.93,179.2 760.57,183.31 757.47,184.3 C754.87,185.13 752.01,183.3 750.77,180.84 C749.53,178.38 749.49,175.54 749.48,172.84 L749.48,163.58 C749.48,160.23 749.37,156.58 747.3,153.96 C744.73,150.67 738.68,149.24 734.64,149.37 C731.949297,149.403225 729.369097,150.445297 727.41,152.29 C725.21,154.12 722.71,155.47 719.76,154.99 Z" id="Path" fill="#7C5C5C"></path>
                <path d="M728.27,270.9 L739.83,318.4 C739.83,318.4 748.95,318.35 728.27,270.9 Z" id="Path" fill="#000000" opacity="0.1"></path>
                <path d="M767.78,262.96 C767.78,262.96 752.64,287.76 758.55,313.39 L761.37,313.6 C761.37,313.6 756.33,301.73 767.78,262.96 Z" id="Path" fill="#000000" opacity="0.1"></path>
                <path d="M777.38,403.28 C777.38,403.28 795.97,397.13 797.32,411.4 C797.32,411.4 793.81,401.62 777.38,403.28 Z" id="Path" fill="#000000" opacity="0.1"></path>
                <path d="M723.65,321.35 C723.65,321.35 719.96,347.2 726.65,357.54 C726.65,357.54 713.13,363.08 694.15,361.97 L691.9,321.35 L723.65,321.35 Z" id="Path" fill="#000000" opacity="0.1"></path>
                <path d="M726.18,354.58 L724.39,355.58 L712.94,329.8 L723.65,320.2 L724.2,320.2 L724.2,320.2 C724.03,321.44 721.05,343.64 726.18,354.58 Z" id="Path" fill="#000000" opacity="0.1"></path>
                <path d="M723.65,320.2 C723.65,320.2 719.96,346.04 726.65,356.38 C726.65,356.38 713.13,361.92 694.15,360.81 L681.23,320.2 L723.65,320.2 Z" id="Path" fill="#444053"></path>
                <path d="M691.71,751.46 C691.269732,755.248102 688.318881,758.256571 684.54,758.77 C674.54,760.27 650.36,764.09 644.26,766.99 C636.51,770.68 605.86,768.1 604.38,764.41 C603.962863,762.918123 604.153419,761.321771 604.91,759.97 C605.976921,757.713255 607.725954,755.848785 609.91,754.64 C610.615015,754.233888 611.358675,753.898905 612.13,753.64 C617.9,751.71 628.8,747.64 631.75,743.34 C631.75,743.34 645.34,731.45 649.21,725.02 C650.692595,722.455912 653.354802,720.798595 656.31,720.6 C659.55,720.45 663.15,722.08 664.62,729.17 C664.62,729.17 682.34,739.28 687.13,730.41 C687.13,730.41 687.87,744.03 690.81,747.75 L690.81,747.75 C691.59503,748.816099 691.919272,750.152695 691.71,751.46 L691.71,751.46 Z" id="Path" fill="#A27772"></path>
                <path d="M691.71,751.46 C691.269732,755.248102 688.318881,758.256571 684.54,758.77 C674.54,760.27 650.36,764.09 644.26,766.99 C636.51,770.68 605.86,768.1 604.38,764.41 C603.962863,762.918123 604.153419,761.321771 604.91,759.97 C605.976921,757.713255 607.725954,755.848785 609.91,754.64 C614.91,757.96 626,761.2 650.4,757.39 C673.67,753.76 685.19,750.2 690.81,747.77 L690.81,747.77 C691.589756,748.830914 691.913731,750.159211 691.71,751.46 L691.71,751.46 Z" id="Path" fill="#000000" opacity="0.1"></path>
                <g id="Group" opacity="0.1" transform="translate(704.000000, 131.000000)" fill="#000000">
                    <path d="M88.48,16.65 L88.48,16.47 C89.01,13.7 89.8,10.84 89.62,8.08 C89.3829981,10.3452243 89.0022302,12.5930908 88.48,14.81 C88.3402468,15.4153723 88.3402468,16.0446277 88.48,16.65 L88.48,16.65 Z" id="Path"></path>
                    <path d="M66.92,51.21 C67.5021606,52.5417632 67.8115839,53.9766711 67.83,55.43 C68.0012125,53.4254316 67.6891513,51.4090359 66.92,49.55 C65.92,47.34 63.45,45.6 61.07,46.16 C57.91,46.9 56.55,51.01 53.45,52 C50.84,52.83 47.99,51 46.74,48.54 C45.49,46.08 45.47,43.24 45.46,40.54 C45.46,37.45 45.46,34.37 45.46,31.28 C45.46,27.93 45.35,24.28 43.28,21.66 C40.71,18.37 34.65,16.94 30.62,17.07 C27.9289053,17.1012734 25.3480232,18.1436213 23.39,19.99 C21.22,21.83 18.73,23.18 15.78,22.7 C13.2774269,22.3170151 11.216533,20.5322032 10.48,18.11 C10.17,16.92 10.25,15.65 9.9,14.46 C9.03,11.56 5.9,10.05 3.9,7.85 C1.95555076,5.70681473 0.851062398,2.93316389 0.79,0.04 C0.478530163,3.49022858 1.60363731,6.91619794 3.9,9.51 C5.98,11.71 9.07,13.23 9.9,16.13 C10.25,17.31 10.17,18.58 10.48,19.77 C11.216533,22.1922032 13.2774269,23.9770151 15.78,24.36 C18.78,24.84 21.22,23.49 23.39,21.65 C25.3480232,19.8036213 27.9289053,18.7612734 30.62,18.73 C34.62,18.6 40.71,20.04 43.28,23.32 C45.35,25.96 45.45,29.59 45.46,32.94 C45.46,36.03 45.46,39.11 45.46,42.2 C45.46,44.94 45.46,47.79 46.74,50.2 C48.02,52.61 50.84,54.49 53.45,53.66 C56.55,52.66 57.91,48.56 61.07,47.82 C63.48,47.27 65.89,49 66.92,51.21 Z" id="Path"></path>
                    <path d="M97.27,41.04 C96.5961076,42.937174 95.5256703,44.6689643 94.13,46.12 C90.07,51.0066667 86.0066667,55.89 81.94,60.77 C76.81,66.94 71.37,74.08 71.77,81.95 C72.14,74.73 77.17,68.16 81.94,62.43 L94.13,47.79 C95.5237269,46.3336155 96.5937923,44.5990191 97.27,42.7 C97.5718416,41.3895113 97.6796579,40.0418087 97.59,38.7 C97.5798494,39.4901827 97.472373,40.2761041 97.27,41.04 Z" id="Path"></path>
                    <path d="M65.48,79.47 C65.2829061,78.8195355 65.1620953,78.1483642 65.12,77.47 C65.0151881,78.6951473 65.1372293,79.9291191 65.48,81.11 C66.32,83.79 69.37,86 71.93,84.85 C71.86,84.31 71.82,83.77 71.8,83.23 C69.22,84.29 66.26,82.11 65.48,79.47 Z" id="Path"></path>
                </g>
                <path d="M646.74,728.35 C646.74,728.35 650.6,735.14 664.58,729.16" id="Path" fill="#000000" opacity="0.1"></path>
                <path d="M764.98,730.02 C764.98,730.02 777.04,744.22 792.24,734.67" id="Path" fill="#000000" opacity="0.1"></path>
                <path d="M800.09,562.05 C800.09,562.05 791.56,567.38 791.29,570.43 C791.02,573.48 795.69,568.21 795.69,568.21 L800.09,562.05 Z" id="Path" fill="#000000" opacity="0.1"></path>
                <path d="M803.48,602.88 C800.516202,605.347423 796.831585,606.786178 792.98,606.98 C786.61,607.26 787.14,615.57 791.3,613.07 C795.46,610.57 803.48,602.88 803.48,602.88 Z" id="Path" fill="#000000" opacity="0.1"></path>
                <path d="M805.07,608.21 C805.07,608.21 800.98,628.31 797.66,624.43" id="Path" fill="#000000" opacity="0.1"></path>
            </g>
        </g>
    </g>
</svg>