<svg xmlns="http://www.w3.org/2000/svg" width="581" height="440" viewBox="0 0 581 440">
    <g fill="none" transform="matrix(-1 0 0 1 581 0)">
        <circle cx="151.45" cy="286.65" r="3.9" fill="#3564B1"/>
        <path fill="#2F2E41" d="M61.1 438.113H580.998V439.569H61.1z"/>
        <path fill="#A0616A" d="M382.979 214.928s-20.354 23.736-16.076 25.286c4.278 1.55 24.25-15.41 22.966-21.407l-6.89-3.88zM502.775 236.925s11.05 29.25 6.5 29.25c-4.55 0-17.55-22.75-14.3-27.95l7.8-1.3z"/>
        <ellipse cx="517.4" cy="410.8" fill="#2F2E41" rx="24.05" ry="7.8" transform="rotate(-54.645 517.4 410.8)"/>
        <ellipse cx="436.8" cy="422.5" fill="#2F2E41" rx="24.05" ry="7.8" transform="rotate(-40.524 436.8 422.5)"/>
        <path fill="#2F2E41" d="M509.65 59.878c-1.824-2.58-4.069-4.835-5.994-7.34-4.439-5.778-5.975-13.476-11.932-17.906-5.894-4.383-15.248-8.698-22.624-8.352-9.72.455-17.432 7.997-24.134 15.053l-15.363 16.178c-3.704 3.902-7.546 8.043-8.881 13.255-1.284 5.01-.031 10.39 2.318 14.996 2.442 4.673 5.866 8.76 10.038 11.983 5.143-7.081 12.348-16.859 12.348-16.859l1.677 24.321c8.713 2.888 18.072 3.455 27.253 2.817l2.72-9.972 2.854 9.42c10.973-1.455 21.996-5.243 28.788-13.805 7.509-9.467 7.908-23.924.932-33.79z"/>
        <circle cx="467.675" cy="61.425" r="20.15" fill="#A0616A"/>
        <path fill="#A0616A" d="M454.675 71.175s1.3 15.6-7.15 16.9c-8.45 1.3-17.55 0-17.55 5.2s6.5 52.65 6.5 52.65l16.25-1.3 22.75-22.1 12.35-24.05s-14.95-6.5-8.45-26l-24.7-1.3z"/>
        <path fill="#D0CDE1" d="M444.925 136.825l-6.5-17.55 1.3-24.05s14.272-1.95 13.961-13.65l-10.711 4.55-24.7 3.9v22.75s-8.45 13.65 1.3 27.3l4.55 28.6 46.8-3.25 14.95-19.5 18.85-37.05-19.5-14.3 2.6-3.9-9.946-6.486 1.496 12.336-4.55 7.8s-20.8 3.9-29.9 32.5z"/>
        <path fill="#D0CDE1" d="M422.175 91.325l-3.9-1.3s-7.8 3.25-7.8 13.65-31.2 113.1-31.2 113.1l14.3 3.9 19.5-47.45 11.7-39.65-2.6-42.25zM499.525 108.875h5.2s3.25-2.6 2.6 16.25c-.65 18.85 1.95 118.3 1.95 118.3l-18.85-1.3-4.55-107.25 13.65-26z"/>
        <path fill="#2F2E41" d="M474.682 160.525s-44.057-8.1-53.807-.3c.904 1.093 1.367 2.484 1.3 3.9 0 2.6 1.3-.65 0 2.6s-3.9.65-1.3 3.25c2.6 2.6 3.25 1.95 1.95 3.9s0 5.2 0 5.2-7.15 33.8-.65 57.85c6.5 24.05 60.45 193.7 74.75 189.15 14.3-4.55 50.05-25.35 48.1-32.5-1.95-7.15-67.6-105.95-67.6-105.95s27.3-85.15-5.2-112.45c0 0 1.95-2.6 1.3-4.55-.65-1.95-1.3 0-.65-1.95s3.9-1.95 1.95-3.9-.143-4.25-.143-4.25z"/>
        <path fill="#2F2E41" d="M444.925 230.425s-44.2 197.6-35.1 200.85c9.1 3.25 44.2 3.9 46.8 0 2.6-3.9 20.8-143.65 20.8-143.65l-32.5-57.2zM445.9 46.8s16.25 19.5 48.75 8.45L485.55 39l-21.45-6.5-18.2 14.3z"/>
        <path fill="#3F3D56" d="M165.69 292.949c-1.267-.348-2.534-.727-3.765-1.128l.402-1.236c1.212.395 2.46.768 3.707 1.11l-.344 1.254zM204.418 297.268l-.028-1.3c2.603-.057 5.205-.187 7.733-.388l.103 1.296c-2.552.203-5.18.335-7.808.392zm-7.815-.04c-2.57-.081-5.195-.232-7.8-.447l.107-1.296c2.583.214 5.185.363 7.735.443l-.042 1.3zm23.398-1.206l-.182-1.287c2.58-.365 5.145-.814 7.622-1.334l.267 1.272c-2.505.526-5.098.98-7.707 1.35zm-38.965-.075c-2.697-.354-5.294-.77-7.72-1.235l.245-1.278c2.4.462 4.973.873 7.645 1.224l-.17 1.289zm54.27-3.155l-.359-1.25c2.5-.716 4.97-1.529 7.34-2.416l.456 1.218c-2.403.899-4.905 1.722-7.438 2.448zm14.653-5.498l-.557-1.174c2.34-1.11 4.633-2.326 6.817-3.618l.662 1.12c-2.219 1.311-4.548 2.546-6.922 3.672zm13.471-7.977l-.765-1.05c.91-.664 1.816-1.356 2.696-2.057 1.077-.86 2.192-1.797 3.311-2.785l.86.975c-1.135 1.002-2.266 1.953-3.36 2.826-.895.714-1.817 1.417-2.742 2.091zm11.793-10.28l-.917-.92c1.898-1.887 3.797-3.858 5.427-5.556l.938.9c-1.636 1.704-3.54 3.68-5.448 5.577zm10.85-11.168l-.927-.912c2.108-2.144 3.886-3.877 5.595-5.453l.881.955c-1.692 1.562-3.456 3.28-5.55 5.41zm11.43-10.414l-.795-1.028c2.067-1.61 4.233-3.09 6.485-4.428l.662 1.12c-2.206 1.31-4.327 2.758-6.351 4.336zm13.23-7.747l-.49-1.204c2.43-.987 4.92-1.815 7.457-2.48l.332 1.257c-2.483.65-4.92 1.461-7.298 2.427zm14.848-3.974l-.196-1.285c2.454-.373 5.073-.655 7.788-.839l.087 1.297c-2.678.181-5.261.46-7.68.827zm23.167-.98c-2.42-.083-4.62-.124-6.727-.124l-1.026.004-.008-1.3 1.034-.004c2.121 0 4.336.041 6.772.125l-.045 1.3zM360.425 235.359c-1.292-.08-2.59-.158-3.89-.234l.074-1.298c1.303.075 2.601.153 3.896.234l-.08 1.298zM102.78 215.356c-.493-1.2-.99-2.4-1.491-3.597l1.198-.504c.504 1.2 1.003 2.404 1.495 3.609l-1.203.492zM134.407 274.405c-1.936-2.052-3.767-4.2-5.485-6.438l1.03-.793c1.691 2.202 3.493 4.318 5.399 6.338l-.944.893zm-10.346-13.348c-1.46-2.262-2.915-4.7-4.325-7.248l1.137-.63c1.397 2.522 2.837 4.935 4.28 7.173l-1.092.705zm-8.208-14.73c-1.18-2.422-2.334-4.923-3.53-7.646l1.19-.523c1.189 2.707 2.337 5.193 3.509 7.6l-1.169.569zm-6.802-15.397c-.96-2.36-1.915-4.731-2.863-7.115l-.27-.677 1.206-.483.271.677c.952 2.378 1.905 4.747 2.86 7.108l-1.204.49zM143.682 282.628c-1.052-.77-2.097-1.585-3.105-2.423l.83-1c.989.82 2.012 1.62 3.043 2.374l-.768 1.049zM14.8 162.153l-.82-1.008c1.028-.836 2.104-1.613 3.221-2.326l.7 1.096c-1.076.686-2.11 1.433-3.1 2.238zM88.62 186.48c-1.538-2.441-3.146-4.772-4.779-6.926l1.036-.785c1.655 2.184 3.285 4.545 4.844 7.018l-1.1.694zm-10.18-13.365c-.646-.694-1.312-1.383-1.98-2.047-1.288-1.283-2.673-2.528-4.114-3.701l.82-1.009c1.475 1.2 2.892 2.475 4.211 3.789.68.675 1.357 1.376 2.015 2.082l-.952.886zm-12.953-10.554c-2.398-1.439-4.892-2.708-7.467-3.8l.507-1.196c2.63 1.114 5.18 2.411 7.629 3.881l-.67 1.115zm-40.094-6.202l-.41-1.233c2.73-.9 5.552-1.496 8.414-1.775l.13 1.293c-2.766.27-5.494.846-8.134 1.715zm24.702-.293c-2.7-.703-5.454-1.186-8.233-1.442l.117-1.295c2.85.263 5.673.757 8.442 1.479l-.326 1.258zM94.66 197.225c-.597-1.18-1.2-2.339-1.796-3.444l1.145-.616c.6 1.115 1.21 2.284 1.81 3.473l-1.16.587zM5.2 174.85c-2.872 0-5.2-2.328-5.2-5.2 0-2.872 2.328-5.2 5.2-5.2 2.872 0 5.2 2.328 5.2 5.2-.003 2.87-2.33 5.197-5.2 5.2zm0-9.1c-2.154 0-3.9 1.746-3.9 3.9s1.746 3.9 3.9 3.9 3.9-1.746 3.9-3.9c-.002-2.153-1.747-3.898-3.9-3.9zM98.8 209.95c-2.872 0-5.2-2.328-5.2-5.2 0-2.872 2.328-5.2 5.2-5.2 2.872 0 5.2 2.328 5.2 5.2-.003 2.87-2.33 5.197-5.2 5.2zm0-9.1c-2.154 0-3.9 1.746-3.9 3.9s1.746 3.9 3.9 3.9 3.9-1.746 3.9-3.9c-.002-2.153-1.747-3.898-3.9-3.9zM151.45 291.85c-2.872 0-5.2-2.328-5.2-5.2 0-2.872 2.328-5.2 5.2-5.2 2.872 0 5.2 2.328 5.2 5.2-.003 2.87-2.33 5.197-5.2 5.2zm0-9.1c-2.154 0-3.9 1.746-3.9 3.9s1.746 3.9 3.9 3.9 3.9-1.746 3.9-3.9c-.002-2.153-1.747-3.898-3.9-3.9zM150.8 270.4H152.10000000000002V274.29999999999995H150.8zM152.1 262.876h-1.3v-7.523h1.3v7.523zm0-15.047h-1.3v-7.524h1.3v7.524zm0-15.048h-1.3v-7.524h1.3v7.524zm0-15.048h-1.3v-7.524h1.3v7.524zm0-15.048h-1.3v-7.524h1.3v7.524zm0-15.048h-1.3v-7.524h1.3v7.524zm0-15.047h-1.3v-7.524h1.3v7.524zm0-15.048h-1.3v-7.524h1.3v7.524zm0-15.048h-1.3v-7.524h1.3v7.524zM150.8 123.546H152.10000000000002V127.44600000000001H150.8z"/>
        <path fill="#3F3D56" d="M151.45 115.7c1.37 3.692 3.707 8.272 6.183 11.112l-6.183-2.237-6.181 2.237c2.475-2.84 4.812-7.42 6.181-11.112z"/>
        <g>
            <path fill="#3564B1" d="M29.273 98.764c-4.616 2.769-12.84 6.238-21.246 2.673l-5.433-2.305 10.888-12.204c-18.003-19.85-17.972-50.129.071-69.94C31.597-2.826 61.743-5.68 83.185 10.391c21.443 16.072 27.16 45.807 13.203 68.683-13.955 22.876-43.011 31.4-67.115 19.69zm-20.86-46.85C8.363 63.967 13.35 75.492 22.17 83.707l3.004 2.822-6.852 7.68c2.976-.695 5.782-1.98 8.253-3.776l2.163-1.54 2.326 1.279c17.235 9.45 38.661 6.208 52.329-7.918 13.667-14.126 16.2-35.646 6.186-52.56-10.014-16.912-30.102-25.04-49.06-19.85C21.561 15.033 8.415 32.26 8.412 51.915z" transform="translate(101.4)"/>
            <path fill="#FFF" d="M5.2 51.333c.008-21.375 14.31-40.106 34.927-45.747 20.619-5.64 42.464 3.2 53.353 21.594 10.89 18.393 8.136 41.797-6.726 57.16-14.863 15.363-38.163 18.893-56.909 8.62-3.281 2.334-11.286 6.99-19.194 3.636l9.52-10.67C10.604 76.967 5.184 64.44 5.2 51.334z" transform="translate(101.4)"/>
            <path fill="#000" d="M90.368 51.35C90.367 26.77 71.46 6.26 46.8 4.087c1.392-.121 2.8-.187 4.224-.187C77.413 3.909 98.8 25.15 98.8 51.35c0 26.2-21.387 47.441-47.776 47.45-1.422 0-2.827-.066-4.217-.187 24.657-2.177 43.56-22.686 43.561-47.263z" opacity=".1" transform="translate(101.4)"/>
            <path fill="#3564B1" d="M24.7 42.9H58.5V45.5H24.7zM23.4 53.3H83.19999999999999V55.9H23.4zM23.4 65H83.19999999999999V67.6H23.4z" transform="translate(101.4)"/>
        </g>
    </g>
</svg>
