<svg xmlns="http://www.w3.org/2000/svg" width="502" height="402" viewBox="0 0 502 402">
    <defs>
        <linearGradient id="prefix__a" x1="50.012%" x2="50.012%" y1="100.018%" y2="-.023%">
            <stop offset="0%" stop-color="gray" stop-opacity=".25"/>
            <stop offset="54%" stop-color="gray" stop-opacity=".12"/>
            <stop offset="100%" stop-color="gray" stop-opacity=".1"/>
        </linearGradient>
    </defs>
    <g fill="none">
        <path fill="#E6E6E6" d="M219.789 21.67c22.587-8.39 50.086-1.174 73.568 9.35 73.754 33.063 127.485 95.825 170.175 159.766 15.457 23.153 30.139 47.325 35.95 73.17 11.831 52.608-19.028 107.069-71.509 126.154-17.847 6.496-37.454 9.16-57.092 10.644-34.919 2.644-71.073 1.594-105.712-8.196-24.703-6.996-48.07-18.25-70.483-30.683-62.593-34.742-119.754-79.858-160.914-134.968C15.72 202.734.448 175.484.008 147.594c-.44-27.89 17.747-55.915 47.67-60.658 12.372-1.959 25.458.08 38.225 2.179 18.797 3.093 37.85 6.347 56.432 4.997 19.197-1.404 44.165-8.9 47.665-27.215 3.706-19.665 7.231-36.846 29.789-45.226z" opacity=".1"/>
        <g transform="translate(102)">
            <ellipse cx="170.5" cy="309.5" fill="#E6E6E6" rx="170.5" ry="7.5"/>
            <path fill="#3F3D56" d="M293 73.668h-1.708V27.006c0-7.162-2.853-14.031-7.932-19.096C278.282 2.845 271.394 0 264.211 0h-99.13c-7.183 0-14.07 2.845-19.15 7.91C140.854 12.975 138 19.844 138 27.006v255.988c0 7.162 2.853 14.031 7.932 19.096 5.078 5.065 11.966 7.91 19.149 7.91h99.13c7.183 0 14.07-2.845 19.15-7.91 5.078-5.065 7.931-11.934 7.931-19.096V106.882H293V73.668z"/>
            <path fill="#FFF" d="M263.929 8h-12.843c1.2 2.955.857 6.316-.915 8.965-1.77 2.649-4.738 4.238-7.913 4.238h-56.363c-3.176 0-6.143-1.59-7.914-4.238-1.771-2.649-2.114-6.01-.915-8.965h-11.995c-5.323 0-10.428 2.125-14.192 5.908-3.764 3.783-5.879 8.914-5.879 14.264v255.656c0 5.35 2.115 10.481 5.879 14.264 3.764 3.783 8.869 5.908 14.192 5.908h98.858c5.323 0 10.428-2.125 14.192-5.908 3.764-3.783 5.879-8.914 5.879-14.264V28.172c0-5.35-2.115-10.481-5.879-14.264C274.357 10.125 269.252 8 263.93 8z"/>
            <path fill="#E6E6E6" d="M219.52 286c-18.196.009-33.913-12.724-37.682-30.526-3.768-17.802 5.442-35.81 22.081-43.176 16.639-7.365 36.162-2.075 46.807 12.683 10.644 14.758 9.502 34.953-2.738 48.417l8.04 9.013-4.012 1.702c-6.207 2.632-12.28.07-15.689-1.974-5.239 2.54-10.985 3.86-16.807 3.861zm0-70.669c-13.452.004-25.485 8.368-30.178 20.975-4.692 12.607-1.057 26.802 9.118 35.601 10.176 8.8 24.747 10.349 36.545 3.886l1.717-.944 1.597 1.137c1.825 1.327 3.897 2.275 6.094 2.788l-5.059-5.671 2.218-2.084c6.512-6.066 10.195-14.577 10.16-23.476-.021-17.782-14.43-32.192-32.212-32.212z"/>
            <path fill="#FFF" d="M254 247.987c-.006-15.766-10.555-29.582-25.763-33.743-15.209-4.161-31.322 2.36-39.354 15.928-8.033 13.567-6.001 30.83 4.962 42.162 10.962 11.332 28.15 13.936 41.976 6.358 2.42 1.722 8.325 5.157 14.158 2.683l-7.021-7.87c7.055-6.61 11.053-15.85 11.042-25.518z"/>
            <path fill="#3564B1" d="M201 240H227V242H201z"/>
            <path fill="#E6E6E6" d="M201 249H245V251H201zM201 256H245V258H201zM219.52 115c-18.196.009-33.913-12.724-37.682-30.526-3.768-17.802 5.442-35.81 22.081-43.176 16.639-7.365 36.162-2.075 46.807 12.683 10.644 14.758 9.502 34.953-2.738 48.417l8.04 9.013-4.012 1.702c-6.207 2.632-12.28.07-15.689-1.974-5.239 2.54-10.985 3.86-16.807 3.861zm0-70.669c-13.452.004-25.485 8.368-30.178 20.975-4.692 12.607-1.057 26.802 9.118 35.601 10.176 8.8 24.747 10.349 36.545 3.886l1.717-.944 1.597 1.137c1.825 1.327 3.897 2.275 6.094 2.788l-5.059-5.671 2.218-2.084c6.512-6.066 10.195-14.577 10.16-23.476-.021-17.782-14.43-32.192-32.212-32.212z"/>
            <path fill="#FFF" d="M254 76.987c-.006-15.766-10.555-29.582-25.763-33.743-15.209-4.161-31.322 2.36-39.354 15.928-8.033 13.567-6.001 30.83 4.962 42.162 10.962 11.332 28.15 13.936 41.976 6.358 2.42 1.722 8.325 5.157 14.158 2.683l-7.021-7.87c7.055-6.61 11.053-15.85 11.042-25.518z"/>
            <path fill="#3564B1" d="M201 69H227V71H201z"/>
            <path fill="#E6E6E6" d="M201 78H245V80H201zM201 87H245V89H201z"/>
            <circle cx="268.5" cy="113.5" r="5.5" fill="#E6E6E6"/>
            <circle cx="268.5" cy="283.5" r="5.5" fill="#E6E6E6"/>
            <path fill="#3564B1" d="M154.518 195.973c-3.551 2.13-9.878 4.798-16.343 2.055l-4.18-1.772 8.375-9.388c-13.848-15.269-13.824-38.56.056-53.801 13.88-15.24 37.068-17.437 53.563-5.073 16.494 12.363 20.891 35.236 10.156 52.833-10.735 17.597-33.086 24.154-51.627 15.146zm-16.047-36.039c-.037 9.27 3.8 18.136 10.583 24.455l2.31 2.17-5.27 5.908c2.29-.534 4.448-1.522 6.349-2.904l1.663-1.184 1.79.983c13.257 7.27 29.739 4.776 40.252-6.09 10.514-10.866 12.462-27.42 4.76-40.43-7.704-13.01-23.156-19.263-37.74-15.27-14.583 3.992-24.695 17.243-24.697 32.362z"/>
            <path fill="#FFF" d="M136 159.487c.006-16.443 11.007-30.85 26.867-35.19 15.86-4.34 32.664 2.462 41.04 16.61 8.378 14.15 6.259 32.152-5.174 43.97-11.432 11.818-29.356 14.533-43.775 6.63-2.524 1.796-8.682 5.378-14.765 2.798l7.323-8.208c-7.358-6.893-11.528-16.528-11.516-26.61z"/>
            <path fill="#000" d="M201.514 159.5c-.001-18.908-14.545-34.685-33.514-36.356 1.07-.094 2.154-.144 3.25-.144 20.298.007 36.75 16.346 36.75 36.5s-16.452 36.493-36.75 36.5c-1.094 0-2.176-.051-3.245-.144 18.967-1.674 33.508-17.45 33.509-36.356z" opacity=".1"/>
            <path fill="#3564B1" d="M151 153H177V155H151zM150 161H196V163H150zM150 170H196V172H150z"/>
        </g>
        <g>
            <path fill="url(#prefix__a)" d="M127.995 85.09c-.34-1.894-.536-3.81-.587-5.733 0-2.308-3.138-4.351-3.138-4.351s-1.938-4.48-3.23-5.142c-1.292-.662-5.281-6.524-5.281-6.524-.046-1.156-.467-2.266-1.2-3.162-1.196-1.57-2.287-3.215-3.268-4.927-.539-.656-.27-1.118-1.077-4.942-.043-.2-.091-.393-.15-.576 0-.086-.054-.161-.087-.247 1.749-1.752 2.34-4.35 1.524-6.685-.145-.455-.41-.864-.765-1.183-.91-.743-2.363-.436-3.3-1.14l.996-4.4c.237-1.076.36-2.436-.581-3.017-.354-.168-.726-.292-1.11-.371-1.614-.538-2.55-2.243-2.97-3.883-.404-1.58-.514-3.221-.324-4.84.183-1.56.641-3.077.808-4.642.303-2.895-.394-5.806-1.976-8.25-.615-1.055-1.521-1.91-2.61-2.463-.996-.447-2.154-.538-3.085-1.076-2.003-1.275-1.9-4.303-3.5-6.04-1.598-1.737-4.43-1.732-6.76-1.135-2.331.597-4.652 1.614-7.042 1.361C77.742 1.55 76.3.851 74.755.69c-.442-.042-.888-.022-1.324.06V.7c-1.142.205-2.191.84-2.46 1.92-.06.257-.086.522-.076.785 0 .63.15 1.286.162 1.888.04.484-.117.963-.436 1.329-.307.328-.76.5-1.077.839-.262.261-.404.62-.393.99 0 .957 1.195 1.8 1.997 2.188h.033c-.216.215-.431.441-.63.672-2.3 2.595-3.568 5.941-3.564 9.407.04 5.72 3.474 10.871 8.742 13.112l-.113.35c-.226.691-.49 1.37-.791 2.033-1.127-.38-2.365-.241-3.38.376-1.54 1.076-4.55.99-5.352.79-.802-.198-9.151-1.253-9.824-.989-.673.264-2.002-.92-2.87.662-.866 1.58-1.27 2.436-2.152 2.834-.883.398-2.407 1.646-2.202 1.91.204.263-2.207 1.844-2.207 1.844s-2.073 2.151-3.273 2.436c-1.2.285-3.742 1.915-3.742 1.915l-2.944 2.302s-2.202.333-1.534-1.184c.667-1.516-1.206-3.425-1.206-3.425s-3.742-7.578-3.742-9.143c0-1.565-3.073-8.24-3.073-8.24l-.377-.037-.172-.49c-.566-1.586-1.298-3.533-1.858-4.674-1.076-2.178-1.738-2.404-1.738-2.404s-12.963-9.723-21.383-6.76c-8.419 2.963 15.37 11.794 17.507 12.72.748.322 1.286 1.366 1.663 2.586-1.896.914-3.493 2.349-4.603 4.136 0 0 5.147 11.397 5.281 14.231.135 2.834 3.542 10.756 3.542 10.756s1.27 5.868 8.15 5.535c0 0 9.491 1.742 11.564 0 2.072-1.743 3.94-3.109 4.947-3.308.74-.243 1.39-.702 1.868-1.318 0 0-3.139 19.765-4.678 21.48-1.54 1.717-15.143 23.907-10.26 27.876 3.866 2.992 7.953 5.688 12.225 8.067.414.205 1.658-1.866 3.434-3.334v1.146c.033 7.895 1.077 19.899 2.52 22.588 2.153 3.953 1.27 11.595 1.27 11.595 1.132.533 2.361.827 3.612.866.065.259.14.538.21.807 1.179 4.448 3.09 11.327 4.064 13.155 1.47 2.77 2.536 11.536 2.536 11.536s.872 8.606.538 9.816c-.129.457.436 4.039 1.324 8.605-.538 6.18-1.56 18.092-1.733 22.4v.312c.003.048.003.097 0 .145v.264c-.017.27-.006.543.032.812.067.41.036.83-.091 1.226-.381 1.191-.866 2.346-1.448 3.453-.246.544-.461 1.1-.646 1.667-.539.237-1.195.812-1.561 2.216-.668 2.57-1.67 9.68-1.67 9.68s-.403 4.352-1.2 5.341c-.796.99-1.615 7.18 4.075 7.97 5.69.791 8.15-3.01 8.15-3.01l-.199-17.254v-.033c.115-.145.215-.301.297-.467v-.043c.037-.081.08-.167.118-.264l.048-.13.087-.209c-.004-.025-.004-.05 0-.075.552-1.653.717-3.41.484-5.136v-.221-.404-.101c0-.115.01-.233.032-.355v-.065l.033-.21v-.091c0-.07 0-.14.043-.215-.002-.018-.002-.036 0-.054.054-.247.118-.538.188-.774v-.06l.08-.258c.082-.274.173-.538.27-.828v-.054c0-.086.06-.172.092-.253v-.032c.096-.263.199-.538.296-.763l.027-.07.086-.216.027-.064.204-.479 1.577 4.868s.873 3.624.404 4.48c-.468.855.538 4.415 1.2 4.48l-.618 4.48c-.335 2.47-.535 4.957-.598 7.449-.043.285-.086.537-.118.71-.431 2.296.603 5.856.603 5.856 5.275 6.234 11.563.484 11.563.484s.732-3.296 0-3.953c-.732-.656-.404-3.033-.404-3.033s.334-5.868.398-10.149c.065-4.28-3.504-8.067-3.504-8.067l-.2.178c-.65-1.678-1.394-3.636-1.238-4.513.27-1.516-.737-17.527-.737-17.527.372-4.293.451-8.605.237-12.908.086-.726.167-1.441.247-2.151.404-3.442.733-6.384.862-7.928v-.183c.032-.414.048-.71.043-.85 0-.537 0-1.15.054-1.823.123-1.85.414-3.91.414-3.91l1.4-8.503s1.076-4.152 2.61-6.453l.184-.29c.059-.103.118-.216.183-.334l.027-.049c.059-.113.123-.231.183-.355l.027-.048c.215-.425.446-.914.689-1.452 0-.043.037-.08.053-.124l.183-.409c0-.053.044-.107.07-.161.027-.054.114-.274.173-.409.026-.054.05-.11.07-.166.07-.162.145-.329.215-.5l.102-.248c.049-.124.103-.247.156-.371l.13-.328c.037-.08.07-.162.102-.242l.145-.371c0-.054.049-.113.07-.167.382-.952.748-1.893 1.077-2.748.102-.27.204-.538.296-.775 3.424.21 5.75.398 5.75.398s1.076-7.707.731-12.778c-.226-3.464.42-7.82.845-10.219.049-.264.092-.5.135-.715l.092.075c1.674 1.318 2.874-3.033 2.874-3.033s-.452-4.06-1.076-8.982l-.065-.49c.965.206 1.94.355 2.923.447 0 0 .538-.048 1.276-.14 2.04 1.18 4.193 2.153 6.427 2.904l3.559-6.561c.668-1.36 1.452-2.661 2.341-3.888 1.077-1.318 4.878-5.535 4.813-6.325-.065-.79 1.27-5.34 2.605-7.385 1.335-2.043 1.868-6.152 1.804-6.48zm-14.836 5.007c-1.405.591-2.74 3.888-2.805 4.878-.065.99-1.54 5.335-3.074 5.862-1.416.484-4.118 2.969-4.549 3.367-.441.038-.942.097-1.464.183-.587-4.158-1.168-7.6-1.54-8.293-1.076-1.98 1.18-8.304 1.18-8.304s.22-6.39 1.615-7.906c1.394-1.517 1.076-5.34 1.076-5.34s.334-1.582.468-2.303c.135-.72 1.987 0 2.003 0 0 0 3.607 1.974 4.145 4.937.538 2.964 4.479 8.105 4.479 8.105s-.603 1.78 0 2.69c.603.908-.13 1.532-1.534 2.124z" transform="matrix(-1 0 0 1 273 59)"/>
            <path fill="#4C4981" d="M17 33.643c2.292-3.314 6.625-5.102 11-4.54V36h-4.78l-3.74-.83L17 33.644z" transform="matrix(-1 0 0 1 273 59)"/>
            <path fill="#000" d="M17 33.643c2.292-3.314 6.625-5.102 11-4.54V36h-4.78l-3.74-.83L17 33.644z" opacity=".1" transform="matrix(-1 0 0 1 273 59)"/>
            <path fill="#AE6E79" d="M28 30.979L22.107 35s-.05-.803-.2-1.903c-.293-2.08-.951-5.202-2.373-5.806-2.164-.927-26.252-9.757-17.708-12.727 8.544-2.97 21.653 6.765 21.653 6.765s.675.226 1.754 2.399c.554 1.143 1.312 3.089 1.882 4.68.525 1.433.885 2.57.885 2.57z" transform="matrix(-1 0 0 1 273 59)"/>
            <path fill="#4C4981" d="M73.548 37.291L74.191 37 76 38.978 74.521 42 72 41.032 72.585 38.616z" transform="matrix(-1 0 0 1 273 59)"/>
            <path fill="#444053" d="M64.87 224.003s-1.699-.197-2.376 2.424c-.678 2.62-1.7 9.89-1.7 9.89s-.405 4.435-1.22 5.446c-.817 1.012-1.628 7.325 4.141 8.128 5.77.802 8.285-3.072 8.285-3.072l-.205-17.623-6.925-5.193zM84.347 224s3.405 3.826 3.343 8.166c-.063 4.34-.385 10.292-.385 10.292s-.313 2.41.385 3.078c.698.667 0 4.012 0 4.012s-5.988 5.832-11.019-.492c0 0-.978-3.613-.572-5.942.406-2.328 1.541-12.795 1.541-12.795L84.347 224z" transform="matrix(-1 0 0 1 273 59)"/>
            <path fill="#AE6E79" d="M93 145.616s-3.6 9.918-5.137 12.218c-1.538 2.3-2.596 6.448-2.596 6.448l-1.402 8.473c-.274 1.894-.43 3.803-.469 5.717.066 1.907-3.468 29.696-3.468 29.696l-5.601 7.033s-2.465 4.927-2.067 6.985c.398 2.058-.268 5.325-1.091 6.308 0 0-.131 6.447-.333 7.882-.202 1.435.737 5.523 0 6.243-.736.72-10.536.398-10.803-.79-.268-1.187 1.2-6.898 1.2-6.898l.866-5.518s1.735-3.02 1.337-4.009c-.398-.988.73-3.282.796-3.481.065-.2 1.87-3.417 1.538-4.664-.333-1.247 2.1-27.757 2.1-27.757L74.735 142 93 145.616z" transform="matrix(-1 0 0 1 273 59)"/>
            <path fill="#000" d="M93 145.606s-.545 1.494-1.293 3.456c-1.188 3.095-2.9 7.357-3.844 8.765-1.533 2.3-2.602 6.45-2.602 6.45l-1.401 8.48c-.271 1.895-.426 3.805-.464 5.718 0 .752-.513 5.552-1.167 11.082-1.009 8.453-2.301 18.621-2.301 18.621l-5.601 7.035s-.284.538-.638 1.387c-.704 1.612-1.697 4.23-1.43 5.578.399 2.037-.267 5.32-1.09 6.31 0 0-.136 6.449-.333 7.884-.196 1.435.737 5.52 0 6.245-.736.725-10.536.397-10.803-.785-.268-1.182 1.2-6.9 1.2-6.9l.866-5.525s1.735-3.02 1.331-4.01c-.403-.988.736-3.283.802-3.482.065-.199 1.87-3.418 1.538-4.665-.257-.951 1.09-16.52 1.718-23.904l.349-3.832 5.906-40.877.48-3.294.48-3.343L93 145.606z" opacity=".1" transform="matrix(-1 0 0 1 273 59)"/>
            <path fill="#AE6E79" d="M88 244.723c.06.73-9.421 1.789-10.776.995-1.354-.795 0-10.64 0-10.64l.618-4.49c-.661-.07-1.666-3.636-1.202-4.495.464-.859-.399-4.49-.399-4.49l-1.572-4.863-.962-2.977c-1.562-3.41-3.823-13.135-5.226-20.397-.885-4.56-1.447-8.154-1.322-8.613.333-1.189-.546-9.845-.546-9.845s-1.092-8.79-2.534-11.562c-.978-1.838-2.884-8.737-4.063-13.19-.6-2.285-1.016-3.928-1.016-3.928s10.093-.837 16.215-1.13c2.812-.134 4.79-.15 4.56.077-.23.226-.29 1.437-.279 3.187.028 4.534.667 12.509 1.344 14.654.934 2.972 1.868 11.887 1.469 12.752-.399.864-.268 6.608-.268 6.608.689 2.333 1.085 4.741 1.18 7.17.214 4.303.137 8.615-.23 12.908 0 0 1 16.058.732 17.577-.267 1.518 2.136 6.278 2.136 7.202 0 .924.666 7.203.666 7.203s1.431 9.563 1.475 10.287zM92 53.047l-1.145 1.23-.747.801-4.36 4.66L74.478 61l-5.996-1.593L67 59.012s0-2.991.267-6.578c.382-4.6 1.292-10.185 3.467-11.708 1.09-.847 1.959-1.941 2.535-3.191.435-.862.8-1.757 1.09-2.676.044-.12.077-.233.115-.353.49-1.605.844-3.249 1.057-4.914 0 0 1.44-.79 3.44-1.712 5.217-2.421 14.228-5.764 11.094 1.712-.46 1.095-.854 2.217-1.178 3.36-.049.167-.092.335-.13.498-1.047 4.16-.355 6.686.425 8.078.131.241.283.471.452.688.213.29.468.548.758.764l1.297 8.186.11.678.201 1.203z" transform="matrix(-1 0 0 1 273 59)"/>
            <path fill="#000" d="M90.367 28.57c-.581 1.412.283-1.153 0 0C88.042 30.241 82.564 35 79.486 35c-2.08 0-2.704-.383-4.486-1.196.54-1.706.923-3.458 1.147-5.234 0 0 18.46-10.283 14.22 0z" opacity=".1" transform="matrix(-1 0 0 1 273 59)"/>
            <path fill="#AE6E79" d="M95 21c-.006 7.162-5.606 13.167-12.983 13.921-.5.047-1.006.079-1.517.079C72.492 35 66 28.732 66 21S72.492 7 80.5 7 95 13.268 95 21z" transform="matrix(-1 0 0 1 273 59)"/>
            <path fill="#000" d="M97 85.196l-2.015 5.44s-1.639.07-4.195.153c-8.628.286-27.639.648-28.487-1.647-.19-.582-.29-1.191-.297-1.805-.112-3.497 1.463-8.866 1.463-8.866s.907-10.742.907-11.208c0-.467-.78-7.993-.78-7.993l1.56-6.038 4.343-3.156s1.946 3.09 3.113 3.354c1.166.263 2.725 1.75 2.725 1.75s3.824 2.416 5.06 1.071C81.631 54.906 91.224 49 91.224 49l5.06 5.775.715 30.42z" opacity=".1" transform="matrix(-1 0 0 1 273 59)"/>
            <path fill="#FFF" d="M97 85.202l-2.016 5.435s-1.64.077-4.197.16h-.249c-1.103.038-2.366.076-3.714.104-6.86.164-16.309.208-21.248-.55-1.857-.274-3.072-.67-3.273-1.207-.112-.324-.19-.659-.234-1-.032-.252-.053-.548-.063-.806-.112-3.498 1.464-8.867 1.464-8.867s.907-10.744.907-11.21c0-.468-.78-7.994-.78-7.994l1.56-6.04 2.987-2.163 1.358-.988c.457.708.955 1.386 1.491 2.031.419.582.979 1.039 1.623 1.324 1.173.269 2.727 1.75 2.727 1.75s3.826 2.417 5.062 1.071c.939-1.026 6.775-4.721 9.47-6.407.828-.521 1.363-.845 1.363-.845l.68.78 4.382 4.996.7 30.426z" transform="matrix(-1 0 0 1 273 59)"/>
            <path fill="#000" d="M28 30.73L21.229 35s-.057-.853-.229-2.02c3.344-1.271 5.379-4.081 5.964-4.98.623 1.522 1.036 2.73 1.036 2.73z" opacity=".1" transform="matrix(-1 0 0 1 273 59)"/>
            <path fill="#4C4981" d="M46.576 44.531l-1.22-.33s-2 2.133-3.156 2.416c-1.158.283-3.598 1.889-3.598 1.889l-2.835 2.283s-2.104.331-1.478-1.174c.626-1.504-1.158-3.393-1.158-3.393s-3.603-7.501-3.603-9.07c0-1.568-2.977-8.152-2.977-8.152S22.817 36.373 16 34.026c0 0 4.955 11.284 5.081 14.09.126 2.807 3.408 10.633 3.408 10.633s1.226 5.81 7.848 5.485c0 0 9.137 1.723 11.13 0 1.994-1.723 3.793-3.078 4.734-3.276.942-.197 1.799-1.302 1.799-1.302V51.9l-3.424-7.368z" transform="matrix(-1 0 0 1 273 59)"/>
            <path fill="#000" d="M36 51s1.743 6.322.627 7L36 51zM90 89.828c-8.693.234-27.846.527-28.7-1.349-.192-.476-.293-.976-.3-1.479l28.396 1.26.604 1.568zM93 145.88s-.53 1.602-1.257 3.706c-3.582-.236-8.325-.484-12.83-.519-1.592 0-3.152 0-4.627.058-3.13.104-5.836.38-7.56.91-2.181.73-4.46 1.05-6.74.946-.583-2.438-.986-4.19-.986-4.19s9.805-.894 15.753-1.206L75.22 142 93 145.88z" opacity=".1" transform="matrix(-1 0 0 1 273 59)"/>
            <path fill="#444053" d="M100 122.729l-1.127 2.383s-.157.71-.357 1.836c-.423 2.427-1.084 6.803-.834 10.292.33 5.102-.732 12.848-.732 12.848s-24.375-2.053-31.525 0c-7.15 2.052-10.671 0-10.671 0s.866-7.681-1.257-11.657c-1.446-2.708-2.464-14.798-2.497-22.75 0-3.666.184-6.445.645-7.008C53.102 106.885 59.325 89 59.325 89l1.42.076 3.791.2 21.56 1.138 3.385.178.357 1.084L100 122.729z" transform="matrix(-1 0 0 1 273 59)"/>
            <path fill="#4C4981" d="M111.783 112.98L112 115s-11.565-3.31-10.978-7.376c.586-4.067 0-3.608 0-3.608l9.294.69 1.467 8.273z" transform="matrix(-1 0 0 1 273 59)"/>
            <path fill="#000" d="M111.783 112.98L112 115s-11.565-3.31-10.978-7.376c.586-4.067 0-3.608 0-3.608l9.294.69 1.467 8.273zM43.506 53.405c1.013.755 2.207 1.3 3.494 1.595-.373-.07-.719-.223-1.007-.442-.71-.442-1.385-.923-2.07-1.392C43.37 52.786 42.68 52.155 42 52c.445.513.95.984 1.506 1.405zM42.936 56.3c.343.338.62.721.822 1.135.342 1.172.321 2.402-.06 3.565l-1.709-3.588c-.297-.612-.595-1.224-.952-1.808-.157-.25-1.142-1.29-1.028-1.507.303-.612 2.608 1.86 2.927 2.204zM90.564 78.728c1.288-.167 2.491-.773 3.436-1.728-1.942.263-3.782 1.086-5.694 1.516-1.775.444-3.636.259-5.306-.527 2.199 1.157 5.222 1.196 7.564.74zM86 66.987c-.329.045-.664-.03-.932-.211-1.377-.722-2.736-1.475-4.076-2.259C79.688 63.748 78.112 62.97 77 62c2.738 2.26 5.29 4.167 9 4.987zM89.42 80.987c.66.048 1.32-.038 1.965-.255.653-.217 1.23-.823 1.615-1.694-.233-.086-.479-.024-.684.173-1.993 1.34-4.181 1.76-6.316 1.209 1.024.699 2.335.559 3.42.567zM77 110.803c-1.309.581-2.654.97-4.015 1.159-1.059.072-2.12.042-3.176-.09l-5.14-.478-2.571-.243c-.303 0-1.542 0-.93-.901.308-.44 2.025-.16 2.467-.182.853-.04 1.71-.063 2.57-.068 1.702 0 3.408 0 5.11.152 1.907.136 3.783.348 5.685.651zM70 115.396c-.89-.03-2.038.4-2.954.493-1.026.099-2.059.132-3.09.098-2.042-.04-4.059-.374-5.956-.987 3.997.166 8.003.264 12 .396zM60.052 116.186c.436.087.866.203 1.285.349 2.488.698 5.134.081 7.663-.535-.63.936-1.768 1.337-2.906 1.593-1.85.462-3.779.532-5.658.203-.59-.116-2.07-.325-2.358-.93-.484-.89 1.42-.767 1.974-.68zM71.447 121.905c.693.106 1.378.243 2.05.41 2.603.486 5.304-.18 7.918-.628 3.143-.536 6.365-.76 9.585-.666-.575 0-1.49.378-2.055.505-.74.169-1.49.325-2.241.465-1.475.271-2.97.493-4.478.654-3.042.33-6.12.43-9.19.3-1.403-.058-3.836.05-5.036-.481 1.037-.463 2.248-.66 3.447-.56zM73.057 40.066s.124 6.068-.82 8.837c-.3.863-.764 2.452-1.27 4.236-.552 1.977-1.156 4.192-1.62 5.927-.465 1.735-.775 2.9-.775 2.9S66.44 80.092 65.888 88.73c0 .15 0 .307-.031.452-.031.485-.083.992-.16 1.514-1.228 8.58-8.315 21.808-10.694 22.864-.742.356-1.42.842-2.003 1.439 0-3.648.175-6.412.614-6.973 1.389-1.778 7.319-19.571 7.319-19.571l1.352.075c-.03-.248-.051-.539-.062-.792-.108-3.432 1.425-8.703 1.425-8.703s.883-10.545.883-11.003c0-.458-.76-7.846-.76-7.846l1.518-5.927 2.906-2.123c.361-4.575 1.223-10.131 3.283-11.645 1.031-.843 1.854-1.931 2.4-3.174.408.06-.336-.318-.336-.318l-.485 3.066z" opacity=".1" transform="matrix(-1 0 0 1 273 59)"/>
            <path fill="#4C4981" d="M73 38.21c-1.096-.378-2.303-.24-3.288.373-1.498 1.068-4.42.977-5.2.785-.78-.192-8.897-1.244-9.561-.983-.664.262-1.95-.913-2.794.657-.845 1.57-1.232 2.414-2.077 2.804-.844.39-2.342 1.635-2.124 1.896.217.262-2.125 1.827-2.125 1.827l4.738 15.489s-3.054 19.59-4.547 21.288c-1.493 1.699-14.745 23.709-10.002 27.629 3.755 2.969 7.73 5.647 11.888 8.011.53.262 2.4-3.263 4.998-4.374 2.597-1.11 10.655-15.81 11.154-24.168.5-8.358 2.794-26.971 2.794-26.971s2.794-10.19 3.766-12.936c.972-2.745.845-8.759.845-8.759L73 38.21z" transform="matrix(-1 0 0 1 273 59)"/>
            <path fill="#000" d="M100 122.776l-1.12 2.386s-.156.71-.355 1.838c-.2-.025-.387-.11-.538-.244-1.647-1.328-11.304-11.337-11.783-20.224-.339-6.555-.177-12.205-.07-14.72.033-.792.065-1.27.065-1.372 0 0 7.503-9.153 6.647-12.395-.855-3.242-2.83-20.603-2.83-20.603l-.292-2.277-.5-3.85L88.029 42l1.238.293c.21.29.462.548.748.764l1.281 8.193 4.446 4.934.727 30.037-2.045 5.368s-1.664.076-4.258.157h-.253L100 122.776z" opacity=".1" transform="matrix(-1 0 0 1 273 59)"/>
            <path fill="#4C4981" d="M104.74 71.586s-1.874-.732-2.005 0c-.132.732-.472 2.315-.472 2.315s.335 3.849-1.096 5.372c-1.43 1.524-1.644 7.954-1.644 7.954s-2.258 6.365-1.19 8.354c.39.721.993 4.337 1.596 8.675.383 2.71.761 5.687 1.096 8.408.608 4.945 1.063 9.038 1.063 9.038s-1.211 4.375-2.888 3.047c-1.677-1.328-11.51-11.336-11.991-20.222-.33-6.24-.198-11.662-.088-14.335.044-1.133.088-1.773.088-1.773s7.64-9.151 6.768-12.399c-.871-3.247-2.883-20.601-2.883-20.601l-.35-2.684-.379-2.884-.087-.634L89.067 40c.213.049 7.732 1.73 8.724 2.71.992.982 7.125 2.386 7.125 2.386 1.884.506 3.34 1.985 3.803 3.86.06.185.104.38.148.58.806 3.85.548 4.31 1.096 4.977.548.667-5.223 17.073-5.223 17.073z" transform="matrix(-1 0 0 1 273 59)"/>
            <path fill="#000" d="M102 113c-2.856-.58-7.095-1.92-6.998-4.88.085-2.768 3.365-3.766 5.85-4.12.4 2.89.794 6.087 1.148 9z" opacity=".1" transform="matrix(-1 0 0 1 273 59)"/>
            <path fill="#AE6E79" d="M108.983 111.66c-.11.233-.554.435-1.186.615-1.482.347-2.988.59-4.506.725 0 0-9.423-.736-9.29-4.938.1-3.015 4.357-3.816 6.746-3.996.529-.048 1.06-.07 1.59-.065 0 0 7.05 6.797 6.646 7.658z" transform="matrix(-1 0 0 1 273 59)"/>
            <path fill="#000" d="M109.983 112.33c-.114.255-.57.474-1.218.67-2.522-3.516-6.04-8.027-7.765-8.424l.524-.504c.543-.053 1.088-.077 1.633-.071 0 0 7.241 7.392 6.826 8.33z" opacity=".1" transform="matrix(-1 0 0 1 273 59)"/>
            <path fill="#4C4981" d="M106.803 54l2.697.4c.974 1.716 2.055 3.37 3.236 4.95.725.901 1.141 2.012 1.187 3.168 0 0 3.959 5.874 5.21 6.532 1.252.659 3.166 5.15 3.166 5.15s3.102 2.046 3.102 4.357c.055 1.926.253 3.846.593 5.743.07.33-.459 4.427-1.78 6.478s-2.643 6.575-2.573 7.385c.07.81-3.694 5.02-4.746 6.337-.878 1.232-1.65 2.536-2.309 3.898L111.091 115s-7.389-10.894-10.091-11.487c0 0 3.031-2.905 4.547-3.434 1.515-.529 2.972-4.858 3.036-5.873.065-1.015 1.387-4.292 2.767-4.858 1.381-.567 2.115-1.188 1.521-2.116-.593-.929 0-2.7 0-2.7s-3.894-5.15-4.422-8.097c-.529-2.947-4.089-4.95-4.089-4.95l-2.044-5.02L106.803 54z" transform="matrix(-1 0 0 1 273 59)"/>
            <path fill="#000" d="M116.215 80.426c1.341-1.515 3.03-2.371 4.785-2.426-1.125.26-2.308.59-3.132 1.641-.323.455-.614.95-.868 1.479-.28.538-2.569 4.43-2.908 3.814-.567-.902 1.663-3.983 2.123-4.508zM111 77c.722-.074 1.353-.608 1.652-1.396.282-.78.456-1.608.516-2.453.169-1.416.408-2.818.714-4.2.187-.554.15-1.179-.1-1.696-.126-.442-.298-.863-.51-1.255-.426.565-.55 1.882-.724 2.64-.218.938-.417 1.882-.606 2.826-.1.452-.885 5.534-.942 5.534zM107 50.341c-.259.347-.557.662-.888.937-1.051.856-2.444 1.577-2.576 2.928.037.439-.017.88-.157 1.297-.337.592-1.162.538-1.819.425-.554-.05-1.086-.252-1.54-.581-.688-.603-.751-1.68-1.277-2.438-.647-.794-1.619-1.234-2.628-1.19-.983-.032-1.96.194-2.943.237-.632.033-1.265-.01-1.887-.13-.205-.031-.409-.074-.61-.128-.439-.111-.868-.26-1.282-.447-.214-.087-.423-.188-.626-.302-.658-.346-1.267-.78-1.813-1.291-.962-.905-1.76-2.153-1.682-3.494.048-.823.41-1.582.526-2.395.394-2.325-1.114-4.521-2.749-6.184-.652-.662-1.346-1.303-1.997-1.976-1.015-.958-1.816-2.13-2.35-3.434-.438-1.388-.582-2.856-.42-4.305.148-1.47.188-2.949.12-4.425-.483-5.232-4.845-9.242-9.208-11.421L69 11.92c3.531-4.15 9.07-5.865 14.255-4.412 5.185 1.452 9.101 5.815 10.079 11.228.977 5.413-1.157 10.921-5.492 14.176-.047.167-.089.334-.126.495-1.009 4.134-.341 6.642.41 8.025.205.049 7.416 1.717 8.367 2.692.952.974 6.833 2.368 6.833 2.368 1.821.496 3.23 1.973 3.674 3.848z" opacity=".1" transform="matrix(-1 0 0 1 273 59)"/>
            <path fill="#444053" d="M69.39 7.426c.295-.336.742-.506 1.043-.83.93-1.002 0-2.637.34-3.957.365-1.465 2.184-2.104 3.7-1.95 1.518.155 2.939.848 4.456 1.018 2.357.26 4.638-.75 6.936-1.342 2.297-.591 5.074-.623 6.655 1.118 1.582 1.742 1.475 4.708 3.444 5.97.91.58 2.055.644 3.04 1.065 1.078.547 1.971 1.392 2.572 2.433 1.559 2.423 2.245 5.296 1.948 8.153-.167 1.544-.62 3.046-.802 4.59-.186 1.603-.076 3.227.323 4.792.414 1.598 1.313 3.323 2.921 3.834.372.081.733.204 1.077.368.93.575.807 1.927.57 2.982l-.958 4.371c.92.693 2.352.395 3.229 1.124.35.318.61.722.753 1.172.886 2.503.117 5.287-1.932 6.997-1.076.846-2.502 1.56-2.636 2.891.04.434-.014.872-.162 1.283-.339.586-1.189.533-1.861.421-.566-.052-1.108-.25-1.572-.575-.71-.596-.769-1.661-1.307-2.412-.664-.784-1.658-1.22-2.69-1.177-1.012-.032-2.007.192-3.019.24-2.333.094-4.61-.72-6.344-2.269-.99-.9-1.802-2.13-1.727-3.461.049-.81.42-1.566.538-2.37.399-2.295-1.14-4.473-2.814-6.118-1.673-1.646-3.637-3.163-4.455-5.352-1.022-2.71-.032-5.735-.306-8.61-.496-5.181-4.956-9.143-9.427-11.305-.996-.506-2.69-1.79-1.534-3.094z" transform="matrix(-1 0 0 1 273 59)"/>
            <path fill="#000" d="M103.499 53.158c-.708-.61-.767-1.684-1.303-2.446-.661-.795-1.651-1.238-2.681-1.198-1.008-.032-2.006.194-3.008.243-2.334.103-4.614-.725-6.344-2.305-.986-.907-1.79-2.16-1.716-3.504.049-.826.419-1.592.536-2.402.403-2.332-1.136-4.54-2.804-6.208-1.668-1.668-3.62-3.206-4.44-5.425-1.013-2.742 0-5.809-.3-8.729-.499-5.252-4.944-9.269-9.395-11.46-1.04-.513-2.73-1.814-1.576-3.137.29-.34.734-.513 1.035-.842.927-1.01 0-2.672.343-4.005.066-.266.18-.517.338-.74-1.121.21-2.145.848-2.419 1.927-.327 1.339.59 2.996-.337 4.011-.3.33-.746.502-1.04.837-1.154 1.322.535 2.629 1.576 3.136 4.456 2.192 8.901 6.214 9.394 11.46.274 2.921-.713 5.987.306 8.735.815 2.213 2.772 3.779 4.44 5.425 1.668 1.647 3.217 3.87 2.804 6.203-.226.79-.405 1.591-.536 2.402-.075 1.344.735 2.597 1.721 3.503 1.728 1.58 4.006 2.41 6.338 2.305 1.009-.048 2-.27 3.009-.242 1.03-.04 2.019.403 2.68 1.198.537.761.596 1.84 1.304 2.445.462.328 1.002.527 1.566.578.67.124 1.517.167 1.855-.421.12-.24.172-.51.15-.777-.54-.054-1.056-.25-1.496-.567z" opacity=".1" transform="matrix(-1 0 0 1 273 59)"/>
        </g>
    </g>
</svg>
