<svg xmlns="http://www.w3.org/2000/svg" width="473" height="332" viewBox="0 0 473 332">
    <g fill="none">
        <g>
            <path fill="#E6E6E6" d="M34.174 84.947L227.5 84.947 227.5 148.412 220.177 148.412 220.177 165.011 203.578 148.412 34.174 148.412z" transform="translate(245)"/>
            <path fill="#FFF" d="M39.544 91.127H222.13V141.9H39.544z" transform="translate(245)"/>
            <path fill="#418CD2" d="M54.227 105.95H142.137V108.61800000000001H54.227z" transform="translate(245)"/>
            <path fill="#E6E6E6" d="M54.227 115.179H207.447V117.84700000000001H54.227zM54.227 124.408H207.297V127.07600000000001H54.227zM193.326 169.893L0 169.893 0 233.358 7.323 233.358 7.323 249.957 23.922 233.358 193.326 233.358z" transform="translate(245)"/>
            <path fill="#FFF" d="M5.37 176.073H187.95600000000002V226.846H5.37z" transform="translate(245)"/>
            <path fill="#418CD2" d="M21.517 191.385H109.42699999999999V194.053H21.517z" transform="translate(245)"/>
            <path fill="#E6E6E6" d="M21.517 200.614H174.737V203.282H21.517zM21.517 209.843H174.587V212.511H21.517zM193.326 0L0 0 0 63.465 7.323 63.465 7.323 80.064 23.922 63.465 193.326 63.465z" transform="translate(245)"/>
            <path fill="#FFF" d="M5.37 6.18H187.95600000000002V56.953H5.37z" transform="translate(245)"/>
            <path fill="#418CD2" d="M21.517 21.492H109.42699999999999V24.16H21.517z" transform="translate(245)"/>
            <path fill="#E6E6E6" d="M21.517 30.721H174.737V33.389H21.517zM21.517 39.95H174.587V42.618H21.517z" transform="translate(245)"/>
        </g>
        <g transform="translate(42 33)">
            <path fill="#2F2E41" d="M61.168 216.405s-12.674 13.881-14.485 45.87c-1.81 31.988-2.414 35.61-2.414 35.61h45.266l8.45-21.729 9.657 21.728h42.852s4.828-66.39 0-68.201c-4.829-1.81-89.326-13.278-89.326-13.278z"/>
            <circle cx="121.825" cy="31.416" r="21.728" fill="#FFB8B8"/>
            <path fill="#FFB8B8" d="M102.21 32.925l-4.225 38.627 29.574 3.622s1.207-33.8 1.81-35.006c.604-1.207-27.16-7.243-27.16-7.243zM186.103 115.008l12.675 24.746s16.9 24.745 21.124 45.266c4.225 20.52 8.45 30.178 8.45 30.178s21.728 31.384 9.657 36.816c-12.071 5.432-22.332-35.006-22.332-35.006l-33.195-60.355-19.314-31.385 22.935-10.26zM65.997 121.044l-4.225 18.106-39.835 52.51S-10.05 215.8 3.227 221.232c13.278 5.432 29.574-21.728 29.574-21.728l49.491-43.455-2.414-35.006H65.997z"/>
            <path fill="#D0CDE1" d="M96.778 63.706s17.923 7.515 31.293-1.675c0 0 32.683 5.297 34.494 7.107 1.81 1.81-1.81 56.13-1.81 56.13l-7.244 30.782s10.26 47.077-4.828 59.148l3.018 16.296s-66.994 4.828-93.55-11.468l4.828-16.296 12.674-51.302-7.846-71.219s6.036-16.296 28.97-17.503z"/>
            <path fill="#D0CDE1" d="M147.174 71.854l15.693-2.414s7.846 1.207 15.088 16.296c7.243 15.089 15.09 35.006 15.09 35.006l-27.16 12.07-22.332-35.005 3.621-25.953zM71.428 78.191l-3.62 3.018s-4.83 17.503-4.83 29.574v16.296l21.729 2.414-13.279-51.302z"/>
            <path fill="#2F2E41" d="M100.103 37.313s-2.953-3.19-2.654-7.182c.197-2.272.051-4.56-.431-6.788 0 0 .924-6.535 2.29-10.323 1.364-3.788.213-5.106 6.08-7.174 5.868-2.068 2.133-9.546 19.431-3.585 1.346 1.358 3.376 1.774 5.147 1.053 3.194-1.17 5.118 3.218 5.118 3.218s1.992-1.635 3.11.064c1.118 1.7 6.524-2.173 8.507 10.188 1.982 12.362-4.824 23.386-4.824 23.386s-.954-19.782-12.189-20.14c-11.234-.359-23.939-4.614-25.515 3.716-1.575 8.33-4.07 13.567-4.07 13.567z"/>
            <path fill="#3F3D56" d="M4.736 175.665H231.671V257.144H4.736z"/>
            <path fill="#418CD2" d="M85.507 241.615l-.075.014c-.596.109-1.196.204-1.806.27-.205.024-.416.042-.621.06-.212.018-.417.036-.628.048-.344.025-.694.037-1.044.043-.151.006-.308.006-.459.006h-.09c-.188 0-.375 0-.562-.006l-.483-.018c-.09 0-.18-.006-.265-.013-10.48-.565-19.528-7.53-22.756-17.516-3.227-9.987.033-20.93 8.2-27.521 8.166-6.592 19.55-7.47 28.63-2.209-7.823 4.533-12.64 12.891-12.64 21.934 0 9.042 4.817 17.4 12.64 21.933-2.49 1.443-5.21 2.449-8.041 2.975z"/>
            <path fill="#418CD2" d="M123.636 236.545c.968.774 1.993 1.474 3.066 2.095-3.85 2.237-8.222 3.416-12.675 3.416h-.326c-10.625-.122-20.047-6.859-23.6-16.874-3.553-10.014-.482-21.182 7.692-27.973 8.173-6.79 19.714-7.763 28.909-2.436-7.27 4.187-11.993 11.706-12.607 20.074-.614 8.367 2.96 16.495 9.54 21.698z"/>
            <path fill="#418CD2" d="M172.523 216.707c0 10.252-6.176 19.496-15.648 23.42-9.472 3.923-20.376 1.754-27.625-5.496-7.25-7.25-9.419-18.153-5.495-27.625 3.923-9.473 13.166-15.649 23.42-15.649 6.722 0 13.17 2.67 17.924 7.424 4.755 4.754 7.425 11.202 7.424 17.926z"/>
            <path fill="#FFF" d="M157.435 236.624c0 1.147-.115 2.292-.344 3.416-6.338 2.688-13.495 2.688-19.833 0-.23-1.124-.345-2.269-.344-3.416 0-5.963 3.036-11.003 7.218-12.687-3.443-1.448-5.388-5.123-4.649-8.784.739-3.661 3.956-6.295 7.691-6.295s6.953 2.634 7.691 6.295c.74 3.661-1.206 7.336-4.649 8.784 4.183 1.684 7.219 6.724 7.219 12.687zM123.636 236.545v.079c-.085 1.422-.287 2.835-.604 4.225-2.951 1.255-5.933 1.164-9.33 1.207h-.327c-3.407.004-6.78-.682-9.916-2.016-.024-.104-.043-.208-.054-.314-.196-1.022-.293-2.061-.29-3.102 0-5.963 3.036-11.003 7.218-12.687-3.443-1.448-5.388-5.122-4.649-8.783.739-3.661 3.956-6.294 7.691-6.294.614-.001 1.227.072 1.823.218-3.158 10.02.2 20.948 8.438 27.467zM91.032 236.974c-.014 1.03-.125 2.057-.332 3.066-2.255.96-4.638 1.586-7.074 1.859-.205.024-.416.042-.621.06-.212.018-.417.036-.628.048-.344.025-.694.037-1.044.043-.073.006-.151.006-.224.006h-.325c-.188 0-.375 0-.562-.006l-.483-.018c-.09 0-.18-.006-.265-.013-2.963-.146-5.877-.816-8.607-1.98-.005-.013-.007-.027-.006-.041-.022-.09-.038-.18-.048-.272-.196-1.022-.293-2.061-.29-3.102 0-5.963 3.036-11.003 7.219-12.687-3.443-1.448-5.388-5.122-4.65-8.783.74-3.661 3.957-6.294 7.692-6.294.434 0 .868.036 1.297.109-3.296 10.288.299 21.535 8.95 28.005z"/>
        </g>
        <path fill="#F2F2F2" d="M26.586 332L19 310.632s8.345 4.197 8.724 9.539c0 0-1.896-26.71-5.69-32.434 0 0 6.07.763 12.897 30.526 0 0 1.138-34.342-9.103-44.263 0 0 14.034 11.447 15.172 36.25V332H26.586zM282.828 331L288 317s-5.69 2.75-5.948 6.25c0 0 1.293-17.5 3.879-21.25 0 0-4.138.5-8.793 20 0 0-.776-22.5 6.207-29 0 0-9.57 7.5-10.345 23.75V331h9.828zM203.138 331L199 319.947s4.552 2.171 4.759 4.935c0 0-1.035-13.816-3.104-16.777 0 0 3.31.395 7.035 15.79 0 0 .62-17.763-4.966-22.895 0 0 7.655 5.921 8.276 18.75V331h-7.862z"/>
        <path fill="#2F2E41" d="M0 330H400V331H0z"/>
    </g>
</svg>
