<svg xmlns="http://www.w3.org/2000/svg" width="586" height="293" viewBox="0 0 586 293">
    <g fill="none">
        <path fill="#3F3D56" d="M458.27 54.96H314.411V52h-65.23v2.96H104.73c-2.58 0-5.056 1.023-6.88 2.844C96.024 59.626 95 62.096 95 64.672v196.615c0 5.365 4.357 9.713 9.73 9.713h353.54c5.373 0 9.73-4.349 9.73-9.713V64.672c0-2.576-1.025-5.046-2.85-6.868-1.825-1.821-4.3-2.845-6.88-2.845z"/>
        <path fill="#000" d="M108 72H455V268H108z" opacity=".1"/>
        <circle cx="281.5" cy="63.5" r="3.5" fill="#418CD2"/>
        <path fill="#3F3D56" d="M477.397 264.887h-33.841v-2.41c0-.126-.051-.248-.142-.337-.09-.09-.214-.14-.342-.14H431.47c-.128 0-.25.05-.342.14-.09.09-.141.211-.141.338v2.409h-7.252v-2.41c0-.126-.05-.248-.142-.337-.09-.09-.213-.14-.341-.14h-11.603c-.128 0-.251.05-.342.14-.09.09-.142.211-.142.338v2.409h-7.251v-2.41c0-.126-.051-.248-.142-.337-.09-.09-.214-.14-.342-.14h-11.603c-.128 0-.25.05-.342.14-.09.09-.141.211-.141.338v2.409h-7.252v-2.41c0-.126-.05-.248-.142-.337-.09-.09-.213-.14-.341-.14h-11.603c-.128 0-.251.05-.342.14-.09.09-.142.211-.142.338v2.409h-7.251v-2.41c0-.126-.051-.248-.142-.337-.09-.09-.214-.14-.342-.14h-11.603c-.128 0-.251.05-.342.14-.09.09-.141.211-.141.338v2.409h-7.252v-2.41c0-.126-.05-.248-.142-.337-.09-.09-.213-.14-.341-.14h-11.603c-.129 0-.251.05-.342.14-.09.09-.142.211-.142.338v2.409h-7.252v-2.41c0-.126-.05-.248-.141-.337-.09-.09-.214-.14-.342-.14h-90.889c-.128 0-.251.05-.342.14-.09.09-.141.211-.141.338v2.409h-7.252v-2.41c0-.126-.051-.248-.142-.337-.09-.09-.213-.14-.342-.14h-11.602c-.129 0-.252.05-.342.14-.09.09-.142.211-.142.338v2.409h-7.252v-2.41c0-.126-.05-.248-.141-.337-.09-.09-.214-.14-.342-.14H193.61c-.128 0-.251.05-.342.14-.09.09-.141.211-.141.338v2.409h-7.252v-2.41c0-.126-.051-.248-.142-.337-.09-.09-.213-.14-.342-.14H173.79c-.129 0-.252.05-.342.14-.09.09-.142.211-.142.338v2.409h-7.252v-2.41c0-.126-.05-.248-.141-.337-.09-.09-.214-.14-.342-.14h-11.603c-.128 0-.251.05-.342.14-.09.09-.141.211-.141.338v2.409h-7.252v-2.41c0-.126-.051-.248-.142-.337-.09-.09-.213-.14-.342-.14h-11.602c-.129 0-.252.05-.342.14-.09.09-.142.211-.142.338v2.409h-7.252v-2.41c0-.126-.05-.248-.141-.337-.09-.09-.214-.14-.342-.14h-11.603c-.128 0-.251.05-.342.14-.09.09-.141.211-.141.338v2.409h-22.24C85.196 264.887 80 270.02 80 276.35v5.184C80 287.867 85.195 293 91.603 293h385.794c6.408 0 11.603-5.133 11.603-11.465v-5.184c0-6.331-5.195-11.464-11.603-11.464z"/>
        <path fill="#418CD2" d="M211 94H351V242H211z"/>
        <path fill="#2F2E41" d="M285.49 87.963s-12.018-4.303-19.745 12.908C258.02 118.08 246 137.013 246 137.013l6.868 1.721s1.717-12.047 6.01-13.768l-1.718 15.49s51.51 18.07 74.69-1.722l-.86-6.024s3.435.86 3.435 6.024l2.575-2.582s-2.575-5.163-10.302-12.047c-5.071-4.518-6.814-13.115-7.413-18.49-.448-4.487-2.24-8.734-5.139-12.184-5.134-5.965-14.49-12.304-28.655-5.468z"/>
        <path fill="#FFB9B9" d="M219.37 104l-5.063-51.918s-10.128-28.168 5.064-25.959c15.192 2.21 6.19 23.75 6.19 23.75L234 104h-14.63z"/>
        <circle cx="292" cy="123" r="20" fill="#FFB9B9"/>
        <path fill="#FFB9B9" d="M277.536 132s-1.116 22.782-6.697 24.45c-5.581 1.666-21.208 20.003-13.953 25.56 7.256 5.556 49.114 1.666 49.114 1.666l-3.907-28.894s-8.93-6.112-1.674-16.67L277.536 132z"/>
        <path fill="#3F3D56" d="M319.55 243H241c.283-5.02.994-12.108 1.905-19.9.278-2.363.573-4.798.878-7.255 2.694-21.658 6.288-45.441 6.288-45.441l.945-2.18 9.61-22.224.1.039 12.677 4.953.45 2.13 3.439 16.173 22.248-17.932 20.526-3.205 1.39-.217 2.499 23.572s-.111 5.27-.228 12.773c-.133 8.625-.277 20.206-.266 30.128.005 4.742.044 9.107.139 12.59.077 2.934.194 5.247.355 6.628.372 3.145-1.605 6.412-4.405 9.368z"/>
        <path fill="#3F3D56" d="M261 148.889L260.452 145.556 245.119 126.667 236.357 95 215 103.333 230.333 141.667 252.238 170z"/>
        <path fill="#2F2E41" d="M265.86 126s6.877-9.333 12.895-11.03c6.017-1.697 6.877-10.182 6.877-10.182s15.474 16.97 24.93 17.818c9.456.849.86-20.364.86-20.364L294.229 98l-16.334 1.697L265 108.182l.86 17.818z"/>
        <path fill="#FFB9B9" d="M320.063 224.357l-52.6 2.11s-28.983 6.711-25.106-7.952c3.877-14.662 24.176-3.35 24.176-3.35L321 213.09l-.937 11.266z"/>
        <path fill="#3F3D56" d="M314.28 152.444l4.928-3.86s8.212-4.413 9.855 11.03c1.642 15.442 13.688 66.731 1.642 67.283C318.66 227.448 288 228 288 228l3.285-17.097 25.185-1.654-2.19-56.805z"/>
        <path fill="#000" d="M316 176L314.34 207.091 290 212 312.128 203.273z" opacity=".15"/>
        <path fill="#418CD2" d="M159 0H294V35H159z"/>
        <path fill="#3F3D56" d="M0 292H586V293H0z"/>
        <path fill="#418CD2" d="M529.578 253.858C537.586 262.418 538 275 538 275s-12.57-1.297-20.578-9.858C509.414 256.582 509 244 509 244s12.57 1.297 20.578 9.858z"/>
        <path fill="#418CD2" d="M554.142 266.578C545.582 274.586 533 275 533 275s1.297-12.57 9.858-20.578C551.418 246.414 564 246 564 246s-1.297 12.57-9.858 20.578z"/>
        <path fill="#3F3D56" d="M552.049 292H520.95c-1.217 0-2.327-.685-2.86-1.765l-6.77-13.726c-.48-.972-.418-2.12.163-3.036.582-.916 1.6-1.473 2.697-1.473h44.638c1.097 0 2.115.557 2.697 1.473.581.917.643 2.064.163 3.036l-6.77 13.726c-.533 1.08-1.643 1.765-2.86 1.765z"/>
        <path fill="#418CD2" d="M33.578 253.858C41.586 262.418 42 275 42 275s-12.57-1.297-20.578-9.858C13.414 256.582 13 244 13 244s12.57 1.297 20.578 9.858z"/>
        <path fill="#3F3D56" d="M51.049 292H19.95c-1.217 0-2.327-.685-2.86-1.765l-6.77-13.726c-.48-.972-.418-2.12.163-3.036.582-.916 1.6-1.473 2.697-1.473h44.638c1.097 0 2.115.557 2.697 1.473.581.917.643 2.064.163 3.036l-6.77 13.726c-.533 1.08-1.643 1.765-2.86 1.765z"/>
        <path fill="#FFF" d="M176 14H277V21H176z"/>
    </g>
</svg>
