<svg xmlns="http://www.w3.org/2000/svg" width="493" height="334" viewBox="0 0 493 334">
    <g fill="none">
        <path fill="#2F2E41" d="M492.348 274.987L30.666 274.987 30.666 273.639 491.675 273.639zM79.209 16.1c16.828 0 30.47 15.14 30.47 33.815v23.727h-7.298l-4.224-8.79 1.056 8.79H52.308l-3.841-7.992.96 7.992h-5.28v-18.63c0-21.49 15.697-38.912 35.062-38.912z"/>
        <path fill="#A0616A" d="M130.923 58.42l-7.938-27.314s-5.256-17-14.01-16.619c-8.753.382 5.363 20.628 5.363 20.628l6.12 16.599 1.31 6.222 9.155.483zM98.402 120.98l7.414 15.503-29.655 20.22-15.502-13.48s1.348-9.436-2.696-12.806c-4.044-3.37 40.44-9.436 40.44-9.436zM90.314 59.648s-10.11 14.828-8.761 16.85c1.347 2.022-23.59-4.044-23.59-4.044s12.806-16.85 12.806-21.568l19.545 8.762z"/>
        <path fill="#000" d="M90.314 59.648s-10.11 14.828-8.761 16.85c1.347 2.022-23.59-4.044-23.59-4.044s12.806-16.85 12.806-21.568l19.545 8.762z" opacity=".2"/>
        <circle cx="83.813" cy="45.748" r="15.85" fill="#A0616A"/>
        <path fill="#3F3D56" d="M62.68 59.648l23.59 9.436v5.392s14.828-2.022 18.198 0c3.37 2.022 8.762 16.85 8.762 16.85s13.48 20.219 8.762 22.241c-4.718 2.022-13.48 4.044-16.85 8.762-3.37 4.718-28.981 5.392-28.981 5.392s-9.436 2.696-13.48 6.74c-4.044 4.044-12.132 0-12.132 0l-4.044-65.377 12.806-4.044 3.37-5.392z"/>
        <path fill="#3F3D56" d="M101.098 77.172l7.414-2.022s11.458-2.022 11.458-3.37c0-1.348-1.348-2.696 0-2.696s4.044 0 2.696-2.022c-1.348-2.022.674-5.392-2.022-6.74-2.696-1.348-4.718-2.022-3.37-2.696 1.348-.674-3.37-11.458-3.37-11.458l4.044-2.022 4.718 7.414.674-10.11 7.414-1.348 2.696 12.132s13.48 17.524 4.044 26.96c-9.436 9.435-27.634 16.85-27.634 16.85l-8.762-18.872z"/>
        <path fill="#2F2E41" d="M101.098 133.113l4.718-2.696s16.85 19.545 16.85 78.856c0 59.311-3.37 86.27-5.392 85.597-2.022-.674-13.48 4.044-15.502 2.022C99.75 294.87 86.27 196.468 86.27 196.468S43.81 298.24 37.07 298.24c-6.74 0-17.524-2.022-17.524-6.066 0-4.044 20.22-57.963 20.22-57.963s12.805-94.358 18.87-95.032l2.175-1.324 16.024 10.76 24.263-15.502z"/>
        <path fill="#2F2E41" d="M105.816 294.87h6.066s5.392 5.392 7.414 18.197c2.022 12.806 4.044 20.894-4.718 20.894s-14.154-2.022-13.48-6.74c.674-4.718-1.348-6.74-1.348-6.74s-3.37-6.066-2.696-9.436c.674-3.37 2.696-14.153 2.696-14.153l6.066-2.022zM36.395 296.218s6.74 17.523 2.022 21.567c-4.718 4.044-6.74 4.718-6.74 4.718s-6.74 1.348-7.413 3.37c-.674 2.022-10.11 9.436-18.872 5.392s-3.37-12.806-3.37-12.806l20.22-24.937s7.413 1.348 7.413 2.696 6.74 0 6.74 0z"/>
        <path fill="#A0616A" d="M71.393 151.17c1.774-1.639 3.97-2.75 6.34-3.21l-.676 3.177c-.193.905-.383 1.866-.072 2.737.545 1.524 2.331 2.136 3.896 2.548 1.768.466 3.784 1.14 4.43 2.85.551 1.46-.155 3.086-1.015 4.388-.808 1.223-1.763 2.342-2.842 3.334-1.955 1.794-4.642 3.199-7.2 2.491-.762-.256-1.504-.572-2.217-.945-1.83-.836-3.82-1.294-5.62-2.195-3.673-1.84-6.2-5.319-8.578-8.669-.314-.337-.475-.788-.446-1.248.057-.204.155-.395.288-.561 1.376-1.94 4.317-5.63 6.555-3.119.704.79 1.254 1.589 2.421 1.594 2 .01 3.422-1.952 4.736-3.172z"/>
        <path fill="#3F3D56" d="M51.223 70.432l-4.718-1.348s-8.762 0-11.458 13.48c-2.696 13.48-6.066 55.94-2.696 62.68 3.37 6.74 20.22 20.894 20.22 20.894l13.48-12.806-8.088-8.088s-2.022.674-2.022-2.022c0-2.696 2.696-1.348 0-2.696-2.696-1.347-2.022.674-2.696-1.348-.674-2.022-2.022-68.746-2.022-68.746z"/>
        <path fill="#2F2E41" d="M70.012 26.348c2.725-3.51 6.745-5.732 11.232-5.732h.533c10.275 0 18.604 9.298 18.604 20.767H96.94l-.556-4.232-.816 4.232h-20.42l-1.71-3.58.428 3.58h-4.017c-1.875 9.31.819 18.619 8.08 27.928h-6.843l-3.422-7.161.856 7.161H55.474l-2.566-16.47c0-12.335 7.167-22.795 17.104-26.493z"/>
        <path fill="#3F3D56" d="M275.324 0c-46.458 0-84.248 37.79-84.248 84.249-.014 11.892 2.504 23.65 7.387 34.494 13.203 29.305 42.683 49.754 76.861 49.754 46.519-.026 84.223-37.73 84.249-84.248C359.573 37.79 321.775 0 275.324 0zm69.704 118.116c-12.98 26.677-40.037 43.617-69.704 43.641-32.843 0-60.982-20.536-72.245-49.444-3.49-8.944-5.275-18.463-5.264-28.064 0-42.738 34.772-77.51 77.51-77.51 42.737 0 77.508 34.772 77.508 77.51.014 11.736-2.655 23.32-7.805 33.867z"/>
        <path fill="#E6E6E6" d="M349.099 124.897c-14.82 26.88-43.08 43.581-73.775 43.6-34.178 0-63.658-20.449-76.861-49.754 1.449-2.217 2.987-4.36 4.616-6.43 11.263 28.908 39.402 49.444 72.245 49.444 29.667-.024 56.724-16.964 69.704-43.64 1.456 2.19 2.813 4.45 4.07 6.78z"/>
        <path fill="#FFF" d="M256.335 91.954c4.722-.03 8.807 3.282 9.752 7.91.946 4.626-1.513 9.276-5.87 11.1-4.355 1.823-9.393.312-12.026-3.608-2.633-3.92-2.127-9.155 1.209-12.498 1.83-1.856 4.328-2.901 6.935-2.904m0-4.212c-7.756-.004-14.047 6.28-14.051 14.036-.005 7.756 6.28 14.048 14.036 14.052 7.756.004 14.047-6.28 14.051-14.037-.016-7.748-6.288-14.027-14.036-14.051zm29.261-20.084c1.28.006 2.507-.5 3.412-1.403.904-.905 1.41-2.133 1.403-3.412.012-1.272-.488-2.496-1.388-3.396-.9-.9-2.124-1.4-3.397-1.388-1.721-.016-3.32.891-4.188 2.378-.869 1.487-.875 3.325-.015 4.817.859 1.492 2.452 2.409 4.173 2.404zm10.065 24.296c4.722-.03 8.807 3.282 9.752 7.91.946 4.626-1.513 9.276-5.87 11.1-4.355 1.823-9.393.312-12.026-3.608-2.633-3.92-2.127-9.155 1.209-12.498 1.83-1.856 4.328-2.901 6.935-2.904m0-4.212c-5.677 0-10.795 3.42-12.968 8.665-2.172 5.245-.972 11.282 3.043 15.296 4.014 4.015 10.052 5.216 15.297 3.043 5.245-2.172 8.664-7.29 8.664-12.968-.024-7.742-6.294-14.012-14.036-14.036z"/>
        <path fill="#FFF" d="M292.848 77.316h-7.222l-4.438-9.042c-.726-1.285-2.013-2.155-3.476-2.35-1.463-.196-2.933.307-3.97 1.357l-10.787 10.396c-.883.901-1.385 2.108-1.4 3.37 0 2.618 1.896 3.55 2.784 4.077 6.845 3.942 9.252 4.378 9.252 6.349v9.914c0 1.33 1.078 2.407 2.407 2.407 1.33 0 2.407-1.078 2.407-2.407v-13.54c0-1.986-4.573-3.61-7.266-5.717l7.356-7.748c2.814 4.288 4.108 7.748 5.717 7.748h8.636c1.33 0 2.407-1.077 2.407-2.407s-1.078-2.407-2.407-2.407zM209.495 207.95c-2.073 0-3.79 6.037-4.123 13.953H165.48c-.332-7.916-2.05-13.953-4.123-13.953-2.312 0-4.186 7.496-4.186 16.743 0 9.247 1.874 16.744 4.186 16.744 2.074 0 3.79-6.037 4.123-13.953h39.892c.333 7.916 2.05 13.953 4.123 13.953 2.312 0 4.186-7.497 4.186-16.744s-1.874-16.743-4.186-16.743z"/>
        <path fill="#3F3D56" d="M228.927 199.972c-12.233-21.924-38.852-31.342-62.15-21.988-23.299 9.353-36.016 34.563-29.692 58.86 6.323 24.296 29.717 40.108 54.62 36.916 24.901-3.191 43.552-24.392 43.544-49.497-.005-8.503-2.18-16.864-6.322-24.29zm-43.58 70.197c-25.329-.02-45.849-20.563-45.841-45.891.008-25.329 20.54-45.859 45.869-45.863 25.328-.004 45.868 20.52 45.884 45.848.06 12.194-4.758 23.907-13.381 32.529-8.624 8.622-20.337 13.439-32.531 13.377z"/>
        <path fill="#E6E6E6" d="M235.249 224.263c.009 18.311-10.017 35.155-26.117 43.879-16.1 8.723-35.686 7.922-51.021-2.085-.86-2.133-1.577-4.322-2.143-6.551 17.76 14.834 43.789 14.12 60.71-1.667 16.92-15.786 19.435-41.702 5.866-60.448 2.183.716 4.316 1.578 6.383 2.581 4.155 7.421 6.332 15.786 6.322 24.29z"/>
        <path fill="#3F3D56" d="M365.302 174.36c-17.829 0-34.303 9.512-43.217 24.952-8.914 15.44-8.914 34.462 0 49.902 8.914 15.44 25.388 24.95 43.217 24.95.323 0 .64 0 .963-.013 27.367-.527 49.2-23.002 48.936-50.372-.264-27.37-22.528-49.42-49.9-49.418zm10.17 94.669c-17.188 3.903-35.092-2.378-46.074-16.164-10.983-13.785-13.103-32.64-5.457-48.521 7.646-15.88 23.708-25.981 41.334-25.993h.027c23.375-.002 43.02 17.562 45.626 40.792 2.605 23.23-12.66 44.709-35.456 49.886z"/>
        <path fill="#E6E6E6" d="M375.472 269.029c-2.885 2.019-5.97 3.735-9.207 5.122-.323.014-.64.014-.963.014-25.583 0-47.021-19.346-49.64-44.794-2.62-25.448 14.43-48.755 39.476-53.966 3.471.63 6.868 1.617 10.137 2.946-17.625.013-33.685 10.114-41.33 25.994-7.646 15.88-5.525 34.734 5.456 48.519 10.98 13.785 28.884 20.067 46.071 16.165z"/>
        <path fill="#FFF" d="M389.92 222.141c-2.733-.137-5.222 1.562-6.09 4.157h-4.914l-3.588-10.79c-.273-.829-1.047-1.39-1.92-1.39h-.038c-.887.014-1.659.611-1.895 1.466l-5.622 19.62-6.607-39.682c-.158-.946-.958-1.653-1.917-1.692-.96-.04-1.815.598-2.05 1.528l-6.696 30.94h-7.504c-1.117 0-2.022.905-2.022 2.02 0 1.117.905 2.022 2.022 2.022h9.096c.926.002 1.734-.63 1.958-1.528l4.725-23.019 6.48 38.899c.154.934.938 1.634 1.883 1.68h.114c.902-.001 1.695-.598 1.945-1.465l6.28-21.932 1.983 5.976c.277.826 1.049 1.384 1.92 1.39h6.456c1.069 2.83 4.062 4.44 7.014 3.772 2.952-.668 4.959-3.411 4.704-6.427-.256-3.016-2.695-5.382-5.717-5.545z"/>
    </g>
</svg>
