<svg xmlns="http://www.w3.org/2000/svg" width="505" height="322" viewBox="0 0 505 322">
    <g fill="none">
        <ellipse cx="123" cy="305.588" fill="#3F3D56" rx="123" ry="16"/>
        <path fill="#F2F2F2" d="M448.276 144.267H342.867l-55.41 89.678c16.64 10.31 35.834 15.76 55.41 15.73 58.216 0 105.409-47.193 105.409-105.408z"/>
        <circle cx="193.86" cy="267.618" r="28.009" fill="#3F3D56"/>
        <path fill="#FFB9B9" d="M141.25 63.838s1 10-2 14 7.5 29 7.5 29l15-28s-5-3-2-11.5l-18.5-3.5z"/>
        <path fill="#000" d="M141.25 63.838s1 10-2 14 7.5 29 7.5 29l15-28s-5-3-2-11.5l-18.5-3.5z" opacity=".1"/>
        <path fill="#FFB9B9" d="M186.25 114.338l.5 20.5-19 30.5-3.5-11.5 10.5-20.5s-3.5-9.5-2.5-15 14-4 14-4zM108.25 111.338l-.5 20.5 19 30.5 3.5-11.5-10.5-20.5s3.5-9.5 2.5-15-14-4-14-4z"/>
        <path fill="#2F2E41" d="M122.25 144.338l-2 5c-5.396 5.013-8.321 12.141-8 19.5l-6 62s-4 4.5-2.5 10c0 0-3.5 18.5-1.5 24.5 0 0-8.5 15.5.5 16.5s12 1 13-2.5 2.5-16.5 2.5-16.5l22-78 3.5 48.5s-3.5 13-2.5 16.5-7 28.5-3.5 31 13.5 3.5 14 1.5 1-14.5 1-14.5 5-11 6-14.5 2-23 2-23l9-57.5s2-15.5-3-18.5l-2-9-42.5-1z"/>
        <path fill="#2F2E41" d="M101.25 278.838l-2 10s-10.5 16.5-.5 16.5 11-5 11-5v-4.5s5-2.5 5-3-1.5-12.5-1.5-12.5l-12-1.5zM150.25 278.838l2 10s10.5 16.5.5 16.5-11-5-11-5v-4.5s-5-2.5-5-3 1.5-12.5 1.5-12.5l12-1.5z"/>
        <circle cx="152.352" cy="61.468" r="13.192" fill="#FFB9B9"/>
        <path fill="#D0CDE1" d="M147.75 96.338s-7.5-12.5-7-15.5c.308-1.719.3-3.48-.024-5.195l-4.476 2.695-18.5 8.5 7.5 25s-2 5.5-2 9.5 1 8.5 0 10-1.5 4-.5 6c.597 1.243.772 2.647.5 4 0 0-7 4-3 5 2.635.58 5.365.58 8 0 0 0 .5-1.5 4.5.5s25 2.5 25 2.5 13.5.5 13-1.5 2.5-25.5 2.5-25.5l7-33-16-10-5.168-4.563-1.332 7.063-10 14.5z"/>
        <path fill="#D0CDE1" d="M121.25 87.338h-3.5S100 108.588 105 112.088s22.25 6.25 22.25 6.25-1.5-31-6-31zM175.75 89.338h4.5s12 28 8 29-18.5 4-18.5 2.5 6-31.5 6-31.5z"/>
        <path fill="#2F2E41" d="M139.26 61.397s-1.431-2.146-.881-4.459c.329-1.312.459-2.667.385-4.018.616-2.003 1.39-3.954 2.312-5.835 1.156-2.092.606-2.973 4.24-3.633 3.632-.66 2.146-5.395 11.724-.276.661.923 1.812 1.357 2.918 1.101 1.982-.385 2.697 2.367 2.697 2.367s1.322-.77 1.817.33c.495 1.102 4.028-.66 4.028 6.771 0 7.432-4.02 14.07-4.02 14.07s.295-12.5-6.256-13.767c-6.55-1.266-13.597-4.954-15.303-.22-.922 2.657-2.15 5.198-3.661 7.57z"/>
        <path fill="#3F3D56" d="M339.294 239.903c-19.667.016-38.949-5.458-55.674-15.806l-.425-.263.263-.425 55.558-89.915h106.187v.5c0 58.398-47.51 105.909-105.909 105.909zm-54.722-16.394c16.471 10.082 35.41 15.41 54.722 15.394 57.681 0 104.639-46.79 104.908-104.41H339.573l-55.001 89.016z"/>
        <path fill="#F2F2F2" d="M212 129.08c-.017 36.542 18.905 70.482 49.998 89.68l55.41-89.68-91.534-52.304c-9.118 15.922-13.902 33.957-13.874 52.305z"/>
        <path fill="#3F3D56" d="M270.646 215.874l-.425-.263c-48.546-30.016-64.592-93.09-36.294-142.657l.248-.433 92.417 52.81-55.946 90.543zM234.548 73.885c-27.606 48.894-11.842 110.855 35.774 140.611l54.876-88.811-90.65-51.8z"/>
        <path fill="#2F2E41" d="M369.834 10.057L347.11 113.002H452.52c0-50.413-35.393-92.553-82.685-102.945z"/>
        <path fill="#3F3D56" d="M445.203 119.308H338.672l22.965-104.04.488.107c48.524 10.725 83.072 53.737 83.078 103.433v.5zm-105.286-1h104.285c-.235-48.515-34.535-91.22-81.804-101.848l-22.481 101.848z"/>
        <path fill="#F2F2F2" d="M324.555 0c-37.832-.015-72.769 20.253-91.534 53.103l91.534 52.306L347.279 2.464C339.815.824 332.195-.002 324.555 0z"/>
        <path fill="#3F3D56" d="M329.363 114.666l-92.558-52.89.248-.435c23.03-40.23 69.525-60.837 114.8-50.88l.488.108-22.978 104.097zm-91.192-53.262l90.509 51.72 22.469-101.792c-44.533-9.573-90.16 10.65-112.978 50.072zM383.876 84.313L383.149 83.626 438.01 25.405 482.668 25.405 482.668 26.405 438.442 26.405z"/>
        <path fill="#FFF" d="M452.296 33.052H505V34.839H452.296zM452.296 40.645H505V42.432H452.296zM452.296 48.238H505V50.025H452.296zM434.296 254.052H487V255.839H434.296zM434.296 261.645H487V263.43199999999996H434.296zM434.296 269.238H487V271.025H434.296z"/>
        <path fill="#3F3D56" d="M464.5 245.088L411.738 245.088 411.589 244.871 370.589 185.371 371.411 184.804 412.262 244.088 464.5 244.088z"/>
        <path fill="#2F2E41" d="M28.58 281.325c-1.665 14.595 7.308 27.605 7.308 27.605s11.673-10.654 13.339-25.249c1.665-14.595-7.307-27.605-7.307-27.605s-11.674 10.654-13.34 25.249z"/>
        <path fill="#3564B1" d="M34.944 280.572c6.004 13.407 1.388 28.522 1.388 28.522s-14.35-6.623-20.353-20.03c-6.004-13.407-1.388-28.522-1.388-28.522s14.35 6.623 20.353 20.03z"/>
    </g>
</svg>
