<svg xmlns="http://www.w3.org/2000/svg" width="368" height="337" viewBox="0 0 368 337">
    <g fill="none">
        <path fill="#F2F2F2" d="M342.824 200c14.893-37.533 11.521-79.85-9.126-114.552l-208.051 28.798 199.38-41.539C300.44 40.708 262.36 21.967 222 22 150.203 22 92 80.185 92 151.96c0 5.932.406 11.857 1.21 17.734L342.824 200zM101 199c18.804 48.554 66.063 83 121.398 83 51.924 0 96.737-30.33 117.602-74.186L101 199z"/>
        <path fill="#418CD2" d="M337 244.236C337 295.47 261.558 337 168.5 337c-49.993 0-94.901-11.984-125.757-31.024-20.133-12.418-34.287-27.843-39.965-44.888C.945 255.658.007 249.968 0 244.236c0-51.228 139.635-282.314 168.5-92.758 28.865 189.556 168.5 41.53 168.5 92.758z"/>
        <path fill="#000" d="M252 277c0 18.776-59.554 34-133.022 34-28.296 0-54.528-2.258-76.087-6.11C22.795 292.564 8.667 277.254 3 260.335 25.807 249.988 69.2 243 118.978 243 192.446 243 252 258.224 252 277z" opacity=".1"/>
        <path fill="#2F2E41" d="M155.954 82.806c-10.491-17.904-31.247-18.738-31.247-18.738s-20.225-2.613-33.2 24.656c-12.093 25.417-28.783 49.957-2.687 55.907l4.714-14.818 2.92 15.921c3.715.27 7.442.335 11.165.193 27.947-.911 54.563.267 53.706-9.863-1.14-13.465 4.724-36.03-5.371-53.258zM86.287 238.468c-.394 1.967-.685 3.967-1.353 5.857-.664 1.877-1.688 3.612-2.295 5.508-1.934 6.044.747 12.782 5.03 17.447 3.713 4.03 8.507 6.892 13.803 8.243 3.863.977 7.88 1.118 11.861 1.254 11.025.375 22.334.712 32.78-2.851 3.3-1.154 6.489-2.61 9.524-4.351.958-.46 1.802-1.128 2.47-1.957.798-1.14.9-2.62.893-4.014-.024-4.7-.971-9.376-.746-14.071.124-2.6.608-5.199.37-7.791-.54-5.88-5.183-11.142-10.923-12.381-2.963-.64-6.037-.292-9.054 0-7.832.757-15.697 1.11-23.564 1.06-8.039-.052-16.028-1.286-24.027-1.415-2.365-.038-2.317.696-3.07 2.998-.694 2.119-1.261 4.277-1.7 6.464z"/>
        <path fill="#A0616A" d="M109.655 123.514c-.388 1.997-.808 4.068-2.03 5.71-1.405 1.888-3.696 2.968-5.209 4.775-2.275 2.72-2.406 6.55-2.415 10.071-.01 3.245.058 6.705 1.9 9.399 1.194 1.747 3.012 2.973 4.79 4.15 6.904 4.572 14.366 9.227 22.69 9.378 3.45.062 7.149-.813 9.419-3.366.98-1.2 1.75-2.55 2.28-3.998 2.128-5.156 3.419-10.61 3.824-16.16.19-2.611.171-5.298-.728-7.763-1.012-2.77-3.057-5.05-4.408-7.678-1.598-3.124-2.182-6.654-1.674-10.114.067-.244.046-.503-.06-.733-.225-.25-.556-.382-.895-.357l-16.507-1.168c-1.537-.075-3.068-.247-4.583-.515-.89-.178-3.24-1.42-4.089-1.09-1.57.612-1.983 7.802-2.305 9.459z"/>
        <path fill="#000" d="M109.655 124.514c-.388 1.997-.808 4.068-2.03 5.71-1.405 1.888-3.696 2.968-5.209 4.775-2.275 2.72-2.406 6.55-2.415 10.071-.01 3.245.058 6.705 1.9 9.399 1.194 1.747 3.012 2.973 4.79 4.15 6.904 4.572 14.366 9.227 22.69 9.378 3.45.062 7.149-.813 9.419-3.366.98-1.2 1.75-2.55 2.28-3.998 2.128-5.156 3.419-10.61 3.824-16.16.19-2.611.171-5.298-.728-7.763-1.012-2.77-3.057-5.05-4.408-7.678-1.598-3.124-2.182-6.654-1.674-10.114.067-.244.046-.503-.06-.733-.225-.25-.556-.382-.895-.357l-16.507-1.168c-1.537-.075-3.068-.247-4.583-.515-.89-.178-3.24-1.42-4.089-1.09-1.57.612-1.983 7.802-2.305 9.459z" opacity=".1"/>
        <circle cx="125" cy="102" r="24" fill="#A0616A"/>
        <path fill="#D0CDE1" d="M112.732 155.99c1.259 1.304 2.594 2.596 4.244 3.361 1.641.761 3.49.95 5.302 1 4.356.122 9.078-.669 12.108-3.773 3.906-4.001 3.778-10.455 6.84-15.123.246-.423.583-.788.986-1.07.513-.276 1.094-.409 1.678-.382 3.867-.035 7.235 2.45 10.275 4.82 1.362 1.06 2.757 2.16 3.617 3.651.6 1.163 1.012 2.412 1.22 3.702 1.508 7.3 1.996 14.763 2.481 22.198.268 4.107.536 8.218.516 12.333-.066 13.559-3.245 26.89-6.407 40.082-.407 1.7-.965 3.6-2.524 4.413-.695.31-1.442.49-2.203.533-9.055 1.055-18.13 2.11-27.247 2.25-3.558.053-7.114-.032-10.669-.257-.611-.008-1.218-.113-1.797-.31-.785-.374-1.46-.942-1.96-1.65-4.93-6.16-5.222-14.675-5.19-22.538.077-19.226.77-38.435 2.079-57.63.108-1.584.132-3.508-1.02-4.755 2.074 3.291 4.958 6.334 7.67 9.144z"/>
        <path fill="#575A89" d="M108.358 128.136c-.818 1.461-6.845 5.09-8.008 6.301-6.501 6.767-18.366 6.513-24.312 13.761-2.092 2.55-3.178 5.754-3.978 8.94-1.13 4.505-1.734 9.418.16 13.666 1.822 4.088 5.658 6.913 8.263 10.565 2.86 4.009 4.145 8.876 5.377 13.627.91 3.507 1.827 7.102 1.473 10.706-.403 4.097-2.41 7.849-3.596 11.795-1.186 3.947-1.39 8.648 1.35 11.75 2.014 2.278 5.173 3.182 8.192 3.69 3.854.648 7.77.833 11.675 1.003 3.452.151 7.256.18 9.91-2.005 2.093-1.724 3.002-4.521 3.12-7.21.118-2.69-.449-5.355-.804-8.024-.367-2.767-.509-5.558-.627-8.346-.531-12.51-.603-25.027-.217-37.553.08-2.606.177-5.244-.385-7.792-.74-3.35-2.574-6.345-4.104-9.424-3.037-6.11-4.474-12.047-4.004-18.839.463-6.704 3.424-11.81.515-6.61zM141.363 128.98c1.245 1.265 5.475 1.682 7.059 2.496 1.454.749 3.064 1.14 4.64 1.588 5.776 1.648 11.27 4.14 16.3 7.395 1.044.605 1.968 1.394 2.725 2.328.886 1.218 1.208 2.738 1.508 4.209.775 3.797 1.555 7.64 1.38 11.509-.185 4.107-1.436 8.085-2.678 12.009l-4.64 14.662c-3.462 10.944-6.947 21.996-7.922 33.422-.539 6.333-.3 12.707.714 18.983.102.63.188 1.354-.234 1.838-.306.3-.708.482-1.136.517-2.24.346-4.406-.782-6.435-1.781-6.2-3.05-12.818-5.19-19.644-6.354 2.667-3.81 4.725-8.004 6.101-12.433.782-2.812 1.397-5.667 1.844-8.55l2.158-12.34c.791-4.524 1.584-9.06 1.851-13.645.164-1.718.062-3.451-.3-5.14-.413-1.629-1.235-3.122-1.971-4.635-3.557-7.314-5.226-15.66-3.826-23.656.612-3.5 1.802-7.003 1.306-10.52-.477-3.382.019-6.01-.86-9.357-3.603-13.741-.282-4.924 2.06-2.545z"/>
        <path fill="#575A89" d="M75.772 159.846c-1.635 3.355-4.369 6.214-5.3 9.823-.361 1.686-.516 3.41-.461 5.134-.022 2.597-.037 5.247.77 7.72.52 1.59 1.364 3.058 1.973 4.619.848 2.18 1.226 4.51 1.11 6.843-.165 3.232-1.275 6.37-1.362 9.604-.136 5.087 2.243 9.87 4.565 14.411 1.183-2.897 3.599-5.13 6.602-6.101 3.002-.972 6.285-.584 8.972 1.06.612-.56.678-1.478.702-2.302.171-5.902.337-11.804.496-17.706.252-9.128.491-18.378-1.632-27.264-.96-4.013-2.451-8.01-5.186-11.122-1.44-1.638-6.33-5.955-8.693-4.119-1.063.826-.815 3.073-.983 4.21-.255 1.8-.785 3.55-1.573 5.19zM175.165 150.553c.767 2.372.812 4.907.828 7.398.03 5.083-.037 10.164-.204 15.246-.085 2.6-.203 5.238-.996 7.718-.524 1.636-1.332 3.17-1.872 4.8-1.62 4.885-.735 10.184-.596 15.326.098 1.664-.045 3.334-.425 4.957-.855 3.188-3.152 5.764-4.756 8.652-1.523 2.744-2.442 5.818-4.261 8.377-1.82 2.56-4.968 4.587-8.02 3.802-2.313-.596-3.957-2.63-5.093-4.718-2.48-4.59-3.329-9.879-2.408-15.008 1.141-6.241 4.83-11.778 6.16-17.982 1.828-8.519-.949-17.31-.866-26.02-.038-1.365.148-2.728.552-4.033.697-1.99 2.196-3.579 3.581-5.174 1.73-1.994 3.338-4.09 4.813-6.277.992-1.47 2.338-5.248 4.096-5.562 3.923-.701 8.493 5.485 9.467 8.498z"/>
        <path fill="#2F2E41" d="M55.196 234.714c-2.16-.54-4.384-.776-6.61-.7-4.73.26-9.118 2.534-12.05 6.241-2.93 3.707-4.12 8.49-3.265 13.132.46 2.498 1.492 4.852 2.619 7.13 1.753 3.544 3.855 7.08 7.1 9.35 1.898 1.329 4.096 2.157 6.266 2.972l17.092 6.414c2.514.943 5.029 1.887 7.568 2.762 12.757 4.393 26.056 7.026 39.53 7.829 4.104.243 8.27.31 12.273-.62.95-.22 1.964-.55 2.514-1.353.326-.565.518-1.197.561-1.848l1.052-7.334c.148-1.033.29-2.12-.09-3.092-.481-1.233-1.689-2.008-2.84-2.667-11.236-6.43-24.356-9.976-33.814-18.8-2.226-2.077-4.09-5.37-6.795-6.78-3.067-1.6-6.68-2.514-9.85-3.988-6.933-3.224-13.748-6.928-21.26-8.648z"/>
        <path fill="#000" d="M72.553 244.67c5.962 1.868 31.133 14.809 35.447 19.327-.578.208-20.2-10.786-20.788-10.963-5.352-1.606-10.734-3.223-15.816-5.573-1.022-.473-6.642-2.695-6.388-3.985.288-1.456 6.487.862 7.545 1.194z" opacity=".1"/>
        <path fill="#A0616A" d="M147.732 293.988c.343.026.682-.077.956-.288.243-.32.351-.726.3-1.128l-.029-10.262c-2.88-1.406-6.1-1.856-9.263-2.29L124.943 278c.34.046-2.306 6.511-1.9 7.374.714 1.521 6.178 2.87 7.72 3.588 5.361 2.496 10.932 5.241 16.97 5.026z"/>
        <path fill="#A0616A" d="M101.148 282.092c-2.803.438-5.93.824-7.746 2.962-2.302 2.711-1.322 6.753-.224 10.112.163.68.49 1.31.955 1.84.75.724 1.898.83 2.948.895 2.556.16 5.276.283 7.51-.945 1.057-.582 1.931-1.432 2.917-2.125 1.647-1.074 3.457-1.885 5.363-2.403 3.504-1.08 7.111-1.809 10.766-2.174 1.433-.143 2.894-.235 4.241-.733 1.348-.497 2.595-1.483 2.987-2.841.517-1.795-.547-3.624-1.568-5.198-1.271-1.96-2.618-4.025-4.514-5.468-2.766-2.105-4.134-.49-6.92.858-5.274 2.55-10.908 4.31-16.715 5.22z"/>
        <path fill="#2F2E41" d="M94.014 285.48l-17.857-5.21c-2.172-.633-4.38-1.272-6.645-1.27-2.264.002-4.634.734-6.102 2.436-1.385 1.604-1.781 3.796-2.127 5.875l-.738 4.448c-.375 2.26-.751 4.565-.413 6.83.337 2.267 1.51 4.531 3.547 5.628 2.47 1.33 5.5.68 8.257.124 5.57-1.123 11.237-1.723 16.922-1.79 2.137-.026 4.379 0 6.268-.987 2.245-1.175 3.588-3.658 3.819-6.155.351-3.8-.932-8.763-4.931-9.93zM154.472 280.557c2.286-.403 4.302-1.71 6.492-2.481 3.083-1.086 6.423-1.086 9.689-1.074 1.199.005 2.476.032 3.473.7 1.439.964 1.808 2.892 2.052 4.613l1.476 10.385c.278 1.954.554 3.96.12 5.884-.432 1.924-1.736 3.78-3.634 4.276-2.305.603-4.565-.879-6.742-1.852-5.44-2.433-11.764-1.81-17.437-3.629-1.053-.337-2.18-.853-2.61-1.878-.194-.576-.263-1.188-.203-1.794.098-3.338-.602-7.896.397-11.087.898-2.869 4.376-2.063 6.927-2.063z"/>
        <path fill="#2F2E41" d="M191.726 230.917c3.534-.881 7.198-1.13 10.82-.735 2.892.317 5.873 1.117 7.985 3.107 2.57 2.422 3.396 6.168 3.465 9.688.113 7.011-2.226 13.844-6.619 19.331-1.072 1.388-2.348 2.608-3.784 3.62-1.549.964-3.2 1.755-4.923 2.36l-38.217 14.982c-10.054 3.942-20.144 7.895-30.631 10.494-.58.278-1.247.312-1.852.094-.604-.218-1.095-.67-1.36-1.252-3.349-4.754-6.158-9.861-8.376-15.23-.214-.258-.287-.604-.196-.927.091-.322.334-.58.652-.69l27.031-15.439c1.937-1.105 3.894-2.227 5.502-3.768 1.168-1.125 2.125-2.449 2.825-3.909.56-1.163.612-3.908 1.328-4.768.7-.842 3.098-.909 4.205-1.24 1.561-.475 3.09-1.05 4.578-1.72 6.047-2.689 11.431-6.596 17.228-9.744 3.25-1.848 6.725-3.277 10.339-4.254z"/>
        <path fill="#000" d="M176.11 241.945c-4.615 3.471-10.59 6.662-15.163 10.224-1.56 1.216-27.58 15.865-27.947 17.811 4.267.72 31.445-18.322 35.333-20.222 3.889-1.9 7.336-4.58 10.752-7.239.87-.678 4.559-2.715 2.06-3.473-1.407-.426-3.996 2.206-5.036 2.9z" opacity=".1"/>
        <path fill="#3F3D56" d="M144.72 129h-40.995c-3.468 0-6.28 2.784-6.28 6.218v2.277H97v5.093h.445v3.564H97v3.056h.445v37.574c0 3.434 2.812 6.218 6.28 6.218h40.995c3.468 0 6.28-2.784 6.28-6.218v-51.564c0-3.434-2.812-6.218-6.28-6.218z"/>
        <path fill="#2F2E41" d="M151.017 80.645L130.386 70 101.895 74.355 96 100 110.674 99.444 114.773 90.022 114.773 99.289 121.544 99.032 125.474 84.032 127.93 100 152 99.516z"/>
        <path fill="#A0616A" d="M81.036 227.478c1.004 1.524 2.182 3.015 3.796 3.837 2.017 1.027 4.507.843 6.526-.178 2.003-1.09 3.642-2.76 4.71-4.796 2.21-3.965 2.668-8.709 2.393-13.256-.276-4.548-1.232-9.026-1.655-13.562-.308-3.297-.333-6.614-.358-9.926-.005-.696.006-1.446.411-2.007.49-.68 1.386-.867 2.18-1.106 4.462-1.347 7.423-5.594 9.546-9.8 1.417-2.81 2.65-5.88 2.377-9.024-.274-3.144-2.499-6.311-5.59-6.632-2.549-.264-4.902 1.38-6.74 3.192-4.639 4.6-7.62 10.65-8.464 17.179-.403 3.197-.288 6.48-1.144 9.584-1.828 6.627-7.547 10.69-10.397 16.653-3.14 6.57-1.407 14.029 2.409 19.842zM166.11 201.593c-1.337 3.088-3.875 5.509-7.038 6.712-1.945.775-4.092.906-6.118.372-2.037-.561-3.695-2.032-4.483-3.979-.31-.967-.48-1.974-.505-2.989-.29-4.444-.178-9.024 1.449-13.175.627-1.601 1.473-3.12 1.968-4.766.565-1.877.655-3.858.742-5.815l.534-12.127c.089-.88.027-1.77-.181-2.63-.534-1.754-2.186-2.895-3.702-3.941-3.662-2.527-7.28-5.476-9.055-9.537-.543-1.243-.901-2.624-.626-3.95.5-2.409 2.95-3.968 5.37-4.493 3.2-.694 6.547-.061 9.265 1.752 2.719 1.814 4.573 4.65 5.134 7.853.24 1.369.236 2.767.376 4.149.297 2.931 1.235 5.757 1.822 8.646 1.445 7.114.696 14.469 2.125 21.582 1.195 5.948 5.7 9.829 2.924 16.336z"/>
        <circle cx="125" cy="151" r="5" fill="#D0CDE1"/>
        <path fill="#3F3D56" d="M340.5 157c-15.188 0-27.5 12.312-27.5 27.5s12.312 27.5 27.5 27.5 27.5-12.312 27.5-27.5c0-7.293-2.897-14.288-8.055-19.445-5.157-5.158-12.152-8.055-19.445-8.055zm13.59 20.525c.015.297.023.601.023.906 0 9.277-7.055 19.975-19.968 19.975-3.81.008-7.54-1.094-10.734-3.172.555.066 1.114.1 1.673.101 3.16.006 6.229-1.053 8.713-3.006-3.002-.056-5.636-2.015-6.555-4.874.434.087.876.131 1.319.13.623 0 1.244-.083 1.846-.246-3.274-.662-5.628-3.54-5.627-6.88v-.087c.975.548 2.069.848 3.187.876-3.088-2.058-4.043-6.162-2.18-9.372 3.556 4.39 8.813 7.057 14.456 7.337-.123-.525-.184-1.062-.181-1.6-.004-2.88 1.755-5.47 4.433-6.528 2.679-1.059 5.732-.371 7.698 1.733 1.572-.308 3.079-.883 4.454-1.702-.523 1.625-1.62 3.005-3.085 3.882 1.39-.169 2.747-.542 4.027-1.108-.94 1.41-2.125 2.64-3.498 3.635z"/>
        <circle cx="331" cy="81" r="5" fill="#3F3D56"/>
        <path fill="#3F3D56" d="M337 69h-12c-3.31.01-5.99 2.69-6 6v12c.01 3.31 2.69 5.99 6 6h12c3.31-.01 5.99-2.69 6-6V75c-.01-3.31-2.69-5.99-6-6zm-6 19.2c-3.976 0-7.2-3.224-7.2-7.2s3.224-7.2 7.2-7.2 7.2 3.224 7.2 7.2c-.001 3.976-3.224 7.199-7.2 7.2zm7.8-13.2c-.994 0-1.8-.806-1.8-1.8s.806-1.8 1.8-1.8 1.8.806 1.8 1.8c.001.478-.188.936-.526 1.274-.338.338-.796.527-1.274.526z"/>
        <path fill="#3F3D56" d="M331 52c-16.016 0-29 12.984-29 29s12.984 29 29 29 29-12.984 29-29c0-7.691-3.055-15.068-8.494-20.506C346.068 55.055 338.691 52 331 52zm14.978 34.853c-.014 4.719-3.835 8.54-8.554 8.555h-12.22c-4.719-.014-8.54-3.836-8.555-8.555v-12.22c.014-4.719 3.836-8.54 8.555-8.554h12.22c4.719.014 8.54 3.835 8.554 8.554v12.22zM214.5 0C198.76 0 186 12.76 186 28.5S198.76 57 214.5 57 243 44.24 243 28.5c0-7.559-3.003-14.808-8.347-20.153C229.308 3.003 222.059 0 214.5 0zm8.986 17.245h-3.648c-2.49 0-2.966 1.178-2.966 2.915v3.69h5.932l-.775 5.787h-5.157v15.71h-6.615v-15.71h-4.743v-5.788h4.743V19.57c0-5.126 3.556-7.916 8.134-7.916 2.191 0 4.548.165 5.095.237v5.354z"/>
    </g>
</svg>
