<?xml version="1.0" encoding="UTF-8"?>
<svg width="258px" height="178px" viewBox="0 0 258 178" version="1.1" xmlns="http://www.w3.org/2000/svg" xmlns:xlink="http://www.w3.org/1999/xlink">
    <!-- Generator: Sketch 63.1 (92452) - https://sketch.com -->
    <title>Group 3</title>
    <desc>Created with Sketch.</desc>
    <g id="Page-1" stroke="none" stroke-width="1" fill="none" fill-rule="evenodd">
        <g id="Real-Time-Reporting" transform="translate(-777.000000, -3733.000000)" fill-rule="nonzero">
            <g id="lead" transform="translate(76.000000, 3350.000000)">
                <g id="Group-3" transform="translate(701.000000, 383.000000)">
                    <path d="M112.959117,1.70159346 C124.567913,-2.18776847 138.700472,1.15722178 150.769303,6.03571864 C188.67458,21.3615188 216.289482,50.4541314 238.229773,80.0934321 C246.173716,90.8256619 253.719305,102.030453 256.705672,114.011263 C262.786348,138.396797 246.926733,163.641745 219.954336,172.488364 C210.781922,175.499781 200.70486,176.734463 190.612377,177.422456 C172.665903,178.647871 154.084633,178.161411 136.28208,173.623436 C123.586164,170.380371 111.576444,165.163669 100.057599,159.400278 C67.8886142,143.296143 38.5106754,122.383004 17.3568118,96.8369152 C8.07902692,85.6321244 0.230175092,73.0003849 0.00401302276,60.0721366 C-0.222149047,47.1438883 9.12502649,34.1530951 24.5040472,31.9547601 C30.8622854,31.0467018 37.588037,31.9918237 44.149307,32.9647433 C53.8100254,34.3986415 63.601815,35.9066669 73.1520224,35.2812186 C83.0183427,34.630289 95.8504701,31.1555762 97.6494866,22.6656944 C99.553874,13.5503643 101.365741,5.58632244 112.959117,1.70159346 Z" id="Path" fill="#FFFFFF" opacity="0.1"></path>
                    <g id="undraw_design_data_khdb" transform="translate(29.000000, 0.000000)">
                        <polyline id="Path" fill="#F2F2F2" points="96.5396 30.234 96.5396 56.034 145.7396 56.034"></polyline>
                        <polygon id="Path" fill="#3F3D56" points="152.9396 56.234 96.3396 56.234 96.3396 5.234 96.7396 5.234 96.7396 55.834 152.9396 55.834"></polygon>
                        <path d="M97.156934,56.29188 L96.799122,56.112974 C99.259278,51.190612 104.390722,47.698912 109.872364,47.217662 C110.818068,47.134556 111.808888,47.126354 112.76709,47.118444 C115.415138,47.09647 118.153224,47.073814 120.149708,45.454576 C121.627638,44.25604 122.34209,42.49315 123.098536,40.626744 C123.468578,39.6535217 123.901792,38.7055078 124.39541,37.788756 C126.335187,34.4723743 129.787131,32.3274448 133.61963,32.057116 C133.765724,32.048618 133.914746,32.043444 134.065918,32.041784 C134.388641,31.6105328 134.742726,31.2036675 135.125294,30.824498 C137.063574,28.907604 139.54541,27.65106 141.945606,26.435924 L142.51377,26.147838 C145.053614,24.855552 147.683888,23.406138 149.479982,21.160728 C151.760959,18.241063 152.423627,14.3712177 151.244044,10.85897 L151.621778,10.72733 C152.844956,14.3696195 152.157792,18.3827013 149.792482,21.41053 C147.946388,23.718244 145.274122,25.192268 142.69502,26.50428 L142.12627,26.792756 C139.753614,27.994026 137.300098,29.236114 135.406544,31.108868 C135.107533,31.4051329 134.826498,31.7190067 134.564944,32.04881 C136.825296,32.137678 139.454788,33.01004 140.932326,35.2701 C141.771339,36.6054516 142.009604,38.2322593 141.588772,39.75213 C141.232326,41.063946 140.438382,42.08338 139.35303,42.62273 C138.207132,43.192164 136.85283,43.17566 135.539554,42.57605 C133.991149,41.873756 132.829859,40.5261558 132.363976,38.891002 C131.759288,36.553306 132.555576,34.240122 133.774328,32.44979 C133.730579,32.451646 133.686698,32.4538927 133.642686,32.45653 C129.945075,32.7173485 126.61462,34.7867699 124.743086,37.986412 C124.258497,38.8880278 123.833055,39.8202028 123.469452,40.777036 C122.72707,42.608286 121.959686,44.501836 120.401678,45.765318 C118.2966,47.472642 115.487226,47.495884 112.770428,47.518444 C111.820038,47.526354 110.837228,47.534458 109.907538,47.6161 C104.561036,48.085534 99.556348,51.491002 97.156934,56.29188 Z M134.268262,32.440904 C133.01377,34.179576 132.153028,36.4786 132.751074,38.790806 C133.185801,40.3098012 134.266257,41.5609184 135.705762,42.212194 C136.90713,42.760534 138.139362,42.779194 139.174902,42.264536 C140.156544,41.776736 140.87666,40.847252 141.202832,39.647252 C141.58538,38.237159 141.366225,36.7315732 140.59756,35.489052 C139.377246,33.622456 136.938576,32.462974 134.268262,32.440904 Z" id="Shape" fill="#3F3D56"></path>
                        <circle id="Oval" fill="#418CD2" cx="124.13955" cy="38.634068" r="3.6"></circle>
                        <path d="M86.593652,104.024498 L0,104.024498 L0,62.834068 L86.593652,62.834068 L86.593652,104.024498 Z M0.4,103.624498 L86.193652,103.624498 L86.193652,63.234068 L0.4,63.234068 L0.4,103.624498 Z" id="Shape" fill="#3F3D56"></path>
                        <rect id="Rectangle" fill="#3F3D56" x="64.53955" y="135.034068" width="133" height="1"></rect>
                        <path d="M166.469776,46.499656 L164.82503,54.723396 C164.82503,54.723396 162.710354,59.422674 163.65021,62.71217 L164.355102,64.121954 L168.819416,60.127566 L170.464164,49.08426 L166.469776,46.499656 Z" id="Path" fill="#A0616A"></path>
                        <polygon id="Path" fill="#A0616A" points="157.3062 122.628 154.7216 132.4964 157.7762 133.9062 160.5956 131.5566 162.2404 124.0378"></polygon>
                        <polygon id="Path" fill="#A0616A" points="191.9634 118.751 193.2556 132.9664 199.8346 132.9664 196.6626 117.3412"></polygon>
                        <path d="M181.742434,66.471592 L183.073588,59.96331 L167.644588,56.36814 L164.355094,61.53734 C164.355094,61.53734 158.715976,70.465978 157.306176,97.721798 C155.896376,124.977618 155.42647,124.742656 155.42647,124.742656 L166.939704,125.917476 L172.813804,87.853314 L187.381576,122.627978 L198.424876,119.573456 L184.562002,77.749856 C184.562002,77.749856 185.501858,71.640798 181.742434,66.471592 Z" id="Path" fill="#2F2E41"></path>
                        <path d="M158.011074,130.38179 L156.366326,132.026536 L155.42647,131.086682 L155.939552,127.634068 L153.311794,129.20697 C153.311794,129.20697 148.612516,128.502078 149.082444,133.43632 C149.082444,133.43632 148.377552,135.081068 152.37194,136.96078 C156.366328,138.840492 158.481002,140.015312 158.481002,140.015312 C158.481002,140.015312 162.240426,139.780348 162.240426,138.605528 C162.240426,137.430708 161.055756,129.453394 161.055756,129.453394 L158.011074,130.38179 Z" id="Path" fill="#2F2E41"></path>
                        <path d="M196.3102,130.38179 L194.665452,132.026536 L193.725596,131.086682 L192.739552,127.634068 L191.61092,129.20697 C191.61092,129.20697 186.911642,128.502078 187.38157,133.43632 C187.38157,133.43632 186.676678,135.081068 190.671064,136.96078 C194.66545,138.840492 196.780128,140.015312 196.780128,140.015312 C196.780128,140.015312 200.539552,139.780348 200.539552,138.605528 C200.539552,137.430708 199.354882,129.453394 199.354882,129.453394 L196.3102,130.38179 Z" id="Path" fill="#2F2E41"></path>
                        <circle id="Oval" fill="#A0616A" cx="177.748046" cy="26.05779" r="6.813954"></circle>
                        <polygon id="Path" fill="#A0616A" points="175.6334 31.227 176.1032 39.2158 185.032 39.2158 182.4474 28.4074"></polygon>
                        <path d="M170.464164,35.926276 L177.748048,35.456348 L185.501848,35.926276 C185.501848,35.926276 192.080848,39.450736 188.55638,49.084258 C185.031912,58.71778 182.447316,61.772312 182.447316,61.772312 L174.92848,58.482816 L172.57884,58.482816 C172.57884,58.482816 171.873948,57.777924 171.638984,57.777924 C171.40402,57.777924 166.939704,58.482816 166.939704,58.482816 C166.939704,58.482816 165.764884,53.548574 167.409632,53.078646 C169.05438,52.608718 169.994232,50.024114 169.994232,50.024114 L170.464164,35.926276 Z" id="Path" fill="#D0CDE1"></path>
                        <polygon id="Path" fill="#D0CDE1" points="171.874 36.6312 170.4642 35.9262 165.53 47.4396 170.934 50.964"></polygon>
                        <path d="M167.997042,25.47038 C167.997042,25.47038 164.707548,17.011678 171.210526,16.202258 C171.210526,16.202258 179.409808,11.16563 184.679484,19.59628 L188.838274,29.861768 L187.448874,29.5856 L187.272522,30.968736 L185.499688,32.056336 L184.166274,30.678304 L184.386824,32.78786 L169.11151,39.27506 C169.11151,39.27506 174.87051,32.897676 172.648992,25.378698 L171.74717,27.219334 L167.997042,25.47038 Z" id="Path" fill="#2F2E41"></path>
                        <path d="M72.999904,130.116316 C72.14558,133.27441 69.219328,135.230298 69.219328,135.230298 C69.219328,135.230298 67.678208,132.065898 68.532528,128.907808 C69.386848,125.749718 72.313104,123.793826 72.313104,123.793826 C72.313104,123.793826 73.854228,126.958222 72.999904,130.116316 Z" id="Path" fill="#418CD2"></path>
                        <path d="M65.227938,130.116316 C66.082262,133.27441 69.008514,135.230298 69.008514,135.230298 C69.008514,135.230298 70.549634,132.065898 69.695314,128.907808 C68.840994,125.749718 65.914738,123.793826 65.914738,123.793826 C65.914738,123.793826 64.373614,126.958222 65.227938,130.116316 Z" id="Path" fill="#418CD2"></path>
                        <path d="M66.483308,129.437608 C68.827584,131.719668 69.113922,135.227724 69.113922,135.227724 C69.113922,135.227724 65.599432,135.035832 63.255156,132.753772 C60.91088,130.471712 60.624542,126.963656 60.624542,126.963656 C60.624542,126.963656 64.13903,127.155548 66.483308,129.437608 Z" id="Path" fill="#3F3D56"></path>
                        <path d="M71.744536,129.437608 C69.400258,131.719668 69.113922,135.227724 69.113922,135.227724 C69.113922,135.227724 72.62841,135.035832 74.972686,132.753772 C77.316962,130.471712 77.6033,126.963656 77.6033,126.963656 C77.6033,126.963656 74.088812,127.155548 71.744536,129.437608 Z" id="Path" fill="#3F3D56"></path>
                        <path d="M37.365128,16.969874 C39.134735,11.1730539 43.8641893,6.76178527 49.770028,5.399544 C44.1547924,-0.62328343 35.0254708,-1.74429072 28.1199124,2.74108388 C21.2143541,7.22645848 18.5267432,16.0229304 21.7462641,23.601849 C24.9657849,31.1807676 33.1627055,35.3534959 41.185198,33.497442 C37.0491848,29.0670964 35.5927559,22.7658437 37.365128,16.969874 Z" id="Path" fill="#418CD2"></path>
                        <path d="M61.071234,6.473298 C58.2234089,5.59974984 55.1951393,5.49534134 52.293912,6.170674 C56.428601,10.6017283 57.884853,16.9022279 56.1139769,22.6982519 C54.3431008,28.4942759 49.6142138,32.905012 43.70908,34.26857 C48.5736635,39.4842436 56.1810056,41.1003215 62.7457895,38.3126639 C69.3105735,35.5250062 73.4307428,28.9289797 73.0561537,21.8066833 C72.6815645,14.6843869 67.8922188,8.55694624 61.071234,6.473298 L61.071234,6.473298 Z" id="Path" fill="#3F3D56"></path>
                        <ellipse id="Oval" fill="#D0CDE1" transform="translate(46.559270, 19.778978) rotate(-73.010390) translate(-46.559270, -19.778978) " cx="46.5592703" cy="19.7789776" rx="14.690064" ry="8.482686"></ellipse>
                        <circle id="Oval" fill="#418CD2" cx="151.93955" cy="11.834068" r="3.6"></circle>
                        <circle id="Oval" fill="#418CD2" cx="142.13955" cy="26.634068" r="3.6"></circle>
                        <rect id="Rectangle" fill="#F2F2F2" x="1.73955" y="72.16297" width="65.814716" height="29.071098"></rect>
                        <rect id="Rectangle" fill="#418CD2" x="5.008782" y="70.209394" width="62.6647" height="5.560178"></rect>
                        <rect id="Rectangle" fill="#3F3D56" x="8.991072" y="72.238108" width="54.700122" height="1.50275"></rect>
                        <circle id="Oval" fill="#3F3D56" cx="36.265996" cy="72.914344" r="2.10385"></circle>
                        <rect id="Rectangle" fill="#418CD2" x="19.886014" y="80.127548" width="32.759964" height="15.628606"></rect>
                        <circle id="Oval" fill="#000000" opacity="0.15" cx="36.265996" cy="87.941852" r="3.005502"></circle>
                        <circle id="Oval" fill="#FFFFFF" opacity="0.3" cx="46.78525" cy="87.941852" r="3.005502"></circle>
                        <circle id="Oval" fill="#000000" opacity="0.3" cx="25.746742" cy="87.941852" r="3.005502"></circle>
                    </g>
                </g>
            </g>
        </g>
    </g>
</svg>