<svg xmlns="http://www.w3.org/2000/svg" width="549" height="446" viewBox="0 0 549 446">
    <g fill="none">
        <path fill="#3F3D56" d="M369.616 408.998c-25.534.068-51.044-1.61-76.352-5.021-.826-.106-1.663-.225-2.495-.35-6.212-.886-12.428-1.9-18.47-3.012-27.19-4.99-52.83-12.28-76.21-21.667-77.8-31.236-126.715-24.588-154.05-13.511C12.456 377.425 1.084 397.038.973 397.235L0 396.68c.113-.2 11.631-20.105 41.537-32.25 17.534-7.122 37.875-10.234 60.463-9.254 28.195 1.226 59.991 8.873 94.505 22.73 23.31 9.358 48.879 16.627 75.996 21.605 6.027 1.109 12.228 2.12 18.429 3.005.828.124 1.658.241 2.482.347 68.6 9.472 134.78 3.76 178.22-2.699 35.804-5.323 58.846-11.548 59.075-11.61l.293 1.084c-.229.062-23.329 6.303-59.205 11.637-33.828 5.057-67.978 7.638-102.179 7.723zM369.692 88c-19.723 0-38.924-.926-57.45-2.777-42.57-4.254-81.649-13.433-116.153-27.281C118.29 26.715 69.374 33.36 42.04 44.435 12.456 56.418 1.084 76.026.973 76.223L0 75.668c.113-.2 11.631-20.098 41.537-32.24C59.07 36.307 79.412 33.194 102 34.176c28.195 1.225 59.991 8.87 94.505 22.722 77.922 31.275 164.63 32.504 223.649 28.032 63.969-4.85 110.095-17.262 110.553-17.386l.293 1.083c-.459.125-46.668 12.56-110.737 17.42C403.108 87.35 386.217 88 369.693 88z"/>
        <path fill="#2F2E41" d="M367.472 5.362s-22.057-7.786-36.236 23.357C317.056 59.862 295 94.119 295 94.119l12.604 3.114s3.15-21.8 11.028-24.914l-3.15 28.028s94.527 32.7 137.065-3.114l-1.575-10.9s6.302 1.557 6.302 10.9L462 92.562s-4.726-9.343-18.906-21.8c-9.306-8.177-12.504-23.732-13.603-33.458-.824-8.12-4.111-15.806-9.431-22.048-9.423-10.793-26.593-22.265-52.588-9.894z"/>
        <path fill="#FBBEBE" d="M500.671 184s41.405 35.224 47.494 55.872c6.09 20.648-23.138 23.077-23.138 23.077l-63.326 6.073s-1.217 29.15-12.178 32.795c-10.96 3.643-2.225-48.205-2.225-48.205l61.898-17.384-28.01-29.15L500.671 184zM306.76 220l-4.772 64.74-26.24 109.934s-23.855 50.082-3.579 51.303c20.277 1.222 19.085-47.638 19.085-47.638l38.168-103.828L333 223.664 306.76 220z"/>
        <circle cx="376" cy="67" r="40" fill="#FBBEBE"/>
        <path fill="#FBBEBE" d="M356.546 87s14.533 52.754-8.478 66.249c-23.01 13.495 58.132 23.31 79.932-17.176 0 0-38.755-13.495-27.855-49.073h-43.6z"/>
        <path fill="#F04426" d="M328.185 158.42L320.63 156s-15.111 6.048-15.111 16.935c0 10.888-2.519 54.436-2.519 54.436L337 231l-8.815-72.58z"/>
        <path fill="#2F2E41" d="M470 401.25c-44.846 6.698-110.209 12.106-177.994 2.707-.006-.675-.006-1.334-.006-1.975 0-3.822.145-7.6.435-11.336 3.473-45.993 26.976-84.338 36.07-97.627.458-.675.883-1.283 1.262-1.823 1.468-2.077 2.323-3.174 2.323-3.174s70.46-1.16 106.903 13.535c1.758.744 3.366 1.804 4.746 3.13 13.588 12.64 21.572 53.682 26.261 96.563z"/>
        <path fill="#F04426" d="M446.138 140.985s15.465-8.518 30.931 9.736L508 187.228 484.207 214 439 186.011l7.138-45.026z"/>
        <path fill="#2F2E41" d="M330.444 67c14.166-10.325 25.632-22.217 33.218-36.364 0 0 25.996 29.091 41.882 30.546 15.887 1.454 1.445-34.91 1.445-34.91L378.104 19l-27.44 2.91L329 36.454 330.444 67z"/>
        <path fill="#F04426" d="M423.444 132s-17.104 26.923-68.44 14.07l-29.132 7.987L322 155.12s3.667 73.007 13.444 86.391c9.778 13.385 7.334 20.686 4.89 21.903-2.445 1.216-8.556-1.217-4.89 4.867 3.667 6.084 8.556 2.433 3.667 6.084-4.889 3.65-7.333 17.035-7.333 17.035L446.667 306s-3.667-47.455 6.11-71.79C462.557 209.874 465 200.14 465 200.14l-7.333-60.84-34.223-7.3z"/>
        <path fill="#E6E6E6" d="M29 109H185V305H29z"/>
        <path fill="#FFF" d="M38 125H72V147H38zM38 169H168V177H38zM38 189H168V197H38zM38 211H168V219H38zM38 231H168V239H38zM38 252H168V260H38z"/>
        <path fill="#F04426" d="M216 303.03c-.015 15.433-11.38 28.504-26.662 30.663-15.281 2.158-29.823-7.253-34.112-22.078-4.29-14.825 2.981-30.546 17.054-36.88 14.074-6.334 30.663-1.35 38.916 11.69 3.14 4.97 4.805 10.727 4.804 16.605z"/>
        <path fill="#FFF" d="M210 287.6L179.568 318C177.656 315.041 167 301.292 167 301.292c1.366-1.38 2.823-2.664 4.362-3.847l8.836 11.771L206.436 283c1.331 1.417 2.524 2.957 3.564 4.6z"/>
    </g>
</svg>
